%TF.GenerationSoftware,KiCad,Pcbnew,8.0.6*%
%TF.CreationDate,2025-01-31T14:28:37-05:00*%
%TF.ProjectId,LVDS_BeagleVFire_Cape,4c564453-5f42-4656-9167-6c6556466972,1*%
%TF.SameCoordinates,Original*%
%TF.FileFunction,Copper,L4,Bot*%
%TF.FilePolarity,Positive*%
%FSLAX46Y46*%
G04 Gerber Fmt 4.6, Leading zero omitted, Abs format (unit mm)*
G04 Created by KiCad (PCBNEW 8.0.6) date 2025-01-31 14:28:37*
%MOMM*%
%LPD*%
G01*
G04 APERTURE LIST*
%TA.AperFunction,ComponentPad*%
%ADD10R,1.700000X1.700000*%
%TD*%
%TA.AperFunction,ComponentPad*%
%ADD11O,1.700000X1.700000*%
%TD*%
%TA.AperFunction,ComponentPad*%
%ADD12C,4.000000*%
%TD*%
%TA.AperFunction,ComponentPad*%
%ADD13C,1.473200*%
%TD*%
%TA.AperFunction,ComponentPad*%
%ADD14C,1.448000*%
%TD*%
%TA.AperFunction,ViaPad*%
%ADD15C,0.500000*%
%TD*%
%TA.AperFunction,ViaPad*%
%ADD16C,0.600000*%
%TD*%
%TA.AperFunction,Conductor*%
%ADD17C,0.175260*%
%TD*%
%TA.AperFunction,Conductor*%
%ADD18C,0.250000*%
%TD*%
G04 APERTURE END LIST*
D10*
%TO.P,J2,1,Pin_1*%
%TO.N,/Discriminator Inputs/Port B/In15+*%
X71475000Y-56475000D03*
D11*
%TO.P,J2,2,Pin_2*%
%TO.N,/Discriminator Inputs/Port B/In15-*%
X71475000Y-53935000D03*
%TO.P,J2,3,Pin_3*%
%TO.N,/Discriminator Inputs/Port B/In14+*%
X74015000Y-56475000D03*
%TO.P,J2,4,Pin_4*%
%TO.N,/Discriminator Inputs/Port B/In14-*%
X74015000Y-53935000D03*
%TO.P,J2,5,Pin_5*%
%TO.N,/Discriminator Inputs/Port B/In13+*%
X76555000Y-56475000D03*
%TO.P,J2,6,Pin_6*%
%TO.N,/Discriminator Inputs/Port B/In13-*%
X76555000Y-53935000D03*
%TO.P,J2,7,Pin_7*%
%TO.N,/Discriminator Inputs/Port B/In12+*%
X79095000Y-56475000D03*
%TO.P,J2,8,Pin_8*%
%TO.N,/Discriminator Inputs/Port B/In12-*%
X79095000Y-53935000D03*
%TO.P,J2,9,Pin_9*%
%TO.N,/Discriminator Inputs/Port B/In11+*%
X81635000Y-56475000D03*
%TO.P,J2,10,Pin_10*%
%TO.N,/Discriminator Inputs/Port B/In11-*%
X81635000Y-53935000D03*
%TO.P,J2,11,Pin_11*%
%TO.N,/Discriminator Inputs/Port B/In10+*%
X84175000Y-56475000D03*
%TO.P,J2,12,Pin_12*%
%TO.N,/Discriminator Inputs/Port B/In10-*%
X84175000Y-53935000D03*
%TO.P,J2,13,Pin_13*%
%TO.N,/Discriminator Inputs/Port B/In9+*%
X86715000Y-56475000D03*
%TO.P,J2,14,Pin_14*%
%TO.N,/Discriminator Inputs/Port B/In9-*%
X86715000Y-53935000D03*
%TO.P,J2,15,Pin_15*%
%TO.N,/Discriminator Inputs/Port B/In8+*%
X89255000Y-56475000D03*
%TO.P,J2,16,Pin_16*%
%TO.N,/Discriminator Inputs/Port B/In8-*%
X89255000Y-53935000D03*
%TO.P,J2,17,Pin_17*%
%TO.N,/Discriminator Inputs/Port B/In7+*%
X91795000Y-56475000D03*
%TO.P,J2,18,Pin_18*%
%TO.N,/Discriminator Inputs/Port B/In7-*%
X91795000Y-53935000D03*
%TO.P,J2,19,Pin_19*%
%TO.N,/Discriminator Inputs/Port B/In6+*%
X94335000Y-56475000D03*
%TO.P,J2,20,Pin_20*%
%TO.N,/Discriminator Inputs/Port B/In6-*%
X94335000Y-53935000D03*
%TO.P,J2,21,Pin_21*%
%TO.N,/Discriminator Inputs/Port B/In5+*%
X96875000Y-56475000D03*
%TO.P,J2,22,Pin_22*%
%TO.N,/Discriminator Inputs/Port B/In5-*%
X96875000Y-53935000D03*
%TO.P,J2,23,Pin_23*%
%TO.N,/Discriminator Inputs/Port B/In4+*%
X99415000Y-56475000D03*
%TO.P,J2,24,Pin_24*%
%TO.N,/Discriminator Inputs/Port B/In4-*%
X99415000Y-53935000D03*
%TO.P,J2,25,Pin_25*%
%TO.N,/Discriminator Inputs/Port B/In3+*%
X101955000Y-56475000D03*
%TO.P,J2,26,Pin_26*%
%TO.N,/Discriminator Inputs/Port B/In3-*%
X101955000Y-53935000D03*
%TO.P,J2,27,Pin_27*%
%TO.N,/Discriminator Inputs/Port B/In2+*%
X104495000Y-56475000D03*
%TO.P,J2,28,Pin_28*%
%TO.N,/Discriminator Inputs/Port B/In2-*%
X104495000Y-53935000D03*
%TO.P,J2,29,Pin_29*%
%TO.N,/Discriminator Inputs/Port B/In1+*%
X107035000Y-56475000D03*
%TO.P,J2,30,Pin_30*%
%TO.N,/Discriminator Inputs/Port B/In1-*%
X107035000Y-53935000D03*
%TO.P,J2,31,Pin_31*%
%TO.N,/Discriminator Inputs/Port B/In0+*%
X109575000Y-56475000D03*
%TO.P,J2,32,Pin_32*%
%TO.N,/Discriminator Inputs/Port B/In0-*%
X109575000Y-53935000D03*
%TO.P,J2,33,Pin_33*%
%TO.N,unconnected-(J2-Pin_33-Pad33)*%
X112115000Y-56475000D03*
%TO.P,J2,34,Pin_34*%
%TO.N,unconnected-(J2-Pin_34-Pad34)*%
X112115000Y-53935000D03*
%TD*%
D10*
%TO.P,P2,1,Pin_1*%
%TO.N,GND*%
X63830000Y-77145000D03*
D11*
%TO.P,P2,2,Pin_2*%
X63830000Y-74605000D03*
%TO.P,P2,3,Pin_3*%
%TO.N,/B0_HSIO6N*%
X66370000Y-77145000D03*
%TO.P,P2,4,Pin_4*%
%TO.N,/B0_HSIO6P*%
X66370000Y-74605000D03*
%TO.P,P2,5,Pin_5*%
%TO.N,/B0_HSIO12N*%
X68910000Y-77145000D03*
%TO.P,P2,6,Pin_6*%
%TO.N,/B0_HSIO12P*%
X68910000Y-74605000D03*
%TO.P,P2,7,Pin_7*%
%TO.N,/B0_HSIO30N*%
X71450000Y-77145000D03*
%TO.P,P2,8,Pin_8*%
%TO.N,/B0_HSIO30P*%
X71450000Y-74605000D03*
%TO.P,P2,9,Pin_9*%
%TO.N,/B0_HSIO8N*%
X73990000Y-77145000D03*
%TO.P,P2,10,Pin_10*%
%TO.N,/B0_HSIO8P*%
X73990000Y-74605000D03*
%TO.P,P2,11,Pin_11*%
%TO.N,/B0_HSIO7N*%
X76530000Y-77145000D03*
%TO.P,P2,12,Pin_12*%
%TO.N,/B0_HSIO7P*%
X76530000Y-74605000D03*
%TO.P,P2,13,Pin_13*%
%TO.N,/B1_GPIO47N*%
X79070000Y-77145000D03*
%TO.P,P2,14,Pin_14*%
%TO.N,/B1_GPIO47P*%
X79070000Y-74605000D03*
%TO.P,P2,15,Pin_15*%
%TO.N,/TS_BUS_SEL0*%
X81610000Y-77145000D03*
%TO.P,P2,16,Pin_16*%
%TO.N,/TS_BUS_SEL1*%
X81610000Y-74605000D03*
%TO.P,P2,17,Pin_17*%
%TO.N,/TS_BUS_SEL3*%
X84150000Y-77145000D03*
%TO.P,P2,18,Pin_18*%
%TO.N,/TS_BUS_SEL2*%
X84150000Y-74605000D03*
%TO.P,P2,19,Pin_19*%
%TO.N,/B0_HSIO19N*%
X86690000Y-77145000D03*
%TO.P,P2,20,Pin_20*%
%TO.N,/B0_HSIO15N*%
X86690000Y-74605000D03*
%TO.P,P2,21,Pin_21*%
%TO.N,/B0_HSIO9P*%
X89230000Y-77145000D03*
%TO.P,P2,22,Pin_22*%
%TO.N,/B0_HSIO9N*%
X89230000Y-74605000D03*
%TO.P,P2,23,Pin_23*%
%TO.N,/B0_HSIO18P*%
X91770000Y-77145000D03*
%TO.P,P2,24,Pin_24*%
%TO.N,/B0_HSIO18N*%
X91770000Y-74605000D03*
%TO.P,P2,25,Pin_25*%
%TO.N,/B0_HSIO16P*%
X94310000Y-77145000D03*
%TO.P,P2,26,Pin_26*%
%TO.N,/B1_GPIO49N*%
X94310000Y-74605000D03*
%TO.P,P2,27,Pin_27*%
%TO.N,/D16*%
X96850000Y-77145000D03*
%TO.P,P2,28,Pin_28*%
%TO.N,/D17*%
X96850000Y-74605000D03*
%TO.P,P2,29,Pin_29*%
%TO.N,/D18*%
X99390000Y-77145000D03*
%TO.P,P2,30,Pin_30*%
%TO.N,/D19*%
X99390000Y-74605000D03*
%TO.P,P2,31,Pin_31*%
%TO.N,/D20*%
X101930000Y-77145000D03*
%TO.P,P2,32,Pin_32*%
%TO.N,/D21*%
X101930000Y-74605000D03*
%TO.P,P2,33,Pin_33*%
%TO.N,/D22*%
X104470000Y-77145000D03*
%TO.P,P2,34,Pin_34*%
%TO.N,/D23*%
X104470000Y-74605000D03*
%TO.P,P2,35,Pin_35*%
%TO.N,/D24*%
X107010000Y-77145000D03*
%TO.P,P2,36,Pin_36*%
%TO.N,/D25*%
X107010000Y-74605000D03*
%TO.P,P2,37,Pin_37*%
%TO.N,/D26*%
X109550000Y-77145000D03*
%TO.P,P2,38,Pin_38*%
%TO.N,/D27*%
X109550000Y-74605000D03*
%TO.P,P2,39,Pin_39*%
%TO.N,/D28*%
X112090000Y-77145000D03*
%TO.P,P2,40,Pin_40*%
%TO.N,/D29*%
X112090000Y-74605000D03*
%TO.P,P2,41,Pin_41*%
%TO.N,/D30*%
X114630000Y-77145000D03*
%TO.P,P2,42,Pin_42*%
%TO.N,/D31*%
X114630000Y-74605000D03*
%TO.P,P2,43,Pin_43*%
%TO.N,/NIM1*%
X117170000Y-77145000D03*
%TO.P,P2,44,Pin_44*%
%TO.N,/NIM0*%
X117170000Y-74605000D03*
%TO.P,P2,45,Pin_45*%
%TO.N,/NIM2*%
X119710000Y-77145000D03*
%TO.P,P2,46,Pin_46*%
%TO.N,/NIM3*%
X119710000Y-74605000D03*
%TD*%
D10*
%TO.P,P1,1,Pin_1*%
%TO.N,GND*%
X63830000Y-125405000D03*
D11*
%TO.P,P1,2,Pin_2*%
X63830000Y-122865000D03*
%TO.P,P1,3,Pin_3*%
%TO.N,+3V3*%
X66370000Y-125405000D03*
%TO.P,P1,4,Pin_4*%
X66370000Y-122865000D03*
%TO.P,P1,5,Pin_5*%
%TO.N,+5V*%
X68910000Y-125405000D03*
%TO.P,P1,6,Pin_6*%
X68910000Y-122865000D03*
%TO.P,P1,7,Pin_7*%
%TO.N,VBUS*%
X71450000Y-125405000D03*
%TO.P,P1,8,Pin_8*%
X71450000Y-122865000D03*
%TO.P,P1,9,Pin_9*%
%TO.N,unconnected-(P1-Pin_9-Pad9)*%
X73990000Y-125405000D03*
%TO.P,P1,10,Pin_10*%
%TO.N,~{SYS_RESET}*%
X73990000Y-122865000D03*
%TO.P,P1,11,Pin_11*%
%TO.N,/D1*%
X76530000Y-125405000D03*
%TO.P,P1,12,Pin_12*%
%TO.N,/D0*%
X76530000Y-122865000D03*
%TO.P,P1,13,Pin_13*%
%TO.N,/D3*%
X79070000Y-125405000D03*
%TO.P,P1,14,Pin_14*%
%TO.N,/D2*%
X79070000Y-122865000D03*
%TO.P,P1,15,Pin_15*%
%TO.N,/D5*%
X81610000Y-125405000D03*
%TO.P,P1,16,Pin_16*%
%TO.N,/D4*%
X81610000Y-122865000D03*
%TO.P,P1,17,Pin_17*%
%TO.N,/D7*%
X84150000Y-125405000D03*
%TO.P,P1,18,Pin_18*%
%TO.N,/D6*%
X84150000Y-122865000D03*
%TO.P,P1,19,Pin_19*%
%TO.N,/Fabric_I2C0_SDL*%
X86690000Y-125405000D03*
%TO.P,P1,20,Pin_20*%
%TO.N,/Fabric_I2C0_SDA*%
X86690000Y-122865000D03*
%TO.P,P1,21,Pin_21*%
%TO.N,/D9*%
X89230000Y-125405000D03*
%TO.P,P1,22,Pin_22*%
%TO.N,/D8*%
X89230000Y-122865000D03*
%TO.P,P1,23,Pin_23*%
%TO.N,/D11*%
X91770000Y-125405000D03*
%TO.P,P1,24,Pin_24*%
%TO.N,/D10*%
X91770000Y-122865000D03*
%TO.P,P1,25,Pin_25*%
%TO.N,/D13*%
X94310000Y-125405000D03*
%TO.P,P1,26,Pin_26*%
%TO.N,/D12*%
X94310000Y-122865000D03*
%TO.P,P1,27,Pin_27*%
%TO.N,/D15*%
X96850000Y-125405000D03*
%TO.P,P1,28,Pin_28*%
%TO.N,/D14*%
X96850000Y-122865000D03*
%TO.P,P1,29,Pin_29*%
%TO.N,/TS_BUS0*%
X99390000Y-125405000D03*
%TO.P,P1,30,Pin_30*%
%TO.N,/TS_BUS1*%
X99390000Y-122865000D03*
%TO.P,P1,31,Pin_31*%
%TO.N,/B1_GPIO4N*%
X101930000Y-125405000D03*
%TO.P,P1,32,Pin_32*%
%TO.N,+1V8*%
X101930000Y-122865000D03*
%TO.P,P1,33,Pin_33*%
%TO.N,/AIN4*%
X104470000Y-125405000D03*
%TO.P,P1,34,Pin_34*%
%TO.N,GNDA*%
X104470000Y-122865000D03*
%TO.P,P1,35,Pin_35*%
%TO.N,/AIN6*%
X107010000Y-125405000D03*
%TO.P,P1,36,Pin_36*%
%TO.N,/AIN5*%
X107010000Y-122865000D03*
%TO.P,P1,37,Pin_37*%
%TO.N,/AIN2*%
X109550000Y-125405000D03*
%TO.P,P1,38,Pin_38*%
%TO.N,/AIN3*%
X109550000Y-122865000D03*
%TO.P,P1,39,Pin_39*%
%TO.N,/AIN0*%
X112090000Y-125405000D03*
%TO.P,P1,40,Pin_40*%
%TO.N,/AIN1*%
X112090000Y-122865000D03*
%TO.P,P1,41,Pin_41*%
%TO.N,/TS_BUS3*%
X114630000Y-125405000D03*
%TO.P,P1,42,Pin_42*%
%TO.N,/TS_BUS2*%
X114630000Y-122865000D03*
%TO.P,P1,43,Pin_43*%
%TO.N,GND*%
X117170000Y-125405000D03*
%TO.P,P1,44,Pin_44*%
X117170000Y-122865000D03*
%TO.P,P1,45,Pin_45*%
X119710000Y-125405000D03*
%TO.P,P1,46,Pin_46*%
X119710000Y-122865000D03*
%TD*%
D12*
%TO.P,J9,3*%
%TO.N,N/C*%
X107400000Y-111367500D03*
X107400000Y-87367500D03*
X83400000Y-111367500D03*
X83400000Y-87367500D03*
%TD*%
D10*
%TO.P,J1,1,Pin_1*%
%TO.N,/Discriminator Inputs/Port A/In0+*%
X70800000Y-146000000D03*
D11*
%TO.P,J1,2,Pin_2*%
%TO.N,/Discriminator Inputs/Port A/In0-*%
X70800000Y-143460000D03*
%TO.P,J1,3,Pin_3*%
%TO.N,/Discriminator Inputs/Port A/In1+*%
X73340000Y-146000000D03*
%TO.P,J1,4,Pin_4*%
%TO.N,/Discriminator Inputs/Port A/In1-*%
X73340000Y-143460000D03*
%TO.P,J1,5,Pin_5*%
%TO.N,/Discriminator Inputs/Port A/In2+*%
X75880000Y-146000000D03*
%TO.P,J1,6,Pin_6*%
%TO.N,/Discriminator Inputs/Port A/In2-*%
X75880000Y-143460000D03*
%TO.P,J1,7,Pin_7*%
%TO.N,/Discriminator Inputs/Port A/In3+*%
X78420000Y-146000000D03*
%TO.P,J1,8,Pin_8*%
%TO.N,/Discriminator Inputs/Port A/In3-*%
X78420000Y-143460000D03*
%TO.P,J1,9,Pin_9*%
%TO.N,/Discriminator Inputs/Port A/In4+*%
X80960000Y-146000000D03*
%TO.P,J1,10,Pin_10*%
%TO.N,/Discriminator Inputs/Port A/In4-*%
X80960000Y-143460000D03*
%TO.P,J1,11,Pin_11*%
%TO.N,/Discriminator Inputs/Port A/In5+*%
X83500000Y-146000000D03*
%TO.P,J1,12,Pin_12*%
%TO.N,/Discriminator Inputs/Port A/In5-*%
X83500000Y-143460000D03*
%TO.P,J1,13,Pin_13*%
%TO.N,/Discriminator Inputs/Port A/In6+*%
X86040000Y-146000000D03*
%TO.P,J1,14,Pin_14*%
%TO.N,/Discriminator Inputs/Port A/In6-*%
X86040000Y-143460000D03*
%TO.P,J1,15,Pin_15*%
%TO.N,/Discriminator Inputs/Port A/In7+*%
X88580000Y-146000000D03*
%TO.P,J1,16,Pin_16*%
%TO.N,/Discriminator Inputs/Port A/In7-*%
X88580000Y-143460000D03*
%TO.P,J1,17,Pin_17*%
%TO.N,/Discriminator Inputs/Port A/In8+*%
X91120000Y-146000000D03*
%TO.P,J1,18,Pin_18*%
%TO.N,/Discriminator Inputs/Port A/In8-*%
X91120000Y-143460000D03*
%TO.P,J1,19,Pin_19*%
%TO.N,/Discriminator Inputs/Port A/In9+*%
X93660000Y-146000000D03*
%TO.P,J1,20,Pin_20*%
%TO.N,/Discriminator Inputs/Port A/In9-*%
X93660000Y-143460000D03*
%TO.P,J1,21,Pin_21*%
%TO.N,/Discriminator Inputs/Port A/In10+*%
X96200000Y-146000000D03*
%TO.P,J1,22,Pin_22*%
%TO.N,/Discriminator Inputs/Port A/In10-*%
X96200000Y-143460000D03*
%TO.P,J1,23,Pin_23*%
%TO.N,/Discriminator Inputs/Port A/In11+*%
X98740000Y-146000000D03*
%TO.P,J1,24,Pin_24*%
%TO.N,/Discriminator Inputs/Port A/In11-*%
X98740000Y-143460000D03*
%TO.P,J1,25,Pin_25*%
%TO.N,/Discriminator Inputs/Port A/In12+*%
X101280000Y-146000000D03*
%TO.P,J1,26,Pin_26*%
%TO.N,/Discriminator Inputs/Port A/In12-*%
X101280000Y-143460000D03*
%TO.P,J1,27,Pin_27*%
%TO.N,/Discriminator Inputs/Port A/In13+*%
X103820000Y-146000000D03*
%TO.P,J1,28,Pin_28*%
%TO.N,/Discriminator Inputs/Port A/In13-*%
X103820000Y-143460000D03*
%TO.P,J1,29,Pin_29*%
%TO.N,/Discriminator Inputs/Port A/In14+*%
X106360000Y-146000000D03*
%TO.P,J1,30,Pin_30*%
%TO.N,/Discriminator Inputs/Port A/In14-*%
X106360000Y-143460000D03*
%TO.P,J1,31,Pin_31*%
%TO.N,/Discriminator Inputs/Port A/In15+*%
X108900000Y-146000000D03*
%TO.P,J1,32,Pin_32*%
%TO.N,/Discriminator Inputs/Port A/In15-*%
X108900000Y-143460000D03*
%TO.P,J1,33,Pin_33*%
%TO.N,unconnected-(J1-Pin_33-Pad33)*%
X111440000Y-146000000D03*
%TO.P,J1,34,Pin_34*%
%TO.N,unconnected-(J1-Pin_34-Pad34)*%
X111440000Y-143460000D03*
%TD*%
D13*
%TO.P,J7,1,In*%
%TO.N,/Trigger Interface/NIM4+*%
X123800000Y-54800000D03*
%TO.P,J7,2,Ext*%
%TO.N,GND*%
X121260000Y-52260000D03*
X121260000Y-57340000D03*
X126340000Y-52260000D03*
X126340000Y-57340000D03*
%TD*%
%TO.P,J6,1,In*%
%TO.N,/Trigger Interface/NIM3+*%
X134400000Y-55000000D03*
%TO.P,J6,2,Ext*%
%TO.N,GND*%
X136940000Y-52460000D03*
X131860000Y-52460000D03*
X136940000Y-57540000D03*
X131860000Y-57540000D03*
%TD*%
%TO.P,J5,1,In*%
%TO.N,/Trigger Interface/NIM2+*%
X134400000Y-65000000D03*
%TO.P,J5,2,Ext*%
%TO.N,GND*%
X136940000Y-62460000D03*
X131860000Y-62460000D03*
X136940000Y-67540000D03*
X131860000Y-67540000D03*
%TD*%
D14*
%TO.P,J3,2_8,2_8*%
%TO.N,/Trigger Interface/D4-*%
X131095000Y-95885000D03*
%TO.P,J3,2_7,2_7*%
%TO.N,/Trigger Interface/D4+*%
X132875000Y-94869000D03*
%TO.P,J3,2_6,2_6*%
%TO.N,/Trigger Interface/D2-*%
X131095000Y-93853000D03*
%TO.P,J3,2_5,2_5*%
%TO.N,/Trigger Interface/D3+*%
X132875000Y-92837000D03*
%TO.P,J3,2_4,2_4*%
%TO.N,/Trigger Interface/D3-*%
X131095000Y-91821000D03*
%TO.P,J3,2_3,2_3*%
%TO.N,/Trigger Interface/D2+*%
X132875000Y-90805000D03*
%TO.P,J3,2_2,2_2*%
%TO.N,/Trigger Interface/D1-*%
X131095000Y-89789000D03*
%TO.P,J3,2_1,2_1*%
%TO.N,/Trigger Interface/D1+*%
X132875000Y-88773000D03*
%TO.P,J3,1_8,1_8*%
%TO.N,/Trigger Interface/D4-*%
X131095000Y-111635000D03*
%TO.P,J3,1_7,1_7*%
%TO.N,/Trigger Interface/D4+*%
X132875000Y-110619000D03*
%TO.P,J3,1_6,1_6*%
%TO.N,/Trigger Interface/D2-*%
X131095000Y-109603000D03*
%TO.P,J3,1_5,1_5*%
%TO.N,/Trigger Interface/D3+*%
X132875000Y-108587000D03*
%TO.P,J3,1_4,1_4*%
%TO.N,/Trigger Interface/D3-*%
X131095000Y-107571000D03*
%TO.P,J3,1_3,1_3*%
%TO.N,/Trigger Interface/D2+*%
X132875000Y-106555000D03*
%TO.P,J3,1_2,1_2*%
%TO.N,/Trigger Interface/D1-*%
X131095000Y-105539000D03*
%TO.P,J3,1_1,1_1*%
%TO.N,/Trigger Interface/D1+*%
X132875000Y-104523000D03*
%TD*%
D10*
%TO.P,J8,1,Pin_1*%
%TO.N,GNDX*%
X101930000Y-79685000D03*
D11*
%TO.P,J8,2,Pin_2*%
%TO.N,unconnected-(J8-Pin_2-Pad2)*%
X99390000Y-79685000D03*
%TO.P,J8,3,Pin_3*%
%TO.N,unconnected-(J8-Pin_3-Pad3)*%
X96850000Y-79685000D03*
%TO.P,J8,4,Pin_4*%
%TO.N,/RXD*%
X94310000Y-79685000D03*
%TO.P,J8,5,Pin_5*%
%TO.N,/TXD*%
X91770000Y-79685000D03*
%TO.P,J8,6,Pin_6*%
%TO.N,unconnected-(J8-Pin_6-Pad6)*%
X89230000Y-79685000D03*
%TD*%
D13*
%TO.P,J4,1,In*%
%TO.N,/Trigger Interface/NIM1+*%
X134400000Y-75000000D03*
%TO.P,J4,2,Ext*%
%TO.N,GND*%
X136940000Y-72460000D03*
X131860000Y-72460000D03*
X136940000Y-77540000D03*
X131860000Y-77540000D03*
%TD*%
D15*
%TO.N,/Trigger Interface/D2-*%
X136800000Y-105714770D03*
%TO.N,/Trigger Interface/D2+*%
X136800000Y-105085230D03*
%TO.N,/Trigger Interface/D3-*%
X126977423Y-105222577D03*
%TO.N,/Trigger Interface/D3+*%
X127422577Y-104777423D03*
D16*
%TO.N,+5V*%
X76600000Y-89000000D03*
X76000000Y-89600000D03*
%TO.N,GND*%
X123200000Y-99800000D03*
X116000000Y-61200000D03*
%TO.N,/TS_BUS_SEL0*%
X114800000Y-89600000D03*
%TO.N,/TS_BUS_SEL3*%
X115255000Y-110200000D03*
%TO.N,/TS_BUS_SEL2*%
X111800000Y-95600000D03*
X115000000Y-104200000D03*
%TO.N,/TS_BUS_SEL1*%
X115200000Y-96600000D03*
X110800000Y-93000000D03*
%TO.N,GND*%
X122400000Y-99800000D03*
X123600000Y-92200000D03*
X122400000Y-92800000D03*
X120400000Y-87000000D03*
X120400000Y-94000000D03*
X120400000Y-101000000D03*
%TO.N,+3V3*%
X122800000Y-87600000D03*
X122000000Y-87600000D03*
X122800000Y-94600000D03*
X122000000Y-94600000D03*
X123000000Y-101600000D03*
X122000000Y-101600000D03*
X123000000Y-108600000D03*
X122000000Y-108600000D03*
%TO.N,GND*%
X123064081Y-106778640D03*
X122400000Y-107000000D03*
X120400000Y-108000000D03*
X123064081Y-113778640D03*
X122400000Y-114000000D03*
%TO.N,/D25*%
X94600000Y-70600000D03*
%TO.N,/D26*%
X100952873Y-70847127D03*
%TO.N,/D29*%
X106600000Y-71000000D03*
%TO.N,/D23*%
X90400000Y-71000000D03*
%TO.N,/D21*%
X82600000Y-70600000D03*
%TO.N,/D19*%
X78400000Y-71000000D03*
%TO.N,/D17*%
X72400000Y-72400000D03*
%TO.N,GND*%
X95573430Y-70487800D03*
X88400000Y-129400000D03*
X125600000Y-70000000D03*
X75400000Y-87400000D03*
X83573430Y-70487800D03*
X125600000Y-61200000D03*
X76600000Y-87400000D03*
X76400000Y-129400000D03*
X76000000Y-88000000D03*
X112400000Y-129400000D03*
X72328430Y-71187650D03*
X71573430Y-70487800D03*
X67534830Y-67800000D03*
X103400000Y-67400000D03*
X107573430Y-70487800D03*
X115649187Y-64345825D03*
X108328430Y-71187650D03*
X84800000Y-129400000D03*
X125600000Y-66200000D03*
X96000000Y-128600000D03*
X84328430Y-71187650D03*
X72000000Y-128600000D03*
X125600000Y-64800000D03*
X115178640Y-64864081D03*
X91528430Y-67400000D03*
X108000000Y-128600000D03*
X72800000Y-129400000D03*
X100400000Y-129400000D03*
X84000000Y-128600000D03*
X108800000Y-129400000D03*
X76000000Y-86800000D03*
X79400000Y-67400000D03*
X96800000Y-129400000D03*
X96328430Y-71187650D03*
%TO.N,/D4*%
X79600000Y-128600000D03*
%TO.N,/D6*%
X85800000Y-128600000D03*
%TO.N,/D10*%
X97200000Y-128200000D03*
%TO.N,/D12*%
X102671658Y-128728342D03*
%TO.N,/D14*%
X109200000Y-128200000D03*
%TO.N,/D2*%
X73600000Y-128400000D03*
%TO.N,/D0*%
X68000000Y-129000000D03*
%TO.N,+3V3*%
X82200000Y-129400000D03*
X74173430Y-70487800D03*
X70800000Y-128600000D03*
X109528430Y-71187650D03*
X82800000Y-128600000D03*
X110173430Y-70487800D03*
X70200000Y-129400000D03*
X106200000Y-129400000D03*
X85528430Y-71187650D03*
X115600000Y-66800000D03*
X94200000Y-129400000D03*
X98173430Y-70487800D03*
X73528430Y-71187650D03*
X115200000Y-66200000D03*
X106800000Y-128600000D03*
X97528430Y-71187650D03*
X86173430Y-70487800D03*
X94800000Y-128600000D03*
%TO.N,+5V*%
X76600000Y-90200000D03*
X77200000Y-89600000D03*
%TO.N,/D8*%
X91000000Y-128600000D03*
%TO.N,~{SYS_RESET}*%
X78528430Y-68200000D03*
X114328430Y-68600000D03*
X90328430Y-68200000D03*
X79000000Y-129800000D03*
X91000000Y-129800000D03*
X103000000Y-129800000D03*
X102328430Y-68200000D03*
X117600000Y-71200000D03*
X67000000Y-129800000D03*
%TD*%
D17*
%TO.N,/Trigger Interface/D4-*%
X129891728Y-110923800D02*
X129463128Y-111352400D01*
%TO.N,/Trigger Interface/D4+*%
X132036170Y-96274846D02*
X132036170Y-95707830D01*
X126752400Y-109936872D02*
X126752400Y-108263128D01*
%TO.N,/Trigger Interface/D4-*%
X130383800Y-110923800D02*
X129891728Y-110923800D01*
%TO.N,/Trigger Interface/D4+*%
X131629401Y-96681615D02*
X132036170Y-96274846D01*
X127863128Y-111047600D02*
X126752400Y-109936872D01*
X131629401Y-103386127D02*
X131629401Y-96681615D01*
X129336872Y-111047600D02*
X127863128Y-111047600D01*
%TO.N,/Trigger Interface/D4-*%
X131095000Y-111635000D02*
X130383800Y-110923800D01*
%TO.N,/Trigger Interface/D4+*%
X126752400Y-108263128D02*
X131629401Y-103386127D01*
X132036170Y-95707830D02*
X132875000Y-94869000D01*
%TO.N,/Trigger Interface/D4-*%
X129463128Y-111352400D02*
X127736872Y-111352400D01*
%TO.N,/Trigger Interface/D4+*%
X129765472Y-110619000D02*
X129336872Y-111047600D01*
X132875000Y-110619000D02*
X129765472Y-110619000D01*
%TO.N,/Trigger Interface/D4-*%
X127736872Y-111352400D02*
X126447600Y-110063128D01*
X126447600Y-110063128D02*
X126447600Y-108136872D01*
X126447600Y-108136872D02*
X131324599Y-103259873D01*
X131324599Y-103259873D02*
X131324599Y-96114599D01*
X131324599Y-96114599D02*
X131095000Y-95885000D01*
%TO.N,/Trigger Interface/D2-*%
X133836630Y-92008416D02*
X133419615Y-91591401D01*
%TO.N,/Trigger Interface/D2+*%
X134102127Y-91286599D02*
X136202819Y-93387291D01*
%TO.N,/Trigger Interface/D2-*%
X132476679Y-93798630D02*
X133273321Y-93798630D01*
X131840309Y-93162260D02*
X132476679Y-93798630D01*
X131785740Y-93162260D02*
X131840309Y-93162260D01*
%TO.N,/Trigger Interface/D2+*%
X136202819Y-93387291D02*
X136202819Y-104686536D01*
%TO.N,/Trigger Interface/D2-*%
X136606491Y-105552400D02*
X136637630Y-105552400D01*
X131095000Y-93853000D02*
X131785740Y-93162260D01*
X133836630Y-93235321D02*
X133836630Y-92008416D01*
%TO.N,/Trigger Interface/D2+*%
X136601513Y-105085230D02*
X136800000Y-105085230D01*
%TO.N,/Trigger Interface/D2-*%
X133273321Y-93798630D02*
X133836630Y-93235321D01*
%TO.N,/Trigger Interface/D2+*%
X136202819Y-104686536D02*
X136601513Y-105085230D01*
X132875000Y-90805000D02*
X133356599Y-91286599D01*
X133356599Y-91286599D02*
X134102127Y-91286599D01*
%TO.N,/Trigger Interface/D2-*%
X133419615Y-91591401D02*
X133975873Y-91591401D01*
X133975873Y-91591401D02*
X135898019Y-93513547D01*
X135898019Y-93513547D02*
X135898019Y-104812789D01*
X135898019Y-104812789D02*
X136332830Y-105247600D01*
X136332830Y-105247600D02*
X136332830Y-105278739D01*
X136332830Y-105278739D02*
X136606491Y-105552400D01*
X136637630Y-105552400D02*
X136800000Y-105714770D01*
%TO.N,/Trigger Interface/D3+*%
X130510053Y-92837000D02*
X132875000Y-92837000D01*
X127422577Y-104777423D02*
X127192950Y-104777423D01*
%TO.N,/Trigger Interface/D3-*%
X126977423Y-105222577D02*
X126977423Y-104992950D01*
X129292236Y-93623764D02*
X131095000Y-91821000D01*
%TO.N,/Trigger Interface/D3+*%
X127192950Y-104777423D02*
X126752400Y-104336873D01*
X126752400Y-104336873D02*
X126752400Y-96663128D01*
%TO.N,/Trigger Interface/D3-*%
X126977423Y-104992950D02*
X126447600Y-104463127D01*
%TO.N,/Trigger Interface/D3+*%
X126752400Y-96663128D02*
X129590242Y-93825286D01*
X129590242Y-93825286D02*
X129590242Y-93756811D01*
%TO.N,/Trigger Interface/D3-*%
X129292236Y-93692236D02*
X129292236Y-93623764D01*
%TO.N,/Trigger Interface/D3+*%
X129590242Y-93756811D02*
X130510053Y-92837000D01*
%TO.N,/Trigger Interface/D3-*%
X126447600Y-104463127D02*
X126447600Y-96536872D01*
X126447600Y-96536872D02*
X129292236Y-93692236D01*
X131095000Y-107571000D02*
X131095000Y-107238053D01*
D18*
%TO.N,~{SYS_RESET}*%
X72815000Y-124040000D02*
X72815000Y-125701701D01*
X72815000Y-125701701D02*
X71716701Y-126800000D01*
X71716701Y-126800000D02*
X69176701Y-126800000D01*
X69176701Y-126800000D02*
X68576701Y-127400000D01*
%TO.N,/D0*%
X68000000Y-129000000D02*
X69516116Y-129000000D01*
X75355000Y-125701701D02*
X75355000Y-124040000D01*
X69516116Y-129000000D02*
X71116116Y-127400000D01*
X71116116Y-127400000D02*
X73656701Y-127400000D01*
X75355000Y-124040000D02*
X76530000Y-122865000D01*
X73656701Y-127400000D02*
X75355000Y-125701701D01*
%TO.N,~{SYS_RESET}*%
X67000000Y-129800000D02*
X66800000Y-129600000D01*
X66800000Y-127400000D02*
X68576701Y-127400000D01*
X66800000Y-129600000D02*
X66800000Y-127400000D01*
X72815000Y-124040000D02*
X73990000Y-122865000D01*
%TO.N,/TS_BUS_SEL0*%
X107800000Y-83800000D02*
X113600000Y-89600000D01*
X113600000Y-89600000D02*
X114800000Y-89600000D01*
X90400000Y-82400000D02*
X91800000Y-83800000D01*
X91800000Y-83800000D02*
X107800000Y-83800000D01*
%TO.N,/TS_BUS_SEL3*%
X115200000Y-110200000D02*
X115255000Y-110200000D01*
X115200000Y-109400000D02*
X118600000Y-106000000D01*
X118600000Y-89000000D02*
X118600000Y-106000000D01*
X88805000Y-81800000D02*
X111400000Y-81800000D01*
X84150000Y-77145000D02*
X88805000Y-81800000D01*
X111400000Y-81800000D02*
X118600000Y-89000000D01*
X115200000Y-109400000D02*
X115200000Y-110200000D01*
%TO.N,/TS_BUS_SEL2*%
X111800000Y-101000000D02*
X115000000Y-104200000D01*
X111800000Y-95600000D02*
X111800000Y-101000000D01*
%TO.N,/TS_BUS_SEL1*%
X114400000Y-96600000D02*
X115200000Y-96600000D01*
X110800000Y-93000000D02*
X114400000Y-96600000D01*
%TO.N,/D25*%
X104485000Y-72080000D02*
X107010000Y-74605000D01*
X94600000Y-70600000D02*
X96080000Y-72080000D01*
X96080000Y-72080000D02*
X104485000Y-72080000D01*
%TO.N,/D26*%
X100952873Y-70847127D02*
X104913828Y-70847127D01*
X104913828Y-70847127D02*
X108375000Y-74308299D01*
X108375000Y-74308299D02*
X108375000Y-75970000D01*
X108375000Y-75970000D02*
X109550000Y-77145000D01*
%TO.N,/D29*%
X106600000Y-71000000D02*
X108400000Y-72800000D01*
X110285000Y-72800000D02*
X112090000Y-74605000D01*
X108400000Y-72800000D02*
X110285000Y-72800000D01*
%TO.N,/D23*%
X102395000Y-72530000D02*
X104470000Y-74605000D01*
X90400000Y-71000000D02*
X91930000Y-72530000D01*
X91930000Y-72530000D02*
X102395000Y-72530000D01*
%TO.N,/D21*%
X82600000Y-70600000D02*
X84300000Y-72300000D01*
X96176903Y-72980000D02*
X100305000Y-72980000D01*
X84300000Y-72300000D02*
X86683097Y-72300000D01*
X86683097Y-72300000D02*
X87383097Y-73000000D01*
X87383097Y-73000000D02*
X96156903Y-73000000D01*
X96156903Y-73000000D02*
X96176903Y-72980000D01*
X100305000Y-72980000D02*
X101930000Y-74605000D01*
%TO.N,/D19*%
X78400000Y-71000000D02*
X80150000Y-72750000D01*
X80150000Y-72750000D02*
X85550000Y-72750000D01*
X87176701Y-73430000D02*
X88055000Y-74308299D01*
X98215000Y-73430000D02*
X99390000Y-74605000D01*
X85550000Y-72750000D02*
X86230000Y-73430000D01*
X86230000Y-73430000D02*
X87176701Y-73430000D01*
X88055000Y-74308299D02*
X88055000Y-75091701D01*
X94986701Y-75780000D02*
X95675000Y-75091701D01*
X88055000Y-75091701D02*
X88743299Y-75780000D01*
X88743299Y-75780000D02*
X94986701Y-75780000D01*
X95675000Y-75091701D02*
X95675000Y-74118299D01*
X95675000Y-74118299D02*
X96363299Y-73430000D01*
X96363299Y-73430000D02*
X98215000Y-73430000D01*
%TO.N,/D17*%
X72400000Y-72400000D02*
X73200000Y-73200000D01*
X73200000Y-73200000D02*
X84406701Y-73200000D01*
X84406701Y-73200000D02*
X85325000Y-74118299D01*
X85325000Y-74118299D02*
X85325000Y-77525000D01*
X85325000Y-77525000D02*
X86120000Y-78320000D01*
X86120000Y-78320000D02*
X94796701Y-78320000D01*
X94796701Y-78320000D02*
X95600000Y-77516701D01*
X95600000Y-77516701D02*
X95600000Y-75855000D01*
X95600000Y-75855000D02*
X96850000Y-74605000D01*
%TO.N,~{SYS_RESET}*%
X117600000Y-71200000D02*
X117000000Y-71200000D01*
X117000000Y-71200000D02*
X114000000Y-68200000D01*
X114000000Y-68200000D02*
X74800000Y-68200000D01*
X73000000Y-66400000D02*
X58400000Y-66400000D01*
X74800000Y-68200000D02*
X73000000Y-66400000D01*
X53600000Y-79400000D02*
X54400000Y-80200000D01*
X66400000Y-80200000D02*
X69400000Y-83200000D01*
X58400000Y-66400000D02*
X53600000Y-71200000D01*
X53600000Y-71200000D02*
X53600000Y-79400000D01*
X54400000Y-80200000D02*
X66400000Y-80200000D01*
X69400000Y-83200000D02*
X69400000Y-118275000D01*
X69400000Y-118275000D02*
X73990000Y-122865000D01*
%TO.N,/D4*%
X80435000Y-127765000D02*
X80435000Y-124040000D01*
X79600000Y-128600000D02*
X80435000Y-127765000D01*
X80435000Y-124040000D02*
X81610000Y-122865000D01*
%TO.N,/D6*%
X85515000Y-124230000D02*
X84150000Y-122865000D01*
X85800000Y-128600000D02*
X85515000Y-128315000D01*
X85515000Y-128315000D02*
X85515000Y-124230000D01*
%TO.N,/D10*%
X94600000Y-127400000D02*
X92945000Y-125745000D01*
X92945000Y-124040000D02*
X91770000Y-122865000D01*
X97200000Y-128200000D02*
X96400000Y-127400000D01*
X92945000Y-125745000D02*
X92945000Y-124040000D01*
X96400000Y-127400000D02*
X94600000Y-127400000D01*
%TO.N,/D12*%
X95485000Y-124040000D02*
X94310000Y-122865000D01*
X96363299Y-126580000D02*
X95485000Y-125701701D01*
X100523316Y-126580000D02*
X96363299Y-126580000D01*
X102671658Y-128728342D02*
X100523316Y-126580000D01*
X95485000Y-125701701D02*
X95485000Y-124040000D01*
%TO.N,/D14*%
X98025000Y-124040000D02*
X96850000Y-122865000D01*
X107306701Y-124040000D02*
X98025000Y-124040000D01*
X109200000Y-128200000D02*
X108185000Y-127185000D01*
X108185000Y-127185000D02*
X108185000Y-124918299D01*
X108185000Y-124918299D02*
X107306701Y-124040000D01*
%TO.N,/D2*%
X73600000Y-128400000D02*
X75196701Y-128400000D01*
X75196701Y-128400000D02*
X77800000Y-125796701D01*
X77800000Y-124135000D02*
X79070000Y-122865000D01*
X77800000Y-125796701D02*
X77800000Y-124135000D01*
%TO.N,/D8*%
X90595000Y-128195000D02*
X90595000Y-124230000D01*
X91000000Y-128600000D02*
X90595000Y-128195000D01*
X90595000Y-124230000D02*
X89230000Y-122865000D01*
%TO.N,/TS_BUS_SEL0*%
X86865000Y-82400000D02*
X90400000Y-82400000D01*
X81610000Y-77145000D02*
X86865000Y-82400000D01*
%TO.N,~{SYS_RESET}*%
X67225000Y-130025000D02*
X67000000Y-129800000D01*
X90775000Y-130025000D02*
X79225000Y-130025000D01*
X102775000Y-130025000D02*
X91225000Y-130025000D01*
X103000000Y-129800000D02*
X102775000Y-130025000D01*
X91225000Y-130025000D02*
X91000000Y-129800000D01*
X91000000Y-129800000D02*
X90775000Y-130025000D01*
X79000000Y-129800000D02*
X78775000Y-130025000D01*
X78775000Y-130025000D02*
X67225000Y-130025000D01*
X79225000Y-130025000D02*
X79000000Y-129800000D01*
%TD*%
M02*
