M48
; DRILL file {KiCad 8.0.5-dirty} date 2024-10-02T03:34:57-0400
; FORMAT={-:-/ absolute / inch / decimal}
; #@! TF.CreationDate,2024-10-02T03:34:57-04:00
; #@! TF.GenerationSoftware,Kicad,Pcbnew,8.0.5-dirty
; #@! TF.FileFunction,Plated,1,2,PTH
FMAT,2
INCH
; #@! TA.AperFunction,Plated,PTH,ViaDrill
T1C0.0118
; #@! TA.AperFunction,Plated,PTH,ViaDrill
T2C0.0157
; #@! TA.AperFunction,Plated,PTH,ComponentDrill
T3C0.0370
; #@! TA.AperFunction,Plated,PTH,ComponentDrill
T4C0.0380
; #@! TA.AperFunction,Plated,PTH,ComponentDrill
T5C0.0394
; #@! TA.AperFunction,Plated,PTH,ComponentDrill
T6C0.0591
; #@! TA.AperFunction,Plated,PTH,ComponentDrill
T7C0.0669
%
G90
G05
T1
X4.6795Y-4.2791
X4.7004Y-4.2582
X4.813Y-4.0419
X4.8524Y-4.0551
T2
X2.0571Y-3.0217
X2.1752Y-2.5886
X2.4016Y-2.7953
X2.6181Y-2.5886
X2.6608Y-3.7402
X2.6608Y-4.6894
X2.6772Y-5.0394
X2.7067Y-3.5138
X2.7067Y-5.2559
X2.7165Y-3.3465
X2.7559Y-5.0492
X2.8051Y-3.2185
X2.8543Y-3.7106
X2.8543Y-5.4528
X2.86Y-5.5291
X2.8622Y-3.7914
X2.8837Y-5.5054
X2.8839Y-3.2776
X2.8858Y-3.7677
X2.8937Y-5.0787
X2.9134Y-3.5433
X2.9134Y-5.2805
X2.9388Y-5.4995
X2.9409Y-3.7618
X2.9429Y-3.8386
X2.9429Y-5.5807
X2.9528Y-4.311
X2.9624Y-5.4759
X2.9646Y-3.7382
X3.0512Y-3.4547
X3.0512Y-3.8583
X3.0512Y-5.6004
X3.0906Y-4.5866
X3.129Y-2.6447
X3.1299Y-2.6772
X3.1299Y-3.7598
X3.134Y-2.7084
X3.1693Y-3.1299
X3.189Y-3.5138
X3.189Y-5.2559
X3.2283Y-4.311
X3.2537Y-5.5291
X3.2559Y-3.7914
X3.2677Y-5.0394
X3.2774Y-5.5054
X3.2795Y-3.7677
X3.3366Y-3.8583
X3.3366Y-5.6004
X3.3423Y-5.5291
X3.3445Y-3.7914
X3.366Y-5.5054
X3.3661Y-4.5866
X3.3681Y-3.7677
X3.3858Y-3.5433
X3.3858Y-5.2805
X3.4252Y-3.75
X3.435Y-5.4921
X3.4843Y-5.0787
X3.5039Y-4.311
X3.5531Y-2.5886
X3.563Y-3.8287
X3.6417Y-4.5709
X3.6614Y-3.5138
X3.6614Y-5.2559
X3.6909Y-5.468
X3.6931Y-3.7303
X3.7244Y-5.468
X3.7266Y-3.7303
X3.7402Y-3.8287
X3.75Y-5.561
X3.7795Y-2.5787
X3.7795Y-4.311
X3.7909Y-5.468
X3.7931Y-3.7303
X3.8244Y-5.468
X3.8266Y-3.7303
X3.8484Y-3.8386
X3.8484Y-5.5709
X3.8583Y-2.6161
X3.8583Y-2.6476
X3.8583Y-2.6791
X3.8583Y-3.5433
X3.8583Y-5.2805
X3.9075Y-4.5768
X4.1339Y-3.5138
X4.1339Y-5.2559
X4.1494Y-5.4857
X4.1516Y-3.748
X4.1535Y-3.8583
X4.1634Y-4.5571
X4.1731Y-5.5094
X4.1752Y-3.7717
X4.2202Y-2.665
X4.2421Y-2.8543
X4.2478Y-5.4956
X4.25Y-3.7579
X4.2715Y-5.5192
X4.2736Y-3.7815
X4.2815Y-2.6772
X4.3209Y-5.4823
X4.3307Y-3.5433
X4.3307Y-3.7402
X4.3307Y-5.2854
X4.4882Y-3.8091
X4.626Y-2.7461
X4.696Y-4.231
X4.7638Y-3.9272
X4.813Y-4.0833
X4.8425Y-5.502
X4.8524Y-2.7264
X4.8622Y-3.9075
X5.0591Y-3.9665
T3
X4.8004Y-3.5271
X4.8004Y-3.6071
X4.8004Y-3.6871
X4.8004Y-3.7671
X4.8004Y-4.1472
X4.8004Y-4.2272
X4.8004Y-4.3072
X4.8004Y-4.3872
X4.8705Y-3.4871
X4.8705Y-3.5671
X4.8705Y-3.6471
X4.8705Y-3.7271
X4.8705Y-4.1072
X4.8705Y-4.1872
X4.8705Y-4.2672
X4.8705Y-4.3472
T4
X2.4689Y-2.2622
X2.4689Y-2.4622
X2.5689Y-2.3622
X2.6689Y-2.2622
X2.6689Y-2.4622
X2.8626Y-2.2622
X2.8626Y-2.4622
X2.9626Y-2.3622
X3.0626Y-2.2622
X3.0626Y-2.4622
X4.0437Y-2.2622
X4.0437Y-2.4622
X4.1437Y-2.3622
X4.2437Y-2.2622
X4.2437Y-2.4622
X4.4374Y-2.2622
X4.4374Y-2.4622
X4.5374Y-2.3622
X4.6374Y-2.2622
X4.6374Y-2.4622
T5
X2.513Y-2.9372
X2.513Y-3.0372
X2.513Y-4.8372
X2.513Y-4.9372
X2.613Y-2.9372
X2.613Y-3.0372
X2.613Y-4.8372
X2.613Y-4.9372
X2.713Y-2.9372
X2.713Y-3.0372
X2.713Y-4.8372
X2.713Y-4.9372
X2.7931Y-5.6928
X2.7931Y-5.7928
X2.7953Y-3.9551
X2.7953Y-4.0551
X2.813Y-2.9372
X2.813Y-3.0372
X2.813Y-4.8372
X2.813Y-4.9372
X2.8931Y-5.6928
X2.8931Y-5.7928
X2.8953Y-3.9551
X2.8953Y-4.0551
X2.913Y-2.9372
X2.913Y-3.0372
X2.913Y-4.8372
X2.913Y-4.9372
X2.9931Y-5.6928
X2.9931Y-5.7928
X2.9953Y-3.9551
X2.9953Y-4.0551
X3.013Y-2.9372
X3.013Y-3.0372
X3.013Y-4.8372
X3.013Y-4.9372
X3.0931Y-5.6928
X3.0931Y-5.7928
X3.0953Y-3.9551
X3.0953Y-4.0551
X3.113Y-2.9372
X3.113Y-3.0372
X3.113Y-4.8372
X3.113Y-4.9372
X3.1931Y-5.6928
X3.1931Y-5.7928
X3.1953Y-3.9551
X3.1953Y-4.0551
X3.213Y-2.9372
X3.213Y-3.0372
X3.213Y-4.8372
X3.213Y-4.9372
X3.2931Y-5.6928
X3.2931Y-5.7928
X3.2953Y-3.9551
X3.2953Y-4.0551
X3.313Y-2.9372
X3.313Y-3.0372
X3.313Y-4.8372
X3.313Y-4.9372
X3.3931Y-5.6928
X3.3931Y-5.7928
X3.3953Y-3.9551
X3.3953Y-4.0551
X3.413Y-2.9372
X3.413Y-3.0372
X3.413Y-4.8372
X3.413Y-4.9372
X3.4931Y-5.6928
X3.4931Y-5.7928
X3.4953Y-3.9551
X3.4953Y-4.0551
X3.513Y-2.9372
X3.513Y-3.0372
X3.513Y-3.1372
X3.513Y-4.8372
X3.513Y-4.9372
X3.5931Y-5.6928
X3.5931Y-5.7928
X3.5953Y-3.9551
X3.5953Y-4.0551
X3.613Y-2.9372
X3.613Y-3.0372
X3.613Y-3.1372
X3.613Y-4.8372
X3.613Y-4.9372
X3.6931Y-5.6928
X3.6931Y-5.7928
X3.6953Y-3.9551
X3.6953Y-4.0551
X3.713Y-2.9372
X3.713Y-3.0372
X3.713Y-3.1372
X3.713Y-4.8372
X3.713Y-4.9372
X3.7931Y-5.6928
X3.7931Y-5.7928
X3.7953Y-3.9551
X3.7953Y-4.0551
X3.813Y-2.9372
X3.813Y-3.0372
X3.813Y-3.1372
X3.813Y-4.8372
X3.813Y-4.9372
X3.8931Y-5.6928
X3.8931Y-5.7928
X3.8953Y-3.9551
X3.8953Y-4.0551
X3.913Y-2.9372
X3.913Y-3.0372
X3.913Y-3.1372
X3.913Y-4.8372
X3.913Y-4.9372
X3.9931Y-5.6928
X3.9931Y-5.7928
X3.9953Y-3.9551
X3.9953Y-4.0551
X4.013Y-2.9372
X4.013Y-3.0372
X4.013Y-3.1372
X4.013Y-4.8372
X4.013Y-4.9372
X4.0931Y-5.6928
X4.0931Y-5.7928
X4.0953Y-3.9551
X4.0953Y-4.0551
X4.113Y-2.9372
X4.113Y-3.0372
X4.113Y-4.8372
X4.113Y-4.9372
X4.1931Y-5.6928
X4.1931Y-5.7928
X4.1953Y-3.9551
X4.1953Y-4.0551
X4.213Y-2.9372
X4.213Y-3.0372
X4.213Y-4.8372
X4.213Y-4.9372
X4.2931Y-5.6928
X4.2931Y-5.7928
X4.2953Y-3.9551
X4.2953Y-4.0551
X4.313Y-2.9372
X4.313Y-3.0372
X4.313Y-4.8372
X4.313Y-4.9372
X4.413Y-2.9372
X4.413Y-3.0372
X4.413Y-4.8372
X4.413Y-4.9372
X4.513Y-2.9372
X4.513Y-3.0372
X4.513Y-4.8372
X4.513Y-4.9372
X4.613Y-2.9372
X4.613Y-3.0372
X4.613Y-4.8372
X4.613Y-4.9372
X4.713Y-2.9372
X4.713Y-3.0372
X4.713Y-4.8372
X4.713Y-4.9372
T6
X2.1752Y-2.3622
X3.3563Y-2.3622
X3.75Y-2.3622
X4.9311Y-2.3622
T7
X2.0752Y-2.2622
X2.0752Y-2.4622
X2.2752Y-2.2622
X2.2752Y-2.4622
X3.2563Y-2.2622
X3.2563Y-2.4622
X3.4563Y-2.2622
X3.4563Y-2.4622
X3.65Y-2.2622
X3.65Y-2.4622
X3.85Y-2.2622
X3.85Y-2.4622
X4.8311Y-2.2622
X4.8311Y-2.4622
X5.0311Y-2.2622
X5.0311Y-2.4622
M30
