M48
; DRILL file {KiCad 8.0.6} date 2025-01-31T14:28:20-0500
; FORMAT={-:-/ absolute / inch / decimal}
; #@! TF.CreationDate,2025-01-31T14:28:20-05:00
; #@! TF.GenerationSoftware,Kicad,Pcbnew,8.0.6
; #@! TF.FileFunction,Plated,1,4,PTH
FMAT,2
INCH
; #@! TA.AperFunction,Plated,PTH,ViaDrill
T1C0.0118
; #@! TA.AperFunction,Plated,PTH,ViaDrill
T2C0.0157
; #@! TA.AperFunction,Plated,PTH,ComponentDrill
T3C0.0370
; #@! TA.AperFunction,Plated,PTH,ComponentDrill
T4C0.0380
; #@! TA.AperFunction,Plated,PTH,ComponentDrill
T5C0.0394
; #@! TA.AperFunction,Plated,PTH,ComponentDrill
T6C0.1260
%
G90
G05
T1
X4.9991Y-4.1426
X5.0166Y-4.1251
X5.3858Y-4.1372
X5.3858Y-4.162
T2
X2.6378Y-5.1102
X2.6589Y-2.6693
X2.6772Y-5.0787
X2.7638Y-5.0945
X2.7874Y-5.063
X2.8179Y-2.7751
X2.8346Y-5.063
X2.8476Y-2.8027
X2.8504Y-2.8504
X2.8661Y-5.0945
X2.8948Y-2.8027
X2.8976Y-5.0551
X2.9202Y-2.7751
X2.9685Y-3.4409
X2.9921Y-3.4173
X2.9921Y-3.4646
X2.9921Y-3.5276
X3.0079Y-5.0945
X3.0157Y-3.4409
X3.0157Y-3.5039
X3.0157Y-3.5512
X3.0394Y-3.5276
X3.0866Y-2.7953
X3.0917Y-2.685
X3.1102Y-5.1102
X3.126Y-2.6535
X3.1339Y-5.063
X3.2362Y-5.0945
X3.252Y-2.7795
X3.2598Y-5.063
X3.2903Y-2.7751
X3.3071Y-5.063
X3.32Y-2.8027
X3.3386Y-5.0945
X3.3673Y-2.8027
X3.378Y-5.063
X3.3927Y-2.7751
X3.4803Y-5.0945
X3.5562Y-2.685
X3.5591Y-2.7953
X3.5827Y-5.063
X3.5827Y-5.1102
X3.6035Y-2.6535
X3.7087Y-5.0945
X3.7244Y-2.7795
X3.7323Y-5.063
X3.7627Y-2.7751
X3.7795Y-5.063
X3.7925Y-2.8027
X3.811Y-5.0945
X3.8268Y-5.0472
X3.8397Y-2.8027
X3.8651Y-2.7751
X3.9528Y-5.0945
X3.9745Y-2.7893
X4.0287Y-2.685
X4.0422Y-5.068
X4.0551Y-5.1102
X4.0709Y-2.6535
X4.1811Y-5.0945
X4.1969Y-2.7953
X4.2047Y-5.063
X4.2352Y-2.7751
X4.252Y-5.063
X4.2649Y-2.8027
X4.2835Y-5.0945
X4.2992Y-5.0472
X4.3121Y-2.8027
X4.3375Y-2.7751
X4.3622Y-3.6614
X4.4016Y-3.7638
X4.4252Y-5.0945
X4.5011Y-2.7008
X4.5197Y-3.5276
X4.5276Y-4.1024
X4.5346Y-2.5537
X4.5354Y-2.6063
X4.5354Y-3.8031
X4.5376Y-4.3386
X4.5512Y-2.6299
X4.5531Y-2.5333
X4.5669Y-2.4094
X4.6299Y-2.8031
X4.7402Y-3.4252
X4.7402Y-3.7008
X4.7402Y-3.9764
X4.7402Y-4.252
X4.8031Y-3.4488
X4.8031Y-3.7244
X4.8031Y-4.0
X4.8031Y-4.2756
X4.8189Y-3.6535
X4.8189Y-3.9291
X4.8189Y-4.2126
X4.8189Y-4.4882
X4.8346Y-3.4488
X4.8346Y-3.7244
X4.8425Y-4.0
X4.8425Y-4.2756
X4.845Y-4.2039
X4.845Y-4.4795
X4.8504Y-3.9291
X4.8661Y-3.6299
X4.9449Y-2.4094
X4.9449Y-2.5512
X4.9449Y-2.6063
X4.9449Y-2.7559
T3
X5.1612Y-3.535
X5.1612Y-3.615
X5.1612Y-3.695
X5.1612Y-3.775
X5.1612Y-4.1551
X5.1612Y-4.2351
X5.1612Y-4.3151
X5.1612Y-4.3951
X5.2313Y-3.495
X5.2313Y-3.575
X5.2313Y-3.655
X5.2313Y-3.735
X5.2313Y-4.1151
X5.2313Y-4.1951
X5.2313Y-4.2751
X5.2313Y-4.3551
T4
X4.774Y-2.0575
X4.774Y-2.2575
X4.874Y-2.1575
X4.974Y-2.0575
X4.974Y-2.2575
X5.1913Y-2.0654
X5.1913Y-2.2654
X5.1913Y-2.4591
X5.1913Y-2.6591
X5.1913Y-2.8528
X5.1913Y-3.0528
X5.2913Y-2.1654
X5.2913Y-2.5591
X5.2913Y-2.9528
X5.3913Y-2.0654
X5.3913Y-2.2654
X5.3913Y-2.4591
X5.3913Y-2.6591
X5.3913Y-2.8528
X5.3913Y-3.0528
T5
X2.513Y-2.9372
X2.513Y-3.0372
X2.513Y-4.8372
X2.513Y-4.9372
X2.613Y-2.9372
X2.613Y-3.0372
X2.613Y-4.8372
X2.613Y-4.9372
X2.713Y-2.9372
X2.713Y-3.0372
X2.713Y-4.8372
X2.713Y-4.9372
X2.7874Y-5.648
X2.7874Y-5.748
X2.813Y-2.9372
X2.813Y-3.0372
X2.813Y-4.8372
X2.813Y-4.9372
X2.814Y-2.1234
X2.814Y-2.2234
X2.8874Y-5.648
X2.8874Y-5.748
X2.913Y-2.9372
X2.913Y-3.0372
X2.913Y-4.8372
X2.913Y-4.9372
X2.914Y-2.1234
X2.914Y-2.2234
X2.9874Y-5.648
X2.9874Y-5.748
X3.013Y-2.9372
X3.013Y-3.0372
X3.013Y-4.8372
X3.013Y-4.9372
X3.014Y-2.1234
X3.014Y-2.2234
X3.0874Y-5.648
X3.0874Y-5.748
X3.113Y-2.9372
X3.113Y-3.0372
X3.113Y-4.8372
X3.113Y-4.9372
X3.114Y-2.1234
X3.114Y-2.2234
X3.1874Y-5.648
X3.1874Y-5.748
X3.213Y-2.9372
X3.213Y-3.0372
X3.213Y-4.8372
X3.213Y-4.9372
X3.214Y-2.1234
X3.214Y-2.2234
X3.2874Y-5.648
X3.2874Y-5.748
X3.313Y-2.9372
X3.313Y-3.0372
X3.313Y-4.8372
X3.313Y-4.9372
X3.314Y-2.1234
X3.314Y-2.2234
X3.3874Y-5.648
X3.3874Y-5.748
X3.413Y-2.9372
X3.413Y-3.0372
X3.413Y-4.8372
X3.413Y-4.9372
X3.414Y-2.1234
X3.414Y-2.2234
X3.4874Y-5.648
X3.4874Y-5.748
X3.513Y-2.9372
X3.513Y-3.0372
X3.513Y-3.1372
X3.513Y-4.8372
X3.513Y-4.9372
X3.514Y-2.1234
X3.514Y-2.2234
X3.5874Y-5.648
X3.5874Y-5.748
X3.613Y-2.9372
X3.613Y-3.0372
X3.613Y-3.1372
X3.613Y-4.8372
X3.613Y-4.9372
X3.614Y-2.1234
X3.614Y-2.2234
X3.6874Y-5.648
X3.6874Y-5.748
X3.713Y-2.9372
X3.713Y-3.0372
X3.713Y-3.1372
X3.713Y-4.8372
X3.713Y-4.9372
X3.714Y-2.1234
X3.714Y-2.2234
X3.7874Y-5.648
X3.7874Y-5.748
X3.813Y-2.9372
X3.813Y-3.0372
X3.813Y-3.1372
X3.813Y-4.8372
X3.813Y-4.9372
X3.814Y-2.1234
X3.814Y-2.2234
X3.8874Y-5.648
X3.8874Y-5.748
X3.913Y-2.9372
X3.913Y-3.0372
X3.913Y-3.1372
X3.913Y-4.8372
X3.913Y-4.9372
X3.914Y-2.1234
X3.914Y-2.2234
X3.9874Y-5.648
X3.9874Y-5.748
X4.013Y-2.9372
X4.013Y-3.0372
X4.013Y-3.1372
X4.013Y-4.8372
X4.013Y-4.9372
X4.014Y-2.1234
X4.014Y-2.2234
X4.0874Y-5.648
X4.0874Y-5.748
X4.113Y-2.9372
X4.113Y-3.0372
X4.113Y-4.8372
X4.113Y-4.9372
X4.114Y-2.1234
X4.114Y-2.2234
X4.1874Y-5.648
X4.1874Y-5.748
X4.213Y-2.9372
X4.213Y-3.0372
X4.213Y-4.8372
X4.213Y-4.9372
X4.214Y-2.1234
X4.214Y-2.2234
X4.2874Y-5.648
X4.2874Y-5.748
X4.313Y-2.9372
X4.313Y-3.0372
X4.313Y-4.8372
X4.313Y-4.9372
X4.314Y-2.1234
X4.314Y-2.2234
X4.3874Y-5.648
X4.3874Y-5.748
X4.413Y-2.9372
X4.413Y-3.0372
X4.413Y-4.8372
X4.413Y-4.9372
X4.414Y-2.1234
X4.414Y-2.2234
X4.513Y-2.9372
X4.513Y-3.0372
X4.513Y-4.8372
X4.513Y-4.9372
X4.613Y-2.9372
X4.613Y-3.0372
X4.613Y-4.8372
X4.613Y-4.9372
X4.713Y-2.9372
X4.713Y-3.0372
X4.713Y-4.8372
X4.713Y-4.9372
T6
X3.2835Y-3.4397
X3.2835Y-4.3845
X4.2283Y-3.4397
X4.2283Y-4.3845
M30
