%TF.GenerationSoftware,KiCad,Pcbnew,9.0.0-9.0.0-2~ubuntu24.04.1*%
%TF.CreationDate,2025-03-19T11:47:18-04:00*%
%TF.ProjectId,LVDS_BeagleVFire_Cape,4c564453-5f42-4656-9167-6c6556466972,2*%
%TF.SameCoordinates,Original*%
%TF.FileFunction,Paste,Top*%
%TF.FilePolarity,Positive*%
%FSLAX46Y46*%
G04 Gerber Fmt 4.6, Leading zero omitted, Abs format (unit mm)*
G04 Created by KiCad (PCBNEW 9.0.0-9.0.0-2~ubuntu24.04.1) date 2025-03-19 11:47:18*
%MOMM*%
%LPD*%
G01*
G04 APERTURE LIST*
%ADD10R,1.295400X0.889000*%
%ADD11R,3.098800X2.209800*%
%ADD12O,1.450000X0.599999*%
%ADD13R,0.558800X2.184400*%
%ADD14R,2.184400X0.558800*%
G04 APERTURE END LIST*
%TO.C,C12*%
G36*
G01*
X122735000Y-107845000D02*
X122735000Y-108155000D01*
G75*
G02*
X122580000Y-108310000I-155000J0D01*
G01*
X122155000Y-108310000D01*
G75*
G02*
X122000000Y-108155000I0J155000D01*
G01*
X122000000Y-107845000D01*
G75*
G02*
X122155000Y-107690000I155000J0D01*
G01*
X122580000Y-107690000D01*
G75*
G02*
X122735000Y-107845000I0J-155000D01*
G01*
G37*
G36*
G01*
X121600000Y-107845000D02*
X121600000Y-108155000D01*
G75*
G02*
X121445000Y-108310000I-155000J0D01*
G01*
X121020000Y-108310000D01*
G75*
G02*
X120865000Y-108155000I0J155000D01*
G01*
X120865000Y-107845000D01*
G75*
G02*
X121020000Y-107690000I155000J0D01*
G01*
X121445000Y-107690000D01*
G75*
G02*
X121600000Y-107845000I0J-155000D01*
G01*
G37*
%TD*%
D10*
%TO.C,J9*%
X74914600Y-88266530D03*
X74914600Y-89516530D03*
D11*
X72164600Y-85716530D03*
X72164600Y-92066530D03*
%TD*%
D12*
%TO.C,U10*%
X116924999Y-95395000D03*
X116924999Y-96665000D03*
X116924999Y-97935000D03*
X116924999Y-99205000D03*
X122374998Y-99205000D03*
X122374998Y-97935000D03*
X122374998Y-96665000D03*
X122374998Y-95395000D03*
%TD*%
D13*
%TO.C,U1*%
X67000000Y-136250000D03*
X68270000Y-136250000D03*
X69540000Y-136250000D03*
X70810000Y-136250000D03*
X72080000Y-136250000D03*
X73350000Y-136250000D03*
X74620000Y-136250000D03*
X75890000Y-136250000D03*
X75890000Y-131525600D03*
X74620000Y-131525600D03*
X73350000Y-131525600D03*
X72080000Y-131525600D03*
X70810000Y-131525600D03*
X69540000Y-131525600D03*
X68270000Y-131525600D03*
X67000000Y-131525600D03*
%TD*%
%TO.C,C6*%
G36*
G01*
X97863430Y-70345000D02*
X97863430Y-70655000D01*
G75*
G02*
X97708430Y-70810000I-155000J0D01*
G01*
X97283430Y-70810000D01*
G75*
G02*
X97128430Y-70655000I0J155000D01*
G01*
X97128430Y-70345000D01*
G75*
G02*
X97283430Y-70190000I155000J0D01*
G01*
X97708430Y-70190000D01*
G75*
G02*
X97863430Y-70345000I0J-155000D01*
G01*
G37*
G36*
G01*
X96728430Y-70345000D02*
X96728430Y-70655000D01*
G75*
G02*
X96573430Y-70810000I-155000J0D01*
G01*
X96148430Y-70810000D01*
G75*
G02*
X95993430Y-70655000I0J155000D01*
G01*
X95993430Y-70345000D01*
G75*
G02*
X96148430Y-70190000I155000J0D01*
G01*
X96573430Y-70190000D01*
G75*
G02*
X96728430Y-70345000I0J-155000D01*
G01*
G37*
%TD*%
%TO.C,R2*%
G36*
G01*
X124640000Y-65845000D02*
X124960000Y-65845000D01*
G75*
G02*
X125120000Y-66005000I0J-160000D01*
G01*
X125120000Y-66400000D01*
G75*
G02*
X124960000Y-66560000I-160000J0D01*
G01*
X124640000Y-66560000D01*
G75*
G02*
X124480000Y-66400000I0J160000D01*
G01*
X124480000Y-66005000D01*
G75*
G02*
X124640000Y-65845000I160000J0D01*
G01*
G37*
G36*
G01*
X124640000Y-67040000D02*
X124960000Y-67040000D01*
G75*
G02*
X125120000Y-67200000I0J-160000D01*
G01*
X125120000Y-67595000D01*
G75*
G02*
X124960000Y-67755000I-160000J0D01*
G01*
X124640000Y-67755000D01*
G75*
G02*
X124480000Y-67595000I0J160000D01*
G01*
X124480000Y-67200000D01*
G75*
G02*
X124640000Y-67040000I160000J0D01*
G01*
G37*
%TD*%
%TO.C,U6*%
X101373430Y-63637800D03*
X100103430Y-63637800D03*
X98833430Y-63637800D03*
X97563430Y-63637800D03*
X96293430Y-63637800D03*
X95023430Y-63637800D03*
X93753430Y-63637800D03*
X92483430Y-63637800D03*
X92483430Y-68362200D03*
X93753430Y-68362200D03*
X95023430Y-68362200D03*
X96293430Y-68362200D03*
X97563430Y-68362200D03*
X98833430Y-68362200D03*
X100103430Y-68362200D03*
X101373430Y-68362200D03*
%TD*%
%TO.C,C11*%
G36*
G01*
X122735000Y-100845000D02*
X122735000Y-101155000D01*
G75*
G02*
X122580000Y-101310000I-155000J0D01*
G01*
X122155000Y-101310000D01*
G75*
G02*
X122000000Y-101155000I0J155000D01*
G01*
X122000000Y-100845000D01*
G75*
G02*
X122155000Y-100690000I155000J0D01*
G01*
X122580000Y-100690000D01*
G75*
G02*
X122735000Y-100845000I0J-155000D01*
G01*
G37*
G36*
G01*
X121600000Y-100845000D02*
X121600000Y-101155000D01*
G75*
G02*
X121445000Y-101310000I-155000J0D01*
G01*
X121020000Y-101310000D01*
G75*
G02*
X120865000Y-101155000I0J155000D01*
G01*
X120865000Y-100845000D01*
G75*
G02*
X121020000Y-100690000I155000J0D01*
G01*
X121445000Y-100690000D01*
G75*
G02*
X121600000Y-100845000I0J-155000D01*
G01*
G37*
%TD*%
%TO.C,U3*%
X91000000Y-136250000D03*
X92270000Y-136250000D03*
X93540000Y-136250000D03*
X94810000Y-136250000D03*
X96080000Y-136250000D03*
X97350000Y-136250000D03*
X98620000Y-136250000D03*
X99890000Y-136250000D03*
X99890000Y-131525600D03*
X98620000Y-131525600D03*
X97350000Y-131525600D03*
X96080000Y-131525600D03*
X94810000Y-131525600D03*
X93540000Y-131525600D03*
X92270000Y-131525600D03*
X91000000Y-131525600D03*
%TD*%
D12*
%TO.C,U9*%
X116924999Y-88320000D03*
X116924999Y-89590000D03*
X116924999Y-90860000D03*
X116924999Y-92130000D03*
X122374998Y-92130000D03*
X122374998Y-90860000D03*
X122374998Y-89590000D03*
X122374998Y-88320000D03*
%TD*%
%TO.C,C1*%
G36*
G01*
X70510000Y-129542800D02*
X70510000Y-129232800D01*
G75*
G02*
X70665000Y-129077800I155000J0D01*
G01*
X71090000Y-129077800D01*
G75*
G02*
X71245000Y-129232800I0J-155000D01*
G01*
X71245000Y-129542800D01*
G75*
G02*
X71090000Y-129697800I-155000J0D01*
G01*
X70665000Y-129697800D01*
G75*
G02*
X70510000Y-129542800I0J155000D01*
G01*
G37*
G36*
G01*
X71645000Y-129542800D02*
X71645000Y-129232800D01*
G75*
G02*
X71800000Y-129077800I155000J0D01*
G01*
X72225000Y-129077800D01*
G75*
G02*
X72380000Y-129232800I0J-155000D01*
G01*
X72380000Y-129542800D01*
G75*
G02*
X72225000Y-129697800I-155000J0D01*
G01*
X71800000Y-129697800D01*
G75*
G02*
X71645000Y-129542800I0J155000D01*
G01*
G37*
%TD*%
%TO.C,C10*%
G36*
G01*
X122735000Y-93845000D02*
X122735000Y-94155000D01*
G75*
G02*
X122580000Y-94310000I-155000J0D01*
G01*
X122155000Y-94310000D01*
G75*
G02*
X122000000Y-94155000I0J155000D01*
G01*
X122000000Y-93845000D01*
G75*
G02*
X122155000Y-93690000I155000J0D01*
G01*
X122580000Y-93690000D01*
G75*
G02*
X122735000Y-93845000I0J-155000D01*
G01*
G37*
G36*
G01*
X121600000Y-93845000D02*
X121600000Y-94155000D01*
G75*
G02*
X121445000Y-94310000I-155000J0D01*
G01*
X121020000Y-94310000D01*
G75*
G02*
X120865000Y-94155000I0J155000D01*
G01*
X120865000Y-93845000D01*
G75*
G02*
X121020000Y-93690000I155000J0D01*
G01*
X121445000Y-93690000D01*
G75*
G02*
X121600000Y-93845000I0J-155000D01*
G01*
G37*
%TD*%
D13*
%TO.C,U2*%
X79000000Y-136250000D03*
X80270000Y-136250000D03*
X81540000Y-136250000D03*
X82810000Y-136250000D03*
X84080000Y-136250000D03*
X85350000Y-136250000D03*
X86620000Y-136250000D03*
X87890000Y-136250000D03*
X87890000Y-131525600D03*
X86620000Y-131525600D03*
X85350000Y-131525600D03*
X84080000Y-131525600D03*
X82810000Y-131525600D03*
X81540000Y-131525600D03*
X80270000Y-131525600D03*
X79000000Y-131525600D03*
%TD*%
%TO.C,R4*%
G36*
G01*
X124960000Y-62755000D02*
X124640000Y-62755000D01*
G75*
G02*
X124480000Y-62595000I0J160000D01*
G01*
X124480000Y-62200000D01*
G75*
G02*
X124640000Y-62040000I160000J0D01*
G01*
X124960000Y-62040000D01*
G75*
G02*
X125120000Y-62200000I0J-160000D01*
G01*
X125120000Y-62595000D01*
G75*
G02*
X124960000Y-62755000I-160000J0D01*
G01*
G37*
G36*
G01*
X124960000Y-61560000D02*
X124640000Y-61560000D01*
G75*
G02*
X124480000Y-61400000I0J160000D01*
G01*
X124480000Y-61005000D01*
G75*
G02*
X124640000Y-60845000I160000J0D01*
G01*
X124960000Y-60845000D01*
G75*
G02*
X125120000Y-61005000I0J-160000D01*
G01*
X125120000Y-61400000D01*
G75*
G02*
X124960000Y-61560000I-160000J0D01*
G01*
G37*
%TD*%
%TO.C,U7*%
X89373430Y-63637800D03*
X88103430Y-63637800D03*
X86833430Y-63637800D03*
X85563430Y-63637800D03*
X84293430Y-63637800D03*
X83023430Y-63637800D03*
X81753430Y-63637800D03*
X80483430Y-63637800D03*
X80483430Y-68362200D03*
X81753430Y-68362200D03*
X83023430Y-68362200D03*
X84293430Y-68362200D03*
X85563430Y-68362200D03*
X86833430Y-68362200D03*
X88103430Y-68362200D03*
X89373430Y-68362200D03*
%TD*%
%TO.C,R1*%
G36*
G01*
X124960000Y-70355000D02*
X124640000Y-70355000D01*
G75*
G02*
X124480000Y-70195000I0J160000D01*
G01*
X124480000Y-69800000D01*
G75*
G02*
X124640000Y-69640000I160000J0D01*
G01*
X124960000Y-69640000D01*
G75*
G02*
X125120000Y-69800000I0J-160000D01*
G01*
X125120000Y-70195000D01*
G75*
G02*
X124960000Y-70355000I-160000J0D01*
G01*
G37*
G36*
G01*
X124960000Y-69160000D02*
X124640000Y-69160000D01*
G75*
G02*
X124480000Y-69000000I0J160000D01*
G01*
X124480000Y-68605000D01*
G75*
G02*
X124640000Y-68445000I160000J0D01*
G01*
X124960000Y-68445000D01*
G75*
G02*
X125120000Y-68605000I0J-160000D01*
G01*
X125120000Y-69000000D01*
G75*
G02*
X124960000Y-69160000I-160000J0D01*
G01*
G37*
%TD*%
%TO.C,C3*%
G36*
G01*
X94510000Y-129542800D02*
X94510000Y-129232800D01*
G75*
G02*
X94665000Y-129077800I155000J0D01*
G01*
X95090000Y-129077800D01*
G75*
G02*
X95245000Y-129232800I0J-155000D01*
G01*
X95245000Y-129542800D01*
G75*
G02*
X95090000Y-129697800I-155000J0D01*
G01*
X94665000Y-129697800D01*
G75*
G02*
X94510000Y-129542800I0J155000D01*
G01*
G37*
G36*
G01*
X95645000Y-129542800D02*
X95645000Y-129232800D01*
G75*
G02*
X95800000Y-129077800I155000J0D01*
G01*
X96225000Y-129077800D01*
G75*
G02*
X96380000Y-129232800I0J-155000D01*
G01*
X96380000Y-129542800D01*
G75*
G02*
X96225000Y-129697800I-155000J0D01*
G01*
X95800000Y-129697800D01*
G75*
G02*
X95645000Y-129542800I0J155000D01*
G01*
G37*
%TD*%
%TO.C,U5*%
X113373430Y-63637800D03*
X112103430Y-63637800D03*
X110833430Y-63637800D03*
X109563430Y-63637800D03*
X108293430Y-63637800D03*
X107023430Y-63637800D03*
X105753430Y-63637800D03*
X104483430Y-63637800D03*
X104483430Y-68362200D03*
X105753430Y-68362200D03*
X107023430Y-68362200D03*
X108293430Y-68362200D03*
X109563430Y-68362200D03*
X110833430Y-68362200D03*
X112103430Y-68362200D03*
X113373430Y-68362200D03*
%TD*%
%TO.C,C7*%
G36*
G01*
X85863430Y-70345000D02*
X85863430Y-70655000D01*
G75*
G02*
X85708430Y-70810000I-155000J0D01*
G01*
X85283430Y-70810000D01*
G75*
G02*
X85128430Y-70655000I0J155000D01*
G01*
X85128430Y-70345000D01*
G75*
G02*
X85283430Y-70190000I155000J0D01*
G01*
X85708430Y-70190000D01*
G75*
G02*
X85863430Y-70345000I0J-155000D01*
G01*
G37*
G36*
G01*
X84728430Y-70345000D02*
X84728430Y-70655000D01*
G75*
G02*
X84573430Y-70810000I-155000J0D01*
G01*
X84148430Y-70810000D01*
G75*
G02*
X83993430Y-70655000I0J155000D01*
G01*
X83993430Y-70345000D01*
G75*
G02*
X84148430Y-70190000I155000J0D01*
G01*
X84573430Y-70190000D01*
G75*
G02*
X84728430Y-70345000I0J-155000D01*
G01*
G37*
%TD*%
D12*
%TO.C,U12*%
X116924999Y-109395000D03*
X116924999Y-110665000D03*
X116924999Y-111935000D03*
X116924999Y-113205000D03*
X122374998Y-113205000D03*
X122374998Y-111935000D03*
X122374998Y-110665000D03*
X122374998Y-109395000D03*
%TD*%
D13*
%TO.C,U8*%
X77373430Y-63637800D03*
X76103430Y-63637800D03*
X74833430Y-63637800D03*
X73563430Y-63637800D03*
X72293430Y-63637800D03*
X71023430Y-63637800D03*
X69753430Y-63637800D03*
X68483430Y-63637800D03*
X68483430Y-68362200D03*
X69753430Y-68362200D03*
X71023430Y-68362200D03*
X72293430Y-68362200D03*
X73563430Y-68362200D03*
X74833430Y-68362200D03*
X76103430Y-68362200D03*
X77373430Y-68362200D03*
%TD*%
%TO.C,C2*%
G36*
G01*
X82510000Y-129542800D02*
X82510000Y-129232800D01*
G75*
G02*
X82665000Y-129077800I155000J0D01*
G01*
X83090000Y-129077800D01*
G75*
G02*
X83245000Y-129232800I0J-155000D01*
G01*
X83245000Y-129542800D01*
G75*
G02*
X83090000Y-129697800I-155000J0D01*
G01*
X82665000Y-129697800D01*
G75*
G02*
X82510000Y-129542800I0J155000D01*
G01*
G37*
G36*
G01*
X83645000Y-129542800D02*
X83645000Y-129232800D01*
G75*
G02*
X83800000Y-129077800I155000J0D01*
G01*
X84225000Y-129077800D01*
G75*
G02*
X84380000Y-129232800I0J-155000D01*
G01*
X84380000Y-129542800D01*
G75*
G02*
X84225000Y-129697800I-155000J0D01*
G01*
X83800000Y-129697800D01*
G75*
G02*
X83645000Y-129542800I0J155000D01*
G01*
G37*
%TD*%
%TO.C,C5*%
G36*
G01*
X109863430Y-70345000D02*
X109863430Y-70655000D01*
G75*
G02*
X109708430Y-70810000I-155000J0D01*
G01*
X109283430Y-70810000D01*
G75*
G02*
X109128430Y-70655000I0J155000D01*
G01*
X109128430Y-70345000D01*
G75*
G02*
X109283430Y-70190000I155000J0D01*
G01*
X109708430Y-70190000D01*
G75*
G02*
X109863430Y-70345000I0J-155000D01*
G01*
G37*
G36*
G01*
X108728430Y-70345000D02*
X108728430Y-70655000D01*
G75*
G02*
X108573430Y-70810000I-155000J0D01*
G01*
X108148430Y-70810000D01*
G75*
G02*
X107993430Y-70655000I0J155000D01*
G01*
X107993430Y-70345000D01*
G75*
G02*
X108148430Y-70190000I155000J0D01*
G01*
X108573430Y-70190000D01*
G75*
G02*
X108728430Y-70345000I0J-155000D01*
G01*
G37*
%TD*%
%TO.C,C17*%
G36*
G01*
X116155000Y-66535000D02*
X115845000Y-66535000D01*
G75*
G02*
X115690000Y-66380000I0J155000D01*
G01*
X115690000Y-65955000D01*
G75*
G02*
X115845000Y-65800000I155000J0D01*
G01*
X116155000Y-65800000D01*
G75*
G02*
X116310000Y-65955000I0J-155000D01*
G01*
X116310000Y-66380000D01*
G75*
G02*
X116155000Y-66535000I-155000J0D01*
G01*
G37*
G36*
G01*
X116155000Y-65400000D02*
X115845000Y-65400000D01*
G75*
G02*
X115690000Y-65245000I0J155000D01*
G01*
X115690000Y-64820000D01*
G75*
G02*
X115845000Y-64665000I155000J0D01*
G01*
X116155000Y-64665000D01*
G75*
G02*
X116310000Y-64820000I0J-155000D01*
G01*
X116310000Y-65245000D01*
G75*
G02*
X116155000Y-65400000I-155000J0D01*
G01*
G37*
%TD*%
%TO.C,C4*%
G36*
G01*
X106510000Y-129542800D02*
X106510000Y-129232800D01*
G75*
G02*
X106665000Y-129077800I155000J0D01*
G01*
X107090000Y-129077800D01*
G75*
G02*
X107245000Y-129232800I0J-155000D01*
G01*
X107245000Y-129542800D01*
G75*
G02*
X107090000Y-129697800I-155000J0D01*
G01*
X106665000Y-129697800D01*
G75*
G02*
X106510000Y-129542800I0J155000D01*
G01*
G37*
G36*
G01*
X107645000Y-129542800D02*
X107645000Y-129232800D01*
G75*
G02*
X107800000Y-129077800I155000J0D01*
G01*
X108225000Y-129077800D01*
G75*
G02*
X108380000Y-129232800I0J-155000D01*
G01*
X108380000Y-129542800D01*
G75*
G02*
X108225000Y-129697800I-155000J0D01*
G01*
X107800000Y-129697800D01*
G75*
G02*
X107645000Y-129542800I0J155000D01*
G01*
G37*
%TD*%
D14*
%TO.C,U13*%
X122762200Y-70045000D03*
X122762200Y-68775000D03*
X122762200Y-67505000D03*
X122762200Y-66235000D03*
X122762200Y-64965000D03*
X122762200Y-63695000D03*
X122762200Y-62425000D03*
X122762200Y-61155000D03*
X118037800Y-61155000D03*
X118037800Y-62425000D03*
X118037800Y-63695000D03*
X118037800Y-64965000D03*
X118037800Y-66235000D03*
X118037800Y-67505000D03*
X118037800Y-68775000D03*
X118037800Y-70045000D03*
%TD*%
%TO.C,C9*%
G36*
G01*
X122735000Y-86845000D02*
X122735000Y-87155000D01*
G75*
G02*
X122580000Y-87310000I-155000J0D01*
G01*
X122155000Y-87310000D01*
G75*
G02*
X122000000Y-87155000I0J155000D01*
G01*
X122000000Y-86845000D01*
G75*
G02*
X122155000Y-86690000I155000J0D01*
G01*
X122580000Y-86690000D01*
G75*
G02*
X122735000Y-86845000I0J-155000D01*
G01*
G37*
G36*
G01*
X121600000Y-86845000D02*
X121600000Y-87155000D01*
G75*
G02*
X121445000Y-87310000I-155000J0D01*
G01*
X121020000Y-87310000D01*
G75*
G02*
X120865000Y-87155000I0J155000D01*
G01*
X120865000Y-86845000D01*
G75*
G02*
X121020000Y-86690000I155000J0D01*
G01*
X121445000Y-86690000D01*
G75*
G02*
X121600000Y-86845000I0J-155000D01*
G01*
G37*
%TD*%
D13*
%TO.C,U4*%
X103000000Y-136250000D03*
X104270000Y-136250000D03*
X105540000Y-136250000D03*
X106810000Y-136250000D03*
X108080000Y-136250000D03*
X109350000Y-136250000D03*
X110620000Y-136250000D03*
X111890000Y-136250000D03*
X111890000Y-131525600D03*
X110620000Y-131525600D03*
X109350000Y-131525600D03*
X108080000Y-131525600D03*
X106810000Y-131525600D03*
X105540000Y-131525600D03*
X104270000Y-131525600D03*
X103000000Y-131525600D03*
%TD*%
%TO.C,C8*%
G36*
G01*
X73863430Y-70345000D02*
X73863430Y-70655000D01*
G75*
G02*
X73708430Y-70810000I-155000J0D01*
G01*
X73283430Y-70810000D01*
G75*
G02*
X73128430Y-70655000I0J155000D01*
G01*
X73128430Y-70345000D01*
G75*
G02*
X73283430Y-70190000I155000J0D01*
G01*
X73708430Y-70190000D01*
G75*
G02*
X73863430Y-70345000I0J-155000D01*
G01*
G37*
G36*
G01*
X72728430Y-70345000D02*
X72728430Y-70655000D01*
G75*
G02*
X72573430Y-70810000I-155000J0D01*
G01*
X72148430Y-70810000D01*
G75*
G02*
X71993430Y-70655000I0J155000D01*
G01*
X71993430Y-70345000D01*
G75*
G02*
X72148430Y-70190000I155000J0D01*
G01*
X72573430Y-70190000D01*
G75*
G02*
X72728430Y-70345000I0J-155000D01*
G01*
G37*
%TD*%
D12*
%TO.C,U11*%
X116924999Y-102395000D03*
X116924999Y-103665000D03*
X116924999Y-104935000D03*
X116924999Y-106205000D03*
X122374998Y-106205000D03*
X122374998Y-104935000D03*
X122374998Y-103665000D03*
X122374998Y-102395000D03*
%TD*%
%TO.C,R3*%
G36*
G01*
X124640000Y-63245000D02*
X124960000Y-63245000D01*
G75*
G02*
X125120000Y-63405000I0J-160000D01*
G01*
X125120000Y-63800000D01*
G75*
G02*
X124960000Y-63960000I-160000J0D01*
G01*
X124640000Y-63960000D01*
G75*
G02*
X124480000Y-63800000I0J160000D01*
G01*
X124480000Y-63405000D01*
G75*
G02*
X124640000Y-63245000I160000J0D01*
G01*
G37*
G36*
G01*
X124640000Y-64440000D02*
X124960000Y-64440000D01*
G75*
G02*
X125120000Y-64600000I0J-160000D01*
G01*
X125120000Y-64995000D01*
G75*
G02*
X124960000Y-65155000I-160000J0D01*
G01*
X124640000Y-65155000D01*
G75*
G02*
X124480000Y-64995000I0J160000D01*
G01*
X124480000Y-64600000D01*
G75*
G02*
X124640000Y-64440000I160000J0D01*
G01*
G37*
%TD*%
M02*
