%TF.GenerationSoftware,KiCad,Pcbnew,8.0.6*%
%TF.CreationDate,2025-01-31T14:28:37-05:00*%
%TF.ProjectId,LVDS_BeagleVFire_Cape,4c564453-5f42-4656-9167-6c6556466972,1*%
%TF.SameCoordinates,Original*%
%TF.FileFunction,Copper,L1,Top*%
%TF.FilePolarity,Positive*%
%FSLAX46Y46*%
G04 Gerber Fmt 4.6, Leading zero omitted, Abs format (unit mm)*
G04 Created by KiCad (PCBNEW 8.0.6) date 2025-01-31 14:28:37*
%MOMM*%
%LPD*%
G01*
G04 APERTURE LIST*
G04 Aperture macros list*
%AMRoundRect*
0 Rectangle with rounded corners*
0 $1 Rounding radius*
0 $2 $3 $4 $5 $6 $7 $8 $9 X,Y pos of 4 corners*
0 Add a 4 corners polygon primitive as box body*
4,1,4,$2,$3,$4,$5,$6,$7,$8,$9,$2,$3,0*
0 Add four circle primitives for the rounded corners*
1,1,$1+$1,$2,$3*
1,1,$1+$1,$4,$5*
1,1,$1+$1,$6,$7*
1,1,$1+$1,$8,$9*
0 Add four rect primitives between the rounded corners*
20,1,$1+$1,$2,$3,$4,$5,0*
20,1,$1+$1,$4,$5,$6,$7,0*
20,1,$1+$1,$6,$7,$8,$9,0*
20,1,$1+$1,$8,$9,$2,$3,0*%
G04 Aperture macros list end*
%TA.AperFunction,ComponentPad*%
%ADD10R,1.700000X1.700000*%
%TD*%
%TA.AperFunction,ComponentPad*%
%ADD11O,1.700000X1.700000*%
%TD*%
%TA.AperFunction,SMDPad,CuDef*%
%ADD12RoundRect,0.155000X0.212500X0.155000X-0.212500X0.155000X-0.212500X-0.155000X0.212500X-0.155000X0*%
%TD*%
%TA.AperFunction,ComponentPad*%
%ADD13C,4.000000*%
%TD*%
%TA.AperFunction,SMDPad,CuDef*%
%ADD14R,3.098800X2.209800*%
%TD*%
%TA.AperFunction,SMDPad,CuDef*%
%ADD15R,1.295400X0.889000*%
%TD*%
%TA.AperFunction,SMDPad,CuDef*%
%ADD16O,1.450000X0.599999*%
%TD*%
%TA.AperFunction,SMDPad,CuDef*%
%ADD17R,0.558800X2.184400*%
%TD*%
%TA.AperFunction,SMDPad,CuDef*%
%ADD18RoundRect,0.160000X-0.160000X0.197500X-0.160000X-0.197500X0.160000X-0.197500X0.160000X0.197500X0*%
%TD*%
%TA.AperFunction,SMDPad,CuDef*%
%ADD19RoundRect,0.155000X-0.212500X-0.155000X0.212500X-0.155000X0.212500X0.155000X-0.212500X0.155000X0*%
%TD*%
%TA.AperFunction,SMDPad,CuDef*%
%ADD20RoundRect,0.160000X0.160000X-0.197500X0.160000X0.197500X-0.160000X0.197500X-0.160000X-0.197500X0*%
%TD*%
%TA.AperFunction,ComponentPad*%
%ADD21C,1.473200*%
%TD*%
%TA.AperFunction,SMDPad,CuDef*%
%ADD22RoundRect,0.155000X0.155000X-0.212500X0.155000X0.212500X-0.155000X0.212500X-0.155000X-0.212500X0*%
%TD*%
%TA.AperFunction,ComponentPad*%
%ADD23C,1.448000*%
%TD*%
%TA.AperFunction,SMDPad,CuDef*%
%ADD24R,2.184400X0.558800*%
%TD*%
%TA.AperFunction,ViaPad*%
%ADD25C,0.500000*%
%TD*%
%TA.AperFunction,ViaPad*%
%ADD26C,0.600000*%
%TD*%
%TA.AperFunction,Conductor*%
%ADD27C,0.175260*%
%TD*%
%TA.AperFunction,Conductor*%
%ADD28C,0.762000*%
%TD*%
%TA.AperFunction,Conductor*%
%ADD29C,0.250000*%
%TD*%
%TA.AperFunction,Conductor*%
%ADD30C,0.381000*%
%TD*%
G04 APERTURE END LIST*
D10*
%TO.P,J2,1,Pin_1*%
%TO.N,/Discriminator Inputs/Port B/In15+*%
X71475000Y-56475000D03*
D11*
%TO.P,J2,2,Pin_2*%
%TO.N,/Discriminator Inputs/Port B/In15-*%
X71475000Y-53935000D03*
%TO.P,J2,3,Pin_3*%
%TO.N,/Discriminator Inputs/Port B/In14+*%
X74015000Y-56475000D03*
%TO.P,J2,4,Pin_4*%
%TO.N,/Discriminator Inputs/Port B/In14-*%
X74015000Y-53935000D03*
%TO.P,J2,5,Pin_5*%
%TO.N,/Discriminator Inputs/Port B/In13+*%
X76555000Y-56475000D03*
%TO.P,J2,6,Pin_6*%
%TO.N,/Discriminator Inputs/Port B/In13-*%
X76555000Y-53935000D03*
%TO.P,J2,7,Pin_7*%
%TO.N,/Discriminator Inputs/Port B/In12+*%
X79095000Y-56475000D03*
%TO.P,J2,8,Pin_8*%
%TO.N,/Discriminator Inputs/Port B/In12-*%
X79095000Y-53935000D03*
%TO.P,J2,9,Pin_9*%
%TO.N,/Discriminator Inputs/Port B/In11+*%
X81635000Y-56475000D03*
%TO.P,J2,10,Pin_10*%
%TO.N,/Discriminator Inputs/Port B/In11-*%
X81635000Y-53935000D03*
%TO.P,J2,11,Pin_11*%
%TO.N,/Discriminator Inputs/Port B/In10+*%
X84175000Y-56475000D03*
%TO.P,J2,12,Pin_12*%
%TO.N,/Discriminator Inputs/Port B/In10-*%
X84175000Y-53935000D03*
%TO.P,J2,13,Pin_13*%
%TO.N,/Discriminator Inputs/Port B/In9+*%
X86715000Y-56475000D03*
%TO.P,J2,14,Pin_14*%
%TO.N,/Discriminator Inputs/Port B/In9-*%
X86715000Y-53935000D03*
%TO.P,J2,15,Pin_15*%
%TO.N,/Discriminator Inputs/Port B/In8+*%
X89255000Y-56475000D03*
%TO.P,J2,16,Pin_16*%
%TO.N,/Discriminator Inputs/Port B/In8-*%
X89255000Y-53935000D03*
%TO.P,J2,17,Pin_17*%
%TO.N,/Discriminator Inputs/Port B/In7+*%
X91795000Y-56475000D03*
%TO.P,J2,18,Pin_18*%
%TO.N,/Discriminator Inputs/Port B/In7-*%
X91795000Y-53935000D03*
%TO.P,J2,19,Pin_19*%
%TO.N,/Discriminator Inputs/Port B/In6+*%
X94335000Y-56475000D03*
%TO.P,J2,20,Pin_20*%
%TO.N,/Discriminator Inputs/Port B/In6-*%
X94335000Y-53935000D03*
%TO.P,J2,21,Pin_21*%
%TO.N,/Discriminator Inputs/Port B/In5+*%
X96875000Y-56475000D03*
%TO.P,J2,22,Pin_22*%
%TO.N,/Discriminator Inputs/Port B/In5-*%
X96875000Y-53935000D03*
%TO.P,J2,23,Pin_23*%
%TO.N,/Discriminator Inputs/Port B/In4+*%
X99415000Y-56475000D03*
%TO.P,J2,24,Pin_24*%
%TO.N,/Discriminator Inputs/Port B/In4-*%
X99415000Y-53935000D03*
%TO.P,J2,25,Pin_25*%
%TO.N,/Discriminator Inputs/Port B/In3+*%
X101955000Y-56475000D03*
%TO.P,J2,26,Pin_26*%
%TO.N,/Discriminator Inputs/Port B/In3-*%
X101955000Y-53935000D03*
%TO.P,J2,27,Pin_27*%
%TO.N,/Discriminator Inputs/Port B/In2+*%
X104495000Y-56475000D03*
%TO.P,J2,28,Pin_28*%
%TO.N,/Discriminator Inputs/Port B/In2-*%
X104495000Y-53935000D03*
%TO.P,J2,29,Pin_29*%
%TO.N,/Discriminator Inputs/Port B/In1+*%
X107035000Y-56475000D03*
%TO.P,J2,30,Pin_30*%
%TO.N,/Discriminator Inputs/Port B/In1-*%
X107035000Y-53935000D03*
%TO.P,J2,31,Pin_31*%
%TO.N,/Discriminator Inputs/Port B/In0+*%
X109575000Y-56475000D03*
%TO.P,J2,32,Pin_32*%
%TO.N,/Discriminator Inputs/Port B/In0-*%
X109575000Y-53935000D03*
%TO.P,J2,33,Pin_33*%
%TO.N,unconnected-(J2-Pin_33-Pad33)*%
X112115000Y-56475000D03*
%TO.P,J2,34,Pin_34*%
%TO.N,unconnected-(J2-Pin_34-Pad34)*%
X112115000Y-53935000D03*
%TD*%
D10*
%TO.P,P2,1,Pin_1*%
%TO.N,GND*%
X63830000Y-77145000D03*
D11*
%TO.P,P2,2,Pin_2*%
X63830000Y-74605000D03*
%TO.P,P2,3,Pin_3*%
%TO.N,/B0_HSIO6N*%
X66370000Y-77145000D03*
%TO.P,P2,4,Pin_4*%
%TO.N,/B0_HSIO6P*%
X66370000Y-74605000D03*
%TO.P,P2,5,Pin_5*%
%TO.N,/B0_HSIO12N*%
X68910000Y-77145000D03*
%TO.P,P2,6,Pin_6*%
%TO.N,/B0_HSIO12P*%
X68910000Y-74605000D03*
%TO.P,P2,7,Pin_7*%
%TO.N,/B0_HSIO30N*%
X71450000Y-77145000D03*
%TO.P,P2,8,Pin_8*%
%TO.N,/B0_HSIO30P*%
X71450000Y-74605000D03*
%TO.P,P2,9,Pin_9*%
%TO.N,/B0_HSIO8N*%
X73990000Y-77145000D03*
%TO.P,P2,10,Pin_10*%
%TO.N,/B0_HSIO8P*%
X73990000Y-74605000D03*
%TO.P,P2,11,Pin_11*%
%TO.N,/B0_HSIO7N*%
X76530000Y-77145000D03*
%TO.P,P2,12,Pin_12*%
%TO.N,/B0_HSIO7P*%
X76530000Y-74605000D03*
%TO.P,P2,13,Pin_13*%
%TO.N,/B1_GPIO47N*%
X79070000Y-77145000D03*
%TO.P,P2,14,Pin_14*%
%TO.N,/B1_GPIO47P*%
X79070000Y-74605000D03*
%TO.P,P2,15,Pin_15*%
%TO.N,/TS_BUS_SEL0*%
X81610000Y-77145000D03*
%TO.P,P2,16,Pin_16*%
%TO.N,/TS_BUS_SEL1*%
X81610000Y-74605000D03*
%TO.P,P2,17,Pin_17*%
%TO.N,/TS_BUS_SEL3*%
X84150000Y-77145000D03*
%TO.P,P2,18,Pin_18*%
%TO.N,/TS_BUS_SEL2*%
X84150000Y-74605000D03*
%TO.P,P2,19,Pin_19*%
%TO.N,/B0_HSIO19N*%
X86690000Y-77145000D03*
%TO.P,P2,20,Pin_20*%
%TO.N,/B0_HSIO15N*%
X86690000Y-74605000D03*
%TO.P,P2,21,Pin_21*%
%TO.N,/B0_HSIO9P*%
X89230000Y-77145000D03*
%TO.P,P2,22,Pin_22*%
%TO.N,/B0_HSIO9N*%
X89230000Y-74605000D03*
%TO.P,P2,23,Pin_23*%
%TO.N,/B0_HSIO18P*%
X91770000Y-77145000D03*
%TO.P,P2,24,Pin_24*%
%TO.N,/B0_HSIO18N*%
X91770000Y-74605000D03*
%TO.P,P2,25,Pin_25*%
%TO.N,/B0_HSIO16P*%
X94310000Y-77145000D03*
%TO.P,P2,26,Pin_26*%
%TO.N,/B1_GPIO49N*%
X94310000Y-74605000D03*
%TO.P,P2,27,Pin_27*%
%TO.N,/D16*%
X96850000Y-77145000D03*
%TO.P,P2,28,Pin_28*%
%TO.N,/D17*%
X96850000Y-74605000D03*
%TO.P,P2,29,Pin_29*%
%TO.N,/D18*%
X99390000Y-77145000D03*
%TO.P,P2,30,Pin_30*%
%TO.N,/D19*%
X99390000Y-74605000D03*
%TO.P,P2,31,Pin_31*%
%TO.N,/D20*%
X101930000Y-77145000D03*
%TO.P,P2,32,Pin_32*%
%TO.N,/D21*%
X101930000Y-74605000D03*
%TO.P,P2,33,Pin_33*%
%TO.N,/D22*%
X104470000Y-77145000D03*
%TO.P,P2,34,Pin_34*%
%TO.N,/D23*%
X104470000Y-74605000D03*
%TO.P,P2,35,Pin_35*%
%TO.N,/D24*%
X107010000Y-77145000D03*
%TO.P,P2,36,Pin_36*%
%TO.N,/D25*%
X107010000Y-74605000D03*
%TO.P,P2,37,Pin_37*%
%TO.N,/D26*%
X109550000Y-77145000D03*
%TO.P,P2,38,Pin_38*%
%TO.N,/D27*%
X109550000Y-74605000D03*
%TO.P,P2,39,Pin_39*%
%TO.N,/D28*%
X112090000Y-77145000D03*
%TO.P,P2,40,Pin_40*%
%TO.N,/D29*%
X112090000Y-74605000D03*
%TO.P,P2,41,Pin_41*%
%TO.N,/D30*%
X114630000Y-77145000D03*
%TO.P,P2,42,Pin_42*%
%TO.N,/D31*%
X114630000Y-74605000D03*
%TO.P,P2,43,Pin_43*%
%TO.N,/NIM1*%
X117170000Y-77145000D03*
%TO.P,P2,44,Pin_44*%
%TO.N,/NIM0*%
X117170000Y-74605000D03*
%TO.P,P2,45,Pin_45*%
%TO.N,/NIM2*%
X119710000Y-77145000D03*
%TO.P,P2,46,Pin_46*%
%TO.N,/NIM3*%
X119710000Y-74605000D03*
%TD*%
D10*
%TO.P,P1,1,Pin_1*%
%TO.N,GND*%
X63830000Y-125405000D03*
D11*
%TO.P,P1,2,Pin_2*%
X63830000Y-122865000D03*
%TO.P,P1,3,Pin_3*%
%TO.N,+3V3*%
X66370000Y-125405000D03*
%TO.P,P1,4,Pin_4*%
X66370000Y-122865000D03*
%TO.P,P1,5,Pin_5*%
%TO.N,+5V*%
X68910000Y-125405000D03*
%TO.P,P1,6,Pin_6*%
X68910000Y-122865000D03*
%TO.P,P1,7,Pin_7*%
%TO.N,VBUS*%
X71450000Y-125405000D03*
%TO.P,P1,8,Pin_8*%
X71450000Y-122865000D03*
%TO.P,P1,9,Pin_9*%
%TO.N,unconnected-(P1-Pin_9-Pad9)*%
X73990000Y-125405000D03*
%TO.P,P1,10,Pin_10*%
%TO.N,~{SYS_RESET}*%
X73990000Y-122865000D03*
%TO.P,P1,11,Pin_11*%
%TO.N,/D1*%
X76530000Y-125405000D03*
%TO.P,P1,12,Pin_12*%
%TO.N,/D0*%
X76530000Y-122865000D03*
%TO.P,P1,13,Pin_13*%
%TO.N,/D3*%
X79070000Y-125405000D03*
%TO.P,P1,14,Pin_14*%
%TO.N,/D2*%
X79070000Y-122865000D03*
%TO.P,P1,15,Pin_15*%
%TO.N,/D5*%
X81610000Y-125405000D03*
%TO.P,P1,16,Pin_16*%
%TO.N,/D4*%
X81610000Y-122865000D03*
%TO.P,P1,17,Pin_17*%
%TO.N,/D7*%
X84150000Y-125405000D03*
%TO.P,P1,18,Pin_18*%
%TO.N,/D6*%
X84150000Y-122865000D03*
%TO.P,P1,19,Pin_19*%
%TO.N,/Fabric_I2C0_SDL*%
X86690000Y-125405000D03*
%TO.P,P1,20,Pin_20*%
%TO.N,/Fabric_I2C0_SDA*%
X86690000Y-122865000D03*
%TO.P,P1,21,Pin_21*%
%TO.N,/D9*%
X89230000Y-125405000D03*
%TO.P,P1,22,Pin_22*%
%TO.N,/D8*%
X89230000Y-122865000D03*
%TO.P,P1,23,Pin_23*%
%TO.N,/D11*%
X91770000Y-125405000D03*
%TO.P,P1,24,Pin_24*%
%TO.N,/D10*%
X91770000Y-122865000D03*
%TO.P,P1,25,Pin_25*%
%TO.N,/D13*%
X94310000Y-125405000D03*
%TO.P,P1,26,Pin_26*%
%TO.N,/D12*%
X94310000Y-122865000D03*
%TO.P,P1,27,Pin_27*%
%TO.N,/D15*%
X96850000Y-125405000D03*
%TO.P,P1,28,Pin_28*%
%TO.N,/D14*%
X96850000Y-122865000D03*
%TO.P,P1,29,Pin_29*%
%TO.N,/TS_BUS0*%
X99390000Y-125405000D03*
%TO.P,P1,30,Pin_30*%
%TO.N,/TS_BUS1*%
X99390000Y-122865000D03*
%TO.P,P1,31,Pin_31*%
%TO.N,/B1_GPIO4N*%
X101930000Y-125405000D03*
%TO.P,P1,32,Pin_32*%
%TO.N,+1V8*%
X101930000Y-122865000D03*
%TO.P,P1,33,Pin_33*%
%TO.N,/AIN4*%
X104470000Y-125405000D03*
%TO.P,P1,34,Pin_34*%
%TO.N,GNDA*%
X104470000Y-122865000D03*
%TO.P,P1,35,Pin_35*%
%TO.N,/AIN6*%
X107010000Y-125405000D03*
%TO.P,P1,36,Pin_36*%
%TO.N,/AIN5*%
X107010000Y-122865000D03*
%TO.P,P1,37,Pin_37*%
%TO.N,/AIN2*%
X109550000Y-125405000D03*
%TO.P,P1,38,Pin_38*%
%TO.N,/AIN3*%
X109550000Y-122865000D03*
%TO.P,P1,39,Pin_39*%
%TO.N,/AIN0*%
X112090000Y-125405000D03*
%TO.P,P1,40,Pin_40*%
%TO.N,/AIN1*%
X112090000Y-122865000D03*
%TO.P,P1,41,Pin_41*%
%TO.N,/TS_BUS3*%
X114630000Y-125405000D03*
%TO.P,P1,42,Pin_42*%
%TO.N,/TS_BUS2*%
X114630000Y-122865000D03*
%TO.P,P1,43,Pin_43*%
%TO.N,GND*%
X117170000Y-125405000D03*
%TO.P,P1,44,Pin_44*%
X117170000Y-122865000D03*
%TO.P,P1,45,Pin_45*%
X119710000Y-125405000D03*
%TO.P,P1,46,Pin_46*%
X119710000Y-122865000D03*
%TD*%
D12*
%TO.P,C12,1*%
%TO.N,+3V3*%
X122367500Y-108000000D03*
%TO.P,C12,2*%
%TO.N,GND*%
X121232500Y-108000000D03*
%TD*%
D13*
%TO.P,J9,3*%
%TO.N,N/C*%
X107400000Y-111367500D03*
X107400000Y-87367500D03*
X83400000Y-111367500D03*
X83400000Y-87367500D03*
D14*
X72164600Y-92066530D03*
X72164600Y-85716530D03*
D15*
%TO.P,J9,2,Fan+*%
%TO.N,+5V*%
X74914600Y-89516530D03*
%TO.P,J9,1,Fan-*%
%TO.N,GND*%
X74914600Y-88266530D03*
%TD*%
D16*
%TO.P,U10,1,R*%
%TO.N,/TS_BUS1*%
X116924999Y-95395000D03*
%TO.P,U10,2,RE_N*%
%TO.N,/TS_BUS_SEL1*%
X116924999Y-96665000D03*
%TO.P,U10,3,DE*%
X116924999Y-97935000D03*
%TO.P,U10,4,D*%
%TO.N,/TS_BUS1*%
X116924999Y-99205000D03*
%TO.P,U10,5,GND*%
%TO.N,GND*%
X122374998Y-99205000D03*
%TO.P,U10,6,A*%
%TO.N,/Trigger Interface/D2+*%
X122374998Y-97935000D03*
%TO.P,U10,7,B*%
%TO.N,/Trigger Interface/D2-*%
X122374998Y-96665000D03*
%TO.P,U10,8,VCC*%
%TO.N,+3V3*%
X122374998Y-95395000D03*
%TD*%
D17*
%TO.P,U1,1*%
%TO.N,/Discriminator Inputs/Port A/In0-*%
X67000000Y-136250000D03*
%TO.P,U1,2,RIN1+*%
%TO.N,/Discriminator Inputs/Port A/In0+*%
X68270000Y-136250000D03*
%TO.P,U1,3,RIN2+*%
%TO.N,/Discriminator Inputs/Port A/In1+*%
X69540000Y-136250000D03*
%TO.P,U1,4*%
%TO.N,/Discriminator Inputs/Port A/In1-*%
X70810000Y-136250000D03*
%TO.P,U1,5*%
%TO.N,/Discriminator Inputs/Port A/In2-*%
X72080000Y-136250000D03*
%TO.P,U1,6,RIN3+*%
%TO.N,/Discriminator Inputs/Port A/In2+*%
X73350000Y-136250000D03*
%TO.P,U1,7,RIN4+*%
%TO.N,/Discriminator Inputs/Port A/In3+*%
X74620000Y-136250000D03*
%TO.P,U1,8*%
%TO.N,/Discriminator Inputs/Port A/In3-*%
X75890000Y-136250000D03*
%TO.P,U1,9,\u002AEN*%
%TO.N,GND*%
X75890000Y-131525600D03*
%TO.P,U1,10,ROUT4*%
%TO.N,/D3*%
X74620000Y-131525600D03*
%TO.P,U1,11,ROUT3*%
%TO.N,/D2*%
X73350000Y-131525600D03*
%TO.P,U1,12,GND*%
%TO.N,GND*%
X72080000Y-131525600D03*
%TO.P,U1,13,VCC*%
%TO.N,+3V3*%
X70810000Y-131525600D03*
%TO.P,U1,14,ROUT2*%
%TO.N,/D1*%
X69540000Y-131525600D03*
%TO.P,U1,15,ROUT1*%
%TO.N,/D0*%
X68270000Y-131525600D03*
%TO.P,U1,16,EN*%
%TO.N,~{SYS_RESET}*%
X67000000Y-131525600D03*
%TD*%
D12*
%TO.P,C6,1*%
%TO.N,+3V3*%
X97495930Y-70500000D03*
%TO.P,C6,2*%
%TO.N,GND*%
X96360930Y-70500000D03*
%TD*%
D18*
%TO.P,R2,1*%
%TO.N,GND*%
X124800000Y-66202500D03*
%TO.P,R2,2*%
%TO.N,/Trigger Interface/NIM2+*%
X124800000Y-67397500D03*
%TD*%
D17*
%TO.P,U6,1*%
%TO.N,/Discriminator Inputs/Port B/In4-*%
X101373430Y-63637800D03*
%TO.P,U6,2,RIN1+*%
%TO.N,/Discriminator Inputs/Port B/In4+*%
X100103430Y-63637800D03*
%TO.P,U6,3,RIN2+*%
%TO.N,/Discriminator Inputs/Port B/In5+*%
X98833430Y-63637800D03*
%TO.P,U6,4*%
%TO.N,/Discriminator Inputs/Port B/In5-*%
X97563430Y-63637800D03*
%TO.P,U6,5*%
%TO.N,/Discriminator Inputs/Port B/In6-*%
X96293430Y-63637800D03*
%TO.P,U6,6,RIN3+*%
%TO.N,/Discriminator Inputs/Port B/In6+*%
X95023430Y-63637800D03*
%TO.P,U6,7,RIN4+*%
%TO.N,/Discriminator Inputs/Port B/In7+*%
X93753430Y-63637800D03*
%TO.P,U6,8*%
%TO.N,/Discriminator Inputs/Port B/In7-*%
X92483430Y-63637800D03*
%TO.P,U6,9,\u002AEN*%
%TO.N,GND*%
X92483430Y-68362200D03*
%TO.P,U6,10,ROUT4*%
%TO.N,/D24*%
X93753430Y-68362200D03*
%TO.P,U6,11,ROUT3*%
%TO.N,/D25*%
X95023430Y-68362200D03*
%TO.P,U6,12,GND*%
%TO.N,GND*%
X96293430Y-68362200D03*
%TO.P,U6,13,VCC*%
%TO.N,+3V3*%
X97563430Y-68362200D03*
%TO.P,U6,14,ROUT2*%
%TO.N,/D26*%
X98833430Y-68362200D03*
%TO.P,U6,15,ROUT1*%
%TO.N,/D27*%
X100103430Y-68362200D03*
%TO.P,U6,16,EN*%
%TO.N,~{SYS_RESET}*%
X101373430Y-68362200D03*
%TD*%
D12*
%TO.P,C11,1*%
%TO.N,+3V3*%
X122367500Y-101000000D03*
%TO.P,C11,2*%
%TO.N,GND*%
X121232500Y-101000000D03*
%TD*%
D17*
%TO.P,U3,1*%
%TO.N,/Discriminator Inputs/Port A/In8-*%
X91000000Y-136250000D03*
%TO.P,U3,2,RIN1+*%
%TO.N,/Discriminator Inputs/Port A/In8+*%
X92270000Y-136250000D03*
%TO.P,U3,3,RIN2+*%
%TO.N,/Discriminator Inputs/Port A/In9+*%
X93540000Y-136250000D03*
%TO.P,U3,4*%
%TO.N,/Discriminator Inputs/Port A/In9-*%
X94810000Y-136250000D03*
%TO.P,U3,5*%
%TO.N,/Discriminator Inputs/Port A/In10-*%
X96080000Y-136250000D03*
%TO.P,U3,6,RIN3+*%
%TO.N,/Discriminator Inputs/Port A/In10+*%
X97350000Y-136250000D03*
%TO.P,U3,7,RIN4+*%
%TO.N,/Discriminator Inputs/Port A/In11+*%
X98620000Y-136250000D03*
%TO.P,U3,8*%
%TO.N,/Discriminator Inputs/Port A/In11-*%
X99890000Y-136250000D03*
%TO.P,U3,9,\u002AEN*%
%TO.N,GND*%
X99890000Y-131525600D03*
%TO.P,U3,10,ROUT4*%
%TO.N,/D11*%
X98620000Y-131525600D03*
%TO.P,U3,11,ROUT3*%
%TO.N,/D10*%
X97350000Y-131525600D03*
%TO.P,U3,12,GND*%
%TO.N,GND*%
X96080000Y-131525600D03*
%TO.P,U3,13,VCC*%
%TO.N,+3V3*%
X94810000Y-131525600D03*
%TO.P,U3,14,ROUT2*%
%TO.N,/D9*%
X93540000Y-131525600D03*
%TO.P,U3,15,ROUT1*%
%TO.N,/D8*%
X92270000Y-131525600D03*
%TO.P,U3,16,EN*%
%TO.N,~{SYS_RESET}*%
X91000000Y-131525600D03*
%TD*%
D16*
%TO.P,U9,1,R*%
%TO.N,/TS_BUS0*%
X116924999Y-88320000D03*
%TO.P,U9,2,RE_N*%
%TO.N,/TS_BUS_SEL0*%
X116924999Y-89590000D03*
%TO.P,U9,3,DE*%
X116924999Y-90860000D03*
%TO.P,U9,4,D*%
%TO.N,/TS_BUS0*%
X116924999Y-92130000D03*
%TO.P,U9,5,GND*%
%TO.N,GND*%
X122374998Y-92130000D03*
%TO.P,U9,6,A*%
%TO.N,/Trigger Interface/D1+*%
X122374998Y-90860000D03*
%TO.P,U9,7,B*%
%TO.N,/Trigger Interface/D1-*%
X122374998Y-89590000D03*
%TO.P,U9,8,VCC*%
%TO.N,+3V3*%
X122374998Y-88320000D03*
%TD*%
D19*
%TO.P,C1,1*%
%TO.N,+3V3*%
X70877500Y-129387800D03*
%TO.P,C1,2*%
%TO.N,GND*%
X72012500Y-129387800D03*
%TD*%
D10*
%TO.P,J1,1,Pin_1*%
%TO.N,/Discriminator Inputs/Port A/In0+*%
X70800000Y-146000000D03*
D11*
%TO.P,J1,2,Pin_2*%
%TO.N,/Discriminator Inputs/Port A/In0-*%
X70800000Y-143460000D03*
%TO.P,J1,3,Pin_3*%
%TO.N,/Discriminator Inputs/Port A/In1+*%
X73340000Y-146000000D03*
%TO.P,J1,4,Pin_4*%
%TO.N,/Discriminator Inputs/Port A/In1-*%
X73340000Y-143460000D03*
%TO.P,J1,5,Pin_5*%
%TO.N,/Discriminator Inputs/Port A/In2+*%
X75880000Y-146000000D03*
%TO.P,J1,6,Pin_6*%
%TO.N,/Discriminator Inputs/Port A/In2-*%
X75880000Y-143460000D03*
%TO.P,J1,7,Pin_7*%
%TO.N,/Discriminator Inputs/Port A/In3+*%
X78420000Y-146000000D03*
%TO.P,J1,8,Pin_8*%
%TO.N,/Discriminator Inputs/Port A/In3-*%
X78420000Y-143460000D03*
%TO.P,J1,9,Pin_9*%
%TO.N,/Discriminator Inputs/Port A/In4+*%
X80960000Y-146000000D03*
%TO.P,J1,10,Pin_10*%
%TO.N,/Discriminator Inputs/Port A/In4-*%
X80960000Y-143460000D03*
%TO.P,J1,11,Pin_11*%
%TO.N,/Discriminator Inputs/Port A/In5+*%
X83500000Y-146000000D03*
%TO.P,J1,12,Pin_12*%
%TO.N,/Discriminator Inputs/Port A/In5-*%
X83500000Y-143460000D03*
%TO.P,J1,13,Pin_13*%
%TO.N,/Discriminator Inputs/Port A/In6+*%
X86040000Y-146000000D03*
%TO.P,J1,14,Pin_14*%
%TO.N,/Discriminator Inputs/Port A/In6-*%
X86040000Y-143460000D03*
%TO.P,J1,15,Pin_15*%
%TO.N,/Discriminator Inputs/Port A/In7+*%
X88580000Y-146000000D03*
%TO.P,J1,16,Pin_16*%
%TO.N,/Discriminator Inputs/Port A/In7-*%
X88580000Y-143460000D03*
%TO.P,J1,17,Pin_17*%
%TO.N,/Discriminator Inputs/Port A/In8+*%
X91120000Y-146000000D03*
%TO.P,J1,18,Pin_18*%
%TO.N,/Discriminator Inputs/Port A/In8-*%
X91120000Y-143460000D03*
%TO.P,J1,19,Pin_19*%
%TO.N,/Discriminator Inputs/Port A/In9+*%
X93660000Y-146000000D03*
%TO.P,J1,20,Pin_20*%
%TO.N,/Discriminator Inputs/Port A/In9-*%
X93660000Y-143460000D03*
%TO.P,J1,21,Pin_21*%
%TO.N,/Discriminator Inputs/Port A/In10+*%
X96200000Y-146000000D03*
%TO.P,J1,22,Pin_22*%
%TO.N,/Discriminator Inputs/Port A/In10-*%
X96200000Y-143460000D03*
%TO.P,J1,23,Pin_23*%
%TO.N,/Discriminator Inputs/Port A/In11+*%
X98740000Y-146000000D03*
%TO.P,J1,24,Pin_24*%
%TO.N,/Discriminator Inputs/Port A/In11-*%
X98740000Y-143460000D03*
%TO.P,J1,25,Pin_25*%
%TO.N,/Discriminator Inputs/Port A/In12+*%
X101280000Y-146000000D03*
%TO.P,J1,26,Pin_26*%
%TO.N,/Discriminator Inputs/Port A/In12-*%
X101280000Y-143460000D03*
%TO.P,J1,27,Pin_27*%
%TO.N,/Discriminator Inputs/Port A/In13+*%
X103820000Y-146000000D03*
%TO.P,J1,28,Pin_28*%
%TO.N,/Discriminator Inputs/Port A/In13-*%
X103820000Y-143460000D03*
%TO.P,J1,29,Pin_29*%
%TO.N,/Discriminator Inputs/Port A/In14+*%
X106360000Y-146000000D03*
%TO.P,J1,30,Pin_30*%
%TO.N,/Discriminator Inputs/Port A/In14-*%
X106360000Y-143460000D03*
%TO.P,J1,31,Pin_31*%
%TO.N,/Discriminator Inputs/Port A/In15+*%
X108900000Y-146000000D03*
%TO.P,J1,32,Pin_32*%
%TO.N,/Discriminator Inputs/Port A/In15-*%
X108900000Y-143460000D03*
%TO.P,J1,33,Pin_33*%
%TO.N,unconnected-(J1-Pin_33-Pad33)*%
X111440000Y-146000000D03*
%TO.P,J1,34,Pin_34*%
%TO.N,unconnected-(J1-Pin_34-Pad34)*%
X111440000Y-143460000D03*
%TD*%
D12*
%TO.P,C10,1*%
%TO.N,+3V3*%
X122367500Y-94000000D03*
%TO.P,C10,2*%
%TO.N,GND*%
X121232500Y-94000000D03*
%TD*%
D17*
%TO.P,U2,1*%
%TO.N,/Discriminator Inputs/Port A/In4-*%
X79000000Y-136250000D03*
%TO.P,U2,2,RIN1+*%
%TO.N,/Discriminator Inputs/Port A/In4+*%
X80270000Y-136250000D03*
%TO.P,U2,3,RIN2+*%
%TO.N,/Discriminator Inputs/Port A/In5+*%
X81540000Y-136250000D03*
%TO.P,U2,4*%
%TO.N,/Discriminator Inputs/Port A/In5-*%
X82810000Y-136250000D03*
%TO.P,U2,5*%
%TO.N,/Discriminator Inputs/Port A/In6-*%
X84080000Y-136250000D03*
%TO.P,U2,6,RIN3+*%
%TO.N,/Discriminator Inputs/Port A/In6+*%
X85350000Y-136250000D03*
%TO.P,U2,7,RIN4+*%
%TO.N,/Discriminator Inputs/Port A/In7+*%
X86620000Y-136250000D03*
%TO.P,U2,8*%
%TO.N,/Discriminator Inputs/Port A/In7-*%
X87890000Y-136250000D03*
%TO.P,U2,9,\u002AEN*%
%TO.N,GND*%
X87890000Y-131525600D03*
%TO.P,U2,10,ROUT4*%
%TO.N,/D7*%
X86620000Y-131525600D03*
%TO.P,U2,11,ROUT3*%
%TO.N,/D6*%
X85350000Y-131525600D03*
%TO.P,U2,12,GND*%
%TO.N,GND*%
X84080000Y-131525600D03*
%TO.P,U2,13,VCC*%
%TO.N,+3V3*%
X82810000Y-131525600D03*
%TO.P,U2,14,ROUT2*%
%TO.N,/D5*%
X81540000Y-131525600D03*
%TO.P,U2,15,ROUT1*%
%TO.N,/D4*%
X80270000Y-131525600D03*
%TO.P,U2,16,EN*%
%TO.N,~{SYS_RESET}*%
X79000000Y-131525600D03*
%TD*%
D20*
%TO.P,R4,1*%
%TO.N,/Trigger Interface/NIM4+*%
X124800000Y-62397500D03*
%TO.P,R4,2*%
%TO.N,GND*%
X124800000Y-61202500D03*
%TD*%
D17*
%TO.P,U7,1*%
%TO.N,/Discriminator Inputs/Port B/In8-*%
X89373430Y-63637800D03*
%TO.P,U7,2,RIN1+*%
%TO.N,/Discriminator Inputs/Port B/In8+*%
X88103430Y-63637800D03*
%TO.P,U7,3,RIN2+*%
%TO.N,/Discriminator Inputs/Port B/In9+*%
X86833430Y-63637800D03*
%TO.P,U7,4*%
%TO.N,/Discriminator Inputs/Port B/In9-*%
X85563430Y-63637800D03*
%TO.P,U7,5*%
%TO.N,/Discriminator Inputs/Port B/In10-*%
X84293430Y-63637800D03*
%TO.P,U7,6,RIN3+*%
%TO.N,/Discriminator Inputs/Port B/In10+*%
X83023430Y-63637800D03*
%TO.P,U7,7,RIN4+*%
%TO.N,/Discriminator Inputs/Port B/In11+*%
X81753430Y-63637800D03*
%TO.P,U7,8*%
%TO.N,/Discriminator Inputs/Port B/In11-*%
X80483430Y-63637800D03*
%TO.P,U7,9,\u002AEN*%
%TO.N,GND*%
X80483430Y-68362200D03*
%TO.P,U7,10,ROUT4*%
%TO.N,/D20*%
X81753430Y-68362200D03*
%TO.P,U7,11,ROUT3*%
%TO.N,/D21*%
X83023430Y-68362200D03*
%TO.P,U7,12,GND*%
%TO.N,GND*%
X84293430Y-68362200D03*
%TO.P,U7,13,VCC*%
%TO.N,+3V3*%
X85563430Y-68362200D03*
%TO.P,U7,14,ROUT2*%
%TO.N,/D22*%
X86833430Y-68362200D03*
%TO.P,U7,15,ROUT1*%
%TO.N,/D23*%
X88103430Y-68362200D03*
%TO.P,U7,16,EN*%
%TO.N,~{SYS_RESET}*%
X89373430Y-68362200D03*
%TD*%
D20*
%TO.P,R1,1*%
%TO.N,GND*%
X124800000Y-69997500D03*
%TO.P,R1,2*%
%TO.N,/Trigger Interface/NIM1+*%
X124800000Y-68802500D03*
%TD*%
D19*
%TO.P,C3,1*%
%TO.N,+3V3*%
X94877500Y-129387800D03*
%TO.P,C3,2*%
%TO.N,GND*%
X96012500Y-129387800D03*
%TD*%
D17*
%TO.P,U5,1*%
%TO.N,/Discriminator Inputs/Port B/In0-*%
X113373430Y-63637800D03*
%TO.P,U5,2,RIN1+*%
%TO.N,/Discriminator Inputs/Port B/In0+*%
X112103430Y-63637800D03*
%TO.P,U5,3,RIN2+*%
%TO.N,/Discriminator Inputs/Port B/In1+*%
X110833430Y-63637800D03*
%TO.P,U5,4*%
%TO.N,/Discriminator Inputs/Port B/In1-*%
X109563430Y-63637800D03*
%TO.P,U5,5*%
%TO.N,/Discriminator Inputs/Port B/In2-*%
X108293430Y-63637800D03*
%TO.P,U5,6,RIN3+*%
%TO.N,/Discriminator Inputs/Port B/In2+*%
X107023430Y-63637800D03*
%TO.P,U5,7,RIN4+*%
%TO.N,/Discriminator Inputs/Port B/In3+*%
X105753430Y-63637800D03*
%TO.P,U5,8*%
%TO.N,/Discriminator Inputs/Port B/In3-*%
X104483430Y-63637800D03*
%TO.P,U5,9,\u002AEN*%
%TO.N,GND*%
X104483430Y-68362200D03*
%TO.P,U5,10,ROUT4*%
%TO.N,/D28*%
X105753430Y-68362200D03*
%TO.P,U5,11,ROUT3*%
%TO.N,/D29*%
X107023430Y-68362200D03*
%TO.P,U5,12,GND*%
%TO.N,GND*%
X108293430Y-68362200D03*
%TO.P,U5,13,VCC*%
%TO.N,+3V3*%
X109563430Y-68362200D03*
%TO.P,U5,14,ROUT2*%
%TO.N,/D30*%
X110833430Y-68362200D03*
%TO.P,U5,15,ROUT1*%
%TO.N,/D31*%
X112103430Y-68362200D03*
%TO.P,U5,16,EN*%
%TO.N,~{SYS_RESET}*%
X113373430Y-68362200D03*
%TD*%
D12*
%TO.P,C7,1*%
%TO.N,+3V3*%
X85495930Y-70500000D03*
%TO.P,C7,2*%
%TO.N,GND*%
X84360930Y-70500000D03*
%TD*%
D21*
%TO.P,J7,1,In*%
%TO.N,/Trigger Interface/NIM4+*%
X123800000Y-54800000D03*
%TO.P,J7,2,Ext*%
%TO.N,GND*%
X121260000Y-52260000D03*
X121260000Y-57340000D03*
X126340000Y-52260000D03*
X126340000Y-57340000D03*
%TD*%
D16*
%TO.P,U12,1,R*%
%TO.N,/TS_BUS3*%
X116924999Y-109395000D03*
%TO.P,U12,2,RE_N*%
%TO.N,/TS_BUS_SEL3*%
X116924999Y-110665000D03*
%TO.P,U12,3,DE*%
X116924999Y-111935000D03*
%TO.P,U12,4,D*%
%TO.N,/TS_BUS3*%
X116924999Y-113205000D03*
%TO.P,U12,5,GND*%
%TO.N,GND*%
X122374998Y-113205000D03*
%TO.P,U12,6,A*%
%TO.N,/Trigger Interface/D4+*%
X122374998Y-111935000D03*
%TO.P,U12,7,B*%
%TO.N,/Trigger Interface/D4-*%
X122374998Y-110665000D03*
%TO.P,U12,8,VCC*%
%TO.N,+3V3*%
X122374998Y-109395000D03*
%TD*%
D21*
%TO.P,J6,1,In*%
%TO.N,/Trigger Interface/NIM3+*%
X134400000Y-55000000D03*
%TO.P,J6,2,Ext*%
%TO.N,GND*%
X136940000Y-52460000D03*
X131860000Y-52460000D03*
X136940000Y-57540000D03*
X131860000Y-57540000D03*
%TD*%
D17*
%TO.P,U8,1*%
%TO.N,/Discriminator Inputs/Port B/In12-*%
X77373430Y-63637800D03*
%TO.P,U8,2,RIN1+*%
%TO.N,/Discriminator Inputs/Port B/In12+*%
X76103430Y-63637800D03*
%TO.P,U8,3,RIN2+*%
%TO.N,/Discriminator Inputs/Port B/In13+*%
X74833430Y-63637800D03*
%TO.P,U8,4*%
%TO.N,/Discriminator Inputs/Port B/In13-*%
X73563430Y-63637800D03*
%TO.P,U8,5*%
%TO.N,/Discriminator Inputs/Port B/In14-*%
X72293430Y-63637800D03*
%TO.P,U8,6,RIN3+*%
%TO.N,/Discriminator Inputs/Port B/In14+*%
X71023430Y-63637800D03*
%TO.P,U8,7,RIN4+*%
%TO.N,/Discriminator Inputs/Port B/In15+*%
X69753430Y-63637800D03*
%TO.P,U8,8*%
%TO.N,/Discriminator Inputs/Port B/In15-*%
X68483430Y-63637800D03*
%TO.P,U8,9,\u002AEN*%
%TO.N,GND*%
X68483430Y-68362200D03*
%TO.P,U8,10,ROUT4*%
%TO.N,/D16*%
X69753430Y-68362200D03*
%TO.P,U8,11,ROUT3*%
%TO.N,/D17*%
X71023430Y-68362200D03*
%TO.P,U8,12,GND*%
%TO.N,GND*%
X72293430Y-68362200D03*
%TO.P,U8,13,VCC*%
%TO.N,+3V3*%
X73563430Y-68362200D03*
%TO.P,U8,14,ROUT2*%
%TO.N,/D18*%
X74833430Y-68362200D03*
%TO.P,U8,15,ROUT1*%
%TO.N,/D19*%
X76103430Y-68362200D03*
%TO.P,U8,16,EN*%
%TO.N,~{SYS_RESET}*%
X77373430Y-68362200D03*
%TD*%
D19*
%TO.P,C2,1*%
%TO.N,+3V3*%
X82877500Y-129387800D03*
%TO.P,C2,2*%
%TO.N,GND*%
X84012500Y-129387800D03*
%TD*%
D12*
%TO.P,C5,1*%
%TO.N,+3V3*%
X109495930Y-70500000D03*
%TO.P,C5,2*%
%TO.N,GND*%
X108360930Y-70500000D03*
%TD*%
D22*
%TO.P,C17,1*%
%TO.N,+3V3*%
X116000000Y-66167500D03*
%TO.P,C17,2*%
%TO.N,GND*%
X116000000Y-65032500D03*
%TD*%
D19*
%TO.P,C4,1*%
%TO.N,+3V3*%
X106877500Y-129387800D03*
%TO.P,C4,2*%
%TO.N,GND*%
X108012500Y-129387800D03*
%TD*%
D21*
%TO.P,J5,1,In*%
%TO.N,/Trigger Interface/NIM2+*%
X134400000Y-65000000D03*
%TO.P,J5,2,Ext*%
%TO.N,GND*%
X136940000Y-62460000D03*
X131860000Y-62460000D03*
X136940000Y-67540000D03*
X131860000Y-67540000D03*
%TD*%
D23*
%TO.P,J3,2_8,2_8*%
%TO.N,/Trigger Interface/D4-*%
X131095000Y-95885000D03*
%TO.P,J3,2_7,2_7*%
%TO.N,/Trigger Interface/D4+*%
X132875000Y-94869000D03*
%TO.P,J3,2_6,2_6*%
%TO.N,/Trigger Interface/D2-*%
X131095000Y-93853000D03*
%TO.P,J3,2_5,2_5*%
%TO.N,/Trigger Interface/D3+*%
X132875000Y-92837000D03*
%TO.P,J3,2_4,2_4*%
%TO.N,/Trigger Interface/D3-*%
X131095000Y-91821000D03*
%TO.P,J3,2_3,2_3*%
%TO.N,/Trigger Interface/D2+*%
X132875000Y-90805000D03*
%TO.P,J3,2_2,2_2*%
%TO.N,/Trigger Interface/D1-*%
X131095000Y-89789000D03*
%TO.P,J3,2_1,2_1*%
%TO.N,/Trigger Interface/D1+*%
X132875000Y-88773000D03*
%TO.P,J3,1_8,1_8*%
%TO.N,/Trigger Interface/D4-*%
X131095000Y-111635000D03*
%TO.P,J3,1_7,1_7*%
%TO.N,/Trigger Interface/D4+*%
X132875000Y-110619000D03*
%TO.P,J3,1_6,1_6*%
%TO.N,/Trigger Interface/D2-*%
X131095000Y-109603000D03*
%TO.P,J3,1_5,1_5*%
%TO.N,/Trigger Interface/D3+*%
X132875000Y-108587000D03*
%TO.P,J3,1_4,1_4*%
%TO.N,/Trigger Interface/D3-*%
X131095000Y-107571000D03*
%TO.P,J3,1_3,1_3*%
%TO.N,/Trigger Interface/D2+*%
X132875000Y-106555000D03*
%TO.P,J3,1_2,1_2*%
%TO.N,/Trigger Interface/D1-*%
X131095000Y-105539000D03*
%TO.P,J3,1_1,1_1*%
%TO.N,/Trigger Interface/D1+*%
X132875000Y-104523000D03*
%TD*%
D10*
%TO.P,J8,1,Pin_1*%
%TO.N,GNDX*%
X101930000Y-79685000D03*
D11*
%TO.P,J8,2,Pin_2*%
%TO.N,unconnected-(J8-Pin_2-Pad2)*%
X99390000Y-79685000D03*
%TO.P,J8,3,Pin_3*%
%TO.N,unconnected-(J8-Pin_3-Pad3)*%
X96850000Y-79685000D03*
%TO.P,J8,4,Pin_4*%
%TO.N,/RXD*%
X94310000Y-79685000D03*
%TO.P,J8,5,Pin_5*%
%TO.N,/TXD*%
X91770000Y-79685000D03*
%TO.P,J8,6,Pin_6*%
%TO.N,unconnected-(J8-Pin_6-Pad6)*%
X89230000Y-79685000D03*
%TD*%
D21*
%TO.P,J4,1,In*%
%TO.N,/Trigger Interface/NIM1+*%
X134400000Y-75000000D03*
%TO.P,J4,2,Ext*%
%TO.N,GND*%
X136940000Y-72460000D03*
X131860000Y-72460000D03*
X136940000Y-77540000D03*
X131860000Y-77540000D03*
%TD*%
D24*
%TO.P,U13,1*%
%TO.N,GND*%
X122762200Y-70045000D03*
%TO.P,U13,2,RIN1+*%
%TO.N,/Trigger Interface/NIM1+*%
X122762200Y-68775000D03*
%TO.P,U13,3,RIN2+*%
%TO.N,/Trigger Interface/NIM2+*%
X122762200Y-67505000D03*
%TO.P,U13,4*%
%TO.N,GND*%
X122762200Y-66235000D03*
%TO.P,U13,5*%
X122762200Y-64965000D03*
%TO.P,U13,6,RIN3+*%
%TO.N,/Trigger Interface/NIM3+*%
X122762200Y-63695000D03*
%TO.P,U13,7,RIN4+*%
%TO.N,/Trigger Interface/NIM4+*%
X122762200Y-62425000D03*
%TO.P,U13,8*%
%TO.N,GND*%
X122762200Y-61155000D03*
%TO.P,U13,9,\u002AEN*%
X118037800Y-61155000D03*
%TO.P,U13,10,ROUT4*%
%TO.N,/NIM3*%
X118037800Y-62425000D03*
%TO.P,U13,11,ROUT3*%
%TO.N,/NIM2*%
X118037800Y-63695000D03*
%TO.P,U13,12,GND*%
%TO.N,GND*%
X118037800Y-64965000D03*
%TO.P,U13,13,VCC*%
%TO.N,+3V3*%
X118037800Y-66235000D03*
%TO.P,U13,14,ROUT2*%
%TO.N,/NIM1*%
X118037800Y-67505000D03*
%TO.P,U13,15,ROUT1*%
%TO.N,/NIM0*%
X118037800Y-68775000D03*
%TO.P,U13,16,EN*%
%TO.N,~{SYS_RESET}*%
X118037800Y-70045000D03*
%TD*%
D12*
%TO.P,C9,1*%
%TO.N,+3V3*%
X122367500Y-87000000D03*
%TO.P,C9,2*%
%TO.N,GND*%
X121232500Y-87000000D03*
%TD*%
D17*
%TO.P,U4,1*%
%TO.N,/Discriminator Inputs/Port A/In12-*%
X103000000Y-136250000D03*
%TO.P,U4,2,RIN1+*%
%TO.N,/Discriminator Inputs/Port A/In12+*%
X104270000Y-136250000D03*
%TO.P,U4,3,RIN2+*%
%TO.N,/Discriminator Inputs/Port A/In13+*%
X105540000Y-136250000D03*
%TO.P,U4,4*%
%TO.N,/Discriminator Inputs/Port A/In13-*%
X106810000Y-136250000D03*
%TO.P,U4,5*%
%TO.N,/Discriminator Inputs/Port A/In14-*%
X108080000Y-136250000D03*
%TO.P,U4,6,RIN3+*%
%TO.N,/Discriminator Inputs/Port A/In14+*%
X109350000Y-136250000D03*
%TO.P,U4,7,RIN4+*%
%TO.N,/Discriminator Inputs/Port A/In15+*%
X110620000Y-136250000D03*
%TO.P,U4,8*%
%TO.N,/Discriminator Inputs/Port A/In15-*%
X111890000Y-136250000D03*
%TO.P,U4,9,\u002AEN*%
%TO.N,GND*%
X111890000Y-131525600D03*
%TO.P,U4,10,ROUT4*%
%TO.N,/D15*%
X110620000Y-131525600D03*
%TO.P,U4,11,ROUT3*%
%TO.N,/D14*%
X109350000Y-131525600D03*
%TO.P,U4,12,GND*%
%TO.N,GND*%
X108080000Y-131525600D03*
%TO.P,U4,13,VCC*%
%TO.N,+3V3*%
X106810000Y-131525600D03*
%TO.P,U4,14,ROUT2*%
%TO.N,/D13*%
X105540000Y-131525600D03*
%TO.P,U4,15,ROUT1*%
%TO.N,/D12*%
X104270000Y-131525600D03*
%TO.P,U4,16,EN*%
%TO.N,~{SYS_RESET}*%
X103000000Y-131525600D03*
%TD*%
D12*
%TO.P,C8,1*%
%TO.N,+3V3*%
X73495930Y-70500000D03*
%TO.P,C8,2*%
%TO.N,GND*%
X72360930Y-70500000D03*
%TD*%
D16*
%TO.P,U11,1,R*%
%TO.N,/TS_BUS2*%
X116924999Y-102395000D03*
%TO.P,U11,2,RE_N*%
%TO.N,/TS_BUS_SEL2*%
X116924999Y-103665000D03*
%TO.P,U11,3,DE*%
X116924999Y-104935000D03*
%TO.P,U11,4,D*%
%TO.N,/TS_BUS2*%
X116924999Y-106205000D03*
%TO.P,U11,5,GND*%
%TO.N,GND*%
X122374998Y-106205000D03*
%TO.P,U11,6,A*%
%TO.N,/Trigger Interface/D3+*%
X122374998Y-104935000D03*
%TO.P,U11,7,B*%
%TO.N,/Trigger Interface/D3-*%
X122374998Y-103665000D03*
%TO.P,U11,8,VCC*%
%TO.N,+3V3*%
X122374998Y-102395000D03*
%TD*%
D18*
%TO.P,R3,1*%
%TO.N,/Trigger Interface/NIM3+*%
X124800000Y-63602500D03*
%TO.P,R3,2*%
%TO.N,GND*%
X124800000Y-64797500D03*
%TD*%
D25*
%TO.N,/Trigger Interface/D2-*%
X136800000Y-105714770D03*
%TO.N,/Trigger Interface/D2+*%
X136800000Y-105085230D03*
%TO.N,/Trigger Interface/D3-*%
X126977423Y-105222577D03*
%TO.N,/Trigger Interface/D3+*%
X127422577Y-104777423D03*
D26*
%TO.N,+5V*%
X76600000Y-89000000D03*
X76000000Y-89600000D03*
%TO.N,GND*%
X123200000Y-99800000D03*
X116000000Y-61200000D03*
%TO.N,/TS_BUS_SEL0*%
X114800000Y-89600000D03*
%TO.N,/TS_BUS_SEL3*%
X115255000Y-110200000D03*
%TO.N,/TS_BUS_SEL2*%
X111800000Y-95600000D03*
X115000000Y-104200000D03*
%TO.N,/TS_BUS_SEL1*%
X115200000Y-96600000D03*
X110800000Y-93000000D03*
%TO.N,GND*%
X122400000Y-99800000D03*
X123600000Y-92200000D03*
X122400000Y-92800000D03*
X120400000Y-87000000D03*
X120400000Y-94000000D03*
X120400000Y-101000000D03*
%TO.N,+3V3*%
X122800000Y-87600000D03*
X122000000Y-87600000D03*
X122800000Y-94600000D03*
X122000000Y-94600000D03*
X123000000Y-101600000D03*
X122000000Y-101600000D03*
X123000000Y-108600000D03*
X122000000Y-108600000D03*
%TO.N,GND*%
X123064081Y-106778640D03*
X122400000Y-107000000D03*
X120400000Y-108000000D03*
X123064081Y-113778640D03*
X122400000Y-114000000D03*
%TO.N,/D25*%
X94600000Y-70600000D03*
%TO.N,/D26*%
X100952873Y-70847127D03*
%TO.N,/D29*%
X106600000Y-71000000D03*
%TO.N,/D23*%
X90400000Y-71000000D03*
%TO.N,/D21*%
X82600000Y-70600000D03*
%TO.N,/D19*%
X78400000Y-71000000D03*
%TO.N,/D17*%
X72400000Y-72400000D03*
%TO.N,GND*%
X95573430Y-70487800D03*
X88400000Y-129400000D03*
X125600000Y-70000000D03*
X75400000Y-87400000D03*
X83573430Y-70487800D03*
X125600000Y-61200000D03*
X76600000Y-87400000D03*
X76400000Y-129400000D03*
X76000000Y-88000000D03*
X112400000Y-129400000D03*
X72328430Y-71187650D03*
X71573430Y-70487800D03*
X67534830Y-67800000D03*
X103400000Y-67400000D03*
X107573430Y-70487800D03*
X115649187Y-64345825D03*
X108328430Y-71187650D03*
X84800000Y-129400000D03*
X125600000Y-66200000D03*
X96000000Y-128600000D03*
X84328430Y-71187650D03*
X72000000Y-128600000D03*
X125600000Y-64800000D03*
X115178640Y-64864081D03*
X91528430Y-67400000D03*
X108000000Y-128600000D03*
X72800000Y-129400000D03*
X100400000Y-129400000D03*
X84000000Y-128600000D03*
X108800000Y-129400000D03*
X76000000Y-86800000D03*
X79400000Y-67400000D03*
X96800000Y-129400000D03*
X96328430Y-71187650D03*
%TO.N,/D4*%
X79600000Y-128600000D03*
%TO.N,/D6*%
X85800000Y-128600000D03*
%TO.N,/D10*%
X97200000Y-128200000D03*
%TO.N,/D12*%
X102671658Y-128728342D03*
%TO.N,/D14*%
X109200000Y-128200000D03*
%TO.N,/D2*%
X73600000Y-128400000D03*
%TO.N,/D0*%
X68000000Y-129000000D03*
%TO.N,+3V3*%
X82200000Y-129400000D03*
X74173430Y-70487800D03*
X70800000Y-128600000D03*
X109528430Y-71187650D03*
X82800000Y-128600000D03*
X110173430Y-70487800D03*
X70200000Y-129400000D03*
X106200000Y-129400000D03*
X85528430Y-71187650D03*
X115600000Y-66800000D03*
X94200000Y-129400000D03*
X98173430Y-70487800D03*
X73528430Y-71187650D03*
X115200000Y-66200000D03*
X106800000Y-128600000D03*
X97528430Y-71187650D03*
X86173430Y-70487800D03*
X94800000Y-128600000D03*
%TO.N,+5V*%
X76600000Y-90200000D03*
X77200000Y-89600000D03*
%TO.N,/D8*%
X91000000Y-128600000D03*
%TO.N,~{SYS_RESET}*%
X78528430Y-68200000D03*
X114328430Y-68600000D03*
X90328430Y-68200000D03*
X79000000Y-129800000D03*
X91000000Y-129800000D03*
X103000000Y-129800000D03*
X102328430Y-68200000D03*
X117600000Y-71200000D03*
X67000000Y-129800000D03*
%TD*%
D27*
%TO.N,/Discriminator Inputs/Port B/In0-*%
X110642170Y-56032963D02*
X110642170Y-56917037D01*
X109879800Y-55270593D02*
X110642170Y-56032963D01*
X112890830Y-61516899D02*
X113373430Y-61999499D01*
%TO.N,/Discriminator Inputs/Port B/In0+*%
X112103430Y-61999499D02*
X112103430Y-63637800D01*
%TO.N,/Discriminator Inputs/Port B/In0-*%
X109879800Y-54239800D02*
X109879800Y-55270593D01*
X112890830Y-59875302D02*
X112890830Y-61516899D01*
%TO.N,/Discriminator Inputs/Port B/In0+*%
X112586030Y-61516899D02*
X112103430Y-61999499D01*
%TO.N,/Discriminator Inputs/Port B/In0-*%
X109575000Y-53935000D02*
X109879800Y-54239800D01*
%TO.N,/Discriminator Inputs/Port B/In0+*%
X112586030Y-60001558D02*
X112586030Y-61516899D01*
%TO.N,/Discriminator Inputs/Port B/In0-*%
X110642170Y-56917037D02*
X110287368Y-57271840D01*
%TO.N,/Discriminator Inputs/Port B/In0+*%
X109575000Y-56475000D02*
X109575000Y-56990528D01*
X109575000Y-56990528D02*
X112586030Y-60001558D01*
%TO.N,/Discriminator Inputs/Port B/In0-*%
X110287368Y-57271840D02*
X112890830Y-59875302D01*
X113373430Y-61999499D02*
X113373430Y-63637800D01*
%TO.N,/Discriminator Inputs/Port B/In1-*%
X110046030Y-60861558D02*
X110046030Y-61516899D01*
%TO.N,/Discriminator Inputs/Port B/In1+*%
X110833430Y-61999499D02*
X110833430Y-63637800D01*
%TO.N,/Discriminator Inputs/Port B/In1-*%
X105967830Y-56917037D02*
X106596521Y-57545728D01*
X110046030Y-61516899D02*
X109563430Y-61999499D01*
X106730200Y-57545728D02*
X110046030Y-60861558D01*
%TO.N,/Discriminator Inputs/Port B/In1+*%
X110350830Y-61516899D02*
X110833430Y-61999499D01*
%TO.N,/Discriminator Inputs/Port B/In1-*%
X105967830Y-56032963D02*
X105967830Y-56917037D01*
X106730200Y-54239800D02*
X106730200Y-55270593D01*
X106596521Y-57545728D02*
X106730200Y-57545728D01*
X106730200Y-55270593D02*
X105967830Y-56032963D01*
%TO.N,/Discriminator Inputs/Port B/In1+*%
X110350830Y-60735302D02*
X110350830Y-61516899D01*
%TO.N,/Discriminator Inputs/Port B/In1-*%
X107035000Y-53935000D02*
X106730200Y-54239800D01*
%TO.N,/Discriminator Inputs/Port B/In1+*%
X107035000Y-57419472D02*
X110350830Y-60735302D01*
X107035000Y-56475000D02*
X107035000Y-57419472D01*
%TO.N,/Discriminator Inputs/Port B/In1-*%
X109563430Y-61999499D02*
X109563430Y-63637800D01*
%TO.N,/Discriminator Inputs/Port B/In2-*%
X107810830Y-61516899D02*
X108293430Y-61999499D01*
X105247368Y-57231840D02*
X107810830Y-59795302D01*
X107810830Y-59795302D02*
X107810830Y-61516899D01*
%TO.N,/Discriminator Inputs/Port B/In2+*%
X107023430Y-61999499D02*
X107023430Y-63637800D01*
%TO.N,/Discriminator Inputs/Port B/In2-*%
X105562170Y-56917037D02*
X105247368Y-57231840D01*
X105562170Y-56032963D02*
X105562170Y-56917037D01*
X104495000Y-53935000D02*
X104799800Y-54239800D01*
X104799800Y-55270593D02*
X105562170Y-56032963D01*
%TO.N,/Discriminator Inputs/Port B/In2+*%
X107506030Y-59921558D02*
X107506030Y-61516899D01*
%TO.N,/Discriminator Inputs/Port B/In2-*%
X104799800Y-54239800D02*
X104799800Y-55270593D01*
%TO.N,/Discriminator Inputs/Port B/In2+*%
X104495000Y-56910528D02*
X107506030Y-59921558D01*
X104495000Y-56475000D02*
X104495000Y-56910528D01*
X107506030Y-61516899D02*
X107023430Y-61999499D01*
%TO.N,/Discriminator Inputs/Port B/In2-*%
X108293430Y-61999499D02*
X108293430Y-63637800D01*
%TO.N,/Discriminator Inputs/Port B/In3+*%
X101955000Y-56475000D02*
X101955000Y-59839370D01*
%TO.N,/Discriminator Inputs/Port B/In3-*%
X101650200Y-57679407D02*
X101650200Y-59965623D01*
%TO.N,/Discriminator Inputs/Port B/In3+*%
X101955000Y-59839370D02*
X104444060Y-62328430D01*
%TO.N,/Discriminator Inputs/Port B/In3-*%
X101650200Y-54239800D02*
X101650200Y-55270593D01*
%TO.N,/Discriminator Inputs/Port B/In3+*%
X104444060Y-62328430D02*
X104980000Y-62328430D01*
X104980000Y-62328430D02*
X104980000Y-62864370D01*
%TO.N,/Discriminator Inputs/Port B/In3-*%
X101650200Y-59965623D02*
X104483430Y-62798853D01*
%TO.N,/Discriminator Inputs/Port B/In3+*%
X104980000Y-62864370D02*
X105753430Y-63637800D01*
%TO.N,/Discriminator Inputs/Port B/In3-*%
X100887830Y-56032963D02*
X100887830Y-56917037D01*
X101955000Y-53935000D02*
X101650200Y-54239800D01*
X101650200Y-55270593D02*
X100887830Y-56032963D01*
X100887830Y-56917037D02*
X101650200Y-57679407D01*
X104483430Y-62798853D02*
X104483430Y-63637800D01*
%TO.N,/Discriminator Inputs/Port B/In4+*%
X99415000Y-56475000D02*
X99415000Y-62110423D01*
X99415000Y-62110423D02*
X100103430Y-62798853D01*
%TO.N,/Discriminator Inputs/Port B/In4-*%
X100600000Y-62864370D02*
X101373430Y-63637800D01*
%TO.N,/Discriminator Inputs/Port B/In4+*%
X100103430Y-62798853D02*
X100103430Y-63637800D01*
%TO.N,/Discriminator Inputs/Port B/In4-*%
X99415000Y-53935000D02*
X99719800Y-54239800D01*
X100600000Y-62328430D02*
X100600000Y-62864370D01*
X99719800Y-54239800D02*
X99719800Y-55270593D01*
X99719800Y-55270593D02*
X100482170Y-56032963D01*
X99719800Y-57679407D02*
X99719800Y-61984170D01*
X100482170Y-56032963D02*
X100482170Y-56917037D01*
X100482170Y-56917037D02*
X99719800Y-57679407D01*
X99719800Y-61984170D02*
X100064060Y-62328430D01*
X100064060Y-62328430D02*
X100600000Y-62328430D01*
%TO.N,/Discriminator Inputs/Port B/In5+*%
X96875000Y-56475000D02*
X96875000Y-61679370D01*
X96875000Y-61679370D02*
X97524060Y-62328430D01*
X97524060Y-62328430D02*
X98060000Y-62328430D01*
X98060000Y-62328430D02*
X98060000Y-62864370D01*
X98060000Y-62864370D02*
X98833430Y-63637800D01*
%TO.N,/Discriminator Inputs/Port B/In5-*%
X96570200Y-57679407D02*
X96570200Y-61805623D01*
X96875000Y-53935000D02*
X96570200Y-54239800D01*
X96570200Y-54239800D02*
X96570200Y-55270593D01*
X95807830Y-56917037D02*
X96570200Y-57679407D01*
X96570200Y-55270593D02*
X95807830Y-56032963D01*
X95807830Y-56032963D02*
X95807830Y-56917037D01*
X96570200Y-61805623D02*
X97563430Y-62798853D01*
X97563430Y-62798853D02*
X97563430Y-63637800D01*
%TO.N,/Discriminator Inputs/Port B/In6+*%
X94335000Y-56475000D02*
X94335000Y-62110423D01*
%TO.N,/Discriminator Inputs/Port B/In6-*%
X94335000Y-53935000D02*
X94639800Y-54239800D01*
X94639800Y-57679407D02*
X94639800Y-61984170D01*
%TO.N,/Discriminator Inputs/Port B/In6+*%
X94335000Y-62110423D02*
X95023430Y-62798853D01*
%TO.N,/Discriminator Inputs/Port B/In6-*%
X94639800Y-55270593D02*
X95402170Y-56032963D01*
%TO.N,/Discriminator Inputs/Port B/In6+*%
X95023430Y-62798853D02*
X95023430Y-63637800D01*
%TO.N,/Discriminator Inputs/Port B/In6-*%
X94639800Y-54239800D02*
X94639800Y-55270593D01*
X95402170Y-56032963D02*
X95402170Y-56917037D01*
X95402170Y-56917037D02*
X94639800Y-57679407D01*
X94639800Y-61984170D02*
X94984060Y-62328430D01*
X94984060Y-62328430D02*
X95520000Y-62328430D01*
X95520000Y-62328430D02*
X95520000Y-62864370D01*
X95520000Y-62864370D02*
X96293430Y-63637800D01*
%TO.N,/Discriminator Inputs/Port B/In7+*%
X91795000Y-56475000D02*
X91795000Y-61679370D01*
X91795000Y-61679370D02*
X92444060Y-62328430D01*
%TO.N,/Discriminator Inputs/Port B/In7-*%
X90727830Y-56032963D02*
X90727830Y-56917037D01*
%TO.N,/Discriminator Inputs/Port B/In7+*%
X92444060Y-62328430D02*
X92980000Y-62328430D01*
X92980000Y-62328430D02*
X92980000Y-62864370D01*
X92980000Y-62864370D02*
X93753430Y-63637800D01*
%TO.N,/Discriminator Inputs/Port B/In7-*%
X91490200Y-57679407D02*
X91490200Y-61805623D01*
X91795000Y-53935000D02*
X91490200Y-54239800D01*
X91490200Y-55270593D02*
X90727830Y-56032963D01*
X91490200Y-54239800D02*
X91490200Y-55270593D01*
X90727830Y-56917037D02*
X91490200Y-57679407D01*
X91490200Y-61805623D02*
X92483430Y-62798853D01*
X92483430Y-62798853D02*
X92483430Y-63637800D01*
%TO.N,/Discriminator Inputs/Port B/In8-*%
X90322170Y-56032963D02*
X90322170Y-56917037D01*
X89559800Y-54239800D02*
X89559800Y-55270593D01*
X90322170Y-56917037D02*
X89927368Y-57311840D01*
X89927368Y-57311840D02*
X90952400Y-58336872D01*
%TO.N,/Discriminator Inputs/Port B/In8+*%
X89255000Y-57070528D02*
X90647600Y-58463128D01*
X88876860Y-62864370D02*
X88103430Y-63637800D01*
X89412800Y-62328430D02*
X88876860Y-62328430D01*
%TO.N,/Discriminator Inputs/Port B/In8-*%
X89559800Y-55270593D02*
X90322170Y-56032963D01*
X90952400Y-61219883D02*
X89373430Y-62798853D01*
%TO.N,/Discriminator Inputs/Port B/In8+*%
X90647600Y-61093630D02*
X89412800Y-62328430D01*
X89255000Y-56475000D02*
X89255000Y-57070528D01*
X90647600Y-58463128D02*
X90647600Y-61093630D01*
%TO.N,/Discriminator Inputs/Port B/In8-*%
X89255000Y-53935000D02*
X89559800Y-54239800D01*
%TO.N,/Discriminator Inputs/Port B/In8+*%
X88876860Y-62328430D02*
X88876860Y-62864370D01*
%TO.N,/Discriminator Inputs/Port B/In8-*%
X90952400Y-58336872D02*
X90952400Y-61219883D01*
X89373430Y-62798853D02*
X89373430Y-63637800D01*
%TO.N,/Discriminator Inputs/Port B/In9-*%
X86410200Y-57542170D02*
X86410200Y-58174272D01*
X86272963Y-57542170D02*
X86410200Y-57542170D01*
X85647830Y-56917037D02*
X86272963Y-57542170D01*
X85647830Y-56032963D02*
X85647830Y-56917037D01*
X86410200Y-55270593D02*
X85647830Y-56032963D01*
X86410200Y-54239800D02*
X86410200Y-55270593D01*
%TO.N,/Discriminator Inputs/Port B/In9+*%
X86060000Y-62864370D02*
X86833430Y-63637800D01*
%TO.N,/Discriminator Inputs/Port B/In9-*%
X86715000Y-53935000D02*
X86410200Y-54239800D01*
%TO.N,/Discriminator Inputs/Port B/In9+*%
X86060000Y-62328430D02*
X86060000Y-62864370D01*
X85868230Y-59147298D02*
X85868230Y-62328430D01*
X86715000Y-58300528D02*
X85868230Y-59147298D01*
X86715000Y-56475000D02*
X86715000Y-58300528D01*
X85868230Y-62328430D02*
X86060000Y-62328430D01*
%TO.N,/Discriminator Inputs/Port B/In9-*%
X86410200Y-58174272D02*
X85563430Y-59021042D01*
X85563430Y-59021042D02*
X85563430Y-63637800D01*
%TO.N,/Discriminator Inputs/Port B/In10+*%
X83023430Y-63637800D02*
X83796860Y-62864370D01*
X83796860Y-62864370D02*
X83796860Y-62328430D01*
X83796860Y-62328430D02*
X84175000Y-62328430D01*
%TO.N,/Discriminator Inputs/Port B/In10-*%
X84479800Y-57679407D02*
X85242170Y-56917037D01*
%TO.N,/Discriminator Inputs/Port B/In10+*%
X84175000Y-62328430D02*
X84175000Y-56475000D01*
%TO.N,/Discriminator Inputs/Port B/In10-*%
X84293430Y-63637800D02*
X84293430Y-62798853D01*
X85242170Y-56917037D02*
X85242170Y-56032963D01*
X84293430Y-62798853D02*
X84479800Y-62612483D01*
X84479800Y-62612483D02*
X84479800Y-57679407D01*
X85242170Y-56032963D02*
X84479800Y-55270593D01*
X84479800Y-55270593D02*
X84479800Y-54239800D01*
X84479800Y-54239800D02*
X84175000Y-53935000D01*
%TO.N,/Discriminator Inputs/Port B/In11-*%
X81330200Y-59254272D02*
X80966030Y-59618442D01*
X80567830Y-56032963D02*
X80567830Y-56917037D01*
%TO.N,/Discriminator Inputs/Port B/In11+*%
X81635000Y-59380528D02*
X81270830Y-59744698D01*
%TO.N,/Discriminator Inputs/Port B/In11-*%
X81330200Y-54239800D02*
X81330200Y-55270593D01*
%TO.N,/Discriminator Inputs/Port B/In11+*%
X81270830Y-61516899D02*
X81753430Y-61999499D01*
%TO.N,/Discriminator Inputs/Port B/In11-*%
X81330200Y-57679407D02*
X81330200Y-59254272D01*
X81635000Y-53935000D02*
X81330200Y-54239800D01*
%TO.N,/Discriminator Inputs/Port B/In11+*%
X81270830Y-59744698D02*
X81270830Y-61516899D01*
X81753430Y-61999499D02*
X81753430Y-63637800D01*
%TO.N,/Discriminator Inputs/Port B/In11-*%
X80567830Y-56917037D02*
X81330200Y-57679407D01*
X80966030Y-59618442D02*
X80966030Y-61516899D01*
X81330200Y-55270593D02*
X80567830Y-56032963D01*
%TO.N,/Discriminator Inputs/Port B/In11+*%
X81635000Y-56475000D02*
X81635000Y-59380528D01*
%TO.N,/Discriminator Inputs/Port B/In11-*%
X80966030Y-61516899D02*
X80483430Y-61999499D01*
X80483430Y-61999499D02*
X80483430Y-63637800D01*
%TO.N,/Discriminator Inputs/Port B/In12-*%
X79399800Y-55270593D02*
X79399800Y-54239800D01*
X80162170Y-56032963D02*
X79399800Y-55270593D01*
X80162170Y-56917037D02*
X80162170Y-56032963D01*
X79399800Y-57542170D02*
X79537037Y-57542170D01*
%TO.N,/Discriminator Inputs/Port B/In12+*%
X79095000Y-60646230D02*
X79095000Y-56475000D01*
%TO.N,/Discriminator Inputs/Port B/In12-*%
X79399800Y-60772483D02*
X79399800Y-57542170D01*
X77373430Y-63637800D02*
X77373430Y-62798853D01*
X79537037Y-57542170D02*
X80162170Y-56917037D01*
%TO.N,/Discriminator Inputs/Port B/In12+*%
X77412800Y-62328430D02*
X79095000Y-60646230D01*
%TO.N,/Discriminator Inputs/Port B/In12-*%
X77373430Y-62798853D02*
X79399800Y-60772483D01*
%TO.N,/Discriminator Inputs/Port B/In12+*%
X76876860Y-62328430D02*
X77412800Y-62328430D01*
X76876860Y-62864370D02*
X76876860Y-62328430D01*
X76103430Y-63637800D02*
X76876860Y-62864370D01*
%TO.N,/Discriminator Inputs/Port B/In12-*%
X79399800Y-54239800D02*
X79095000Y-53935000D01*
%TO.N,/Discriminator Inputs/Port B/In13-*%
X76250200Y-58334272D02*
X74046030Y-60538442D01*
X76250200Y-55270593D02*
X75487830Y-56032963D01*
X76555000Y-53935000D02*
X76250200Y-54239800D01*
%TO.N,/Discriminator Inputs/Port B/In13+*%
X76555000Y-58460528D02*
X74350830Y-60664698D01*
%TO.N,/Discriminator Inputs/Port B/In13-*%
X76250200Y-57679407D02*
X76250200Y-58334272D01*
X76250200Y-54239800D02*
X76250200Y-55270593D01*
%TO.N,/Discriminator Inputs/Port B/In13+*%
X74833430Y-61999499D02*
X74833430Y-63637800D01*
%TO.N,/Discriminator Inputs/Port B/In13-*%
X74046030Y-60538442D02*
X74046030Y-61516899D01*
X75487830Y-56917037D02*
X76250200Y-57679407D01*
%TO.N,/Discriminator Inputs/Port B/In13+*%
X74350830Y-61516899D02*
X74833430Y-61999499D01*
X76555000Y-56475000D02*
X76555000Y-58460528D01*
%TO.N,/Discriminator Inputs/Port B/In13-*%
X73563430Y-61999499D02*
X73563430Y-63637800D01*
X75487830Y-56032963D02*
X75487830Y-56917037D01*
%TO.N,/Discriminator Inputs/Port B/In13+*%
X74350830Y-60664698D02*
X74350830Y-61516899D01*
%TO.N,/Discriminator Inputs/Port B/In13-*%
X74046030Y-61516899D02*
X73563430Y-61999499D01*
%TO.N,/Discriminator Inputs/Port B/In14-*%
X75082170Y-56917037D02*
X74684757Y-57314451D01*
X74319800Y-54239800D02*
X74319800Y-55270593D01*
X74015000Y-53935000D02*
X74319800Y-54239800D01*
%TO.N,/Discriminator Inputs/Port B/In14+*%
X71023430Y-62825000D02*
X71023430Y-63637800D01*
%TO.N,/Discriminator Inputs/Port B/In14-*%
X74684757Y-57314451D02*
X74952400Y-57582094D01*
X74319800Y-55270593D02*
X75082170Y-56032963D01*
%TO.N,/Discriminator Inputs/Port B/In14+*%
X74647600Y-57708350D02*
X74647600Y-58336872D01*
X71506030Y-62342400D02*
X71023430Y-62825000D01*
X74015000Y-57075750D02*
X74647600Y-57708350D01*
X71506030Y-61478442D02*
X71506030Y-62342400D01*
X74015000Y-56475000D02*
X74015000Y-57075750D01*
%TO.N,/Discriminator Inputs/Port B/In14-*%
X75082170Y-56032963D02*
X75082170Y-56917037D01*
%TO.N,/Discriminator Inputs/Port B/In14+*%
X74647600Y-58336872D02*
X71506030Y-61478442D01*
%TO.N,/Discriminator Inputs/Port B/In14-*%
X74952400Y-57582094D02*
X74952400Y-58463128D01*
X74952400Y-58463128D02*
X71810830Y-61604698D01*
X71810830Y-62342400D02*
X72293430Y-62825000D01*
X71810830Y-61604698D02*
X71810830Y-62342400D01*
X72293430Y-62825000D02*
X72293430Y-63637800D01*
%TO.N,/Discriminator Inputs/Port B/In15+*%
X71475000Y-56475000D02*
X69366053Y-56475000D01*
X69366053Y-56475000D02*
X69270830Y-56570223D01*
X69270830Y-56570223D02*
X69270830Y-61516899D01*
X69270830Y-61516899D02*
X69753430Y-61999499D01*
X69753430Y-61999499D02*
X69753430Y-63637800D01*
%TO.N,/Discriminator Inputs/Port B/In15-*%
X71475000Y-53935000D02*
X68966030Y-56443970D01*
X68966030Y-56443970D02*
X68966030Y-61516899D01*
X68966030Y-61516899D02*
X68483430Y-61999499D01*
X68483430Y-61999499D02*
X68483430Y-63637800D01*
D28*
%TO.N,+5V*%
X76000000Y-89600000D02*
X76600000Y-90200000D01*
X76600000Y-89000000D02*
X76000000Y-89600000D01*
X77200000Y-89600000D02*
X76600000Y-89000000D01*
D27*
%TO.N,/Trigger Interface/D2-*%
X132476679Y-109548630D02*
X133273321Y-109548630D01*
X131095000Y-109603000D02*
X131785740Y-108912260D01*
%TO.N,/Trigger Interface/D2+*%
X133356599Y-107036599D02*
X134547873Y-107036599D01*
%TO.N,/Trigger Interface/D2-*%
X131840309Y-108912260D02*
X132476679Y-109548630D01*
%TO.N,/Trigger Interface/D2+*%
X136637631Y-105247599D02*
X136800000Y-105085230D01*
%TO.N,/Trigger Interface/D2-*%
X131785740Y-108912260D02*
X131840309Y-108912260D01*
X136463127Y-105552401D02*
X136637631Y-105552401D01*
%TO.N,/Trigger Interface/D2+*%
X136336873Y-105247599D02*
X136637631Y-105247599D01*
%TO.N,/Trigger Interface/D2-*%
X133273321Y-109548630D02*
X133836630Y-108985321D01*
%TO.N,/Trigger Interface/D2+*%
X132875000Y-106555000D02*
X133356599Y-107036599D01*
%TO.N,/Trigger Interface/D2-*%
X134674127Y-107341401D02*
X136463127Y-105552401D01*
%TO.N,/Trigger Interface/D2+*%
X134547873Y-107036599D02*
X136336873Y-105247599D01*
%TO.N,/Trigger Interface/D2-*%
X133836630Y-108985321D02*
X133836630Y-107758416D01*
X133836630Y-107758416D02*
X133419615Y-107341401D01*
X133419615Y-107341401D02*
X134674127Y-107341401D01*
X136637631Y-105552401D02*
X136800000Y-105714770D01*
%TO.N,/Trigger Interface/D3+*%
X130735600Y-106447600D02*
X128863127Y-106447600D01*
X131484846Y-106629830D02*
X130917830Y-106629830D01*
X132875000Y-108587000D02*
X132036170Y-107748170D01*
X130917830Y-106629830D02*
X130735600Y-106447600D01*
%TO.N,/Trigger Interface/D3-*%
X128736873Y-106752400D02*
X127207050Y-105222577D01*
%TO.N,/Trigger Interface/D3+*%
X132036170Y-107748170D02*
X132036170Y-107181154D01*
%TO.N,/Trigger Interface/D3-*%
X130609347Y-106752400D02*
X128736873Y-106752400D01*
X131095000Y-107238053D02*
X130609347Y-106752400D01*
%TO.N,/Trigger Interface/D3+*%
X132036170Y-107181154D02*
X131484846Y-106629830D01*
X127422577Y-105007050D02*
X127422577Y-104777423D01*
X128863127Y-106447600D02*
X127422577Y-105007050D01*
%TO.N,/Trigger Interface/D3-*%
X131095000Y-107571000D02*
X131095000Y-107238053D01*
X127207050Y-105222577D02*
X126977423Y-105222577D01*
D28*
%TO.N,+5V*%
X77200000Y-89600000D02*
X76600000Y-90200000D01*
X76000000Y-89600000D02*
X74998070Y-89600000D01*
%TO.N,GND*%
X76000000Y-86800000D02*
X75400000Y-87400000D01*
X76600000Y-87400000D02*
X76000000Y-86800000D01*
X76600000Y-87400000D02*
X76000000Y-88000000D01*
X75133470Y-88266530D02*
X76000000Y-87400000D01*
X76000000Y-87400000D02*
X76000000Y-86800000D01*
D29*
%TO.N,+3V3*%
X123000000Y-108600000D02*
X122967500Y-108600000D01*
X122967500Y-108600000D02*
X122367500Y-108000000D01*
X123000000Y-108600000D02*
X122374998Y-109225002D01*
X122374998Y-109225002D02*
X122374998Y-109395000D01*
X123000000Y-101600000D02*
X122374998Y-102225002D01*
X122967500Y-101600000D02*
X122367500Y-101000000D01*
X122374998Y-102225002D02*
X122374998Y-102395000D01*
X123000000Y-101600000D02*
X122967500Y-101600000D01*
X122800000Y-94600000D02*
X122000000Y-94600000D01*
X122800000Y-94969998D02*
X122374998Y-95395000D01*
X122800000Y-94600000D02*
X122800000Y-94432500D01*
X122800000Y-94600000D02*
X122800000Y-94969998D01*
X122800000Y-94432500D02*
X122367500Y-94000000D01*
X122800000Y-87600000D02*
X122000000Y-87600000D01*
X122800000Y-87600000D02*
X122800000Y-87894998D01*
X122800000Y-87894998D02*
X122374998Y-88320000D01*
X122800000Y-87600000D02*
X122367500Y-87167500D01*
X122367500Y-87167500D02*
X122367500Y-87000000D01*
%TO.N,GND*%
X123064081Y-113778640D02*
X122490441Y-113205000D01*
X122490441Y-113205000D02*
X122374998Y-113205000D01*
X123064081Y-106778640D02*
X122485441Y-106200000D01*
X122485441Y-106200000D02*
X122379998Y-106200000D01*
X123200000Y-99800000D02*
X122969998Y-99800000D01*
X122969998Y-99800000D02*
X122374998Y-99205000D01*
X122400000Y-99800000D02*
X122400000Y-99230002D01*
X122400000Y-99230002D02*
X122374998Y-99205000D01*
X116000000Y-61200000D02*
X117992800Y-61200000D01*
X117992800Y-61200000D02*
X118037800Y-61155000D01*
%TO.N,/TS_BUS_SEL0*%
X114800000Y-89600000D02*
X116914999Y-89600000D01*
%TO.N,/TS_BUS2*%
X114630000Y-122865000D02*
X114630000Y-112230000D01*
X114630000Y-112230000D02*
X114200000Y-111800000D01*
X114200000Y-111800000D02*
X114200000Y-108929999D01*
X114200000Y-108929999D02*
X116924999Y-106205000D01*
%TO.N,/TS_BUS_SEL3*%
X115255000Y-110200000D02*
X116459999Y-110200000D01*
X116459999Y-110200000D02*
X116924999Y-110665000D01*
%TO.N,/TS_BUS_SEL2*%
X115000000Y-104200000D02*
X116389999Y-104200000D01*
X116389999Y-104200000D02*
X116924999Y-103665000D01*
X82785000Y-78185000D02*
X87400000Y-82800000D01*
X84150000Y-74605000D02*
X82785000Y-75970000D01*
X82785000Y-75970000D02*
X82785000Y-78185000D01*
X87400000Y-82800000D02*
X108200000Y-82800000D01*
X108200000Y-82800000D02*
X112800000Y-87400000D01*
X112800000Y-87400000D02*
X112800000Y-94600000D01*
X112800000Y-94600000D02*
X111800000Y-95600000D01*
%TO.N,/TS_BUS_SEL1*%
X116924999Y-96665000D02*
X115265000Y-96665000D01*
X115265000Y-96665000D02*
X115200000Y-96600000D01*
X110800000Y-87479453D02*
X110800000Y-93000000D01*
X107520547Y-84200000D02*
X110800000Y-87479453D01*
X87000000Y-84200000D02*
X107520547Y-84200000D01*
X80435000Y-77635000D02*
X87000000Y-84200000D01*
X80435000Y-75780000D02*
X80435000Y-77635000D01*
X81610000Y-74605000D02*
X80435000Y-75780000D01*
%TO.N,/TS_BUS0*%
X107200000Y-119000000D02*
X111200000Y-115000000D01*
X100000000Y-119000000D02*
X107200000Y-119000000D01*
X99390000Y-125405000D02*
X98215000Y-124230000D01*
X98215000Y-124230000D02*
X98215000Y-120785000D01*
X98215000Y-120785000D02*
X100000000Y-119000000D01*
X111200000Y-115000000D02*
X111200000Y-97854999D01*
X111200000Y-97854999D02*
X116924999Y-92130000D01*
%TO.N,/TS_BUS1*%
X99390000Y-122865000D02*
X101655000Y-120600000D01*
X109000000Y-120600000D02*
X113000000Y-116600000D01*
X101655000Y-120600000D02*
X109000000Y-120600000D01*
X113000000Y-116600000D02*
X113000000Y-103129999D01*
X113000000Y-103129999D02*
X116924999Y-99205000D01*
%TO.N,/TS_BUS3*%
X114630000Y-125405000D02*
X115995000Y-124040000D01*
X115995000Y-124040000D02*
X115995000Y-114134999D01*
X115995000Y-114134999D02*
X116924999Y-113205000D01*
X117974999Y-112825001D02*
X117595000Y-113205000D01*
X117349999Y-109395000D02*
X117974999Y-110020000D01*
X117974999Y-110020000D02*
X117974999Y-112825001D01*
X117595000Y-113205000D02*
X116924999Y-113205000D01*
%TO.N,/TS_BUS2*%
X118000000Y-105168882D02*
X116963882Y-106205000D01*
X117349999Y-102395000D02*
X118000000Y-103045001D01*
X118000000Y-103045001D02*
X118000000Y-105168882D01*
%TO.N,/TS_BUS1*%
X117349999Y-95395000D02*
X117974999Y-96020000D01*
X117974999Y-96020000D02*
X117974999Y-98625001D01*
X117974999Y-98625001D02*
X117395000Y-99205000D01*
%TO.N,/TS_BUS0*%
X117349999Y-92130000D02*
X117974999Y-91505000D01*
X117974999Y-91505000D02*
X117974999Y-88945000D01*
X117974999Y-88945000D02*
X117349999Y-88320000D01*
%TO.N,/TS_BUS_SEL0*%
X116924999Y-90860000D02*
X116924999Y-89590000D01*
%TO.N,/TS_BUS_SEL1*%
X116924999Y-97935000D02*
X116924999Y-96665000D01*
%TO.N,/TS_BUS_SEL2*%
X116924999Y-104935000D02*
X116924999Y-103665000D01*
%TO.N,/TS_BUS_SEL3*%
X116924999Y-111935000D02*
X116924999Y-110665000D01*
%TO.N,GND*%
X122400000Y-114000000D02*
X122400000Y-113230002D01*
X122400000Y-107000000D02*
X122400000Y-106230002D01*
X123600000Y-92200000D02*
X122444998Y-92200000D01*
X122400000Y-92800000D02*
X122400000Y-92155002D01*
X121232500Y-87000000D02*
X120400000Y-87000000D01*
X120400000Y-94000000D02*
X121232500Y-94000000D01*
X120400000Y-101000000D02*
X121232500Y-101000000D01*
X121232500Y-108000000D02*
X120400000Y-108000000D01*
%TO.N,+3V3*%
X122000000Y-108600000D02*
X122000000Y-109020002D01*
X122000000Y-109020002D02*
X122374998Y-109395000D01*
X122000000Y-108600000D02*
X122000000Y-108367500D01*
X122000000Y-108367500D02*
X122367500Y-108000000D01*
X122000000Y-101600000D02*
X122000000Y-102020002D01*
X122000000Y-102020002D02*
X122374998Y-102395000D01*
X122000000Y-101600000D02*
X122000000Y-101367500D01*
X122000000Y-101367500D02*
X122367500Y-101000000D01*
X122000000Y-94600000D02*
X122000000Y-95020002D01*
X122000000Y-95020002D02*
X122374998Y-95395000D01*
X122367500Y-94000000D02*
X122367500Y-94232500D01*
X122367500Y-94232500D02*
X122000000Y-94600000D01*
X122000000Y-87600000D02*
X122000000Y-87945002D01*
X122000000Y-87945002D02*
X122374998Y-88320000D01*
X122367500Y-87000000D02*
X122367500Y-87232500D01*
X122367500Y-87232500D02*
X122000000Y-87600000D01*
%TO.N,/D25*%
X95023430Y-70176570D02*
X94600000Y-70600000D01*
X95023430Y-68362200D02*
X95023430Y-70176570D01*
%TO.N,/D26*%
X100505557Y-70847127D02*
X100952873Y-70847127D01*
X98833430Y-69175000D02*
X100505557Y-70847127D01*
%TO.N,/D27*%
X109550000Y-74605000D02*
X107595000Y-72650000D01*
X107595000Y-72650000D02*
X103639630Y-72650000D01*
X103639630Y-72650000D02*
X100103430Y-69113800D01*
%TO.N,/D29*%
X107023430Y-68362200D02*
X106600000Y-68785630D01*
X106600000Y-68785630D02*
X106600000Y-71000000D01*
%TO.N,/D28*%
X105753430Y-68362200D02*
X105753430Y-71953430D01*
X105753430Y-71953430D02*
X106000000Y-72200000D01*
X110915000Y-74308299D02*
X110915000Y-75970000D01*
X106000000Y-72200000D02*
X108806701Y-72200000D01*
X108806701Y-72200000D02*
X110915000Y-74308299D01*
X110915000Y-75970000D02*
X112090000Y-77145000D01*
%TO.N,/D30*%
X110833430Y-68362200D02*
X110833430Y-71496729D01*
X110833430Y-71496729D02*
X113455000Y-74118299D01*
X113455000Y-74118299D02*
X113455000Y-75970000D01*
X113455000Y-75970000D02*
X114630000Y-77145000D01*
%TO.N,/D31*%
X112103430Y-68362200D02*
X112103430Y-70303430D01*
X114630000Y-74605000D02*
X114630000Y-72830000D01*
X114630000Y-72830000D02*
X112103430Y-70303430D01*
%TO.N,/D24*%
X93800000Y-69750970D02*
X93800000Y-71600000D01*
X93800000Y-71600000D02*
X94012650Y-71812650D01*
X103295000Y-74118299D02*
X103295000Y-75091701D01*
X93753430Y-69704400D02*
X93800000Y-69750970D01*
X93753430Y-68362200D02*
X93753430Y-69704400D01*
X104003299Y-75800000D02*
X105665000Y-75800000D01*
X94012650Y-71812650D02*
X100989351Y-71812650D01*
X100989351Y-71812650D02*
X103295000Y-74118299D01*
X103295000Y-75091701D02*
X104003299Y-75800000D01*
X105665000Y-75800000D02*
X107010000Y-77145000D01*
%TO.N,/D23*%
X89928430Y-71000000D02*
X90400000Y-71000000D01*
X88103430Y-69175000D02*
X89928430Y-71000000D01*
%TO.N,/D22*%
X86833430Y-69175000D02*
X90638430Y-72980000D01*
X100755000Y-75091701D02*
X101463299Y-75800000D01*
X90638430Y-72980000D02*
X99616701Y-72980000D01*
X99616701Y-72980000D02*
X100755000Y-74118299D01*
X100755000Y-74118299D02*
X100755000Y-75091701D01*
X101463299Y-75800000D02*
X103125000Y-75800000D01*
X103125000Y-75800000D02*
X104470000Y-77145000D01*
%TO.N,/D21*%
X83023430Y-70176570D02*
X82600000Y-70600000D01*
X83023430Y-68362200D02*
X83023430Y-70176570D01*
%TO.N,/D20*%
X81753430Y-68362200D02*
X81753430Y-71025000D01*
X81753430Y-71025000D02*
X83028430Y-72300000D01*
X83028430Y-72300000D02*
X87500000Y-72300000D01*
X87500000Y-72300000D02*
X88630000Y-73430000D01*
X98025000Y-75091701D02*
X98903299Y-75970000D01*
X88630000Y-73430000D02*
X97336701Y-73430000D01*
X98903299Y-75970000D02*
X100755000Y-75970000D01*
X97336701Y-73430000D02*
X98025000Y-74118299D01*
X100755000Y-75970000D02*
X101930000Y-77145000D01*
X98025000Y-74118299D02*
X98025000Y-75091701D01*
%TO.N,/D19*%
X78200000Y-70800000D02*
X78400000Y-71000000D01*
X77728430Y-70800000D02*
X78200000Y-70800000D01*
%TO.N,/D18*%
X74833430Y-68362200D02*
X74833430Y-69583430D01*
X74833430Y-69583430D02*
X78000000Y-72750000D01*
X78000000Y-72750000D02*
X86496701Y-72750000D01*
X88000000Y-74253299D02*
X88000000Y-75226701D01*
X98215000Y-75970000D02*
X99390000Y-77145000D01*
X86496701Y-72750000D02*
X88000000Y-74253299D01*
X88000000Y-75226701D02*
X88743299Y-75970000D01*
X88743299Y-75970000D02*
X98215000Y-75970000D01*
%TO.N,/D16*%
X69753430Y-68362200D02*
X69753430Y-71025000D01*
X69753430Y-71025000D02*
X71928430Y-73200000D01*
X79600000Y-73200000D02*
X79800000Y-73400000D01*
X71928430Y-73200000D02*
X79600000Y-73200000D01*
X85325000Y-77441701D02*
X86203299Y-78320000D01*
X79800000Y-73400000D02*
X84606701Y-73400000D01*
X84606701Y-73400000D02*
X85325000Y-74118299D01*
X85325000Y-74118299D02*
X85325000Y-77441701D01*
X86203299Y-78320000D02*
X95675000Y-78320000D01*
X95675000Y-78320000D02*
X96850000Y-77145000D01*
%TO.N,/D17*%
X72000000Y-72000000D02*
X72400000Y-72400000D01*
X71928430Y-72000000D02*
X72000000Y-72000000D01*
%TO.N,~{SYS_RESET}*%
X102328430Y-68200000D02*
X102166230Y-68362200D01*
X102166230Y-68362200D02*
X101373430Y-68362200D01*
%TO.N,GND*%
X103400000Y-67400000D02*
X104362200Y-68362200D01*
X91528430Y-67400000D02*
X92315630Y-68187200D01*
X92315630Y-68187200D02*
X92483430Y-68187200D01*
X79400000Y-67400000D02*
X80187200Y-68187200D01*
X80187200Y-68187200D02*
X80489830Y-68187200D01*
X96293430Y-68362200D02*
X96293430Y-70432500D01*
X99890000Y-129910000D02*
X100400000Y-129400000D01*
X107573430Y-70487800D02*
X108348730Y-70487800D01*
X122929700Y-64797500D02*
X122762200Y-64965000D01*
X96012500Y-129387800D02*
X96787800Y-129387800D01*
X84328430Y-71187650D02*
X84328430Y-70412350D01*
D28*
X75400000Y-87400000D02*
X76600000Y-87400000D01*
D29*
X84360930Y-70500000D02*
X83585630Y-70500000D01*
X72293430Y-68362200D02*
X72293430Y-70432500D01*
X84293430Y-68362200D02*
X84293430Y-70432500D01*
X125600000Y-64800000D02*
X124802500Y-64800000D01*
X124800000Y-64797500D02*
X122929700Y-64797500D01*
X115649187Y-64345825D02*
X115649187Y-64681687D01*
X124800000Y-69997500D02*
X122809700Y-69997500D01*
X84000000Y-128600000D02*
X84000000Y-129375300D01*
X108012500Y-129387800D02*
X108012500Y-128612500D01*
X115178640Y-64864081D02*
X115831581Y-64864081D01*
X108328430Y-71187650D02*
X108328430Y-70412350D01*
X72080000Y-131525600D02*
X72080000Y-129455300D01*
X96080000Y-131525600D02*
X96080000Y-129455300D01*
X71585630Y-70500000D02*
X71573430Y-70487800D01*
X108293430Y-68362200D02*
X108293430Y-70432500D01*
X116000000Y-65032500D02*
X117970300Y-65032500D01*
X72328430Y-71187650D02*
X72328430Y-70412350D01*
X83585630Y-70500000D02*
X83573430Y-70487800D01*
X96328430Y-71187650D02*
X96328430Y-70412350D01*
X75890000Y-129910000D02*
X76400000Y-129400000D01*
X125600000Y-70000000D02*
X124802500Y-70000000D01*
X84012500Y-129387800D02*
X84787800Y-129387800D01*
X72800000Y-129400000D02*
X72024700Y-129400000D01*
X87890000Y-131525600D02*
X87890000Y-129910000D01*
X108012500Y-129387800D02*
X108787800Y-129387800D01*
X72360930Y-70500000D02*
X71585630Y-70500000D01*
X124800000Y-61202500D02*
X122809700Y-61202500D01*
X72000000Y-128600000D02*
X72000000Y-129375300D01*
X84787800Y-129387800D02*
X84800000Y-129400000D01*
X108012500Y-128612500D02*
X108000000Y-128600000D01*
X108787800Y-129387800D02*
X108800000Y-129400000D01*
X96360930Y-70500000D02*
X95585630Y-70500000D01*
X84080000Y-131525600D02*
X84080000Y-129455300D01*
X68489830Y-68187200D02*
X67922030Y-68187200D01*
X96787800Y-129387800D02*
X96800000Y-129400000D01*
X111890000Y-129910000D02*
X112400000Y-129400000D01*
X125600000Y-61200000D02*
X124802500Y-61200000D01*
X115649187Y-64681687D02*
X116000000Y-65032500D01*
X95585630Y-70500000D02*
X95573430Y-70487800D01*
X67922030Y-68187200D02*
X67534830Y-67800000D01*
X87890000Y-129910000D02*
X88400000Y-129400000D01*
X124800000Y-66202500D02*
X122794700Y-66202500D01*
X96000000Y-128600000D02*
X96000000Y-129375300D01*
X125600000Y-66200000D02*
X124802500Y-66200000D01*
X111890000Y-131525600D02*
X111890000Y-129910000D01*
X99890000Y-131525600D02*
X99890000Y-129910000D01*
X108080000Y-131525600D02*
X108080000Y-129455300D01*
X75890000Y-131525600D02*
X75890000Y-129910000D01*
%TO.N,/NIM3*%
X118850600Y-62425000D02*
X120560000Y-64134400D01*
X120560000Y-73755000D02*
X119710000Y-74605000D01*
X120560000Y-64134400D02*
X120560000Y-73755000D01*
D27*
%TO.N,/Trigger Interface/D4+*%
X133002819Y-113412709D02*
X133002819Y-111547292D01*
X133002819Y-111547292D02*
X132875000Y-111419473D01*
X132263128Y-114152400D02*
X133002819Y-113412709D01*
X123099998Y-111935000D02*
X123582598Y-111452400D01*
X132875000Y-111419473D02*
X132875000Y-110619000D01*
X123582598Y-111452400D02*
X128436872Y-111452400D01*
X130536872Y-114152400D02*
X132263128Y-114152400D01*
X122374998Y-111935000D02*
X123099998Y-111935000D01*
X129447600Y-112463128D02*
X129447600Y-113063128D01*
X128436872Y-111452400D02*
X129447600Y-112463128D01*
X129447600Y-113063128D02*
X130536872Y-114152400D01*
%TO.N,/Trigger Interface/D1+*%
X133586200Y-105234200D02*
X132875000Y-104523000D01*
X122374998Y-90860000D02*
X130788000Y-90860000D01*
X133588295Y-88003823D02*
X137047600Y-91463128D01*
X130788000Y-90860000D02*
X130917830Y-90730170D01*
X130917830Y-90730170D02*
X131484846Y-90730170D01*
X133311230Y-88003823D02*
X133588295Y-88003823D01*
X132036170Y-90178846D02*
X132036170Y-89611830D01*
X132875000Y-88440053D02*
X133311230Y-88003823D01*
X137047600Y-91463128D02*
X137047600Y-102136872D01*
X131484846Y-90730170D02*
X132036170Y-90178846D01*
X133950272Y-105234200D02*
X133586200Y-105234200D01*
X137047600Y-102136872D02*
X133950272Y-105234200D01*
X132036170Y-89611830D02*
X132875000Y-88773000D01*
%TO.N,/Trigger Interface/D2-*%
X134175873Y-91591401D02*
X135447600Y-92863128D01*
X131095000Y-93853000D02*
X131913370Y-93034630D01*
X135447600Y-92863128D02*
X135447600Y-96136872D01*
X131913370Y-93235321D02*
X132476679Y-93798630D01*
X133836630Y-92008416D02*
X133419615Y-91591401D01*
X133419615Y-91591401D02*
X134175873Y-91591401D01*
X124157598Y-98447600D02*
X122374998Y-96665000D01*
X131913370Y-93034630D02*
X131913370Y-93235321D01*
X132476679Y-93798630D02*
X133273321Y-93798630D01*
X135447600Y-96136872D02*
X133136872Y-98447600D01*
X133273321Y-93798630D02*
X133836630Y-93235321D01*
X133836630Y-93235321D02*
X133836630Y-92008416D01*
X133136872Y-98447600D02*
X124157598Y-98447600D01*
%TO.N,/Trigger Interface/D1-*%
X133714551Y-87699023D02*
X137352400Y-91336872D01*
X131933830Y-88383154D02*
X132485154Y-87831830D01*
X122374998Y-89590000D02*
X123340198Y-90555200D01*
X133184977Y-87699023D02*
X133714551Y-87699023D01*
X132485154Y-87831830D02*
X133052170Y-87831830D01*
X131933830Y-88950170D02*
X131933830Y-88383154D01*
X131095000Y-89789000D02*
X131933830Y-88950170D01*
X133052170Y-87831830D02*
X133184977Y-87699023D01*
X123340198Y-90555200D02*
X130661747Y-90555200D01*
X134076528Y-105539000D02*
X131095000Y-105539000D01*
X130661747Y-90555200D02*
X131095000Y-90121947D01*
X137352400Y-102263128D02*
X134076528Y-105539000D01*
X137352400Y-91336872D02*
X137352400Y-102263128D01*
%TO.N,/Trigger Interface/D2+*%
X135752400Y-96263128D02*
X133263128Y-98752400D01*
X134302127Y-91286599D02*
X135752400Y-92736872D01*
X133263128Y-98752400D02*
X124031345Y-98752400D01*
X132875000Y-90805000D02*
X133356599Y-91286599D01*
X123213945Y-97935000D02*
X122374998Y-97935000D01*
X135752400Y-92736872D02*
X135752400Y-96263128D01*
X124031345Y-98752400D02*
X123213945Y-97935000D01*
X133356599Y-91286599D02*
X134302127Y-91286599D01*
%TO.N,/Trigger Interface/D4-*%
X129752400Y-112336872D02*
X129752400Y-112936872D01*
X130663128Y-113847600D02*
X132136872Y-113847600D01*
X123099998Y-110665000D02*
X123582598Y-111147600D01*
X132659473Y-111635000D02*
X131095000Y-111635000D01*
X122374998Y-110665000D02*
X123099998Y-110665000D01*
X132698019Y-111673546D02*
X132659473Y-111635000D01*
X128563128Y-111147600D02*
X129752400Y-112336872D01*
X132698019Y-113286453D02*
X132698019Y-111673546D01*
X123582598Y-111147600D02*
X128563128Y-111147600D01*
X129752400Y-112936872D02*
X130663128Y-113847600D01*
X132136872Y-113847600D02*
X132698019Y-113286453D01*
%TO.N,/Trigger Interface/D3-*%
X126992198Y-108282200D02*
X122374998Y-103665000D01*
X130383800Y-108282200D02*
X126992198Y-108282200D01*
X131095000Y-107571000D02*
X130383800Y-108282200D01*
%TO.N,/Trigger Interface/D3+*%
X132875000Y-108587000D02*
X126865945Y-108587000D01*
X123213945Y-104935000D02*
X122374998Y-104935000D01*
X126865945Y-108587000D02*
X123213945Y-104935000D01*
D30*
%TO.N,/Trigger Interface/NIM1+*%
X134400000Y-75000000D02*
X132232488Y-75000000D01*
X124800000Y-68802500D02*
X122789700Y-68802500D01*
X132232488Y-75000000D02*
X126034988Y-68802500D01*
X126034988Y-68802500D02*
X124800000Y-68802500D01*
%TO.N,/Trigger Interface/NIM2+*%
X122869700Y-67397500D02*
X122762200Y-67505000D01*
X130152567Y-67397500D02*
X132550067Y-65000000D01*
X124800000Y-67397500D02*
X130152567Y-67397500D01*
X132550067Y-65000000D02*
X134400000Y-65000000D01*
X124800000Y-67397500D02*
X122869700Y-67397500D01*
%TO.N,/Trigger Interface/NIM3+*%
X124800000Y-63602500D02*
X122854700Y-63602500D01*
X127647433Y-63602500D02*
X124800000Y-63602500D01*
X134400000Y-55000000D02*
X134400000Y-56849933D01*
X134400000Y-56849933D02*
X127647433Y-63602500D01*
%TO.N,/Trigger Interface/NIM4+*%
X127000000Y-59849933D02*
X123800000Y-56649933D01*
X126034988Y-62397500D02*
X127000000Y-61432488D01*
X124800000Y-62397500D02*
X126034988Y-62397500D01*
X124800000Y-62397500D02*
X122789700Y-62397500D01*
X123800000Y-56649933D02*
X123800000Y-54800000D01*
X127000000Y-61432488D02*
X127000000Y-59849933D01*
D29*
%TO.N,/D4*%
X80270000Y-131525600D02*
X80270000Y-129270000D01*
X80270000Y-129270000D02*
X79600000Y-128600000D01*
%TO.N,/D1*%
X69540000Y-131525600D02*
X69540000Y-128976116D01*
X75355000Y-126580000D02*
X76530000Y-125405000D01*
X71936116Y-126580000D02*
X75355000Y-126580000D01*
X69540000Y-128976116D02*
X71936116Y-126580000D01*
%TO.N,/D6*%
X85350000Y-131525600D02*
X85800000Y-131075600D01*
X85800000Y-131075600D02*
X85800000Y-128600000D01*
%TO.N,/D11*%
X98620000Y-128736116D02*
X98620000Y-131525600D01*
X93765000Y-127400000D02*
X96200000Y-127400000D01*
X91770000Y-125405000D02*
X93765000Y-127400000D01*
X96200000Y-127400000D02*
X96375000Y-127575000D01*
X97458884Y-127575000D02*
X98620000Y-128736116D01*
X96375000Y-127575000D02*
X97458884Y-127575000D01*
%TO.N,/D9*%
X93540000Y-129715000D02*
X89230000Y-125405000D01*
X93540000Y-131525600D02*
X93540000Y-129715000D01*
%TO.N,/D7*%
X86620000Y-127875000D02*
X84150000Y-125405000D01*
X86620000Y-131525600D02*
X86620000Y-127875000D01*
%TO.N,/D3*%
X74620000Y-131525600D02*
X74620000Y-129855000D01*
X74620000Y-129855000D02*
X79070000Y-125405000D01*
%TO.N,/D15*%
X98045000Y-126600000D02*
X96850000Y-125405000D01*
X108483884Y-126600000D02*
X98045000Y-126600000D01*
X110620000Y-128736116D02*
X108483884Y-126600000D01*
X110620000Y-131525600D02*
X110620000Y-128736116D01*
%TO.N,/NIM2*%
X119455000Y-70545000D02*
X119455000Y-64299400D01*
X118535000Y-75970000D02*
X118535000Y-71465000D01*
X119710000Y-77145000D02*
X118535000Y-75970000D01*
X118535000Y-71465000D02*
X119455000Y-70545000D01*
X119455000Y-64299400D02*
X118850600Y-63695000D01*
%TO.N,/D10*%
X97425000Y-131450600D02*
X97425000Y-128425000D01*
X97425000Y-128425000D02*
X97200000Y-128200000D01*
%TO.N,/D12*%
X104270000Y-130183400D02*
X104270000Y-131525600D01*
X102814942Y-128728342D02*
X104270000Y-130183400D01*
X102671658Y-128728342D02*
X102814942Y-128728342D01*
%TO.N,/D13*%
X102930542Y-128103342D02*
X102412774Y-128103342D01*
X102316116Y-128200000D02*
X99000000Y-128200000D01*
X105540000Y-130712800D02*
X102930542Y-128103342D01*
X99000000Y-128200000D02*
X97380000Y-126580000D01*
X102412774Y-128103342D02*
X102316116Y-128200000D01*
X97380000Y-126580000D02*
X95485000Y-126580000D01*
X95485000Y-126580000D02*
X94310000Y-125405000D01*
%TO.N,/D14*%
X109425000Y-131450600D02*
X109425000Y-128425000D01*
X109425000Y-128425000D02*
X109200000Y-128200000D01*
%TO.N,/D2*%
X73600000Y-131275600D02*
X73600000Y-128400000D01*
X73350000Y-131525600D02*
X73600000Y-131275600D01*
%TO.N,/D5*%
X81540000Y-131525600D02*
X81540000Y-125475000D01*
%TO.N,/D0*%
X68270000Y-131525600D02*
X68270000Y-129270000D01*
X68270000Y-129270000D02*
X68000000Y-129000000D01*
%TO.N,+3V3*%
X86173430Y-70487800D02*
X85508130Y-70487800D01*
X106877500Y-128677500D02*
X106800000Y-128600000D01*
X110173430Y-70487800D02*
X109508130Y-70487800D01*
X94800000Y-128600000D02*
X94800000Y-129310300D01*
X106200000Y-129400000D02*
X106865300Y-129400000D01*
X115600000Y-66800000D02*
X115600000Y-66567500D01*
X106877500Y-129387800D02*
X106877500Y-128677500D01*
X82800000Y-128600000D02*
X82800000Y-129310300D01*
X94810000Y-131525600D02*
X94810000Y-129455300D01*
X73563430Y-68362200D02*
X73563430Y-70432500D01*
X115600000Y-66567500D02*
X116000000Y-66167500D01*
X70200000Y-129400000D02*
X70865300Y-129400000D01*
X85563430Y-68362200D02*
X85563430Y-70432500D01*
X73528430Y-71187650D02*
X73528430Y-70477350D01*
X109528430Y-71187650D02*
X109528430Y-70477350D01*
X82810000Y-131525600D02*
X82810000Y-129455300D01*
X116000000Y-66167500D02*
X117970300Y-66167500D01*
X115200000Y-66200000D02*
X115967500Y-66200000D01*
X109563430Y-68362200D02*
X109563430Y-70432500D01*
X98173430Y-70487800D02*
X97508130Y-70487800D01*
X97528430Y-71187650D02*
X97528430Y-70477350D01*
X85528430Y-71187650D02*
X85528430Y-70477350D01*
X74173430Y-70487800D02*
X73508130Y-70487800D01*
X106810000Y-131525600D02*
X106810000Y-129455300D01*
X97563430Y-68362200D02*
X97563430Y-70432500D01*
X70810000Y-131525600D02*
X70810000Y-129455300D01*
X70800000Y-128600000D02*
X70800000Y-129310300D01*
X94200000Y-129400000D02*
X94865300Y-129400000D01*
X82200000Y-129400000D02*
X82865300Y-129400000D01*
D28*
%TO.N,+5V*%
X76600000Y-89600000D02*
X76000000Y-89600000D01*
X74998070Y-89600000D02*
X74914600Y-89516530D01*
D29*
%TO.N,/D8*%
X92270000Y-131525600D02*
X92270000Y-129870000D01*
X92270000Y-129870000D02*
X91000000Y-128600000D01*
%TO.N,/NIM1*%
X117286200Y-67505000D02*
X115800000Y-68991200D01*
X115805000Y-73240000D02*
X115805000Y-75780000D01*
X115805000Y-75780000D02*
X117170000Y-77145000D01*
X115800000Y-73235000D02*
X115805000Y-73240000D01*
X115800000Y-68991200D02*
X115800000Y-73235000D01*
%TO.N,/NIM0*%
X118037800Y-68775000D02*
X117025000Y-68775000D01*
X116600000Y-74035000D02*
X117170000Y-74605000D01*
X117025000Y-68775000D02*
X116600000Y-69200000D01*
X116600000Y-69200000D02*
X116600000Y-74035000D01*
%TO.N,/D17*%
X70948430Y-71020000D02*
X71928430Y-72000000D01*
X70948430Y-68437200D02*
X70948430Y-71020000D01*
%TO.N,~{SYS_RESET}*%
X79000000Y-131525600D02*
X79000000Y-129800000D01*
X77535630Y-68200000D02*
X77373430Y-68362200D01*
X90328430Y-68200000D02*
X89535630Y-68200000D01*
X91000000Y-131525600D02*
X91000000Y-129800000D01*
X118037800Y-70762200D02*
X117600000Y-71200000D01*
X113373430Y-68362200D02*
X114090630Y-68362200D01*
X103000000Y-131525600D02*
X103000000Y-129800000D01*
X118037800Y-70045000D02*
X118037800Y-70762200D01*
X67000000Y-131525600D02*
X67000000Y-129800000D01*
X78528430Y-68200000D02*
X77535630Y-68200000D01*
X89535630Y-68200000D02*
X89373430Y-68362200D01*
X114090630Y-68362200D02*
X114328430Y-68600000D01*
%TO.N,/D19*%
X76103430Y-69175000D02*
X77728430Y-70800000D01*
D27*
%TO.N,/Discriminator Inputs/Port A/In12+*%
X102347170Y-143902037D02*
X102347170Y-143017963D01*
X103787400Y-138370901D02*
X104270000Y-137888301D01*
X101584800Y-145695200D02*
X101584800Y-144664407D01*
X102347170Y-143017963D02*
X101972368Y-142643160D01*
X103787400Y-140828128D02*
X103787400Y-138370901D01*
X101972368Y-142643160D02*
X103787400Y-140828128D01*
X101584800Y-144664407D02*
X102347170Y-143902037D01*
X104270000Y-137888301D02*
X104270000Y-136250000D01*
%TO.N,/Discriminator Inputs/Port A/In13-*%
X103820000Y-142395528D02*
X106327400Y-139888128D01*
X103820000Y-143460000D02*
X103820000Y-142395528D01*
X106327400Y-138370901D02*
X106810000Y-137888301D01*
X106810000Y-137888301D02*
X106810000Y-136250000D01*
X106327400Y-139888128D02*
X106327400Y-138370901D01*
%TO.N,/Discriminator Inputs/Port A/In12-*%
X101280000Y-142904472D02*
X103482600Y-140701872D01*
X103482600Y-138370901D02*
X103000000Y-137888301D01*
X103482600Y-140701872D02*
X103482600Y-138370901D01*
X103000000Y-137888301D02*
X103000000Y-136250000D01*
%TO.N,/Discriminator Inputs/Port A/In15+*%
X108595200Y-144664407D02*
X107832830Y-143902037D01*
X108461521Y-142389272D02*
X108595200Y-142389272D01*
X108595200Y-145695200D02*
X108595200Y-144664407D01*
X107832830Y-143017963D02*
X108461521Y-142389272D01*
X111102600Y-139881872D02*
X111102600Y-138370901D01*
X107832830Y-143902037D02*
X107832830Y-143017963D01*
X110620000Y-137888301D02*
X110620000Y-136250000D01*
X108595200Y-142389272D02*
X111102600Y-139881872D01*
X111102600Y-138370901D02*
X110620000Y-137888301D01*
%TO.N,/Discriminator Inputs/Port A/In15-*%
X108900000Y-143460000D02*
X108900000Y-142515528D01*
X108900000Y-142515528D02*
X111407400Y-140008128D01*
X111407400Y-140008128D02*
X111407400Y-138370901D01*
X111890000Y-137888301D02*
X111890000Y-136250000D01*
X111407400Y-138370901D02*
X111890000Y-137888301D01*
%TO.N,/Discriminator Inputs/Port A/In14-*%
X108562600Y-138370901D02*
X108080000Y-137888301D01*
X108080000Y-137888301D02*
X108080000Y-136250000D01*
X108562600Y-140821872D02*
X108562600Y-138370901D01*
X106360000Y-143024472D02*
X108562600Y-140821872D01*
%TO.N,/Discriminator Inputs/Port A/In14+*%
X108867400Y-138370901D02*
X109350000Y-137888301D01*
X107112368Y-142703160D02*
X108867400Y-140948128D01*
X107427170Y-143017963D02*
X107112368Y-142703160D01*
X108867400Y-140948128D02*
X108867400Y-138370901D01*
X106664800Y-144664407D02*
X107427170Y-143902037D01*
X106664800Y-145695200D02*
X106664800Y-144664407D01*
X107427170Y-143902037D02*
X107427170Y-143017963D01*
X109350000Y-137888301D02*
X109350000Y-136250000D01*
%TO.N,/Discriminator Inputs/Port A/In13+*%
X105540000Y-137888301D02*
X105540000Y-136250000D01*
X103515200Y-142269272D02*
X106022600Y-139761872D01*
X102752830Y-143902037D02*
X102752830Y-143017963D01*
X106022600Y-138370901D02*
X105540000Y-137888301D01*
X103515200Y-145695200D02*
X103515200Y-144664407D01*
X102752830Y-143017963D02*
X103501521Y-142269272D01*
X103515200Y-144664407D02*
X102752830Y-143902037D01*
X106022600Y-139761872D02*
X106022600Y-138370901D01*
X103501521Y-142269272D02*
X103515200Y-142269272D01*
%TO.N,/Discriminator Inputs/Port A/In11-*%
X99116570Y-137559370D02*
X99116570Y-137023430D01*
X98740000Y-137935940D02*
X99116570Y-137559370D01*
X98740000Y-143460000D02*
X98740000Y-137935940D01*
X99116570Y-137023430D02*
X99890000Y-136250000D01*
%TO.N,/Discriminator Inputs/Port A/In10-*%
X96200000Y-142783890D02*
X97045200Y-141938690D01*
X97045200Y-137559370D02*
X96853430Y-137559370D01*
X97045200Y-141938690D02*
X97045200Y-137559370D01*
X96853430Y-137023430D02*
X96080000Y-136250000D01*
X96853430Y-137559370D02*
X96853430Y-137023430D01*
%TO.N,/Discriminator Inputs/Port A/In10+*%
X96832077Y-142582869D02*
X97350000Y-142064946D01*
X96504800Y-145695200D02*
X96504800Y-144664407D01*
X97350000Y-142064946D02*
X97350000Y-136250000D01*
X97267170Y-143902037D02*
X97267170Y-143017963D01*
X96504800Y-144664407D02*
X97267170Y-143902037D01*
X97267170Y-143017963D02*
X96832077Y-142582869D01*
%TO.N,/Discriminator Inputs/Port A/In9-*%
X94036570Y-137023430D02*
X94810000Y-136250000D01*
X93660000Y-143460000D02*
X93660000Y-137935940D01*
X94036570Y-137559370D02*
X94036570Y-137023430D01*
X93660000Y-137935940D02*
X94036570Y-137559370D01*
%TO.N,/Discriminator Inputs/Port A/In8-*%
X91773430Y-137023430D02*
X91000000Y-136250000D01*
X91120000Y-142864472D02*
X91965200Y-142019272D01*
X91773430Y-137559370D02*
X91773430Y-137023430D01*
X91965200Y-142019272D02*
X91965200Y-137559370D01*
X91965200Y-137559370D02*
X91773430Y-137559370D01*
%TO.N,/Discriminator Inputs/Port A/In11+*%
X98435200Y-144664407D02*
X97672830Y-143902037D01*
X98435200Y-137273747D02*
X98620000Y-137088947D01*
X98435200Y-142255593D02*
X98435200Y-137273747D01*
X97672830Y-143017963D02*
X98435200Y-142255593D01*
X98435200Y-145695200D02*
X98435200Y-144664407D01*
X97672830Y-143902037D02*
X97672830Y-143017963D01*
%TO.N,/Discriminator Inputs/Port A/In9+*%
X93355200Y-145695200D02*
X93355200Y-144664407D01*
X93355200Y-142255593D02*
X93355200Y-137273747D01*
X92592830Y-143902037D02*
X92592830Y-143017963D01*
X92592830Y-143017963D02*
X93355200Y-142255593D01*
X93355200Y-137273747D02*
X93540000Y-137088947D01*
X93355200Y-144664407D02*
X92592830Y-143902037D01*
%TO.N,/Discriminator Inputs/Port A/In8+*%
X92270000Y-142145528D02*
X92270000Y-136250000D01*
X91792368Y-142623160D02*
X92270000Y-142145528D01*
X91424800Y-144664407D02*
X92187170Y-143902037D01*
X92187170Y-143902037D02*
X92187170Y-143017963D01*
X91424800Y-145695200D02*
X91424800Y-144664407D01*
X92187170Y-143017963D02*
X91792368Y-142623160D01*
%TO.N,/Discriminator Inputs/Port A/In5-*%
X83500000Y-137778947D02*
X83500000Y-143460000D01*
X82810000Y-137088947D02*
X83500000Y-137778947D01*
%TO.N,/Discriminator Inputs/Port A/In4-*%
X79000000Y-136250000D02*
X79773430Y-137023430D01*
X79773430Y-137023430D02*
X79773430Y-137559370D01*
X80960000Y-138210000D02*
X80960000Y-143460000D01*
X80309370Y-137559370D02*
X80960000Y-138210000D01*
X79773430Y-137559370D02*
X80309370Y-137559370D01*
%TO.N,/Discriminator Inputs/Port A/In6-*%
X84853430Y-137023430D02*
X84853430Y-137559370D01*
X84080000Y-136250000D02*
X84853430Y-137023430D01*
X84853430Y-137559370D02*
X85389370Y-137559370D01*
X85389370Y-137559370D02*
X86040000Y-138210000D01*
X86040000Y-138210000D02*
X86040000Y-143460000D01*
%TO.N,/Discriminator Inputs/Port A/In7-*%
X88580000Y-137778947D02*
X88580000Y-143460000D01*
X87890000Y-137088947D02*
X88580000Y-137778947D01*
%TO.N,/Discriminator Inputs/Port A/In5+*%
X81540000Y-136250000D02*
X82313430Y-137023430D01*
X82849370Y-137559370D02*
X83195200Y-137905200D01*
X83195200Y-142255593D02*
X82432830Y-143017963D01*
X82432830Y-143017963D02*
X82432830Y-143902037D01*
X83195200Y-137905200D02*
X83195200Y-142255593D01*
X82432830Y-143902037D02*
X83195200Y-144664407D01*
X83195200Y-144664407D02*
X83195200Y-145695200D01*
X82313430Y-137559370D02*
X82849370Y-137559370D01*
X82313430Y-137023430D02*
X82313430Y-137559370D01*
%TO.N,/Discriminator Inputs/Port A/In6+*%
X86344800Y-142392830D02*
X86482037Y-142392830D01*
X86344800Y-138083747D02*
X86344800Y-142392830D01*
X87107170Y-143017963D02*
X87107170Y-143902037D01*
X85350000Y-137088947D02*
X86344800Y-138083747D01*
X86482037Y-142392830D02*
X87107170Y-143017963D01*
X86344800Y-144664407D02*
X86344800Y-145695200D01*
X87107170Y-143902037D02*
X86344800Y-144664407D01*
%TO.N,/Discriminator Inputs/Port A/In7+*%
X87929370Y-137559370D02*
X88275200Y-137905200D01*
X87512830Y-143902037D02*
X88275200Y-144664407D01*
X86620000Y-136250000D02*
X87393430Y-137023430D01*
X88275200Y-137905200D02*
X88275200Y-142255593D01*
X87393430Y-137023430D02*
X87393430Y-137559370D01*
X87393430Y-137559370D02*
X87929370Y-137559370D01*
X88275200Y-144664407D02*
X88275200Y-145695200D01*
X88275200Y-142255593D02*
X87512830Y-143017963D01*
X87512830Y-143017963D02*
X87512830Y-143902037D01*
%TO.N,/Discriminator Inputs/Port A/In4+*%
X80270000Y-137088947D02*
X81264800Y-138083747D01*
X81264800Y-138083747D02*
X81264800Y-142392830D01*
X82027170Y-143017963D02*
X82027170Y-143902037D01*
X81402037Y-142392830D02*
X82027170Y-143017963D01*
X82027170Y-143902037D02*
X81264800Y-144664407D01*
X81264800Y-142392830D02*
X81402037Y-142392830D01*
X81264800Y-144664407D02*
X81264800Y-145695200D01*
%TO.N,/Discriminator Inputs/Port A/In2+*%
X76184800Y-139923747D02*
X76184800Y-142392830D01*
X76184800Y-144664407D02*
X76184800Y-145695200D01*
X76947170Y-143902037D02*
X76184800Y-144664407D01*
X76322037Y-142392830D02*
X76947170Y-143017963D01*
X76947170Y-143017963D02*
X76947170Y-143902037D01*
X73350000Y-137088947D02*
X76184800Y-139923747D01*
X76184800Y-142392830D02*
X76322037Y-142392830D01*
%TO.N,/Discriminator Inputs/Port A/In0-*%
X67773430Y-137023430D02*
X67000000Y-136250000D01*
X70800000Y-140050000D02*
X68309370Y-137559370D01*
X67773430Y-137559370D02*
X67773430Y-137023430D01*
X70800000Y-143460000D02*
X70800000Y-140050000D01*
X68309370Y-137559370D02*
X67773430Y-137559370D01*
%TO.N,/Discriminator Inputs/Port A/In1-*%
X73340000Y-140324472D02*
X70327401Y-137311873D01*
X70327401Y-136732599D02*
X70810000Y-136250000D01*
X73340000Y-143460000D02*
X73340000Y-140324472D01*
X70327401Y-137311873D02*
X70327401Y-136732599D01*
%TO.N,/Discriminator Inputs/Port A/In0+*%
X71104800Y-139923747D02*
X68270000Y-137088947D01*
X71104800Y-142255593D02*
X71104800Y-139923747D01*
X71104800Y-144664407D02*
X71867170Y-143902037D01*
X71867170Y-143902037D02*
X71867170Y-143017963D01*
X71867170Y-143017963D02*
X71104800Y-142255593D01*
X71104800Y-145695200D02*
X71104800Y-144664407D01*
%TO.N,/Discriminator Inputs/Port A/In1+*%
X72272830Y-143017963D02*
X73035200Y-142255593D01*
X70022599Y-137438127D02*
X70022599Y-136732599D01*
X73035200Y-145695200D02*
X73035200Y-144664407D01*
X73035200Y-140450728D02*
X70022599Y-137438127D01*
X73035200Y-142255593D02*
X73035200Y-140450728D01*
X70022599Y-136732599D02*
X69540000Y-136250000D01*
X73035200Y-144664407D02*
X72272830Y-143902037D01*
X72272830Y-143902037D02*
X72272830Y-143017963D01*
%TO.N,/Discriminator Inputs/Port A/In2-*%
X73389370Y-137559370D02*
X75880000Y-140050000D01*
X72080000Y-136250000D02*
X72853430Y-137023430D01*
X72853430Y-137559370D02*
X73389370Y-137559370D01*
X72853430Y-137023430D02*
X72853430Y-137559370D01*
X75880000Y-140050000D02*
X75880000Y-143460000D01*
%TO.N,/Discriminator Inputs/Port A/In3-*%
X78420000Y-140204472D02*
X78420000Y-143460000D01*
X75407401Y-137191873D02*
X78420000Y-140204472D01*
X75407401Y-136732599D02*
X75407401Y-137191873D01*
X75890000Y-136250000D02*
X75407401Y-136732599D01*
%TO.N,/Discriminator Inputs/Port A/In3+*%
X77352830Y-143902037D02*
X78115200Y-144664407D01*
X74620000Y-136250000D02*
X75102599Y-136732599D01*
X78115200Y-144664407D02*
X78115200Y-145695200D01*
X78115200Y-142255593D02*
X77352830Y-143017963D01*
X75102599Y-137318127D02*
X78115200Y-140330728D01*
X77352830Y-143017963D02*
X77352830Y-143902037D01*
X78115200Y-140330728D02*
X78115200Y-142255593D01*
X75102599Y-136732599D02*
X75102599Y-137318127D01*
%TD*%
M02*
