%TF.GenerationSoftware,KiCad,Pcbnew,8.0.5-dirty*%
%TF.CreationDate,2024-10-02T03:34:58-04:00*%
%TF.ProjectId,LVDS_BeagleVFire_Cape,4c564453-5f42-4656-9167-6c6556466972,1*%
%TF.SameCoordinates,Original*%
%TF.FileFunction,Drillmap*%
%TF.FilePolarity,Positive*%
%FSLAX45Y45*%
G04 Gerber Fmt 4.5, Leading zero omitted, Abs format (unit mm)*
G04 Created by KiCad (PCBNEW 8.0.5-dirty) date 2024-10-02 03:34:58*
%MOMM*%
%LPD*%
G01*
G04 APERTURE LIST*
%ADD10C,0.120000*%
%ADD11C,0.200000*%
%ADD12C,0.100000*%
%ADD13C,0.150000*%
%ADD14C,0.170000*%
G04 APERTURE END LIST*
D10*
X13050000Y-15000000D02*
X5000000Y-15000000D01*
X5000000Y-10635500D01*
X6460500Y-10635500D01*
X6460500Y-8231000D01*
X5000000Y-8231000D01*
X5000000Y-5550000D01*
X13050000Y-5550000D01*
X13050000Y-15000000D01*
D11*
D12*
X11870897Y-10853819D02*
X11900897Y-10883819D01*
X11900897Y-10853819D02*
X11870897Y-10883819D01*
X11923930Y-10800786D02*
X11953930Y-10830786D01*
X11953930Y-10800786D02*
X11923930Y-10830786D01*
X12210000Y-10251500D02*
X12240000Y-10281500D01*
X12240000Y-10251500D02*
X12210000Y-10281500D01*
X12310000Y-10285000D02*
X12340000Y-10315000D01*
X12340000Y-10285000D02*
X12310000Y-10315000D01*
X5245000Y-7675000D02*
G75*
G02*
X5205000Y-7675000I-20000J0D01*
G01*
X5205000Y-7675000D02*
G75*
G02*
X5245000Y-7675000I20000J0D01*
G01*
X5545000Y-6575000D02*
G75*
G02*
X5505000Y-6575000I-20000J0D01*
G01*
X5505000Y-6575000D02*
G75*
G02*
X5545000Y-6575000I20000J0D01*
G01*
X6120000Y-7100000D02*
G75*
G02*
X6080000Y-7100000I-20000J0D01*
G01*
X6080000Y-7100000D02*
G75*
G02*
X6120000Y-7100000I20000J0D01*
G01*
X6670000Y-6575000D02*
G75*
G02*
X6630000Y-6575000I-20000J0D01*
G01*
X6630000Y-6575000D02*
G75*
G02*
X6670000Y-6575000I20000J0D01*
G01*
X6778500Y-9500000D02*
G75*
G02*
X6738500Y-9500000I-20000J0D01*
G01*
X6738500Y-9500000D02*
G75*
G02*
X6778500Y-9500000I20000J0D01*
G01*
X6778500Y-11911000D02*
G75*
G02*
X6738500Y-11911000I-20000J0D01*
G01*
X6738500Y-11911000D02*
G75*
G02*
X6778500Y-11911000I20000J0D01*
G01*
X6820000Y-12800000D02*
G75*
G02*
X6780000Y-12800000I-20000J0D01*
G01*
X6780000Y-12800000D02*
G75*
G02*
X6820000Y-12800000I20000J0D01*
G01*
X6895000Y-8925000D02*
G75*
G02*
X6855000Y-8925000I-20000J0D01*
G01*
X6855000Y-8925000D02*
G75*
G02*
X6895000Y-8925000I20000J0D01*
G01*
X6895000Y-13350000D02*
G75*
G02*
X6855000Y-13350000I-20000J0D01*
G01*
X6855000Y-13350000D02*
G75*
G02*
X6895000Y-13350000I20000J0D01*
G01*
X6920000Y-8500000D02*
G75*
G02*
X6880000Y-8500000I-20000J0D01*
G01*
X6880000Y-8500000D02*
G75*
G02*
X6920000Y-8500000I20000J0D01*
G01*
X7020000Y-12825000D02*
G75*
G02*
X6980000Y-12825000I-20000J0D01*
G01*
X6980000Y-12825000D02*
G75*
G02*
X7020000Y-12825000I20000J0D01*
G01*
X7145000Y-8175000D02*
G75*
G02*
X7105000Y-8175000I-20000J0D01*
G01*
X7105000Y-8175000D02*
G75*
G02*
X7145000Y-8175000I20000J0D01*
G01*
X7270000Y-9425000D02*
G75*
G02*
X7230000Y-9425000I-20000J0D01*
G01*
X7230000Y-9425000D02*
G75*
G02*
X7270000Y-9425000I20000J0D01*
G01*
X7270000Y-13850000D02*
G75*
G02*
X7230000Y-13850000I-20000J0D01*
G01*
X7230000Y-13850000D02*
G75*
G02*
X7270000Y-13850000I20000J0D01*
G01*
X7284448Y-14043832D02*
G75*
G02*
X7244448Y-14043832I-20000J0D01*
G01*
X7244448Y-14043832D02*
G75*
G02*
X7284448Y-14043832I20000J0D01*
G01*
X7289948Y-9630052D02*
G75*
G02*
X7249948Y-9630052I-20000J0D01*
G01*
X7249948Y-9630052D02*
G75*
G02*
X7289948Y-9630052I20000J0D01*
G01*
X7344552Y-13983728D02*
G75*
G02*
X7304552Y-13983728I-20000J0D01*
G01*
X7304552Y-13983728D02*
G75*
G02*
X7344552Y-13983728I20000J0D01*
G01*
X7345000Y-8325000D02*
G75*
G02*
X7305000Y-8325000I-20000J0D01*
G01*
X7305000Y-8325000D02*
G75*
G02*
X7345000Y-8325000I20000J0D01*
G01*
X7350052Y-9569948D02*
G75*
G02*
X7310052Y-9569948I-20000J0D01*
G01*
X7310052Y-9569948D02*
G75*
G02*
X7350052Y-9569948I20000J0D01*
G01*
X7370000Y-12900000D02*
G75*
G02*
X7330000Y-12900000I-20000J0D01*
G01*
X7330000Y-12900000D02*
G75*
G02*
X7370000Y-12900000I20000J0D01*
G01*
X7420000Y-9000000D02*
G75*
G02*
X7380000Y-9000000I-20000J0D01*
G01*
X7380000Y-9000000D02*
G75*
G02*
X7420000Y-9000000I20000J0D01*
G01*
X7420000Y-13412500D02*
G75*
G02*
X7380000Y-13412500I-20000J0D01*
G01*
X7380000Y-13412500D02*
G75*
G02*
X7420000Y-13412500I20000J0D01*
G01*
X7484448Y-13968832D02*
G75*
G02*
X7444448Y-13968832I-20000J0D01*
G01*
X7444448Y-13968832D02*
G75*
G02*
X7484448Y-13968832I20000J0D01*
G01*
X7489948Y-9555052D02*
G75*
G02*
X7449948Y-9555052I-20000J0D01*
G01*
X7449948Y-9555052D02*
G75*
G02*
X7489948Y-9555052I20000J0D01*
G01*
X7495000Y-9750000D02*
G75*
G02*
X7455000Y-9750000I-20000J0D01*
G01*
X7455000Y-9750000D02*
G75*
G02*
X7495000Y-9750000I20000J0D01*
G01*
X7495000Y-14175000D02*
G75*
G02*
X7455000Y-14175000I-20000J0D01*
G01*
X7455000Y-14175000D02*
G75*
G02*
X7495000Y-14175000I20000J0D01*
G01*
X7520000Y-10950000D02*
G75*
G02*
X7480000Y-10950000I-20000J0D01*
G01*
X7480000Y-10950000D02*
G75*
G02*
X7520000Y-10950000I20000J0D01*
G01*
X7544552Y-13908728D02*
G75*
G02*
X7504552Y-13908728I-20000J0D01*
G01*
X7504552Y-13908728D02*
G75*
G02*
X7544552Y-13908728I20000J0D01*
G01*
X7550052Y-9494948D02*
G75*
G02*
X7510052Y-9494948I-20000J0D01*
G01*
X7510052Y-9494948D02*
G75*
G02*
X7550052Y-9494948I20000J0D01*
G01*
X7770000Y-8775000D02*
G75*
G02*
X7730000Y-8775000I-20000J0D01*
G01*
X7730000Y-8775000D02*
G75*
G02*
X7770000Y-8775000I20000J0D01*
G01*
X7770000Y-9800000D02*
G75*
G02*
X7730000Y-9800000I-20000J0D01*
G01*
X7730000Y-9800000D02*
G75*
G02*
X7770000Y-9800000I20000J0D01*
G01*
X7770000Y-14225000D02*
G75*
G02*
X7730000Y-14225000I-20000J0D01*
G01*
X7730000Y-14225000D02*
G75*
G02*
X7770000Y-14225000I20000J0D01*
G01*
X7870000Y-11650000D02*
G75*
G02*
X7830000Y-11650000I-20000J0D01*
G01*
X7830000Y-11650000D02*
G75*
G02*
X7870000Y-11650000I20000J0D01*
G01*
X7967574Y-6717573D02*
G75*
G02*
X7927574Y-6717573I-20000J0D01*
G01*
X7927574Y-6717573D02*
G75*
G02*
X7967574Y-6717573I20000J0D01*
G01*
X7970000Y-6800000D02*
G75*
G02*
X7930000Y-6800000I-20000J0D01*
G01*
X7930000Y-6800000D02*
G75*
G02*
X7970000Y-6800000I20000J0D01*
G01*
X7970000Y-9550000D02*
G75*
G02*
X7930000Y-9550000I-20000J0D01*
G01*
X7930000Y-9550000D02*
G75*
G02*
X7970000Y-9550000I20000J0D01*
G01*
X7980420Y-6879319D02*
G75*
G02*
X7940420Y-6879319I-20000J0D01*
G01*
X7940420Y-6879319D02*
G75*
G02*
X7980420Y-6879319I20000J0D01*
G01*
X8070000Y-7950000D02*
G75*
G02*
X8030000Y-7950000I-20000J0D01*
G01*
X8030000Y-7950000D02*
G75*
G02*
X8070000Y-7950000I20000J0D01*
G01*
X8120000Y-8925000D02*
G75*
G02*
X8080000Y-8925000I-20000J0D01*
G01*
X8080000Y-8925000D02*
G75*
G02*
X8120000Y-8925000I20000J0D01*
G01*
X8120000Y-13350000D02*
G75*
G02*
X8080000Y-13350000I-20000J0D01*
G01*
X8080000Y-13350000D02*
G75*
G02*
X8120000Y-13350000I20000J0D01*
G01*
X8220000Y-10950000D02*
G75*
G02*
X8180000Y-10950000I-20000J0D01*
G01*
X8180000Y-10950000D02*
G75*
G02*
X8220000Y-10950000I20000J0D01*
G01*
X8284448Y-14043832D02*
G75*
G02*
X8244448Y-14043832I-20000J0D01*
G01*
X8244448Y-14043832D02*
G75*
G02*
X8284448Y-14043832I20000J0D01*
G01*
X8289948Y-9630052D02*
G75*
G02*
X8249948Y-9630052I-20000J0D01*
G01*
X8249948Y-9630052D02*
G75*
G02*
X8289948Y-9630052I20000J0D01*
G01*
X8320000Y-12800000D02*
G75*
G02*
X8280000Y-12800000I-20000J0D01*
G01*
X8280000Y-12800000D02*
G75*
G02*
X8320000Y-12800000I20000J0D01*
G01*
X8344552Y-13983728D02*
G75*
G02*
X8304552Y-13983728I-20000J0D01*
G01*
X8304552Y-13983728D02*
G75*
G02*
X8344552Y-13983728I20000J0D01*
G01*
X8350052Y-9569948D02*
G75*
G02*
X8310052Y-9569948I-20000J0D01*
G01*
X8310052Y-9569948D02*
G75*
G02*
X8350052Y-9569948I20000J0D01*
G01*
X8495000Y-9800000D02*
G75*
G02*
X8455000Y-9800000I-20000J0D01*
G01*
X8455000Y-9800000D02*
G75*
G02*
X8495000Y-9800000I20000J0D01*
G01*
X8495000Y-14225000D02*
G75*
G02*
X8455000Y-14225000I-20000J0D01*
G01*
X8455000Y-14225000D02*
G75*
G02*
X8495000Y-14225000I20000J0D01*
G01*
X8509448Y-14043832D02*
G75*
G02*
X8469448Y-14043832I-20000J0D01*
G01*
X8469448Y-14043832D02*
G75*
G02*
X8509448Y-14043832I20000J0D01*
G01*
X8514948Y-9630052D02*
G75*
G02*
X8474948Y-9630052I-20000J0D01*
G01*
X8474948Y-9630052D02*
G75*
G02*
X8514948Y-9630052I20000J0D01*
G01*
X8569552Y-13983728D02*
G75*
G02*
X8529552Y-13983728I-20000J0D01*
G01*
X8529552Y-13983728D02*
G75*
G02*
X8569552Y-13983728I20000J0D01*
G01*
X8570000Y-11650000D02*
G75*
G02*
X8530000Y-11650000I-20000J0D01*
G01*
X8530000Y-11650000D02*
G75*
G02*
X8570000Y-11650000I20000J0D01*
G01*
X8575052Y-9569948D02*
G75*
G02*
X8535052Y-9569948I-20000J0D01*
G01*
X8535052Y-9569948D02*
G75*
G02*
X8575052Y-9569948I20000J0D01*
G01*
X8620000Y-9000000D02*
G75*
G02*
X8580000Y-9000000I-20000J0D01*
G01*
X8580000Y-9000000D02*
G75*
G02*
X8620000Y-9000000I20000J0D01*
G01*
X8620000Y-13412500D02*
G75*
G02*
X8580000Y-13412500I-20000J0D01*
G01*
X8580000Y-13412500D02*
G75*
G02*
X8620000Y-13412500I20000J0D01*
G01*
X8720000Y-9525000D02*
G75*
G02*
X8680000Y-9525000I-20000J0D01*
G01*
X8680000Y-9525000D02*
G75*
G02*
X8720000Y-9525000I20000J0D01*
G01*
X8745000Y-13950000D02*
G75*
G02*
X8705000Y-13950000I-20000J0D01*
G01*
X8705000Y-13950000D02*
G75*
G02*
X8745000Y-13950000I20000J0D01*
G01*
X8870000Y-12900000D02*
G75*
G02*
X8830000Y-12900000I-20000J0D01*
G01*
X8830000Y-12900000D02*
G75*
G02*
X8870000Y-12900000I20000J0D01*
G01*
X8920000Y-10950000D02*
G75*
G02*
X8880000Y-10950000I-20000J0D01*
G01*
X8880000Y-10950000D02*
G75*
G02*
X8920000Y-10950000I20000J0D01*
G01*
X9045000Y-6575000D02*
G75*
G02*
X9005000Y-6575000I-20000J0D01*
G01*
X9005000Y-6575000D02*
G75*
G02*
X9045000Y-6575000I20000J0D01*
G01*
X9070000Y-9725000D02*
G75*
G02*
X9030000Y-9725000I-20000J0D01*
G01*
X9030000Y-9725000D02*
G75*
G02*
X9070000Y-9725000I20000J0D01*
G01*
X9270000Y-11610000D02*
G75*
G02*
X9230000Y-11610000I-20000J0D01*
G01*
X9230000Y-11610000D02*
G75*
G02*
X9270000Y-11610000I20000J0D01*
G01*
X9320000Y-8925000D02*
G75*
G02*
X9280000Y-8925000I-20000J0D01*
G01*
X9280000Y-8925000D02*
G75*
G02*
X9320000Y-8925000I20000J0D01*
G01*
X9320000Y-13350000D02*
G75*
G02*
X9280000Y-13350000I-20000J0D01*
G01*
X9280000Y-13350000D02*
G75*
G02*
X9320000Y-13350000I20000J0D01*
G01*
X9395000Y-13888780D02*
G75*
G02*
X9355000Y-13888780I-20000J0D01*
G01*
X9355000Y-13888780D02*
G75*
G02*
X9395000Y-13888780I20000J0D01*
G01*
X9400500Y-9475000D02*
G75*
G02*
X9360500Y-9475000I-20000J0D01*
G01*
X9360500Y-9475000D02*
G75*
G02*
X9400500Y-9475000I20000J0D01*
G01*
X9480000Y-13888780D02*
G75*
G02*
X9440000Y-13888780I-20000J0D01*
G01*
X9440000Y-13888780D02*
G75*
G02*
X9480000Y-13888780I20000J0D01*
G01*
X9485500Y-9475000D02*
G75*
G02*
X9445500Y-9475000I-20000J0D01*
G01*
X9445500Y-9475000D02*
G75*
G02*
X9485500Y-9475000I20000J0D01*
G01*
X9520000Y-9725000D02*
G75*
G02*
X9480000Y-9725000I-20000J0D01*
G01*
X9480000Y-9725000D02*
G75*
G02*
X9520000Y-9725000I20000J0D01*
G01*
X9545000Y-14125000D02*
G75*
G02*
X9505000Y-14125000I-20000J0D01*
G01*
X9505000Y-14125000D02*
G75*
G02*
X9545000Y-14125000I20000J0D01*
G01*
X9620000Y-6550000D02*
G75*
G02*
X9580000Y-6550000I-20000J0D01*
G01*
X9580000Y-6550000D02*
G75*
G02*
X9620000Y-6550000I20000J0D01*
G01*
X9620000Y-10950000D02*
G75*
G02*
X9580000Y-10950000I-20000J0D01*
G01*
X9580000Y-10950000D02*
G75*
G02*
X9620000Y-10950000I20000J0D01*
G01*
X9649000Y-13888780D02*
G75*
G02*
X9609000Y-13888780I-20000J0D01*
G01*
X9609000Y-13888780D02*
G75*
G02*
X9649000Y-13888780I20000J0D01*
G01*
X9654500Y-9475000D02*
G75*
G02*
X9614500Y-9475000I-20000J0D01*
G01*
X9614500Y-9475000D02*
G75*
G02*
X9654500Y-9475000I20000J0D01*
G01*
X9734000Y-13888780D02*
G75*
G02*
X9694000Y-13888780I-20000J0D01*
G01*
X9694000Y-13888780D02*
G75*
G02*
X9734000Y-13888780I20000J0D01*
G01*
X9739500Y-9475000D02*
G75*
G02*
X9699500Y-9475000I-20000J0D01*
G01*
X9699500Y-9475000D02*
G75*
G02*
X9739500Y-9475000I20000J0D01*
G01*
X9795000Y-9750000D02*
G75*
G02*
X9755000Y-9750000I-20000J0D01*
G01*
X9755000Y-9750000D02*
G75*
G02*
X9795000Y-9750000I20000J0D01*
G01*
X9795000Y-14150000D02*
G75*
G02*
X9755000Y-14150000I-20000J0D01*
G01*
X9755000Y-14150000D02*
G75*
G02*
X9795000Y-14150000I20000J0D01*
G01*
X9820000Y-6645000D02*
G75*
G02*
X9780000Y-6645000I-20000J0D01*
G01*
X9780000Y-6645000D02*
G75*
G02*
X9820000Y-6645000I20000J0D01*
G01*
X9820000Y-6725000D02*
G75*
G02*
X9780000Y-6725000I-20000J0D01*
G01*
X9780000Y-6725000D02*
G75*
G02*
X9820000Y-6725000I20000J0D01*
G01*
X9820000Y-6805000D02*
G75*
G02*
X9780000Y-6805000I-20000J0D01*
G01*
X9780000Y-6805000D02*
G75*
G02*
X9820000Y-6805000I20000J0D01*
G01*
X9820000Y-9000000D02*
G75*
G02*
X9780000Y-9000000I-20000J0D01*
G01*
X9780000Y-9000000D02*
G75*
G02*
X9820000Y-9000000I20000J0D01*
G01*
X9820000Y-13412500D02*
G75*
G02*
X9780000Y-13412500I-20000J0D01*
G01*
X9780000Y-13412500D02*
G75*
G02*
X9820000Y-13412500I20000J0D01*
G01*
X9945000Y-11625000D02*
G75*
G02*
X9905000Y-11625000I-20000J0D01*
G01*
X9905000Y-11625000D02*
G75*
G02*
X9945000Y-11625000I20000J0D01*
G01*
X10520000Y-8925000D02*
G75*
G02*
X10480000Y-8925000I-20000J0D01*
G01*
X10480000Y-8925000D02*
G75*
G02*
X10520000Y-8925000I20000J0D01*
G01*
X10520000Y-13350000D02*
G75*
G02*
X10480000Y-13350000I-20000J0D01*
G01*
X10480000Y-13350000D02*
G75*
G02*
X10520000Y-13350000I20000J0D01*
G01*
X10559448Y-13933728D02*
G75*
G02*
X10519448Y-13933728I-20000J0D01*
G01*
X10519448Y-13933728D02*
G75*
G02*
X10559448Y-13933728I20000J0D01*
G01*
X10564948Y-9519948D02*
G75*
G02*
X10524948Y-9519948I-20000J0D01*
G01*
X10524948Y-9519948D02*
G75*
G02*
X10564948Y-9519948I20000J0D01*
G01*
X10570000Y-9800000D02*
G75*
G02*
X10530000Y-9800000I-20000J0D01*
G01*
X10530000Y-9800000D02*
G75*
G02*
X10570000Y-9800000I20000J0D01*
G01*
X10595000Y-11575000D02*
G75*
G02*
X10555000Y-11575000I-20000J0D01*
G01*
X10555000Y-11575000D02*
G75*
G02*
X10595000Y-11575000I20000J0D01*
G01*
X10619552Y-13993832D02*
G75*
G02*
X10579552Y-13993832I-20000J0D01*
G01*
X10579552Y-13993832D02*
G75*
G02*
X10619552Y-13993832I20000J0D01*
G01*
X10625052Y-9580052D02*
G75*
G02*
X10585052Y-9580052I-20000J0D01*
G01*
X10585052Y-9580052D02*
G75*
G02*
X10625052Y-9580052I20000J0D01*
G01*
X10739214Y-6769213D02*
G75*
G02*
X10699214Y-6769213I-20000J0D01*
G01*
X10699214Y-6769213D02*
G75*
G02*
X10739214Y-6769213I20000J0D01*
G01*
X10795000Y-7250000D02*
G75*
G02*
X10755000Y-7250000I-20000J0D01*
G01*
X10755000Y-7250000D02*
G75*
G02*
X10795000Y-7250000I20000J0D01*
G01*
X10809448Y-13958728D02*
G75*
G02*
X10769448Y-13958728I-20000J0D01*
G01*
X10769448Y-13958728D02*
G75*
G02*
X10809448Y-13958728I20000J0D01*
G01*
X10814948Y-9544948D02*
G75*
G02*
X10774948Y-9544948I-20000J0D01*
G01*
X10774948Y-9544948D02*
G75*
G02*
X10814948Y-9544948I20000J0D01*
G01*
X10869552Y-14018832D02*
G75*
G02*
X10829552Y-14018832I-20000J0D01*
G01*
X10829552Y-14018832D02*
G75*
G02*
X10869552Y-14018832I20000J0D01*
G01*
X10875052Y-9605052D02*
G75*
G02*
X10835052Y-9605052I-20000J0D01*
G01*
X10835052Y-9605052D02*
G75*
G02*
X10875052Y-9605052I20000J0D01*
G01*
X10895000Y-6800000D02*
G75*
G02*
X10855000Y-6800000I-20000J0D01*
G01*
X10855000Y-6800000D02*
G75*
G02*
X10895000Y-6800000I20000J0D01*
G01*
X10995000Y-13925000D02*
G75*
G02*
X10955000Y-13925000I-20000J0D01*
G01*
X10955000Y-13925000D02*
G75*
G02*
X10995000Y-13925000I20000J0D01*
G01*
X11020000Y-9000000D02*
G75*
G02*
X10980000Y-9000000I-20000J0D01*
G01*
X10980000Y-9000000D02*
G75*
G02*
X11020000Y-9000000I20000J0D01*
G01*
X11020000Y-9500000D02*
G75*
G02*
X10980000Y-9500000I-20000J0D01*
G01*
X10980000Y-9500000D02*
G75*
G02*
X11020000Y-9500000I20000J0D01*
G01*
X11020000Y-13425000D02*
G75*
G02*
X10980000Y-13425000I-20000J0D01*
G01*
X10980000Y-13425000D02*
G75*
G02*
X11020000Y-13425000I20000J0D01*
G01*
X11420000Y-9675000D02*
G75*
G02*
X11380000Y-9675000I-20000J0D01*
G01*
X11380000Y-9675000D02*
G75*
G02*
X11420000Y-9675000I20000J0D01*
G01*
X11770000Y-6975000D02*
G75*
G02*
X11730000Y-6975000I-20000J0D01*
G01*
X11730000Y-6975000D02*
G75*
G02*
X11770000Y-6975000I20000J0D01*
G01*
X11947940Y-10746654D02*
G75*
G02*
X11907940Y-10746654I-20000J0D01*
G01*
X11907940Y-10746654D02*
G75*
G02*
X11947940Y-10746654I20000J0D01*
G01*
X12120000Y-9975000D02*
G75*
G02*
X12080000Y-9975000I-20000J0D01*
G01*
X12080000Y-9975000D02*
G75*
G02*
X12120000Y-9975000I20000J0D01*
G01*
X12245000Y-10371500D02*
G75*
G02*
X12205000Y-10371500I-20000J0D01*
G01*
X12205000Y-10371500D02*
G75*
G02*
X12245000Y-10371500I20000J0D01*
G01*
X12320000Y-13975000D02*
G75*
G02*
X12280000Y-13975000I-20000J0D01*
G01*
X12280000Y-13975000D02*
G75*
G02*
X12320000Y-13975000I20000J0D01*
G01*
X12345000Y-6925000D02*
G75*
G02*
X12305000Y-6925000I-20000J0D01*
G01*
X12305000Y-6925000D02*
G75*
G02*
X12345000Y-6925000I20000J0D01*
G01*
X12370000Y-9925000D02*
G75*
G02*
X12330000Y-9925000I-20000J0D01*
G01*
X12330000Y-9925000D02*
G75*
G02*
X12370000Y-9925000I20000J0D01*
G01*
X12870000Y-10075000D02*
G75*
G02*
X12830000Y-10075000I-20000J0D01*
G01*
X12830000Y-10075000D02*
G75*
G02*
X12870000Y-10075000I20000J0D01*
G01*
X12193000Y-8911900D02*
X12193000Y-9005900D01*
X12146000Y-8958900D02*
X12240000Y-8958900D01*
X12193000Y-9115100D02*
X12193000Y-9209100D01*
X12146000Y-9162100D02*
X12240000Y-9162100D01*
X12193000Y-9318300D02*
X12193000Y-9412300D01*
X12146000Y-9365300D02*
X12240000Y-9365300D01*
X12193000Y-9521500D02*
X12193000Y-9615500D01*
X12146000Y-9568500D02*
X12240000Y-9568500D01*
X12193000Y-10486900D02*
X12193000Y-10580900D01*
X12146000Y-10533900D02*
X12240000Y-10533900D01*
X12193000Y-10690100D02*
X12193000Y-10784100D01*
X12146000Y-10737100D02*
X12240000Y-10737100D01*
X12193000Y-10893300D02*
X12193000Y-10987300D01*
X12146000Y-10940300D02*
X12240000Y-10940300D01*
X12193000Y-11096500D02*
X12193000Y-11190500D01*
X12146000Y-11143500D02*
X12240000Y-11143500D01*
X12371000Y-8810300D02*
X12371000Y-8904300D01*
X12324000Y-8857300D02*
X12418000Y-8857300D01*
X12371000Y-9013500D02*
X12371000Y-9107500D01*
X12324000Y-9060500D02*
X12418000Y-9060500D01*
X12371000Y-9216700D02*
X12371000Y-9310700D01*
X12324000Y-9263700D02*
X12418000Y-9263700D01*
X12371000Y-9419900D02*
X12371000Y-9513900D01*
X12324000Y-9466900D02*
X12418000Y-9466900D01*
X12371000Y-10385300D02*
X12371000Y-10479300D01*
X12324000Y-10432300D02*
X12418000Y-10432300D01*
X12371000Y-10588500D02*
X12371000Y-10682500D01*
X12324000Y-10635500D02*
X12418000Y-10635500D01*
X12371000Y-10791700D02*
X12371000Y-10885700D01*
X12324000Y-10838700D02*
X12418000Y-10838700D01*
X12371000Y-10994900D02*
X12371000Y-11088900D01*
X12324000Y-11041900D02*
X12418000Y-11041900D01*
X6305125Y-5780125D02*
X6305125Y-5711875D01*
X6236875Y-5711875D01*
X6236875Y-5780125D01*
X6305125Y-5780125D01*
X6305125Y-6288125D02*
X6305125Y-6219875D01*
X6236875Y-6219875D01*
X6236875Y-6288125D01*
X6305125Y-6288125D01*
X6559125Y-6034125D02*
X6559125Y-5965875D01*
X6490875Y-5965875D01*
X6490875Y-6034125D01*
X6559125Y-6034125D01*
X6813125Y-5780125D02*
X6813125Y-5711875D01*
X6744875Y-5711875D01*
X6744875Y-5780125D01*
X6813125Y-5780125D01*
X6813125Y-6288125D02*
X6813125Y-6219875D01*
X6744875Y-6219875D01*
X6744875Y-6288125D01*
X6813125Y-6288125D01*
X7305125Y-5780125D02*
X7305125Y-5711875D01*
X7236875Y-5711875D01*
X7236875Y-5780125D01*
X7305125Y-5780125D01*
X7305125Y-6288125D02*
X7305125Y-6219875D01*
X7236875Y-6219875D01*
X7236875Y-6288125D01*
X7305125Y-6288125D01*
X7559125Y-6034125D02*
X7559125Y-5965875D01*
X7490875Y-5965875D01*
X7490875Y-6034125D01*
X7559125Y-6034125D01*
X7813125Y-5780125D02*
X7813125Y-5711875D01*
X7744875Y-5711875D01*
X7744875Y-5780125D01*
X7813125Y-5780125D01*
X7813125Y-6288125D02*
X7813125Y-6219875D01*
X7744875Y-6219875D01*
X7744875Y-6288125D01*
X7813125Y-6288125D01*
X10305125Y-5780125D02*
X10305125Y-5711875D01*
X10236875Y-5711875D01*
X10236875Y-5780125D01*
X10305125Y-5780125D01*
X10305125Y-6288125D02*
X10305125Y-6219875D01*
X10236875Y-6219875D01*
X10236875Y-6288125D01*
X10305125Y-6288125D01*
X10559125Y-6034125D02*
X10559125Y-5965875D01*
X10490875Y-5965875D01*
X10490875Y-6034125D01*
X10559125Y-6034125D01*
X10813125Y-5780125D02*
X10813125Y-5711875D01*
X10744875Y-5711875D01*
X10744875Y-5780125D01*
X10813125Y-5780125D01*
X10813125Y-6288125D02*
X10813125Y-6219875D01*
X10744875Y-6219875D01*
X10744875Y-6288125D01*
X10813125Y-6288125D01*
X11305125Y-5780125D02*
X11305125Y-5711875D01*
X11236875Y-5711875D01*
X11236875Y-5780125D01*
X11305125Y-5780125D01*
X11305125Y-6288125D02*
X11305125Y-6219875D01*
X11236875Y-6219875D01*
X11236875Y-6288125D01*
X11305125Y-6288125D01*
X11559125Y-6034125D02*
X11559125Y-5965875D01*
X11490875Y-5965875D01*
X11490875Y-6034125D01*
X11559125Y-6034125D01*
X11813125Y-5780125D02*
X11813125Y-5711875D01*
X11744875Y-5711875D01*
X11744875Y-5780125D01*
X11813125Y-5780125D01*
X11813125Y-6288125D02*
X11813125Y-6219875D01*
X11744875Y-6219875D01*
X11744875Y-6288125D01*
X11813125Y-6288125D01*
X6383000Y-7510500D02*
X6433000Y-7460500D01*
X6383000Y-7410500D01*
X6333000Y-7460500D01*
X6383000Y-7510500D01*
X6383000Y-7764500D02*
X6433000Y-7714500D01*
X6383000Y-7664500D01*
X6333000Y-7714500D01*
X6383000Y-7764500D01*
X6383000Y-12336500D02*
X6433000Y-12286500D01*
X6383000Y-12236500D01*
X6333000Y-12286500D01*
X6383000Y-12336500D01*
X6383000Y-12590500D02*
X6433000Y-12540500D01*
X6383000Y-12490500D01*
X6333000Y-12540500D01*
X6383000Y-12590500D01*
X6637000Y-7510500D02*
X6687000Y-7460500D01*
X6637000Y-7410500D01*
X6587000Y-7460500D01*
X6637000Y-7510500D01*
X6637000Y-7764500D02*
X6687000Y-7714500D01*
X6637000Y-7664500D01*
X6587000Y-7714500D01*
X6637000Y-7764500D01*
X6637000Y-12336500D02*
X6687000Y-12286500D01*
X6637000Y-12236500D01*
X6587000Y-12286500D01*
X6637000Y-12336500D01*
X6637000Y-12590500D02*
X6687000Y-12540500D01*
X6637000Y-12490500D01*
X6587000Y-12540500D01*
X6637000Y-12590500D01*
X6891000Y-7510500D02*
X6941000Y-7460500D01*
X6891000Y-7410500D01*
X6841000Y-7460500D01*
X6891000Y-7510500D01*
X6891000Y-7764500D02*
X6941000Y-7714500D01*
X6891000Y-7664500D01*
X6841000Y-7714500D01*
X6891000Y-7764500D01*
X6891000Y-12336500D02*
X6941000Y-12286500D01*
X6891000Y-12236500D01*
X6841000Y-12286500D01*
X6891000Y-12336500D01*
X6891000Y-12590500D02*
X6941000Y-12540500D01*
X6891000Y-12490500D01*
X6841000Y-12540500D01*
X6891000Y-12590500D01*
X7094500Y-14509780D02*
X7144500Y-14459780D01*
X7094500Y-14409780D01*
X7044500Y-14459780D01*
X7094500Y-14509780D01*
X7094500Y-14763780D02*
X7144500Y-14713780D01*
X7094500Y-14663780D01*
X7044500Y-14713780D01*
X7094500Y-14763780D01*
X7100000Y-10096000D02*
X7150000Y-10046000D01*
X7100000Y-9996000D01*
X7050000Y-10046000D01*
X7100000Y-10096000D01*
X7100000Y-10350000D02*
X7150000Y-10300000D01*
X7100000Y-10250000D01*
X7050000Y-10300000D01*
X7100000Y-10350000D01*
X7145000Y-7510500D02*
X7195000Y-7460500D01*
X7145000Y-7410500D01*
X7095000Y-7460500D01*
X7145000Y-7510500D01*
X7145000Y-7764500D02*
X7195000Y-7714500D01*
X7145000Y-7664500D01*
X7095000Y-7714500D01*
X7145000Y-7764500D01*
X7145000Y-12336500D02*
X7195000Y-12286500D01*
X7145000Y-12236500D01*
X7095000Y-12286500D01*
X7145000Y-12336500D01*
X7145000Y-12590500D02*
X7195000Y-12540500D01*
X7145000Y-12490500D01*
X7095000Y-12540500D01*
X7145000Y-12590500D01*
X7348500Y-14509780D02*
X7398500Y-14459780D01*
X7348500Y-14409780D01*
X7298500Y-14459780D01*
X7348500Y-14509780D01*
X7348500Y-14763780D02*
X7398500Y-14713780D01*
X7348500Y-14663780D01*
X7298500Y-14713780D01*
X7348500Y-14763780D01*
X7354000Y-10096000D02*
X7404000Y-10046000D01*
X7354000Y-9996000D01*
X7304000Y-10046000D01*
X7354000Y-10096000D01*
X7354000Y-10350000D02*
X7404000Y-10300000D01*
X7354000Y-10250000D01*
X7304000Y-10300000D01*
X7354000Y-10350000D01*
X7399000Y-7510500D02*
X7449000Y-7460500D01*
X7399000Y-7410500D01*
X7349000Y-7460500D01*
X7399000Y-7510500D01*
X7399000Y-7764500D02*
X7449000Y-7714500D01*
X7399000Y-7664500D01*
X7349000Y-7714500D01*
X7399000Y-7764500D01*
X7399000Y-12336500D02*
X7449000Y-12286500D01*
X7399000Y-12236500D01*
X7349000Y-12286500D01*
X7399000Y-12336500D01*
X7399000Y-12590500D02*
X7449000Y-12540500D01*
X7399000Y-12490500D01*
X7349000Y-12540500D01*
X7399000Y-12590500D01*
X7602500Y-14509780D02*
X7652500Y-14459780D01*
X7602500Y-14409780D01*
X7552500Y-14459780D01*
X7602500Y-14509780D01*
X7602500Y-14763780D02*
X7652500Y-14713780D01*
X7602500Y-14663780D01*
X7552500Y-14713780D01*
X7602500Y-14763780D01*
X7608000Y-10096000D02*
X7658000Y-10046000D01*
X7608000Y-9996000D01*
X7558000Y-10046000D01*
X7608000Y-10096000D01*
X7608000Y-10350000D02*
X7658000Y-10300000D01*
X7608000Y-10250000D01*
X7558000Y-10300000D01*
X7608000Y-10350000D01*
X7653000Y-7510500D02*
X7703000Y-7460500D01*
X7653000Y-7410500D01*
X7603000Y-7460500D01*
X7653000Y-7510500D01*
X7653000Y-7764500D02*
X7703000Y-7714500D01*
X7653000Y-7664500D01*
X7603000Y-7714500D01*
X7653000Y-7764500D01*
X7653000Y-12336500D02*
X7703000Y-12286500D01*
X7653000Y-12236500D01*
X7603000Y-12286500D01*
X7653000Y-12336500D01*
X7653000Y-12590500D02*
X7703000Y-12540500D01*
X7653000Y-12490500D01*
X7603000Y-12540500D01*
X7653000Y-12590500D01*
X7856500Y-14509780D02*
X7906500Y-14459780D01*
X7856500Y-14409780D01*
X7806500Y-14459780D01*
X7856500Y-14509780D01*
X7856500Y-14763780D02*
X7906500Y-14713780D01*
X7856500Y-14663780D01*
X7806500Y-14713780D01*
X7856500Y-14763780D01*
X7862000Y-10096000D02*
X7912000Y-10046000D01*
X7862000Y-9996000D01*
X7812000Y-10046000D01*
X7862000Y-10096000D01*
X7862000Y-10350000D02*
X7912000Y-10300000D01*
X7862000Y-10250000D01*
X7812000Y-10300000D01*
X7862000Y-10350000D01*
X7907000Y-7510500D02*
X7957000Y-7460500D01*
X7907000Y-7410500D01*
X7857000Y-7460500D01*
X7907000Y-7510500D01*
X7907000Y-7764500D02*
X7957000Y-7714500D01*
X7907000Y-7664500D01*
X7857000Y-7714500D01*
X7907000Y-7764500D01*
X7907000Y-12336500D02*
X7957000Y-12286500D01*
X7907000Y-12236500D01*
X7857000Y-12286500D01*
X7907000Y-12336500D01*
X7907000Y-12590500D02*
X7957000Y-12540500D01*
X7907000Y-12490500D01*
X7857000Y-12540500D01*
X7907000Y-12590500D01*
X8110500Y-14509780D02*
X8160500Y-14459780D01*
X8110500Y-14409780D01*
X8060500Y-14459780D01*
X8110500Y-14509780D01*
X8110500Y-14763780D02*
X8160500Y-14713780D01*
X8110500Y-14663780D01*
X8060500Y-14713780D01*
X8110500Y-14763780D01*
X8116000Y-10096000D02*
X8166000Y-10046000D01*
X8116000Y-9996000D01*
X8066000Y-10046000D01*
X8116000Y-10096000D01*
X8116000Y-10350000D02*
X8166000Y-10300000D01*
X8116000Y-10250000D01*
X8066000Y-10300000D01*
X8116000Y-10350000D01*
X8161000Y-7510500D02*
X8211000Y-7460500D01*
X8161000Y-7410500D01*
X8111000Y-7460500D01*
X8161000Y-7510500D01*
X8161000Y-7764500D02*
X8211000Y-7714500D01*
X8161000Y-7664500D01*
X8111000Y-7714500D01*
X8161000Y-7764500D01*
X8161000Y-12336500D02*
X8211000Y-12286500D01*
X8161000Y-12236500D01*
X8111000Y-12286500D01*
X8161000Y-12336500D01*
X8161000Y-12590500D02*
X8211000Y-12540500D01*
X8161000Y-12490500D01*
X8111000Y-12540500D01*
X8161000Y-12590500D01*
X8364500Y-14509780D02*
X8414500Y-14459780D01*
X8364500Y-14409780D01*
X8314500Y-14459780D01*
X8364500Y-14509780D01*
X8364500Y-14763780D02*
X8414500Y-14713780D01*
X8364500Y-14663780D01*
X8314500Y-14713780D01*
X8364500Y-14763780D01*
X8370000Y-10096000D02*
X8420000Y-10046000D01*
X8370000Y-9996000D01*
X8320000Y-10046000D01*
X8370000Y-10096000D01*
X8370000Y-10350000D02*
X8420000Y-10300000D01*
X8370000Y-10250000D01*
X8320000Y-10300000D01*
X8370000Y-10350000D01*
X8415000Y-7510500D02*
X8465000Y-7460500D01*
X8415000Y-7410500D01*
X8365000Y-7460500D01*
X8415000Y-7510500D01*
X8415000Y-7764500D02*
X8465000Y-7714500D01*
X8415000Y-7664500D01*
X8365000Y-7714500D01*
X8415000Y-7764500D01*
X8415000Y-12336500D02*
X8465000Y-12286500D01*
X8415000Y-12236500D01*
X8365000Y-12286500D01*
X8415000Y-12336500D01*
X8415000Y-12590500D02*
X8465000Y-12540500D01*
X8415000Y-12490500D01*
X8365000Y-12540500D01*
X8415000Y-12590500D01*
X8618500Y-14509780D02*
X8668500Y-14459780D01*
X8618500Y-14409780D01*
X8568500Y-14459780D01*
X8618500Y-14509780D01*
X8618500Y-14763780D02*
X8668500Y-14713780D01*
X8618500Y-14663780D01*
X8568500Y-14713780D01*
X8618500Y-14763780D01*
X8624000Y-10096000D02*
X8674000Y-10046000D01*
X8624000Y-9996000D01*
X8574000Y-10046000D01*
X8624000Y-10096000D01*
X8624000Y-10350000D02*
X8674000Y-10300000D01*
X8624000Y-10250000D01*
X8574000Y-10300000D01*
X8624000Y-10350000D01*
X8669000Y-7510500D02*
X8719000Y-7460500D01*
X8669000Y-7410500D01*
X8619000Y-7460500D01*
X8669000Y-7510500D01*
X8669000Y-7764500D02*
X8719000Y-7714500D01*
X8669000Y-7664500D01*
X8619000Y-7714500D01*
X8669000Y-7764500D01*
X8669000Y-12336500D02*
X8719000Y-12286500D01*
X8669000Y-12236500D01*
X8619000Y-12286500D01*
X8669000Y-12336500D01*
X8669000Y-12590500D02*
X8719000Y-12540500D01*
X8669000Y-12490500D01*
X8619000Y-12540500D01*
X8669000Y-12590500D01*
X8872500Y-14509780D02*
X8922500Y-14459780D01*
X8872500Y-14409780D01*
X8822500Y-14459780D01*
X8872500Y-14509780D01*
X8872500Y-14763780D02*
X8922500Y-14713780D01*
X8872500Y-14663780D01*
X8822500Y-14713780D01*
X8872500Y-14763780D01*
X8878000Y-10096000D02*
X8928000Y-10046000D01*
X8878000Y-9996000D01*
X8828000Y-10046000D01*
X8878000Y-10096000D01*
X8878000Y-10350000D02*
X8928000Y-10300000D01*
X8878000Y-10250000D01*
X8828000Y-10300000D01*
X8878000Y-10350000D01*
X8923000Y-7510500D02*
X8973000Y-7460500D01*
X8923000Y-7410500D01*
X8873000Y-7460500D01*
X8923000Y-7510500D01*
X8923000Y-7764500D02*
X8973000Y-7714500D01*
X8923000Y-7664500D01*
X8873000Y-7714500D01*
X8923000Y-7764500D01*
X8923000Y-8018500D02*
X8973000Y-7968500D01*
X8923000Y-7918500D01*
X8873000Y-7968500D01*
X8923000Y-8018500D01*
X8923000Y-12336500D02*
X8973000Y-12286500D01*
X8923000Y-12236500D01*
X8873000Y-12286500D01*
X8923000Y-12336500D01*
X8923000Y-12590500D02*
X8973000Y-12540500D01*
X8923000Y-12490500D01*
X8873000Y-12540500D01*
X8923000Y-12590500D01*
X9126500Y-14509780D02*
X9176500Y-14459780D01*
X9126500Y-14409780D01*
X9076500Y-14459780D01*
X9126500Y-14509780D01*
X9126500Y-14763780D02*
X9176500Y-14713780D01*
X9126500Y-14663780D01*
X9076500Y-14713780D01*
X9126500Y-14763780D01*
X9132000Y-10096000D02*
X9182000Y-10046000D01*
X9132000Y-9996000D01*
X9082000Y-10046000D01*
X9132000Y-10096000D01*
X9132000Y-10350000D02*
X9182000Y-10300000D01*
X9132000Y-10250000D01*
X9082000Y-10300000D01*
X9132000Y-10350000D01*
X9177000Y-7510500D02*
X9227000Y-7460500D01*
X9177000Y-7410500D01*
X9127000Y-7460500D01*
X9177000Y-7510500D01*
X9177000Y-7764500D02*
X9227000Y-7714500D01*
X9177000Y-7664500D01*
X9127000Y-7714500D01*
X9177000Y-7764500D01*
X9177000Y-8018500D02*
X9227000Y-7968500D01*
X9177000Y-7918500D01*
X9127000Y-7968500D01*
X9177000Y-8018500D01*
X9177000Y-12336500D02*
X9227000Y-12286500D01*
X9177000Y-12236500D01*
X9127000Y-12286500D01*
X9177000Y-12336500D01*
X9177000Y-12590500D02*
X9227000Y-12540500D01*
X9177000Y-12490500D01*
X9127000Y-12540500D01*
X9177000Y-12590500D01*
X9380500Y-14509780D02*
X9430500Y-14459780D01*
X9380500Y-14409780D01*
X9330500Y-14459780D01*
X9380500Y-14509780D01*
X9380500Y-14763780D02*
X9430500Y-14713780D01*
X9380500Y-14663780D01*
X9330500Y-14713780D01*
X9380500Y-14763780D01*
X9386000Y-10096000D02*
X9436000Y-10046000D01*
X9386000Y-9996000D01*
X9336000Y-10046000D01*
X9386000Y-10096000D01*
X9386000Y-10350000D02*
X9436000Y-10300000D01*
X9386000Y-10250000D01*
X9336000Y-10300000D01*
X9386000Y-10350000D01*
X9431000Y-7510500D02*
X9481000Y-7460500D01*
X9431000Y-7410500D01*
X9381000Y-7460500D01*
X9431000Y-7510500D01*
X9431000Y-7764500D02*
X9481000Y-7714500D01*
X9431000Y-7664500D01*
X9381000Y-7714500D01*
X9431000Y-7764500D01*
X9431000Y-8018500D02*
X9481000Y-7968500D01*
X9431000Y-7918500D01*
X9381000Y-7968500D01*
X9431000Y-8018500D01*
X9431000Y-12336500D02*
X9481000Y-12286500D01*
X9431000Y-12236500D01*
X9381000Y-12286500D01*
X9431000Y-12336500D01*
X9431000Y-12590500D02*
X9481000Y-12540500D01*
X9431000Y-12490500D01*
X9381000Y-12540500D01*
X9431000Y-12590500D01*
X9634500Y-14509780D02*
X9684500Y-14459780D01*
X9634500Y-14409780D01*
X9584500Y-14459780D01*
X9634500Y-14509780D01*
X9634500Y-14763780D02*
X9684500Y-14713780D01*
X9634500Y-14663780D01*
X9584500Y-14713780D01*
X9634500Y-14763780D01*
X9640000Y-10096000D02*
X9690000Y-10046000D01*
X9640000Y-9996000D01*
X9590000Y-10046000D01*
X9640000Y-10096000D01*
X9640000Y-10350000D02*
X9690000Y-10300000D01*
X9640000Y-10250000D01*
X9590000Y-10300000D01*
X9640000Y-10350000D01*
X9685000Y-7510500D02*
X9735000Y-7460500D01*
X9685000Y-7410500D01*
X9635000Y-7460500D01*
X9685000Y-7510500D01*
X9685000Y-7764500D02*
X9735000Y-7714500D01*
X9685000Y-7664500D01*
X9635000Y-7714500D01*
X9685000Y-7764500D01*
X9685000Y-8018500D02*
X9735000Y-7968500D01*
X9685000Y-7918500D01*
X9635000Y-7968500D01*
X9685000Y-8018500D01*
X9685000Y-12336500D02*
X9735000Y-12286500D01*
X9685000Y-12236500D01*
X9635000Y-12286500D01*
X9685000Y-12336500D01*
X9685000Y-12590500D02*
X9735000Y-12540500D01*
X9685000Y-12490500D01*
X9635000Y-12540500D01*
X9685000Y-12590500D01*
X9888500Y-14509780D02*
X9938500Y-14459780D01*
X9888500Y-14409780D01*
X9838500Y-14459780D01*
X9888500Y-14509780D01*
X9888500Y-14763780D02*
X9938500Y-14713780D01*
X9888500Y-14663780D01*
X9838500Y-14713780D01*
X9888500Y-14763780D01*
X9894000Y-10096000D02*
X9944000Y-10046000D01*
X9894000Y-9996000D01*
X9844000Y-10046000D01*
X9894000Y-10096000D01*
X9894000Y-10350000D02*
X9944000Y-10300000D01*
X9894000Y-10250000D01*
X9844000Y-10300000D01*
X9894000Y-10350000D01*
X9939000Y-7510500D02*
X9989000Y-7460500D01*
X9939000Y-7410500D01*
X9889000Y-7460500D01*
X9939000Y-7510500D01*
X9939000Y-7764500D02*
X9989000Y-7714500D01*
X9939000Y-7664500D01*
X9889000Y-7714500D01*
X9939000Y-7764500D01*
X9939000Y-8018500D02*
X9989000Y-7968500D01*
X9939000Y-7918500D01*
X9889000Y-7968500D01*
X9939000Y-8018500D01*
X9939000Y-12336500D02*
X9989000Y-12286500D01*
X9939000Y-12236500D01*
X9889000Y-12286500D01*
X9939000Y-12336500D01*
X9939000Y-12590500D02*
X9989000Y-12540500D01*
X9939000Y-12490500D01*
X9889000Y-12540500D01*
X9939000Y-12590500D01*
X10142500Y-14509780D02*
X10192500Y-14459780D01*
X10142500Y-14409780D01*
X10092500Y-14459780D01*
X10142500Y-14509780D01*
X10142500Y-14763780D02*
X10192500Y-14713780D01*
X10142500Y-14663780D01*
X10092500Y-14713780D01*
X10142500Y-14763780D01*
X10148000Y-10096000D02*
X10198000Y-10046000D01*
X10148000Y-9996000D01*
X10098000Y-10046000D01*
X10148000Y-10096000D01*
X10148000Y-10350000D02*
X10198000Y-10300000D01*
X10148000Y-10250000D01*
X10098000Y-10300000D01*
X10148000Y-10350000D01*
X10193000Y-7510500D02*
X10243000Y-7460500D01*
X10193000Y-7410500D01*
X10143000Y-7460500D01*
X10193000Y-7510500D01*
X10193000Y-7764500D02*
X10243000Y-7714500D01*
X10193000Y-7664500D01*
X10143000Y-7714500D01*
X10193000Y-7764500D01*
X10193000Y-8018500D02*
X10243000Y-7968500D01*
X10193000Y-7918500D01*
X10143000Y-7968500D01*
X10193000Y-8018500D01*
X10193000Y-12336500D02*
X10243000Y-12286500D01*
X10193000Y-12236500D01*
X10143000Y-12286500D01*
X10193000Y-12336500D01*
X10193000Y-12590500D02*
X10243000Y-12540500D01*
X10193000Y-12490500D01*
X10143000Y-12540500D01*
X10193000Y-12590500D01*
X10396500Y-14509780D02*
X10446500Y-14459780D01*
X10396500Y-14409780D01*
X10346500Y-14459780D01*
X10396500Y-14509780D01*
X10396500Y-14763780D02*
X10446500Y-14713780D01*
X10396500Y-14663780D01*
X10346500Y-14713780D01*
X10396500Y-14763780D01*
X10402000Y-10096000D02*
X10452000Y-10046000D01*
X10402000Y-9996000D01*
X10352000Y-10046000D01*
X10402000Y-10096000D01*
X10402000Y-10350000D02*
X10452000Y-10300000D01*
X10402000Y-10250000D01*
X10352000Y-10300000D01*
X10402000Y-10350000D01*
X10447000Y-7510500D02*
X10497000Y-7460500D01*
X10447000Y-7410500D01*
X10397000Y-7460500D01*
X10447000Y-7510500D01*
X10447000Y-7764500D02*
X10497000Y-7714500D01*
X10447000Y-7664500D01*
X10397000Y-7714500D01*
X10447000Y-7764500D01*
X10447000Y-12336500D02*
X10497000Y-12286500D01*
X10447000Y-12236500D01*
X10397000Y-12286500D01*
X10447000Y-12336500D01*
X10447000Y-12590500D02*
X10497000Y-12540500D01*
X10447000Y-12490500D01*
X10397000Y-12540500D01*
X10447000Y-12590500D01*
X10650500Y-14509780D02*
X10700500Y-14459780D01*
X10650500Y-14409780D01*
X10600500Y-14459780D01*
X10650500Y-14509780D01*
X10650500Y-14763780D02*
X10700500Y-14713780D01*
X10650500Y-14663780D01*
X10600500Y-14713780D01*
X10650500Y-14763780D01*
X10656000Y-10096000D02*
X10706000Y-10046000D01*
X10656000Y-9996000D01*
X10606000Y-10046000D01*
X10656000Y-10096000D01*
X10656000Y-10350000D02*
X10706000Y-10300000D01*
X10656000Y-10250000D01*
X10606000Y-10300000D01*
X10656000Y-10350000D01*
X10701000Y-7510500D02*
X10751000Y-7460500D01*
X10701000Y-7410500D01*
X10651000Y-7460500D01*
X10701000Y-7510500D01*
X10701000Y-7764500D02*
X10751000Y-7714500D01*
X10701000Y-7664500D01*
X10651000Y-7714500D01*
X10701000Y-7764500D01*
X10701000Y-12336500D02*
X10751000Y-12286500D01*
X10701000Y-12236500D01*
X10651000Y-12286500D01*
X10701000Y-12336500D01*
X10701000Y-12590500D02*
X10751000Y-12540500D01*
X10701000Y-12490500D01*
X10651000Y-12540500D01*
X10701000Y-12590500D01*
X10904500Y-14509780D02*
X10954500Y-14459780D01*
X10904500Y-14409780D01*
X10854500Y-14459780D01*
X10904500Y-14509780D01*
X10904500Y-14763780D02*
X10954500Y-14713780D01*
X10904500Y-14663780D01*
X10854500Y-14713780D01*
X10904500Y-14763780D01*
X10910000Y-10096000D02*
X10960000Y-10046000D01*
X10910000Y-9996000D01*
X10860000Y-10046000D01*
X10910000Y-10096000D01*
X10910000Y-10350000D02*
X10960000Y-10300000D01*
X10910000Y-10250000D01*
X10860000Y-10300000D01*
X10910000Y-10350000D01*
X10955000Y-7510500D02*
X11005000Y-7460500D01*
X10955000Y-7410500D01*
X10905000Y-7460500D01*
X10955000Y-7510500D01*
X10955000Y-7764500D02*
X11005000Y-7714500D01*
X10955000Y-7664500D01*
X10905000Y-7714500D01*
X10955000Y-7764500D01*
X10955000Y-12336500D02*
X11005000Y-12286500D01*
X10955000Y-12236500D01*
X10905000Y-12286500D01*
X10955000Y-12336500D01*
X10955000Y-12590500D02*
X11005000Y-12540500D01*
X10955000Y-12490500D01*
X10905000Y-12540500D01*
X10955000Y-12590500D01*
X11209000Y-7510500D02*
X11259000Y-7460500D01*
X11209000Y-7410500D01*
X11159000Y-7460500D01*
X11209000Y-7510500D01*
X11209000Y-7764500D02*
X11259000Y-7714500D01*
X11209000Y-7664500D01*
X11159000Y-7714500D01*
X11209000Y-7764500D01*
X11209000Y-12336500D02*
X11259000Y-12286500D01*
X11209000Y-12236500D01*
X11159000Y-12286500D01*
X11209000Y-12336500D01*
X11209000Y-12590500D02*
X11259000Y-12540500D01*
X11209000Y-12490500D01*
X11159000Y-12540500D01*
X11209000Y-12590500D01*
X11463000Y-7510500D02*
X11513000Y-7460500D01*
X11463000Y-7410500D01*
X11413000Y-7460500D01*
X11463000Y-7510500D01*
X11463000Y-7764500D02*
X11513000Y-7714500D01*
X11463000Y-7664500D01*
X11413000Y-7714500D01*
X11463000Y-7764500D01*
X11463000Y-12336500D02*
X11513000Y-12286500D01*
X11463000Y-12236500D01*
X11413000Y-12286500D01*
X11463000Y-12336500D01*
X11463000Y-12590500D02*
X11513000Y-12540500D01*
X11463000Y-12490500D01*
X11413000Y-12540500D01*
X11463000Y-12590500D01*
X11717000Y-7510500D02*
X11767000Y-7460500D01*
X11717000Y-7410500D01*
X11667000Y-7460500D01*
X11717000Y-7510500D01*
X11717000Y-7764500D02*
X11767000Y-7714500D01*
X11717000Y-7664500D01*
X11667000Y-7714500D01*
X11717000Y-7764500D01*
X11717000Y-12336500D02*
X11767000Y-12286500D01*
X11717000Y-12236500D01*
X11667000Y-12286500D01*
X11717000Y-12336500D01*
X11717000Y-12590500D02*
X11767000Y-12540500D01*
X11717000Y-12490500D01*
X11667000Y-12540500D01*
X11717000Y-12590500D01*
X11971000Y-7510500D02*
X12021000Y-7460500D01*
X11971000Y-7410500D01*
X11921000Y-7460500D01*
X11971000Y-7510500D01*
X11971000Y-7764500D02*
X12021000Y-7714500D01*
X11971000Y-7664500D01*
X11921000Y-7714500D01*
X11971000Y-7764500D01*
X11971000Y-12336500D02*
X12021000Y-12286500D01*
X11971000Y-12236500D01*
X11921000Y-12286500D01*
X11971000Y-12336500D01*
X11971000Y-12590500D02*
X12021000Y-12540500D01*
X11971000Y-12490500D01*
X11921000Y-12540500D01*
X11971000Y-12590500D01*
D13*
X5450000Y-5925000D02*
X5600000Y-6075000D01*
X5600000Y-5925000D02*
X5450000Y-6075000D01*
X5600000Y-6000000D02*
G75*
G02*
X5450000Y-6000000I-75000J0D01*
G01*
X5450000Y-6000000D02*
G75*
G02*
X5600000Y-6000000I75000J0D01*
G01*
X8450000Y-5925000D02*
X8600000Y-6075000D01*
X8600000Y-5925000D02*
X8450000Y-6075000D01*
X8600000Y-6000000D02*
G75*
G02*
X8450000Y-6000000I-75000J0D01*
G01*
X8450000Y-6000000D02*
G75*
G02*
X8600000Y-6000000I75000J0D01*
G01*
X9450000Y-5925000D02*
X9600000Y-6075000D01*
X9600000Y-5925000D02*
X9450000Y-6075000D01*
X9600000Y-6000000D02*
G75*
G02*
X9450000Y-6000000I-75000J0D01*
G01*
X9450000Y-6000000D02*
G75*
G02*
X9600000Y-6000000I75000J0D01*
G01*
X12450000Y-5925000D02*
X12600000Y-6075000D01*
X12600000Y-5925000D02*
X12450000Y-6075000D01*
X12600000Y-6000000D02*
G75*
G02*
X12450000Y-6000000I-75000J0D01*
G01*
X12450000Y-6000000D02*
G75*
G02*
X12600000Y-6000000I75000J0D01*
G01*
D14*
X5186000Y-5661000D02*
X5356000Y-5831000D01*
X5356000Y-5661000D02*
X5186000Y-5831000D01*
X5271000Y-5661000D02*
X5271000Y-5831000D01*
X5186000Y-5746000D02*
X5356000Y-5746000D01*
X5186000Y-6169000D02*
X5356000Y-6339000D01*
X5356000Y-6169000D02*
X5186000Y-6339000D01*
X5271000Y-6169000D02*
X5271000Y-6339000D01*
X5186000Y-6254000D02*
X5356000Y-6254000D01*
X5694000Y-5661000D02*
X5864000Y-5831000D01*
X5864000Y-5661000D02*
X5694000Y-5831000D01*
X5779000Y-5661000D02*
X5779000Y-5831000D01*
X5694000Y-5746000D02*
X5864000Y-5746000D01*
X5694000Y-6169000D02*
X5864000Y-6339000D01*
X5864000Y-6169000D02*
X5694000Y-6339000D01*
X5779000Y-6169000D02*
X5779000Y-6339000D01*
X5694000Y-6254000D02*
X5864000Y-6254000D01*
X8186000Y-5661000D02*
X8356000Y-5831000D01*
X8356000Y-5661000D02*
X8186000Y-5831000D01*
X8271000Y-5661000D02*
X8271000Y-5831000D01*
X8186000Y-5746000D02*
X8356000Y-5746000D01*
X8186000Y-6169000D02*
X8356000Y-6339000D01*
X8356000Y-6169000D02*
X8186000Y-6339000D01*
X8271000Y-6169000D02*
X8271000Y-6339000D01*
X8186000Y-6254000D02*
X8356000Y-6254000D01*
X8694000Y-5661000D02*
X8864000Y-5831000D01*
X8864000Y-5661000D02*
X8694000Y-5831000D01*
X8779000Y-5661000D02*
X8779000Y-5831000D01*
X8694000Y-5746000D02*
X8864000Y-5746000D01*
X8694000Y-6169000D02*
X8864000Y-6339000D01*
X8864000Y-6169000D02*
X8694000Y-6339000D01*
X8779000Y-6169000D02*
X8779000Y-6339000D01*
X8694000Y-6254000D02*
X8864000Y-6254000D01*
X9186000Y-5661000D02*
X9356000Y-5831000D01*
X9356000Y-5661000D02*
X9186000Y-5831000D01*
X9271000Y-5661000D02*
X9271000Y-5831000D01*
X9186000Y-5746000D02*
X9356000Y-5746000D01*
X9186000Y-6169000D02*
X9356000Y-6339000D01*
X9356000Y-6169000D02*
X9186000Y-6339000D01*
X9271000Y-6169000D02*
X9271000Y-6339000D01*
X9186000Y-6254000D02*
X9356000Y-6254000D01*
X9694000Y-5661000D02*
X9864000Y-5831000D01*
X9864000Y-5661000D02*
X9694000Y-5831000D01*
X9779000Y-5661000D02*
X9779000Y-5831000D01*
X9694000Y-5746000D02*
X9864000Y-5746000D01*
X9694000Y-6169000D02*
X9864000Y-6339000D01*
X9864000Y-6169000D02*
X9694000Y-6339000D01*
X9779000Y-6169000D02*
X9779000Y-6339000D01*
X9694000Y-6254000D02*
X9864000Y-6254000D01*
X12186000Y-5661000D02*
X12356000Y-5831000D01*
X12356000Y-5661000D02*
X12186000Y-5831000D01*
X12271000Y-5661000D02*
X12271000Y-5831000D01*
X12186000Y-5746000D02*
X12356000Y-5746000D01*
X12186000Y-6169000D02*
X12356000Y-6339000D01*
X12356000Y-6169000D02*
X12186000Y-6339000D01*
X12271000Y-6169000D02*
X12271000Y-6339000D01*
X12186000Y-6254000D02*
X12356000Y-6254000D01*
X12694000Y-5661000D02*
X12864000Y-5831000D01*
X12864000Y-5661000D02*
X12694000Y-5831000D01*
X12779000Y-5661000D02*
X12779000Y-5831000D01*
X12694000Y-5746000D02*
X12864000Y-5746000D01*
X12694000Y-6169000D02*
X12864000Y-6339000D01*
X12864000Y-6169000D02*
X12694000Y-6339000D01*
X12779000Y-6169000D02*
X12779000Y-6339000D01*
X12694000Y-6254000D02*
X12864000Y-6254000D01*
D11*
X5254777Y-15317484D02*
X5254777Y-15117484D01*
X5254777Y-15117484D02*
X5302396Y-15117484D01*
X5302396Y-15117484D02*
X5330967Y-15127008D01*
X5330967Y-15127008D02*
X5350015Y-15146055D01*
X5350015Y-15146055D02*
X5359539Y-15165103D01*
X5359539Y-15165103D02*
X5369063Y-15203198D01*
X5369063Y-15203198D02*
X5369063Y-15231769D01*
X5369063Y-15231769D02*
X5359539Y-15269865D01*
X5359539Y-15269865D02*
X5350015Y-15288912D01*
X5350015Y-15288912D02*
X5330967Y-15307960D01*
X5330967Y-15307960D02*
X5302396Y-15317484D01*
X5302396Y-15317484D02*
X5254777Y-15317484D01*
X5454777Y-15317484D02*
X5454777Y-15184150D01*
X5454777Y-15222246D02*
X5464301Y-15203198D01*
X5464301Y-15203198D02*
X5473824Y-15193674D01*
X5473824Y-15193674D02*
X5492872Y-15184150D01*
X5492872Y-15184150D02*
X5511920Y-15184150D01*
X5578586Y-15317484D02*
X5578586Y-15184150D01*
X5578586Y-15117484D02*
X5569063Y-15127008D01*
X5569063Y-15127008D02*
X5578586Y-15136531D01*
X5578586Y-15136531D02*
X5588110Y-15127008D01*
X5588110Y-15127008D02*
X5578586Y-15117484D01*
X5578586Y-15117484D02*
X5578586Y-15136531D01*
X5702396Y-15317484D02*
X5683348Y-15307960D01*
X5683348Y-15307960D02*
X5673824Y-15288912D01*
X5673824Y-15288912D02*
X5673824Y-15117484D01*
X5807158Y-15317484D02*
X5788110Y-15307960D01*
X5788110Y-15307960D02*
X5778586Y-15288912D01*
X5778586Y-15288912D02*
X5778586Y-15117484D01*
X6035729Y-15317484D02*
X6035729Y-15117484D01*
X6035729Y-15117484D02*
X6102396Y-15260341D01*
X6102396Y-15260341D02*
X6169062Y-15117484D01*
X6169062Y-15117484D02*
X6169062Y-15317484D01*
X6350015Y-15317484D02*
X6350015Y-15212722D01*
X6350015Y-15212722D02*
X6340491Y-15193674D01*
X6340491Y-15193674D02*
X6321443Y-15184150D01*
X6321443Y-15184150D02*
X6283348Y-15184150D01*
X6283348Y-15184150D02*
X6264301Y-15193674D01*
X6350015Y-15307960D02*
X6330967Y-15317484D01*
X6330967Y-15317484D02*
X6283348Y-15317484D01*
X6283348Y-15317484D02*
X6264301Y-15307960D01*
X6264301Y-15307960D02*
X6254777Y-15288912D01*
X6254777Y-15288912D02*
X6254777Y-15269865D01*
X6254777Y-15269865D02*
X6264301Y-15250817D01*
X6264301Y-15250817D02*
X6283348Y-15241293D01*
X6283348Y-15241293D02*
X6330967Y-15241293D01*
X6330967Y-15241293D02*
X6350015Y-15231769D01*
X6445253Y-15184150D02*
X6445253Y-15384150D01*
X6445253Y-15193674D02*
X6464301Y-15184150D01*
X6464301Y-15184150D02*
X6502396Y-15184150D01*
X6502396Y-15184150D02*
X6521443Y-15193674D01*
X6521443Y-15193674D02*
X6530967Y-15203198D01*
X6530967Y-15203198D02*
X6540491Y-15222246D01*
X6540491Y-15222246D02*
X6540491Y-15279388D01*
X6540491Y-15279388D02*
X6530967Y-15298436D01*
X6530967Y-15298436D02*
X6521443Y-15307960D01*
X6521443Y-15307960D02*
X6502396Y-15317484D01*
X6502396Y-15317484D02*
X6464301Y-15317484D01*
X6464301Y-15317484D02*
X6445253Y-15307960D01*
X6626205Y-15298436D02*
X6635729Y-15307960D01*
X6635729Y-15307960D02*
X6626205Y-15317484D01*
X6626205Y-15317484D02*
X6616682Y-15307960D01*
X6616682Y-15307960D02*
X6626205Y-15298436D01*
X6626205Y-15298436D02*
X6626205Y-15317484D01*
X6626205Y-15193674D02*
X6635729Y-15203198D01*
X6635729Y-15203198D02*
X6626205Y-15212722D01*
X6626205Y-15212722D02*
X6616682Y-15203198D01*
X6616682Y-15203198D02*
X6626205Y-15193674D01*
X6626205Y-15193674D02*
X6626205Y-15212722D01*
D12*
X4964000Y-15631000D02*
X4994000Y-15661000D01*
X4994000Y-15631000D02*
X4964000Y-15661000D01*
D11*
X5292872Y-15537484D02*
X5311920Y-15537484D01*
X5311920Y-15537484D02*
X5330967Y-15547008D01*
X5330967Y-15547008D02*
X5340491Y-15556531D01*
X5340491Y-15556531D02*
X5350015Y-15575579D01*
X5350015Y-15575579D02*
X5359539Y-15613674D01*
X5359539Y-15613674D02*
X5359539Y-15661293D01*
X5359539Y-15661293D02*
X5350015Y-15699388D01*
X5350015Y-15699388D02*
X5340491Y-15718436D01*
X5340491Y-15718436D02*
X5330967Y-15727960D01*
X5330967Y-15727960D02*
X5311920Y-15737484D01*
X5311920Y-15737484D02*
X5292872Y-15737484D01*
X5292872Y-15737484D02*
X5273824Y-15727960D01*
X5273824Y-15727960D02*
X5264301Y-15718436D01*
X5264301Y-15718436D02*
X5254777Y-15699388D01*
X5254777Y-15699388D02*
X5245253Y-15661293D01*
X5245253Y-15661293D02*
X5245253Y-15613674D01*
X5245253Y-15613674D02*
X5254777Y-15575579D01*
X5254777Y-15575579D02*
X5264301Y-15556531D01*
X5264301Y-15556531D02*
X5273824Y-15547008D01*
X5273824Y-15547008D02*
X5292872Y-15537484D01*
X5445253Y-15718436D02*
X5454777Y-15727960D01*
X5454777Y-15727960D02*
X5445253Y-15737484D01*
X5445253Y-15737484D02*
X5435729Y-15727960D01*
X5435729Y-15727960D02*
X5445253Y-15718436D01*
X5445253Y-15718436D02*
X5445253Y-15737484D01*
X5521444Y-15537484D02*
X5645253Y-15537484D01*
X5645253Y-15537484D02*
X5578586Y-15613674D01*
X5578586Y-15613674D02*
X5607158Y-15613674D01*
X5607158Y-15613674D02*
X5626205Y-15623198D01*
X5626205Y-15623198D02*
X5635729Y-15632722D01*
X5635729Y-15632722D02*
X5645253Y-15651769D01*
X5645253Y-15651769D02*
X5645253Y-15699388D01*
X5645253Y-15699388D02*
X5635729Y-15718436D01*
X5635729Y-15718436D02*
X5626205Y-15727960D01*
X5626205Y-15727960D02*
X5607158Y-15737484D01*
X5607158Y-15737484D02*
X5550015Y-15737484D01*
X5550015Y-15737484D02*
X5530967Y-15727960D01*
X5530967Y-15727960D02*
X5521444Y-15718436D01*
X5769062Y-15537484D02*
X5788110Y-15537484D01*
X5788110Y-15537484D02*
X5807158Y-15547008D01*
X5807158Y-15547008D02*
X5816682Y-15556531D01*
X5816682Y-15556531D02*
X5826205Y-15575579D01*
X5826205Y-15575579D02*
X5835729Y-15613674D01*
X5835729Y-15613674D02*
X5835729Y-15661293D01*
X5835729Y-15661293D02*
X5826205Y-15699388D01*
X5826205Y-15699388D02*
X5816682Y-15718436D01*
X5816682Y-15718436D02*
X5807158Y-15727960D01*
X5807158Y-15727960D02*
X5788110Y-15737484D01*
X5788110Y-15737484D02*
X5769062Y-15737484D01*
X5769062Y-15737484D02*
X5750015Y-15727960D01*
X5750015Y-15727960D02*
X5740491Y-15718436D01*
X5740491Y-15718436D02*
X5730967Y-15699388D01*
X5730967Y-15699388D02*
X5721443Y-15661293D01*
X5721443Y-15661293D02*
X5721443Y-15613674D01*
X5721443Y-15613674D02*
X5730967Y-15575579D01*
X5730967Y-15575579D02*
X5740491Y-15556531D01*
X5740491Y-15556531D02*
X5750015Y-15547008D01*
X5750015Y-15547008D02*
X5769062Y-15537484D01*
X5959539Y-15537484D02*
X5978586Y-15537484D01*
X5978586Y-15537484D02*
X5997634Y-15547008D01*
X5997634Y-15547008D02*
X6007158Y-15556531D01*
X6007158Y-15556531D02*
X6016682Y-15575579D01*
X6016682Y-15575579D02*
X6026205Y-15613674D01*
X6026205Y-15613674D02*
X6026205Y-15661293D01*
X6026205Y-15661293D02*
X6016682Y-15699388D01*
X6016682Y-15699388D02*
X6007158Y-15718436D01*
X6007158Y-15718436D02*
X5997634Y-15727960D01*
X5997634Y-15727960D02*
X5978586Y-15737484D01*
X5978586Y-15737484D02*
X5959539Y-15737484D01*
X5959539Y-15737484D02*
X5940491Y-15727960D01*
X5940491Y-15727960D02*
X5930967Y-15718436D01*
X5930967Y-15718436D02*
X5921443Y-15699388D01*
X5921443Y-15699388D02*
X5911920Y-15661293D01*
X5911920Y-15661293D02*
X5911920Y-15613674D01*
X5911920Y-15613674D02*
X5921443Y-15575579D01*
X5921443Y-15575579D02*
X5930967Y-15556531D01*
X5930967Y-15556531D02*
X5940491Y-15547008D01*
X5940491Y-15547008D02*
X5959539Y-15537484D01*
X6111920Y-15737484D02*
X6111920Y-15604150D01*
X6111920Y-15623198D02*
X6121443Y-15613674D01*
X6121443Y-15613674D02*
X6140491Y-15604150D01*
X6140491Y-15604150D02*
X6169063Y-15604150D01*
X6169063Y-15604150D02*
X6188110Y-15613674D01*
X6188110Y-15613674D02*
X6197634Y-15632722D01*
X6197634Y-15632722D02*
X6197634Y-15737484D01*
X6197634Y-15632722D02*
X6207158Y-15613674D01*
X6207158Y-15613674D02*
X6226205Y-15604150D01*
X6226205Y-15604150D02*
X6254777Y-15604150D01*
X6254777Y-15604150D02*
X6273824Y-15613674D01*
X6273824Y-15613674D02*
X6283348Y-15632722D01*
X6283348Y-15632722D02*
X6283348Y-15737484D01*
X6378586Y-15737484D02*
X6378586Y-15604150D01*
X6378586Y-15623198D02*
X6388110Y-15613674D01*
X6388110Y-15613674D02*
X6407158Y-15604150D01*
X6407158Y-15604150D02*
X6435729Y-15604150D01*
X6435729Y-15604150D02*
X6454777Y-15613674D01*
X6454777Y-15613674D02*
X6464301Y-15632722D01*
X6464301Y-15632722D02*
X6464301Y-15737484D01*
X6464301Y-15632722D02*
X6473824Y-15613674D01*
X6473824Y-15613674D02*
X6492872Y-15604150D01*
X6492872Y-15604150D02*
X6521443Y-15604150D01*
X6521443Y-15604150D02*
X6540491Y-15613674D01*
X6540491Y-15613674D02*
X6550015Y-15632722D01*
X6550015Y-15632722D02*
X6550015Y-15737484D01*
X6940491Y-15527960D02*
X6769063Y-15785103D01*
X7197634Y-15537484D02*
X7216682Y-15537484D01*
X7216682Y-15537484D02*
X7235729Y-15547008D01*
X7235729Y-15547008D02*
X7245253Y-15556531D01*
X7245253Y-15556531D02*
X7254777Y-15575579D01*
X7254777Y-15575579D02*
X7264301Y-15613674D01*
X7264301Y-15613674D02*
X7264301Y-15661293D01*
X7264301Y-15661293D02*
X7254777Y-15699388D01*
X7254777Y-15699388D02*
X7245253Y-15718436D01*
X7245253Y-15718436D02*
X7235729Y-15727960D01*
X7235729Y-15727960D02*
X7216682Y-15737484D01*
X7216682Y-15737484D02*
X7197634Y-15737484D01*
X7197634Y-15737484D02*
X7178586Y-15727960D01*
X7178586Y-15727960D02*
X7169063Y-15718436D01*
X7169063Y-15718436D02*
X7159539Y-15699388D01*
X7159539Y-15699388D02*
X7150015Y-15661293D01*
X7150015Y-15661293D02*
X7150015Y-15613674D01*
X7150015Y-15613674D02*
X7159539Y-15575579D01*
X7159539Y-15575579D02*
X7169063Y-15556531D01*
X7169063Y-15556531D02*
X7178586Y-15547008D01*
X7178586Y-15547008D02*
X7197634Y-15537484D01*
X7350015Y-15718436D02*
X7359539Y-15727960D01*
X7359539Y-15727960D02*
X7350015Y-15737484D01*
X7350015Y-15737484D02*
X7340491Y-15727960D01*
X7340491Y-15727960D02*
X7350015Y-15718436D01*
X7350015Y-15718436D02*
X7350015Y-15737484D01*
X7483348Y-15537484D02*
X7502396Y-15537484D01*
X7502396Y-15537484D02*
X7521444Y-15547008D01*
X7521444Y-15547008D02*
X7530967Y-15556531D01*
X7530967Y-15556531D02*
X7540491Y-15575579D01*
X7540491Y-15575579D02*
X7550015Y-15613674D01*
X7550015Y-15613674D02*
X7550015Y-15661293D01*
X7550015Y-15661293D02*
X7540491Y-15699388D01*
X7540491Y-15699388D02*
X7530967Y-15718436D01*
X7530967Y-15718436D02*
X7521444Y-15727960D01*
X7521444Y-15727960D02*
X7502396Y-15737484D01*
X7502396Y-15737484D02*
X7483348Y-15737484D01*
X7483348Y-15737484D02*
X7464301Y-15727960D01*
X7464301Y-15727960D02*
X7454777Y-15718436D01*
X7454777Y-15718436D02*
X7445253Y-15699388D01*
X7445253Y-15699388D02*
X7435729Y-15661293D01*
X7435729Y-15661293D02*
X7435729Y-15613674D01*
X7435729Y-15613674D02*
X7445253Y-15575579D01*
X7445253Y-15575579D02*
X7454777Y-15556531D01*
X7454777Y-15556531D02*
X7464301Y-15547008D01*
X7464301Y-15547008D02*
X7483348Y-15537484D01*
X7740491Y-15737484D02*
X7626206Y-15737484D01*
X7683348Y-15737484D02*
X7683348Y-15537484D01*
X7683348Y-15537484D02*
X7664301Y-15566055D01*
X7664301Y-15566055D02*
X7645253Y-15585103D01*
X7645253Y-15585103D02*
X7626206Y-15594627D01*
X7930967Y-15737484D02*
X7816682Y-15737484D01*
X7873825Y-15737484D02*
X7873825Y-15537484D01*
X7873825Y-15537484D02*
X7854777Y-15566055D01*
X7854777Y-15566055D02*
X7835729Y-15585103D01*
X7835729Y-15585103D02*
X7816682Y-15594627D01*
X8045253Y-15623198D02*
X8026206Y-15613674D01*
X8026206Y-15613674D02*
X8016682Y-15604150D01*
X8016682Y-15604150D02*
X8007158Y-15585103D01*
X8007158Y-15585103D02*
X8007158Y-15575579D01*
X8007158Y-15575579D02*
X8016682Y-15556531D01*
X8016682Y-15556531D02*
X8026206Y-15547008D01*
X8026206Y-15547008D02*
X8045253Y-15537484D01*
X8045253Y-15537484D02*
X8083348Y-15537484D01*
X8083348Y-15537484D02*
X8102396Y-15547008D01*
X8102396Y-15547008D02*
X8111920Y-15556531D01*
X8111920Y-15556531D02*
X8121444Y-15575579D01*
X8121444Y-15575579D02*
X8121444Y-15585103D01*
X8121444Y-15585103D02*
X8111920Y-15604150D01*
X8111920Y-15604150D02*
X8102396Y-15613674D01*
X8102396Y-15613674D02*
X8083348Y-15623198D01*
X8083348Y-15623198D02*
X8045253Y-15623198D01*
X8045253Y-15623198D02*
X8026206Y-15632722D01*
X8026206Y-15632722D02*
X8016682Y-15642246D01*
X8016682Y-15642246D02*
X8007158Y-15661293D01*
X8007158Y-15661293D02*
X8007158Y-15699388D01*
X8007158Y-15699388D02*
X8016682Y-15718436D01*
X8016682Y-15718436D02*
X8026206Y-15727960D01*
X8026206Y-15727960D02*
X8045253Y-15737484D01*
X8045253Y-15737484D02*
X8083348Y-15737484D01*
X8083348Y-15737484D02*
X8102396Y-15727960D01*
X8102396Y-15727960D02*
X8111920Y-15718436D01*
X8111920Y-15718436D02*
X8121444Y-15699388D01*
X8121444Y-15699388D02*
X8121444Y-15661293D01*
X8121444Y-15661293D02*
X8111920Y-15642246D01*
X8111920Y-15642246D02*
X8102396Y-15632722D01*
X8102396Y-15632722D02*
X8083348Y-15623198D01*
X8197634Y-15537484D02*
X8197634Y-15575579D01*
X8273825Y-15537484D02*
X8273825Y-15575579D01*
X8569063Y-15813674D02*
X8559539Y-15804150D01*
X8559539Y-15804150D02*
X8540491Y-15775579D01*
X8540491Y-15775579D02*
X8530968Y-15756531D01*
X8530968Y-15756531D02*
X8521444Y-15727960D01*
X8521444Y-15727960D02*
X8511920Y-15680341D01*
X8511920Y-15680341D02*
X8511920Y-15642246D01*
X8511920Y-15642246D02*
X8521444Y-15594627D01*
X8521444Y-15594627D02*
X8530968Y-15566055D01*
X8530968Y-15566055D02*
X8540491Y-15547008D01*
X8540491Y-15547008D02*
X8559539Y-15518436D01*
X8559539Y-15518436D02*
X8569063Y-15508912D01*
X8730968Y-15604150D02*
X8730968Y-15737484D01*
X8683349Y-15527960D02*
X8635730Y-15670817D01*
X8635730Y-15670817D02*
X8759539Y-15670817D01*
X8988111Y-15737484D02*
X8988111Y-15537484D01*
X9073825Y-15737484D02*
X9073825Y-15632722D01*
X9073825Y-15632722D02*
X9064301Y-15613674D01*
X9064301Y-15613674D02*
X9045253Y-15604150D01*
X9045253Y-15604150D02*
X9016682Y-15604150D01*
X9016682Y-15604150D02*
X8997634Y-15613674D01*
X8997634Y-15613674D02*
X8988111Y-15623198D01*
X9197634Y-15737484D02*
X9178587Y-15727960D01*
X9178587Y-15727960D02*
X9169063Y-15718436D01*
X9169063Y-15718436D02*
X9159539Y-15699388D01*
X9159539Y-15699388D02*
X9159539Y-15642246D01*
X9159539Y-15642246D02*
X9169063Y-15623198D01*
X9169063Y-15623198D02*
X9178587Y-15613674D01*
X9178587Y-15613674D02*
X9197634Y-15604150D01*
X9197634Y-15604150D02*
X9226206Y-15604150D01*
X9226206Y-15604150D02*
X9245253Y-15613674D01*
X9245253Y-15613674D02*
X9254777Y-15623198D01*
X9254777Y-15623198D02*
X9264301Y-15642246D01*
X9264301Y-15642246D02*
X9264301Y-15699388D01*
X9264301Y-15699388D02*
X9254777Y-15718436D01*
X9254777Y-15718436D02*
X9245253Y-15727960D01*
X9245253Y-15727960D02*
X9226206Y-15737484D01*
X9226206Y-15737484D02*
X9197634Y-15737484D01*
X9378587Y-15737484D02*
X9359539Y-15727960D01*
X9359539Y-15727960D02*
X9350015Y-15708912D01*
X9350015Y-15708912D02*
X9350015Y-15537484D01*
X9530968Y-15727960D02*
X9511920Y-15737484D01*
X9511920Y-15737484D02*
X9473825Y-15737484D01*
X9473825Y-15737484D02*
X9454777Y-15727960D01*
X9454777Y-15727960D02*
X9445253Y-15708912D01*
X9445253Y-15708912D02*
X9445253Y-15632722D01*
X9445253Y-15632722D02*
X9454777Y-15613674D01*
X9454777Y-15613674D02*
X9473825Y-15604150D01*
X9473825Y-15604150D02*
X9511920Y-15604150D01*
X9511920Y-15604150D02*
X9530968Y-15613674D01*
X9530968Y-15613674D02*
X9540492Y-15632722D01*
X9540492Y-15632722D02*
X9540492Y-15651769D01*
X9540492Y-15651769D02*
X9445253Y-15670817D01*
X9616682Y-15727960D02*
X9635730Y-15737484D01*
X9635730Y-15737484D02*
X9673825Y-15737484D01*
X9673825Y-15737484D02*
X9692873Y-15727960D01*
X9692873Y-15727960D02*
X9702396Y-15708912D01*
X9702396Y-15708912D02*
X9702396Y-15699388D01*
X9702396Y-15699388D02*
X9692873Y-15680341D01*
X9692873Y-15680341D02*
X9673825Y-15670817D01*
X9673825Y-15670817D02*
X9645253Y-15670817D01*
X9645253Y-15670817D02*
X9626206Y-15661293D01*
X9626206Y-15661293D02*
X9616682Y-15642246D01*
X9616682Y-15642246D02*
X9616682Y-15632722D01*
X9616682Y-15632722D02*
X9626206Y-15613674D01*
X9626206Y-15613674D02*
X9645253Y-15604150D01*
X9645253Y-15604150D02*
X9673825Y-15604150D01*
X9673825Y-15604150D02*
X9692873Y-15613674D01*
X9769063Y-15813674D02*
X9778587Y-15804150D01*
X9778587Y-15804150D02*
X9797634Y-15775579D01*
X9797634Y-15775579D02*
X9807158Y-15756531D01*
X9807158Y-15756531D02*
X9816682Y-15727960D01*
X9816682Y-15727960D02*
X9826206Y-15680341D01*
X9826206Y-15680341D02*
X9826206Y-15642246D01*
X9826206Y-15642246D02*
X9816682Y-15594627D01*
X9816682Y-15594627D02*
X9807158Y-15566055D01*
X9807158Y-15566055D02*
X9797634Y-15547008D01*
X9797634Y-15547008D02*
X9778587Y-15518436D01*
X9778587Y-15518436D02*
X9769063Y-15508912D01*
D12*
X4994000Y-15910000D02*
G75*
G02*
X4954000Y-15910000I-20000J0D01*
G01*
X4954000Y-15910000D02*
G75*
G02*
X4994000Y-15910000I20000J0D01*
G01*
D11*
X5292872Y-15801484D02*
X5311920Y-15801484D01*
X5311920Y-15801484D02*
X5330967Y-15811008D01*
X5330967Y-15811008D02*
X5340491Y-15820531D01*
X5340491Y-15820531D02*
X5350015Y-15839579D01*
X5350015Y-15839579D02*
X5359539Y-15877674D01*
X5359539Y-15877674D02*
X5359539Y-15925293D01*
X5359539Y-15925293D02*
X5350015Y-15963388D01*
X5350015Y-15963388D02*
X5340491Y-15982436D01*
X5340491Y-15982436D02*
X5330967Y-15991960D01*
X5330967Y-15991960D02*
X5311920Y-16001484D01*
X5311920Y-16001484D02*
X5292872Y-16001484D01*
X5292872Y-16001484D02*
X5273824Y-15991960D01*
X5273824Y-15991960D02*
X5264301Y-15982436D01*
X5264301Y-15982436D02*
X5254777Y-15963388D01*
X5254777Y-15963388D02*
X5245253Y-15925293D01*
X5245253Y-15925293D02*
X5245253Y-15877674D01*
X5245253Y-15877674D02*
X5254777Y-15839579D01*
X5254777Y-15839579D02*
X5264301Y-15820531D01*
X5264301Y-15820531D02*
X5273824Y-15811008D01*
X5273824Y-15811008D02*
X5292872Y-15801484D01*
X5445253Y-15982436D02*
X5454777Y-15991960D01*
X5454777Y-15991960D02*
X5445253Y-16001484D01*
X5445253Y-16001484D02*
X5435729Y-15991960D01*
X5435729Y-15991960D02*
X5445253Y-15982436D01*
X5445253Y-15982436D02*
X5445253Y-16001484D01*
X5626205Y-15868150D02*
X5626205Y-16001484D01*
X5578586Y-15791960D02*
X5530967Y-15934817D01*
X5530967Y-15934817D02*
X5654777Y-15934817D01*
X5769062Y-15801484D02*
X5788110Y-15801484D01*
X5788110Y-15801484D02*
X5807158Y-15811008D01*
X5807158Y-15811008D02*
X5816682Y-15820531D01*
X5816682Y-15820531D02*
X5826205Y-15839579D01*
X5826205Y-15839579D02*
X5835729Y-15877674D01*
X5835729Y-15877674D02*
X5835729Y-15925293D01*
X5835729Y-15925293D02*
X5826205Y-15963388D01*
X5826205Y-15963388D02*
X5816682Y-15982436D01*
X5816682Y-15982436D02*
X5807158Y-15991960D01*
X5807158Y-15991960D02*
X5788110Y-16001484D01*
X5788110Y-16001484D02*
X5769062Y-16001484D01*
X5769062Y-16001484D02*
X5750015Y-15991960D01*
X5750015Y-15991960D02*
X5740491Y-15982436D01*
X5740491Y-15982436D02*
X5730967Y-15963388D01*
X5730967Y-15963388D02*
X5721443Y-15925293D01*
X5721443Y-15925293D02*
X5721443Y-15877674D01*
X5721443Y-15877674D02*
X5730967Y-15839579D01*
X5730967Y-15839579D02*
X5740491Y-15820531D01*
X5740491Y-15820531D02*
X5750015Y-15811008D01*
X5750015Y-15811008D02*
X5769062Y-15801484D01*
X5959539Y-15801484D02*
X5978586Y-15801484D01*
X5978586Y-15801484D02*
X5997634Y-15811008D01*
X5997634Y-15811008D02*
X6007158Y-15820531D01*
X6007158Y-15820531D02*
X6016682Y-15839579D01*
X6016682Y-15839579D02*
X6026205Y-15877674D01*
X6026205Y-15877674D02*
X6026205Y-15925293D01*
X6026205Y-15925293D02*
X6016682Y-15963388D01*
X6016682Y-15963388D02*
X6007158Y-15982436D01*
X6007158Y-15982436D02*
X5997634Y-15991960D01*
X5997634Y-15991960D02*
X5978586Y-16001484D01*
X5978586Y-16001484D02*
X5959539Y-16001484D01*
X5959539Y-16001484D02*
X5940491Y-15991960D01*
X5940491Y-15991960D02*
X5930967Y-15982436D01*
X5930967Y-15982436D02*
X5921443Y-15963388D01*
X5921443Y-15963388D02*
X5911920Y-15925293D01*
X5911920Y-15925293D02*
X5911920Y-15877674D01*
X5911920Y-15877674D02*
X5921443Y-15839579D01*
X5921443Y-15839579D02*
X5930967Y-15820531D01*
X5930967Y-15820531D02*
X5940491Y-15811008D01*
X5940491Y-15811008D02*
X5959539Y-15801484D01*
X6111920Y-16001484D02*
X6111920Y-15868150D01*
X6111920Y-15887198D02*
X6121443Y-15877674D01*
X6121443Y-15877674D02*
X6140491Y-15868150D01*
X6140491Y-15868150D02*
X6169063Y-15868150D01*
X6169063Y-15868150D02*
X6188110Y-15877674D01*
X6188110Y-15877674D02*
X6197634Y-15896722D01*
X6197634Y-15896722D02*
X6197634Y-16001484D01*
X6197634Y-15896722D02*
X6207158Y-15877674D01*
X6207158Y-15877674D02*
X6226205Y-15868150D01*
X6226205Y-15868150D02*
X6254777Y-15868150D01*
X6254777Y-15868150D02*
X6273824Y-15877674D01*
X6273824Y-15877674D02*
X6283348Y-15896722D01*
X6283348Y-15896722D02*
X6283348Y-16001484D01*
X6378586Y-16001484D02*
X6378586Y-15868150D01*
X6378586Y-15887198D02*
X6388110Y-15877674D01*
X6388110Y-15877674D02*
X6407158Y-15868150D01*
X6407158Y-15868150D02*
X6435729Y-15868150D01*
X6435729Y-15868150D02*
X6454777Y-15877674D01*
X6454777Y-15877674D02*
X6464301Y-15896722D01*
X6464301Y-15896722D02*
X6464301Y-16001484D01*
X6464301Y-15896722D02*
X6473824Y-15877674D01*
X6473824Y-15877674D02*
X6492872Y-15868150D01*
X6492872Y-15868150D02*
X6521443Y-15868150D01*
X6521443Y-15868150D02*
X6540491Y-15877674D01*
X6540491Y-15877674D02*
X6550015Y-15896722D01*
X6550015Y-15896722D02*
X6550015Y-16001484D01*
X6940491Y-15791960D02*
X6769063Y-16049103D01*
X7197634Y-15801484D02*
X7216682Y-15801484D01*
X7216682Y-15801484D02*
X7235729Y-15811008D01*
X7235729Y-15811008D02*
X7245253Y-15820531D01*
X7245253Y-15820531D02*
X7254777Y-15839579D01*
X7254777Y-15839579D02*
X7264301Y-15877674D01*
X7264301Y-15877674D02*
X7264301Y-15925293D01*
X7264301Y-15925293D02*
X7254777Y-15963388D01*
X7254777Y-15963388D02*
X7245253Y-15982436D01*
X7245253Y-15982436D02*
X7235729Y-15991960D01*
X7235729Y-15991960D02*
X7216682Y-16001484D01*
X7216682Y-16001484D02*
X7197634Y-16001484D01*
X7197634Y-16001484D02*
X7178586Y-15991960D01*
X7178586Y-15991960D02*
X7169063Y-15982436D01*
X7169063Y-15982436D02*
X7159539Y-15963388D01*
X7159539Y-15963388D02*
X7150015Y-15925293D01*
X7150015Y-15925293D02*
X7150015Y-15877674D01*
X7150015Y-15877674D02*
X7159539Y-15839579D01*
X7159539Y-15839579D02*
X7169063Y-15820531D01*
X7169063Y-15820531D02*
X7178586Y-15811008D01*
X7178586Y-15811008D02*
X7197634Y-15801484D01*
X7350015Y-15982436D02*
X7359539Y-15991960D01*
X7359539Y-15991960D02*
X7350015Y-16001484D01*
X7350015Y-16001484D02*
X7340491Y-15991960D01*
X7340491Y-15991960D02*
X7350015Y-15982436D01*
X7350015Y-15982436D02*
X7350015Y-16001484D01*
X7483348Y-15801484D02*
X7502396Y-15801484D01*
X7502396Y-15801484D02*
X7521444Y-15811008D01*
X7521444Y-15811008D02*
X7530967Y-15820531D01*
X7530967Y-15820531D02*
X7540491Y-15839579D01*
X7540491Y-15839579D02*
X7550015Y-15877674D01*
X7550015Y-15877674D02*
X7550015Y-15925293D01*
X7550015Y-15925293D02*
X7540491Y-15963388D01*
X7540491Y-15963388D02*
X7530967Y-15982436D01*
X7530967Y-15982436D02*
X7521444Y-15991960D01*
X7521444Y-15991960D02*
X7502396Y-16001484D01*
X7502396Y-16001484D02*
X7483348Y-16001484D01*
X7483348Y-16001484D02*
X7464301Y-15991960D01*
X7464301Y-15991960D02*
X7454777Y-15982436D01*
X7454777Y-15982436D02*
X7445253Y-15963388D01*
X7445253Y-15963388D02*
X7435729Y-15925293D01*
X7435729Y-15925293D02*
X7435729Y-15877674D01*
X7435729Y-15877674D02*
X7445253Y-15839579D01*
X7445253Y-15839579D02*
X7454777Y-15820531D01*
X7454777Y-15820531D02*
X7464301Y-15811008D01*
X7464301Y-15811008D02*
X7483348Y-15801484D01*
X7740491Y-16001484D02*
X7626206Y-16001484D01*
X7683348Y-16001484D02*
X7683348Y-15801484D01*
X7683348Y-15801484D02*
X7664301Y-15830055D01*
X7664301Y-15830055D02*
X7645253Y-15849103D01*
X7645253Y-15849103D02*
X7626206Y-15858627D01*
X7921444Y-15801484D02*
X7826206Y-15801484D01*
X7826206Y-15801484D02*
X7816682Y-15896722D01*
X7816682Y-15896722D02*
X7826206Y-15887198D01*
X7826206Y-15887198D02*
X7845253Y-15877674D01*
X7845253Y-15877674D02*
X7892872Y-15877674D01*
X7892872Y-15877674D02*
X7911920Y-15887198D01*
X7911920Y-15887198D02*
X7921444Y-15896722D01*
X7921444Y-15896722D02*
X7930967Y-15915769D01*
X7930967Y-15915769D02*
X7930967Y-15963388D01*
X7930967Y-15963388D02*
X7921444Y-15982436D01*
X7921444Y-15982436D02*
X7911920Y-15991960D01*
X7911920Y-15991960D02*
X7892872Y-16001484D01*
X7892872Y-16001484D02*
X7845253Y-16001484D01*
X7845253Y-16001484D02*
X7826206Y-15991960D01*
X7826206Y-15991960D02*
X7816682Y-15982436D01*
X7997634Y-15801484D02*
X8130967Y-15801484D01*
X8130967Y-15801484D02*
X8045253Y-16001484D01*
X8197634Y-15801484D02*
X8197634Y-15839579D01*
X8273825Y-15801484D02*
X8273825Y-15839579D01*
X8569063Y-16077674D02*
X8559539Y-16068150D01*
X8559539Y-16068150D02*
X8540491Y-16039579D01*
X8540491Y-16039579D02*
X8530968Y-16020531D01*
X8530968Y-16020531D02*
X8521444Y-15991960D01*
X8521444Y-15991960D02*
X8511920Y-15944341D01*
X8511920Y-15944341D02*
X8511920Y-15906246D01*
X8511920Y-15906246D02*
X8521444Y-15858627D01*
X8521444Y-15858627D02*
X8530968Y-15830055D01*
X8530968Y-15830055D02*
X8540491Y-15811008D01*
X8540491Y-15811008D02*
X8559539Y-15782436D01*
X8559539Y-15782436D02*
X8569063Y-15772912D01*
X8750015Y-16001484D02*
X8635730Y-16001484D01*
X8692872Y-16001484D02*
X8692872Y-15801484D01*
X8692872Y-15801484D02*
X8673825Y-15830055D01*
X8673825Y-15830055D02*
X8654777Y-15849103D01*
X8654777Y-15849103D02*
X8635730Y-15858627D01*
X8940491Y-16001484D02*
X8826206Y-16001484D01*
X8883349Y-16001484D02*
X8883349Y-15801484D01*
X8883349Y-15801484D02*
X8864301Y-15830055D01*
X8864301Y-15830055D02*
X8845253Y-15849103D01*
X8845253Y-15849103D02*
X8826206Y-15858627D01*
X9016682Y-15820531D02*
X9026206Y-15811008D01*
X9026206Y-15811008D02*
X9045253Y-15801484D01*
X9045253Y-15801484D02*
X9092872Y-15801484D01*
X9092872Y-15801484D02*
X9111920Y-15811008D01*
X9111920Y-15811008D02*
X9121444Y-15820531D01*
X9121444Y-15820531D02*
X9130968Y-15839579D01*
X9130968Y-15839579D02*
X9130968Y-15858627D01*
X9130968Y-15858627D02*
X9121444Y-15887198D01*
X9121444Y-15887198D02*
X9007158Y-16001484D01*
X9007158Y-16001484D02*
X9130968Y-16001484D01*
X9369063Y-16001484D02*
X9369063Y-15801484D01*
X9454777Y-16001484D02*
X9454777Y-15896722D01*
X9454777Y-15896722D02*
X9445253Y-15877674D01*
X9445253Y-15877674D02*
X9426206Y-15868150D01*
X9426206Y-15868150D02*
X9397634Y-15868150D01*
X9397634Y-15868150D02*
X9378587Y-15877674D01*
X9378587Y-15877674D02*
X9369063Y-15887198D01*
X9578587Y-16001484D02*
X9559539Y-15991960D01*
X9559539Y-15991960D02*
X9550015Y-15982436D01*
X9550015Y-15982436D02*
X9540492Y-15963388D01*
X9540492Y-15963388D02*
X9540492Y-15906246D01*
X9540492Y-15906246D02*
X9550015Y-15887198D01*
X9550015Y-15887198D02*
X9559539Y-15877674D01*
X9559539Y-15877674D02*
X9578587Y-15868150D01*
X9578587Y-15868150D02*
X9607158Y-15868150D01*
X9607158Y-15868150D02*
X9626206Y-15877674D01*
X9626206Y-15877674D02*
X9635730Y-15887198D01*
X9635730Y-15887198D02*
X9645253Y-15906246D01*
X9645253Y-15906246D02*
X9645253Y-15963388D01*
X9645253Y-15963388D02*
X9635730Y-15982436D01*
X9635730Y-15982436D02*
X9626206Y-15991960D01*
X9626206Y-15991960D02*
X9607158Y-16001484D01*
X9607158Y-16001484D02*
X9578587Y-16001484D01*
X9759539Y-16001484D02*
X9740492Y-15991960D01*
X9740492Y-15991960D02*
X9730968Y-15972912D01*
X9730968Y-15972912D02*
X9730968Y-15801484D01*
X9911920Y-15991960D02*
X9892873Y-16001484D01*
X9892873Y-16001484D02*
X9854777Y-16001484D01*
X9854777Y-16001484D02*
X9835730Y-15991960D01*
X9835730Y-15991960D02*
X9826206Y-15972912D01*
X9826206Y-15972912D02*
X9826206Y-15896722D01*
X9826206Y-15896722D02*
X9835730Y-15877674D01*
X9835730Y-15877674D02*
X9854777Y-15868150D01*
X9854777Y-15868150D02*
X9892873Y-15868150D01*
X9892873Y-15868150D02*
X9911920Y-15877674D01*
X9911920Y-15877674D02*
X9921444Y-15896722D01*
X9921444Y-15896722D02*
X9921444Y-15915769D01*
X9921444Y-15915769D02*
X9826206Y-15934817D01*
X9997634Y-15991960D02*
X10016682Y-16001484D01*
X10016682Y-16001484D02*
X10054777Y-16001484D01*
X10054777Y-16001484D02*
X10073825Y-15991960D01*
X10073825Y-15991960D02*
X10083349Y-15972912D01*
X10083349Y-15972912D02*
X10083349Y-15963388D01*
X10083349Y-15963388D02*
X10073825Y-15944341D01*
X10073825Y-15944341D02*
X10054777Y-15934817D01*
X10054777Y-15934817D02*
X10026206Y-15934817D01*
X10026206Y-15934817D02*
X10007158Y-15925293D01*
X10007158Y-15925293D02*
X9997634Y-15906246D01*
X9997634Y-15906246D02*
X9997634Y-15896722D01*
X9997634Y-15896722D02*
X10007158Y-15877674D01*
X10007158Y-15877674D02*
X10026206Y-15868150D01*
X10026206Y-15868150D02*
X10054777Y-15868150D01*
X10054777Y-15868150D02*
X10073825Y-15877674D01*
X10150015Y-16077674D02*
X10159539Y-16068150D01*
X10159539Y-16068150D02*
X10178587Y-16039579D01*
X10178587Y-16039579D02*
X10188111Y-16020531D01*
X10188111Y-16020531D02*
X10197634Y-15991960D01*
X10197634Y-15991960D02*
X10207158Y-15944341D01*
X10207158Y-15944341D02*
X10207158Y-15906246D01*
X10207158Y-15906246D02*
X10197634Y-15858627D01*
X10197634Y-15858627D02*
X10188111Y-15830055D01*
X10188111Y-15830055D02*
X10178587Y-15811008D01*
X10178587Y-15811008D02*
X10159539Y-15782436D01*
X10159539Y-15782436D02*
X10150015Y-15772912D01*
D12*
X4947000Y-16127000D02*
X4947000Y-16221000D01*
X4900000Y-16174000D02*
X4994000Y-16174000D01*
D11*
X5292872Y-16065484D02*
X5311920Y-16065484D01*
X5311920Y-16065484D02*
X5330967Y-16075008D01*
X5330967Y-16075008D02*
X5340491Y-16084531D01*
X5340491Y-16084531D02*
X5350015Y-16103579D01*
X5350015Y-16103579D02*
X5359539Y-16141674D01*
X5359539Y-16141674D02*
X5359539Y-16189293D01*
X5359539Y-16189293D02*
X5350015Y-16227388D01*
X5350015Y-16227388D02*
X5340491Y-16246436D01*
X5340491Y-16246436D02*
X5330967Y-16255960D01*
X5330967Y-16255960D02*
X5311920Y-16265484D01*
X5311920Y-16265484D02*
X5292872Y-16265484D01*
X5292872Y-16265484D02*
X5273824Y-16255960D01*
X5273824Y-16255960D02*
X5264301Y-16246436D01*
X5264301Y-16246436D02*
X5254777Y-16227388D01*
X5254777Y-16227388D02*
X5245253Y-16189293D01*
X5245253Y-16189293D02*
X5245253Y-16141674D01*
X5245253Y-16141674D02*
X5254777Y-16103579D01*
X5254777Y-16103579D02*
X5264301Y-16084531D01*
X5264301Y-16084531D02*
X5273824Y-16075008D01*
X5273824Y-16075008D02*
X5292872Y-16065484D01*
X5445253Y-16246436D02*
X5454777Y-16255960D01*
X5454777Y-16255960D02*
X5445253Y-16265484D01*
X5445253Y-16265484D02*
X5435729Y-16255960D01*
X5435729Y-16255960D02*
X5445253Y-16246436D01*
X5445253Y-16246436D02*
X5445253Y-16265484D01*
X5550015Y-16265484D02*
X5588110Y-16265484D01*
X5588110Y-16265484D02*
X5607158Y-16255960D01*
X5607158Y-16255960D02*
X5616682Y-16246436D01*
X5616682Y-16246436D02*
X5635729Y-16217865D01*
X5635729Y-16217865D02*
X5645253Y-16179769D01*
X5645253Y-16179769D02*
X5645253Y-16103579D01*
X5645253Y-16103579D02*
X5635729Y-16084531D01*
X5635729Y-16084531D02*
X5626205Y-16075008D01*
X5626205Y-16075008D02*
X5607158Y-16065484D01*
X5607158Y-16065484D02*
X5569063Y-16065484D01*
X5569063Y-16065484D02*
X5550015Y-16075008D01*
X5550015Y-16075008D02*
X5540491Y-16084531D01*
X5540491Y-16084531D02*
X5530967Y-16103579D01*
X5530967Y-16103579D02*
X5530967Y-16151198D01*
X5530967Y-16151198D02*
X5540491Y-16170246D01*
X5540491Y-16170246D02*
X5550015Y-16179769D01*
X5550015Y-16179769D02*
X5569063Y-16189293D01*
X5569063Y-16189293D02*
X5607158Y-16189293D01*
X5607158Y-16189293D02*
X5626205Y-16179769D01*
X5626205Y-16179769D02*
X5635729Y-16170246D01*
X5635729Y-16170246D02*
X5645253Y-16151198D01*
X5816682Y-16132150D02*
X5816682Y-16265484D01*
X5769062Y-16055960D02*
X5721443Y-16198817D01*
X5721443Y-16198817D02*
X5845253Y-16198817D01*
X5959539Y-16065484D02*
X5978586Y-16065484D01*
X5978586Y-16065484D02*
X5997634Y-16075008D01*
X5997634Y-16075008D02*
X6007158Y-16084531D01*
X6007158Y-16084531D02*
X6016682Y-16103579D01*
X6016682Y-16103579D02*
X6026205Y-16141674D01*
X6026205Y-16141674D02*
X6026205Y-16189293D01*
X6026205Y-16189293D02*
X6016682Y-16227388D01*
X6016682Y-16227388D02*
X6007158Y-16246436D01*
X6007158Y-16246436D02*
X5997634Y-16255960D01*
X5997634Y-16255960D02*
X5978586Y-16265484D01*
X5978586Y-16265484D02*
X5959539Y-16265484D01*
X5959539Y-16265484D02*
X5940491Y-16255960D01*
X5940491Y-16255960D02*
X5930967Y-16246436D01*
X5930967Y-16246436D02*
X5921443Y-16227388D01*
X5921443Y-16227388D02*
X5911920Y-16189293D01*
X5911920Y-16189293D02*
X5911920Y-16141674D01*
X5911920Y-16141674D02*
X5921443Y-16103579D01*
X5921443Y-16103579D02*
X5930967Y-16084531D01*
X5930967Y-16084531D02*
X5940491Y-16075008D01*
X5940491Y-16075008D02*
X5959539Y-16065484D01*
X6111920Y-16265484D02*
X6111920Y-16132150D01*
X6111920Y-16151198D02*
X6121443Y-16141674D01*
X6121443Y-16141674D02*
X6140491Y-16132150D01*
X6140491Y-16132150D02*
X6169063Y-16132150D01*
X6169063Y-16132150D02*
X6188110Y-16141674D01*
X6188110Y-16141674D02*
X6197634Y-16160722D01*
X6197634Y-16160722D02*
X6197634Y-16265484D01*
X6197634Y-16160722D02*
X6207158Y-16141674D01*
X6207158Y-16141674D02*
X6226205Y-16132150D01*
X6226205Y-16132150D02*
X6254777Y-16132150D01*
X6254777Y-16132150D02*
X6273824Y-16141674D01*
X6273824Y-16141674D02*
X6283348Y-16160722D01*
X6283348Y-16160722D02*
X6283348Y-16265484D01*
X6378586Y-16265484D02*
X6378586Y-16132150D01*
X6378586Y-16151198D02*
X6388110Y-16141674D01*
X6388110Y-16141674D02*
X6407158Y-16132150D01*
X6407158Y-16132150D02*
X6435729Y-16132150D01*
X6435729Y-16132150D02*
X6454777Y-16141674D01*
X6454777Y-16141674D02*
X6464301Y-16160722D01*
X6464301Y-16160722D02*
X6464301Y-16265484D01*
X6464301Y-16160722D02*
X6473824Y-16141674D01*
X6473824Y-16141674D02*
X6492872Y-16132150D01*
X6492872Y-16132150D02*
X6521443Y-16132150D01*
X6521443Y-16132150D02*
X6540491Y-16141674D01*
X6540491Y-16141674D02*
X6550015Y-16160722D01*
X6550015Y-16160722D02*
X6550015Y-16265484D01*
X6940491Y-16055960D02*
X6769063Y-16313103D01*
X7197634Y-16065484D02*
X7216682Y-16065484D01*
X7216682Y-16065484D02*
X7235729Y-16075008D01*
X7235729Y-16075008D02*
X7245253Y-16084531D01*
X7245253Y-16084531D02*
X7254777Y-16103579D01*
X7254777Y-16103579D02*
X7264301Y-16141674D01*
X7264301Y-16141674D02*
X7264301Y-16189293D01*
X7264301Y-16189293D02*
X7254777Y-16227388D01*
X7254777Y-16227388D02*
X7245253Y-16246436D01*
X7245253Y-16246436D02*
X7235729Y-16255960D01*
X7235729Y-16255960D02*
X7216682Y-16265484D01*
X7216682Y-16265484D02*
X7197634Y-16265484D01*
X7197634Y-16265484D02*
X7178586Y-16255960D01*
X7178586Y-16255960D02*
X7169063Y-16246436D01*
X7169063Y-16246436D02*
X7159539Y-16227388D01*
X7159539Y-16227388D02*
X7150015Y-16189293D01*
X7150015Y-16189293D02*
X7150015Y-16141674D01*
X7150015Y-16141674D02*
X7159539Y-16103579D01*
X7159539Y-16103579D02*
X7169063Y-16084531D01*
X7169063Y-16084531D02*
X7178586Y-16075008D01*
X7178586Y-16075008D02*
X7197634Y-16065484D01*
X7350015Y-16246436D02*
X7359539Y-16255960D01*
X7359539Y-16255960D02*
X7350015Y-16265484D01*
X7350015Y-16265484D02*
X7340491Y-16255960D01*
X7340491Y-16255960D02*
X7350015Y-16246436D01*
X7350015Y-16246436D02*
X7350015Y-16265484D01*
X7483348Y-16065484D02*
X7502396Y-16065484D01*
X7502396Y-16065484D02*
X7521444Y-16075008D01*
X7521444Y-16075008D02*
X7530967Y-16084531D01*
X7530967Y-16084531D02*
X7540491Y-16103579D01*
X7540491Y-16103579D02*
X7550015Y-16141674D01*
X7550015Y-16141674D02*
X7550015Y-16189293D01*
X7550015Y-16189293D02*
X7540491Y-16227388D01*
X7540491Y-16227388D02*
X7530967Y-16246436D01*
X7530967Y-16246436D02*
X7521444Y-16255960D01*
X7521444Y-16255960D02*
X7502396Y-16265484D01*
X7502396Y-16265484D02*
X7483348Y-16265484D01*
X7483348Y-16265484D02*
X7464301Y-16255960D01*
X7464301Y-16255960D02*
X7454777Y-16246436D01*
X7454777Y-16246436D02*
X7445253Y-16227388D01*
X7445253Y-16227388D02*
X7435729Y-16189293D01*
X7435729Y-16189293D02*
X7435729Y-16141674D01*
X7435729Y-16141674D02*
X7445253Y-16103579D01*
X7445253Y-16103579D02*
X7454777Y-16084531D01*
X7454777Y-16084531D02*
X7464301Y-16075008D01*
X7464301Y-16075008D02*
X7483348Y-16065484D01*
X7616682Y-16065484D02*
X7740491Y-16065484D01*
X7740491Y-16065484D02*
X7673825Y-16141674D01*
X7673825Y-16141674D02*
X7702396Y-16141674D01*
X7702396Y-16141674D02*
X7721444Y-16151198D01*
X7721444Y-16151198D02*
X7730967Y-16160722D01*
X7730967Y-16160722D02*
X7740491Y-16179769D01*
X7740491Y-16179769D02*
X7740491Y-16227388D01*
X7740491Y-16227388D02*
X7730967Y-16246436D01*
X7730967Y-16246436D02*
X7721444Y-16255960D01*
X7721444Y-16255960D02*
X7702396Y-16265484D01*
X7702396Y-16265484D02*
X7645253Y-16265484D01*
X7645253Y-16265484D02*
X7626206Y-16255960D01*
X7626206Y-16255960D02*
X7616682Y-16246436D01*
X7807158Y-16065484D02*
X7940491Y-16065484D01*
X7940491Y-16065484D02*
X7854777Y-16265484D01*
X8054777Y-16065484D02*
X8073825Y-16065484D01*
X8073825Y-16065484D02*
X8092872Y-16075008D01*
X8092872Y-16075008D02*
X8102396Y-16084531D01*
X8102396Y-16084531D02*
X8111920Y-16103579D01*
X8111920Y-16103579D02*
X8121444Y-16141674D01*
X8121444Y-16141674D02*
X8121444Y-16189293D01*
X8121444Y-16189293D02*
X8111920Y-16227388D01*
X8111920Y-16227388D02*
X8102396Y-16246436D01*
X8102396Y-16246436D02*
X8092872Y-16255960D01*
X8092872Y-16255960D02*
X8073825Y-16265484D01*
X8073825Y-16265484D02*
X8054777Y-16265484D01*
X8054777Y-16265484D02*
X8035729Y-16255960D01*
X8035729Y-16255960D02*
X8026206Y-16246436D01*
X8026206Y-16246436D02*
X8016682Y-16227388D01*
X8016682Y-16227388D02*
X8007158Y-16189293D01*
X8007158Y-16189293D02*
X8007158Y-16141674D01*
X8007158Y-16141674D02*
X8016682Y-16103579D01*
X8016682Y-16103579D02*
X8026206Y-16084531D01*
X8026206Y-16084531D02*
X8035729Y-16075008D01*
X8035729Y-16075008D02*
X8054777Y-16065484D01*
X8197634Y-16065484D02*
X8197634Y-16103579D01*
X8273825Y-16065484D02*
X8273825Y-16103579D01*
X8569063Y-16341674D02*
X8559539Y-16332150D01*
X8559539Y-16332150D02*
X8540491Y-16303579D01*
X8540491Y-16303579D02*
X8530968Y-16284531D01*
X8530968Y-16284531D02*
X8521444Y-16255960D01*
X8521444Y-16255960D02*
X8511920Y-16208341D01*
X8511920Y-16208341D02*
X8511920Y-16170246D01*
X8511920Y-16170246D02*
X8521444Y-16122627D01*
X8521444Y-16122627D02*
X8530968Y-16094055D01*
X8530968Y-16094055D02*
X8540491Y-16075008D01*
X8540491Y-16075008D02*
X8559539Y-16046436D01*
X8559539Y-16046436D02*
X8569063Y-16036912D01*
X8750015Y-16265484D02*
X8635730Y-16265484D01*
X8692872Y-16265484D02*
X8692872Y-16065484D01*
X8692872Y-16065484D02*
X8673825Y-16094055D01*
X8673825Y-16094055D02*
X8654777Y-16113103D01*
X8654777Y-16113103D02*
X8635730Y-16122627D01*
X8921444Y-16065484D02*
X8883349Y-16065484D01*
X8883349Y-16065484D02*
X8864301Y-16075008D01*
X8864301Y-16075008D02*
X8854777Y-16084531D01*
X8854777Y-16084531D02*
X8835730Y-16113103D01*
X8835730Y-16113103D02*
X8826206Y-16151198D01*
X8826206Y-16151198D02*
X8826206Y-16227388D01*
X8826206Y-16227388D02*
X8835730Y-16246436D01*
X8835730Y-16246436D02*
X8845253Y-16255960D01*
X8845253Y-16255960D02*
X8864301Y-16265484D01*
X8864301Y-16265484D02*
X8902396Y-16265484D01*
X8902396Y-16265484D02*
X8921444Y-16255960D01*
X8921444Y-16255960D02*
X8930968Y-16246436D01*
X8930968Y-16246436D02*
X8940491Y-16227388D01*
X8940491Y-16227388D02*
X8940491Y-16179769D01*
X8940491Y-16179769D02*
X8930968Y-16160722D01*
X8930968Y-16160722D02*
X8921444Y-16151198D01*
X8921444Y-16151198D02*
X8902396Y-16141674D01*
X8902396Y-16141674D02*
X8864301Y-16141674D01*
X8864301Y-16141674D02*
X8845253Y-16151198D01*
X8845253Y-16151198D02*
X8835730Y-16160722D01*
X8835730Y-16160722D02*
X8826206Y-16179769D01*
X9178587Y-16265484D02*
X9178587Y-16065484D01*
X9264301Y-16265484D02*
X9264301Y-16160722D01*
X9264301Y-16160722D02*
X9254777Y-16141674D01*
X9254777Y-16141674D02*
X9235730Y-16132150D01*
X9235730Y-16132150D02*
X9207158Y-16132150D01*
X9207158Y-16132150D02*
X9188111Y-16141674D01*
X9188111Y-16141674D02*
X9178587Y-16151198D01*
X9388111Y-16265484D02*
X9369063Y-16255960D01*
X9369063Y-16255960D02*
X9359539Y-16246436D01*
X9359539Y-16246436D02*
X9350015Y-16227388D01*
X9350015Y-16227388D02*
X9350015Y-16170246D01*
X9350015Y-16170246D02*
X9359539Y-16151198D01*
X9359539Y-16151198D02*
X9369063Y-16141674D01*
X9369063Y-16141674D02*
X9388111Y-16132150D01*
X9388111Y-16132150D02*
X9416682Y-16132150D01*
X9416682Y-16132150D02*
X9435730Y-16141674D01*
X9435730Y-16141674D02*
X9445253Y-16151198D01*
X9445253Y-16151198D02*
X9454777Y-16170246D01*
X9454777Y-16170246D02*
X9454777Y-16227388D01*
X9454777Y-16227388D02*
X9445253Y-16246436D01*
X9445253Y-16246436D02*
X9435730Y-16255960D01*
X9435730Y-16255960D02*
X9416682Y-16265484D01*
X9416682Y-16265484D02*
X9388111Y-16265484D01*
X9569063Y-16265484D02*
X9550015Y-16255960D01*
X9550015Y-16255960D02*
X9540492Y-16236912D01*
X9540492Y-16236912D02*
X9540492Y-16065484D01*
X9721444Y-16255960D02*
X9702396Y-16265484D01*
X9702396Y-16265484D02*
X9664301Y-16265484D01*
X9664301Y-16265484D02*
X9645253Y-16255960D01*
X9645253Y-16255960D02*
X9635730Y-16236912D01*
X9635730Y-16236912D02*
X9635730Y-16160722D01*
X9635730Y-16160722D02*
X9645253Y-16141674D01*
X9645253Y-16141674D02*
X9664301Y-16132150D01*
X9664301Y-16132150D02*
X9702396Y-16132150D01*
X9702396Y-16132150D02*
X9721444Y-16141674D01*
X9721444Y-16141674D02*
X9730968Y-16160722D01*
X9730968Y-16160722D02*
X9730968Y-16179769D01*
X9730968Y-16179769D02*
X9635730Y-16198817D01*
X9807158Y-16255960D02*
X9826206Y-16265484D01*
X9826206Y-16265484D02*
X9864301Y-16265484D01*
X9864301Y-16265484D02*
X9883349Y-16255960D01*
X9883349Y-16255960D02*
X9892873Y-16236912D01*
X9892873Y-16236912D02*
X9892873Y-16227388D01*
X9892873Y-16227388D02*
X9883349Y-16208341D01*
X9883349Y-16208341D02*
X9864301Y-16198817D01*
X9864301Y-16198817D02*
X9835730Y-16198817D01*
X9835730Y-16198817D02*
X9816682Y-16189293D01*
X9816682Y-16189293D02*
X9807158Y-16170246D01*
X9807158Y-16170246D02*
X9807158Y-16160722D01*
X9807158Y-16160722D02*
X9816682Y-16141674D01*
X9816682Y-16141674D02*
X9835730Y-16132150D01*
X9835730Y-16132150D02*
X9864301Y-16132150D01*
X9864301Y-16132150D02*
X9883349Y-16141674D01*
X9959539Y-16341674D02*
X9969063Y-16332150D01*
X9969063Y-16332150D02*
X9988111Y-16303579D01*
X9988111Y-16303579D02*
X9997634Y-16284531D01*
X9997634Y-16284531D02*
X10007158Y-16255960D01*
X10007158Y-16255960D02*
X10016682Y-16208341D01*
X10016682Y-16208341D02*
X10016682Y-16170246D01*
X10016682Y-16170246D02*
X10007158Y-16122627D01*
X10007158Y-16122627D02*
X9997634Y-16094055D01*
X9997634Y-16094055D02*
X9988111Y-16075008D01*
X9988111Y-16075008D02*
X9969063Y-16046436D01*
X9969063Y-16046436D02*
X9959539Y-16036912D01*
D12*
X4979865Y-16472125D02*
X4979865Y-16403875D01*
X4911615Y-16403875D01*
X4911615Y-16472125D01*
X4979865Y-16472125D01*
D11*
X5292872Y-16329484D02*
X5311920Y-16329484D01*
X5311920Y-16329484D02*
X5330967Y-16339008D01*
X5330967Y-16339008D02*
X5340491Y-16348531D01*
X5340491Y-16348531D02*
X5350015Y-16367579D01*
X5350015Y-16367579D02*
X5359539Y-16405674D01*
X5359539Y-16405674D02*
X5359539Y-16453293D01*
X5359539Y-16453293D02*
X5350015Y-16491388D01*
X5350015Y-16491388D02*
X5340491Y-16510436D01*
X5340491Y-16510436D02*
X5330967Y-16519960D01*
X5330967Y-16519960D02*
X5311920Y-16529484D01*
X5311920Y-16529484D02*
X5292872Y-16529484D01*
X5292872Y-16529484D02*
X5273824Y-16519960D01*
X5273824Y-16519960D02*
X5264301Y-16510436D01*
X5264301Y-16510436D02*
X5254777Y-16491388D01*
X5254777Y-16491388D02*
X5245253Y-16453293D01*
X5245253Y-16453293D02*
X5245253Y-16405674D01*
X5245253Y-16405674D02*
X5254777Y-16367579D01*
X5254777Y-16367579D02*
X5264301Y-16348531D01*
X5264301Y-16348531D02*
X5273824Y-16339008D01*
X5273824Y-16339008D02*
X5292872Y-16329484D01*
X5445253Y-16510436D02*
X5454777Y-16519960D01*
X5454777Y-16519960D02*
X5445253Y-16529484D01*
X5445253Y-16529484D02*
X5435729Y-16519960D01*
X5435729Y-16519960D02*
X5445253Y-16510436D01*
X5445253Y-16510436D02*
X5445253Y-16529484D01*
X5550015Y-16529484D02*
X5588110Y-16529484D01*
X5588110Y-16529484D02*
X5607158Y-16519960D01*
X5607158Y-16519960D02*
X5616682Y-16510436D01*
X5616682Y-16510436D02*
X5635729Y-16481865D01*
X5635729Y-16481865D02*
X5645253Y-16443769D01*
X5645253Y-16443769D02*
X5645253Y-16367579D01*
X5645253Y-16367579D02*
X5635729Y-16348531D01*
X5635729Y-16348531D02*
X5626205Y-16339008D01*
X5626205Y-16339008D02*
X5607158Y-16329484D01*
X5607158Y-16329484D02*
X5569063Y-16329484D01*
X5569063Y-16329484D02*
X5550015Y-16339008D01*
X5550015Y-16339008D02*
X5540491Y-16348531D01*
X5540491Y-16348531D02*
X5530967Y-16367579D01*
X5530967Y-16367579D02*
X5530967Y-16415198D01*
X5530967Y-16415198D02*
X5540491Y-16434246D01*
X5540491Y-16434246D02*
X5550015Y-16443769D01*
X5550015Y-16443769D02*
X5569063Y-16453293D01*
X5569063Y-16453293D02*
X5607158Y-16453293D01*
X5607158Y-16453293D02*
X5626205Y-16443769D01*
X5626205Y-16443769D02*
X5635729Y-16434246D01*
X5635729Y-16434246D02*
X5645253Y-16415198D01*
X5816682Y-16329484D02*
X5778586Y-16329484D01*
X5778586Y-16329484D02*
X5759539Y-16339008D01*
X5759539Y-16339008D02*
X5750015Y-16348531D01*
X5750015Y-16348531D02*
X5730967Y-16377103D01*
X5730967Y-16377103D02*
X5721443Y-16415198D01*
X5721443Y-16415198D02*
X5721443Y-16491388D01*
X5721443Y-16491388D02*
X5730967Y-16510436D01*
X5730967Y-16510436D02*
X5740491Y-16519960D01*
X5740491Y-16519960D02*
X5759539Y-16529484D01*
X5759539Y-16529484D02*
X5797634Y-16529484D01*
X5797634Y-16529484D02*
X5816682Y-16519960D01*
X5816682Y-16519960D02*
X5826205Y-16510436D01*
X5826205Y-16510436D02*
X5835729Y-16491388D01*
X5835729Y-16491388D02*
X5835729Y-16443769D01*
X5835729Y-16443769D02*
X5826205Y-16424722D01*
X5826205Y-16424722D02*
X5816682Y-16415198D01*
X5816682Y-16415198D02*
X5797634Y-16405674D01*
X5797634Y-16405674D02*
X5759539Y-16405674D01*
X5759539Y-16405674D02*
X5740491Y-16415198D01*
X5740491Y-16415198D02*
X5730967Y-16424722D01*
X5730967Y-16424722D02*
X5721443Y-16443769D01*
X6016682Y-16329484D02*
X5921443Y-16329484D01*
X5921443Y-16329484D02*
X5911920Y-16424722D01*
X5911920Y-16424722D02*
X5921443Y-16415198D01*
X5921443Y-16415198D02*
X5940491Y-16405674D01*
X5940491Y-16405674D02*
X5988110Y-16405674D01*
X5988110Y-16405674D02*
X6007158Y-16415198D01*
X6007158Y-16415198D02*
X6016682Y-16424722D01*
X6016682Y-16424722D02*
X6026205Y-16443769D01*
X6026205Y-16443769D02*
X6026205Y-16491388D01*
X6026205Y-16491388D02*
X6016682Y-16510436D01*
X6016682Y-16510436D02*
X6007158Y-16519960D01*
X6007158Y-16519960D02*
X5988110Y-16529484D01*
X5988110Y-16529484D02*
X5940491Y-16529484D01*
X5940491Y-16529484D02*
X5921443Y-16519960D01*
X5921443Y-16519960D02*
X5911920Y-16510436D01*
X6111920Y-16529484D02*
X6111920Y-16396150D01*
X6111920Y-16415198D02*
X6121443Y-16405674D01*
X6121443Y-16405674D02*
X6140491Y-16396150D01*
X6140491Y-16396150D02*
X6169063Y-16396150D01*
X6169063Y-16396150D02*
X6188110Y-16405674D01*
X6188110Y-16405674D02*
X6197634Y-16424722D01*
X6197634Y-16424722D02*
X6197634Y-16529484D01*
X6197634Y-16424722D02*
X6207158Y-16405674D01*
X6207158Y-16405674D02*
X6226205Y-16396150D01*
X6226205Y-16396150D02*
X6254777Y-16396150D01*
X6254777Y-16396150D02*
X6273824Y-16405674D01*
X6273824Y-16405674D02*
X6283348Y-16424722D01*
X6283348Y-16424722D02*
X6283348Y-16529484D01*
X6378586Y-16529484D02*
X6378586Y-16396150D01*
X6378586Y-16415198D02*
X6388110Y-16405674D01*
X6388110Y-16405674D02*
X6407158Y-16396150D01*
X6407158Y-16396150D02*
X6435729Y-16396150D01*
X6435729Y-16396150D02*
X6454777Y-16405674D01*
X6454777Y-16405674D02*
X6464301Y-16424722D01*
X6464301Y-16424722D02*
X6464301Y-16529484D01*
X6464301Y-16424722D02*
X6473824Y-16405674D01*
X6473824Y-16405674D02*
X6492872Y-16396150D01*
X6492872Y-16396150D02*
X6521443Y-16396150D01*
X6521443Y-16396150D02*
X6540491Y-16405674D01*
X6540491Y-16405674D02*
X6550015Y-16424722D01*
X6550015Y-16424722D02*
X6550015Y-16529484D01*
X6940491Y-16319960D02*
X6769063Y-16577103D01*
X7197634Y-16329484D02*
X7216682Y-16329484D01*
X7216682Y-16329484D02*
X7235729Y-16339008D01*
X7235729Y-16339008D02*
X7245253Y-16348531D01*
X7245253Y-16348531D02*
X7254777Y-16367579D01*
X7254777Y-16367579D02*
X7264301Y-16405674D01*
X7264301Y-16405674D02*
X7264301Y-16453293D01*
X7264301Y-16453293D02*
X7254777Y-16491388D01*
X7254777Y-16491388D02*
X7245253Y-16510436D01*
X7245253Y-16510436D02*
X7235729Y-16519960D01*
X7235729Y-16519960D02*
X7216682Y-16529484D01*
X7216682Y-16529484D02*
X7197634Y-16529484D01*
X7197634Y-16529484D02*
X7178586Y-16519960D01*
X7178586Y-16519960D02*
X7169063Y-16510436D01*
X7169063Y-16510436D02*
X7159539Y-16491388D01*
X7159539Y-16491388D02*
X7150015Y-16453293D01*
X7150015Y-16453293D02*
X7150015Y-16405674D01*
X7150015Y-16405674D02*
X7159539Y-16367579D01*
X7159539Y-16367579D02*
X7169063Y-16348531D01*
X7169063Y-16348531D02*
X7178586Y-16339008D01*
X7178586Y-16339008D02*
X7197634Y-16329484D01*
X7350015Y-16510436D02*
X7359539Y-16519960D01*
X7359539Y-16519960D02*
X7350015Y-16529484D01*
X7350015Y-16529484D02*
X7340491Y-16519960D01*
X7340491Y-16519960D02*
X7350015Y-16510436D01*
X7350015Y-16510436D02*
X7350015Y-16529484D01*
X7483348Y-16329484D02*
X7502396Y-16329484D01*
X7502396Y-16329484D02*
X7521444Y-16339008D01*
X7521444Y-16339008D02*
X7530967Y-16348531D01*
X7530967Y-16348531D02*
X7540491Y-16367579D01*
X7540491Y-16367579D02*
X7550015Y-16405674D01*
X7550015Y-16405674D02*
X7550015Y-16453293D01*
X7550015Y-16453293D02*
X7540491Y-16491388D01*
X7540491Y-16491388D02*
X7530967Y-16510436D01*
X7530967Y-16510436D02*
X7521444Y-16519960D01*
X7521444Y-16519960D02*
X7502396Y-16529484D01*
X7502396Y-16529484D02*
X7483348Y-16529484D01*
X7483348Y-16529484D02*
X7464301Y-16519960D01*
X7464301Y-16519960D02*
X7454777Y-16510436D01*
X7454777Y-16510436D02*
X7445253Y-16491388D01*
X7445253Y-16491388D02*
X7435729Y-16453293D01*
X7435729Y-16453293D02*
X7435729Y-16405674D01*
X7435729Y-16405674D02*
X7445253Y-16367579D01*
X7445253Y-16367579D02*
X7454777Y-16348531D01*
X7454777Y-16348531D02*
X7464301Y-16339008D01*
X7464301Y-16339008D02*
X7483348Y-16329484D01*
X7616682Y-16329484D02*
X7740491Y-16329484D01*
X7740491Y-16329484D02*
X7673825Y-16405674D01*
X7673825Y-16405674D02*
X7702396Y-16405674D01*
X7702396Y-16405674D02*
X7721444Y-16415198D01*
X7721444Y-16415198D02*
X7730967Y-16424722D01*
X7730967Y-16424722D02*
X7740491Y-16443769D01*
X7740491Y-16443769D02*
X7740491Y-16491388D01*
X7740491Y-16491388D02*
X7730967Y-16510436D01*
X7730967Y-16510436D02*
X7721444Y-16519960D01*
X7721444Y-16519960D02*
X7702396Y-16529484D01*
X7702396Y-16529484D02*
X7645253Y-16529484D01*
X7645253Y-16529484D02*
X7626206Y-16519960D01*
X7626206Y-16519960D02*
X7616682Y-16510436D01*
X7854777Y-16415198D02*
X7835729Y-16405674D01*
X7835729Y-16405674D02*
X7826206Y-16396150D01*
X7826206Y-16396150D02*
X7816682Y-16377103D01*
X7816682Y-16377103D02*
X7816682Y-16367579D01*
X7816682Y-16367579D02*
X7826206Y-16348531D01*
X7826206Y-16348531D02*
X7835729Y-16339008D01*
X7835729Y-16339008D02*
X7854777Y-16329484D01*
X7854777Y-16329484D02*
X7892872Y-16329484D01*
X7892872Y-16329484D02*
X7911920Y-16339008D01*
X7911920Y-16339008D02*
X7921444Y-16348531D01*
X7921444Y-16348531D02*
X7930967Y-16367579D01*
X7930967Y-16367579D02*
X7930967Y-16377103D01*
X7930967Y-16377103D02*
X7921444Y-16396150D01*
X7921444Y-16396150D02*
X7911920Y-16405674D01*
X7911920Y-16405674D02*
X7892872Y-16415198D01*
X7892872Y-16415198D02*
X7854777Y-16415198D01*
X7854777Y-16415198D02*
X7835729Y-16424722D01*
X7835729Y-16424722D02*
X7826206Y-16434246D01*
X7826206Y-16434246D02*
X7816682Y-16453293D01*
X7816682Y-16453293D02*
X7816682Y-16491388D01*
X7816682Y-16491388D02*
X7826206Y-16510436D01*
X7826206Y-16510436D02*
X7835729Y-16519960D01*
X7835729Y-16519960D02*
X7854777Y-16529484D01*
X7854777Y-16529484D02*
X7892872Y-16529484D01*
X7892872Y-16529484D02*
X7911920Y-16519960D01*
X7911920Y-16519960D02*
X7921444Y-16510436D01*
X7921444Y-16510436D02*
X7930967Y-16491388D01*
X7930967Y-16491388D02*
X7930967Y-16453293D01*
X7930967Y-16453293D02*
X7921444Y-16434246D01*
X7921444Y-16434246D02*
X7911920Y-16424722D01*
X7911920Y-16424722D02*
X7892872Y-16415198D01*
X8054777Y-16329484D02*
X8073825Y-16329484D01*
X8073825Y-16329484D02*
X8092872Y-16339008D01*
X8092872Y-16339008D02*
X8102396Y-16348531D01*
X8102396Y-16348531D02*
X8111920Y-16367579D01*
X8111920Y-16367579D02*
X8121444Y-16405674D01*
X8121444Y-16405674D02*
X8121444Y-16453293D01*
X8121444Y-16453293D02*
X8111920Y-16491388D01*
X8111920Y-16491388D02*
X8102396Y-16510436D01*
X8102396Y-16510436D02*
X8092872Y-16519960D01*
X8092872Y-16519960D02*
X8073825Y-16529484D01*
X8073825Y-16529484D02*
X8054777Y-16529484D01*
X8054777Y-16529484D02*
X8035729Y-16519960D01*
X8035729Y-16519960D02*
X8026206Y-16510436D01*
X8026206Y-16510436D02*
X8016682Y-16491388D01*
X8016682Y-16491388D02*
X8007158Y-16453293D01*
X8007158Y-16453293D02*
X8007158Y-16405674D01*
X8007158Y-16405674D02*
X8016682Y-16367579D01*
X8016682Y-16367579D02*
X8026206Y-16348531D01*
X8026206Y-16348531D02*
X8035729Y-16339008D01*
X8035729Y-16339008D02*
X8054777Y-16329484D01*
X8197634Y-16329484D02*
X8197634Y-16367579D01*
X8273825Y-16329484D02*
X8273825Y-16367579D01*
X8569063Y-16605674D02*
X8559539Y-16596150D01*
X8559539Y-16596150D02*
X8540491Y-16567579D01*
X8540491Y-16567579D02*
X8530968Y-16548531D01*
X8530968Y-16548531D02*
X8521444Y-16519960D01*
X8521444Y-16519960D02*
X8511920Y-16472341D01*
X8511920Y-16472341D02*
X8511920Y-16434246D01*
X8511920Y-16434246D02*
X8521444Y-16386627D01*
X8521444Y-16386627D02*
X8530968Y-16358055D01*
X8530968Y-16358055D02*
X8540491Y-16339008D01*
X8540491Y-16339008D02*
X8559539Y-16310436D01*
X8559539Y-16310436D02*
X8569063Y-16300912D01*
X8635730Y-16348531D02*
X8645253Y-16339008D01*
X8645253Y-16339008D02*
X8664301Y-16329484D01*
X8664301Y-16329484D02*
X8711920Y-16329484D01*
X8711920Y-16329484D02*
X8730968Y-16339008D01*
X8730968Y-16339008D02*
X8740491Y-16348531D01*
X8740491Y-16348531D02*
X8750015Y-16367579D01*
X8750015Y-16367579D02*
X8750015Y-16386627D01*
X8750015Y-16386627D02*
X8740491Y-16415198D01*
X8740491Y-16415198D02*
X8626206Y-16529484D01*
X8626206Y-16529484D02*
X8750015Y-16529484D01*
X8873825Y-16329484D02*
X8892872Y-16329484D01*
X8892872Y-16329484D02*
X8911920Y-16339008D01*
X8911920Y-16339008D02*
X8921444Y-16348531D01*
X8921444Y-16348531D02*
X8930968Y-16367579D01*
X8930968Y-16367579D02*
X8940491Y-16405674D01*
X8940491Y-16405674D02*
X8940491Y-16453293D01*
X8940491Y-16453293D02*
X8930968Y-16491388D01*
X8930968Y-16491388D02*
X8921444Y-16510436D01*
X8921444Y-16510436D02*
X8911920Y-16519960D01*
X8911920Y-16519960D02*
X8892872Y-16529484D01*
X8892872Y-16529484D02*
X8873825Y-16529484D01*
X8873825Y-16529484D02*
X8854777Y-16519960D01*
X8854777Y-16519960D02*
X8845253Y-16510436D01*
X8845253Y-16510436D02*
X8835730Y-16491388D01*
X8835730Y-16491388D02*
X8826206Y-16453293D01*
X8826206Y-16453293D02*
X8826206Y-16405674D01*
X8826206Y-16405674D02*
X8835730Y-16367579D01*
X8835730Y-16367579D02*
X8845253Y-16348531D01*
X8845253Y-16348531D02*
X8854777Y-16339008D01*
X8854777Y-16339008D02*
X8873825Y-16329484D01*
X9178587Y-16529484D02*
X9178587Y-16329484D01*
X9264301Y-16529484D02*
X9264301Y-16424722D01*
X9264301Y-16424722D02*
X9254777Y-16405674D01*
X9254777Y-16405674D02*
X9235730Y-16396150D01*
X9235730Y-16396150D02*
X9207158Y-16396150D01*
X9207158Y-16396150D02*
X9188111Y-16405674D01*
X9188111Y-16405674D02*
X9178587Y-16415198D01*
X9388111Y-16529484D02*
X9369063Y-16519960D01*
X9369063Y-16519960D02*
X9359539Y-16510436D01*
X9359539Y-16510436D02*
X9350015Y-16491388D01*
X9350015Y-16491388D02*
X9350015Y-16434246D01*
X9350015Y-16434246D02*
X9359539Y-16415198D01*
X9359539Y-16415198D02*
X9369063Y-16405674D01*
X9369063Y-16405674D02*
X9388111Y-16396150D01*
X9388111Y-16396150D02*
X9416682Y-16396150D01*
X9416682Y-16396150D02*
X9435730Y-16405674D01*
X9435730Y-16405674D02*
X9445253Y-16415198D01*
X9445253Y-16415198D02*
X9454777Y-16434246D01*
X9454777Y-16434246D02*
X9454777Y-16491388D01*
X9454777Y-16491388D02*
X9445253Y-16510436D01*
X9445253Y-16510436D02*
X9435730Y-16519960D01*
X9435730Y-16519960D02*
X9416682Y-16529484D01*
X9416682Y-16529484D02*
X9388111Y-16529484D01*
X9569063Y-16529484D02*
X9550015Y-16519960D01*
X9550015Y-16519960D02*
X9540492Y-16500912D01*
X9540492Y-16500912D02*
X9540492Y-16329484D01*
X9721444Y-16519960D02*
X9702396Y-16529484D01*
X9702396Y-16529484D02*
X9664301Y-16529484D01*
X9664301Y-16529484D02*
X9645253Y-16519960D01*
X9645253Y-16519960D02*
X9635730Y-16500912D01*
X9635730Y-16500912D02*
X9635730Y-16424722D01*
X9635730Y-16424722D02*
X9645253Y-16405674D01*
X9645253Y-16405674D02*
X9664301Y-16396150D01*
X9664301Y-16396150D02*
X9702396Y-16396150D01*
X9702396Y-16396150D02*
X9721444Y-16405674D01*
X9721444Y-16405674D02*
X9730968Y-16424722D01*
X9730968Y-16424722D02*
X9730968Y-16443769D01*
X9730968Y-16443769D02*
X9635730Y-16462817D01*
X9807158Y-16519960D02*
X9826206Y-16529484D01*
X9826206Y-16529484D02*
X9864301Y-16529484D01*
X9864301Y-16529484D02*
X9883349Y-16519960D01*
X9883349Y-16519960D02*
X9892873Y-16500912D01*
X9892873Y-16500912D02*
X9892873Y-16491388D01*
X9892873Y-16491388D02*
X9883349Y-16472341D01*
X9883349Y-16472341D02*
X9864301Y-16462817D01*
X9864301Y-16462817D02*
X9835730Y-16462817D01*
X9835730Y-16462817D02*
X9816682Y-16453293D01*
X9816682Y-16453293D02*
X9807158Y-16434246D01*
X9807158Y-16434246D02*
X9807158Y-16424722D01*
X9807158Y-16424722D02*
X9816682Y-16405674D01*
X9816682Y-16405674D02*
X9835730Y-16396150D01*
X9835730Y-16396150D02*
X9864301Y-16396150D01*
X9864301Y-16396150D02*
X9883349Y-16405674D01*
X9959539Y-16605674D02*
X9969063Y-16596150D01*
X9969063Y-16596150D02*
X9988111Y-16567579D01*
X9988111Y-16567579D02*
X9997634Y-16548531D01*
X9997634Y-16548531D02*
X10007158Y-16519960D01*
X10007158Y-16519960D02*
X10016682Y-16472341D01*
X10016682Y-16472341D02*
X10016682Y-16434246D01*
X10016682Y-16434246D02*
X10007158Y-16386627D01*
X10007158Y-16386627D02*
X9997634Y-16358055D01*
X9997634Y-16358055D02*
X9988111Y-16339008D01*
X9988111Y-16339008D02*
X9969063Y-16310436D01*
X9969063Y-16310436D02*
X9959539Y-16300912D01*
D12*
X4944000Y-16752000D02*
X4994000Y-16702000D01*
X4944000Y-16652000D01*
X4894000Y-16702000D01*
X4944000Y-16752000D01*
D11*
X5359539Y-16793484D02*
X5245253Y-16793484D01*
X5302396Y-16793484D02*
X5302396Y-16593484D01*
X5302396Y-16593484D02*
X5283348Y-16622055D01*
X5283348Y-16622055D02*
X5264301Y-16641103D01*
X5264301Y-16641103D02*
X5245253Y-16650627D01*
X5445253Y-16774436D02*
X5454777Y-16783960D01*
X5454777Y-16783960D02*
X5445253Y-16793484D01*
X5445253Y-16793484D02*
X5435729Y-16783960D01*
X5435729Y-16783960D02*
X5445253Y-16774436D01*
X5445253Y-16774436D02*
X5445253Y-16793484D01*
X5578586Y-16593484D02*
X5597634Y-16593484D01*
X5597634Y-16593484D02*
X5616682Y-16603008D01*
X5616682Y-16603008D02*
X5626205Y-16612531D01*
X5626205Y-16612531D02*
X5635729Y-16631579D01*
X5635729Y-16631579D02*
X5645253Y-16669674D01*
X5645253Y-16669674D02*
X5645253Y-16717293D01*
X5645253Y-16717293D02*
X5635729Y-16755388D01*
X5635729Y-16755388D02*
X5626205Y-16774436D01*
X5626205Y-16774436D02*
X5616682Y-16783960D01*
X5616682Y-16783960D02*
X5597634Y-16793484D01*
X5597634Y-16793484D02*
X5578586Y-16793484D01*
X5578586Y-16793484D02*
X5559539Y-16783960D01*
X5559539Y-16783960D02*
X5550015Y-16774436D01*
X5550015Y-16774436D02*
X5540491Y-16755388D01*
X5540491Y-16755388D02*
X5530967Y-16717293D01*
X5530967Y-16717293D02*
X5530967Y-16669674D01*
X5530967Y-16669674D02*
X5540491Y-16631579D01*
X5540491Y-16631579D02*
X5550015Y-16612531D01*
X5550015Y-16612531D02*
X5559539Y-16603008D01*
X5559539Y-16603008D02*
X5578586Y-16593484D01*
X5769062Y-16593484D02*
X5788110Y-16593484D01*
X5788110Y-16593484D02*
X5807158Y-16603008D01*
X5807158Y-16603008D02*
X5816682Y-16612531D01*
X5816682Y-16612531D02*
X5826205Y-16631579D01*
X5826205Y-16631579D02*
X5835729Y-16669674D01*
X5835729Y-16669674D02*
X5835729Y-16717293D01*
X5835729Y-16717293D02*
X5826205Y-16755388D01*
X5826205Y-16755388D02*
X5816682Y-16774436D01*
X5816682Y-16774436D02*
X5807158Y-16783960D01*
X5807158Y-16783960D02*
X5788110Y-16793484D01*
X5788110Y-16793484D02*
X5769062Y-16793484D01*
X5769062Y-16793484D02*
X5750015Y-16783960D01*
X5750015Y-16783960D02*
X5740491Y-16774436D01*
X5740491Y-16774436D02*
X5730967Y-16755388D01*
X5730967Y-16755388D02*
X5721443Y-16717293D01*
X5721443Y-16717293D02*
X5721443Y-16669674D01*
X5721443Y-16669674D02*
X5730967Y-16631579D01*
X5730967Y-16631579D02*
X5740491Y-16612531D01*
X5740491Y-16612531D02*
X5750015Y-16603008D01*
X5750015Y-16603008D02*
X5769062Y-16593484D01*
X5959539Y-16593484D02*
X5978586Y-16593484D01*
X5978586Y-16593484D02*
X5997634Y-16603008D01*
X5997634Y-16603008D02*
X6007158Y-16612531D01*
X6007158Y-16612531D02*
X6016682Y-16631579D01*
X6016682Y-16631579D02*
X6026205Y-16669674D01*
X6026205Y-16669674D02*
X6026205Y-16717293D01*
X6026205Y-16717293D02*
X6016682Y-16755388D01*
X6016682Y-16755388D02*
X6007158Y-16774436D01*
X6007158Y-16774436D02*
X5997634Y-16783960D01*
X5997634Y-16783960D02*
X5978586Y-16793484D01*
X5978586Y-16793484D02*
X5959539Y-16793484D01*
X5959539Y-16793484D02*
X5940491Y-16783960D01*
X5940491Y-16783960D02*
X5930967Y-16774436D01*
X5930967Y-16774436D02*
X5921443Y-16755388D01*
X5921443Y-16755388D02*
X5911920Y-16717293D01*
X5911920Y-16717293D02*
X5911920Y-16669674D01*
X5911920Y-16669674D02*
X5921443Y-16631579D01*
X5921443Y-16631579D02*
X5930967Y-16612531D01*
X5930967Y-16612531D02*
X5940491Y-16603008D01*
X5940491Y-16603008D02*
X5959539Y-16593484D01*
X6111920Y-16793484D02*
X6111920Y-16660150D01*
X6111920Y-16679198D02*
X6121443Y-16669674D01*
X6121443Y-16669674D02*
X6140491Y-16660150D01*
X6140491Y-16660150D02*
X6169063Y-16660150D01*
X6169063Y-16660150D02*
X6188110Y-16669674D01*
X6188110Y-16669674D02*
X6197634Y-16688722D01*
X6197634Y-16688722D02*
X6197634Y-16793484D01*
X6197634Y-16688722D02*
X6207158Y-16669674D01*
X6207158Y-16669674D02*
X6226205Y-16660150D01*
X6226205Y-16660150D02*
X6254777Y-16660150D01*
X6254777Y-16660150D02*
X6273824Y-16669674D01*
X6273824Y-16669674D02*
X6283348Y-16688722D01*
X6283348Y-16688722D02*
X6283348Y-16793484D01*
X6378586Y-16793484D02*
X6378586Y-16660150D01*
X6378586Y-16679198D02*
X6388110Y-16669674D01*
X6388110Y-16669674D02*
X6407158Y-16660150D01*
X6407158Y-16660150D02*
X6435729Y-16660150D01*
X6435729Y-16660150D02*
X6454777Y-16669674D01*
X6454777Y-16669674D02*
X6464301Y-16688722D01*
X6464301Y-16688722D02*
X6464301Y-16793484D01*
X6464301Y-16688722D02*
X6473824Y-16669674D01*
X6473824Y-16669674D02*
X6492872Y-16660150D01*
X6492872Y-16660150D02*
X6521443Y-16660150D01*
X6521443Y-16660150D02*
X6540491Y-16669674D01*
X6540491Y-16669674D02*
X6550015Y-16688722D01*
X6550015Y-16688722D02*
X6550015Y-16793484D01*
X6940491Y-16583960D02*
X6769063Y-16841103D01*
X7197634Y-16593484D02*
X7216682Y-16593484D01*
X7216682Y-16593484D02*
X7235729Y-16603008D01*
X7235729Y-16603008D02*
X7245253Y-16612531D01*
X7245253Y-16612531D02*
X7254777Y-16631579D01*
X7254777Y-16631579D02*
X7264301Y-16669674D01*
X7264301Y-16669674D02*
X7264301Y-16717293D01*
X7264301Y-16717293D02*
X7254777Y-16755388D01*
X7254777Y-16755388D02*
X7245253Y-16774436D01*
X7245253Y-16774436D02*
X7235729Y-16783960D01*
X7235729Y-16783960D02*
X7216682Y-16793484D01*
X7216682Y-16793484D02*
X7197634Y-16793484D01*
X7197634Y-16793484D02*
X7178586Y-16783960D01*
X7178586Y-16783960D02*
X7169063Y-16774436D01*
X7169063Y-16774436D02*
X7159539Y-16755388D01*
X7159539Y-16755388D02*
X7150015Y-16717293D01*
X7150015Y-16717293D02*
X7150015Y-16669674D01*
X7150015Y-16669674D02*
X7159539Y-16631579D01*
X7159539Y-16631579D02*
X7169063Y-16612531D01*
X7169063Y-16612531D02*
X7178586Y-16603008D01*
X7178586Y-16603008D02*
X7197634Y-16593484D01*
X7350015Y-16774436D02*
X7359539Y-16783960D01*
X7359539Y-16783960D02*
X7350015Y-16793484D01*
X7350015Y-16793484D02*
X7340491Y-16783960D01*
X7340491Y-16783960D02*
X7350015Y-16774436D01*
X7350015Y-16774436D02*
X7350015Y-16793484D01*
X7483348Y-16593484D02*
X7502396Y-16593484D01*
X7502396Y-16593484D02*
X7521444Y-16603008D01*
X7521444Y-16603008D02*
X7530967Y-16612531D01*
X7530967Y-16612531D02*
X7540491Y-16631579D01*
X7540491Y-16631579D02*
X7550015Y-16669674D01*
X7550015Y-16669674D02*
X7550015Y-16717293D01*
X7550015Y-16717293D02*
X7540491Y-16755388D01*
X7540491Y-16755388D02*
X7530967Y-16774436D01*
X7530967Y-16774436D02*
X7521444Y-16783960D01*
X7521444Y-16783960D02*
X7502396Y-16793484D01*
X7502396Y-16793484D02*
X7483348Y-16793484D01*
X7483348Y-16793484D02*
X7464301Y-16783960D01*
X7464301Y-16783960D02*
X7454777Y-16774436D01*
X7454777Y-16774436D02*
X7445253Y-16755388D01*
X7445253Y-16755388D02*
X7435729Y-16717293D01*
X7435729Y-16717293D02*
X7435729Y-16669674D01*
X7435729Y-16669674D02*
X7445253Y-16631579D01*
X7445253Y-16631579D02*
X7454777Y-16612531D01*
X7454777Y-16612531D02*
X7464301Y-16603008D01*
X7464301Y-16603008D02*
X7483348Y-16593484D01*
X7616682Y-16593484D02*
X7740491Y-16593484D01*
X7740491Y-16593484D02*
X7673825Y-16669674D01*
X7673825Y-16669674D02*
X7702396Y-16669674D01*
X7702396Y-16669674D02*
X7721444Y-16679198D01*
X7721444Y-16679198D02*
X7730967Y-16688722D01*
X7730967Y-16688722D02*
X7740491Y-16707769D01*
X7740491Y-16707769D02*
X7740491Y-16755388D01*
X7740491Y-16755388D02*
X7730967Y-16774436D01*
X7730967Y-16774436D02*
X7721444Y-16783960D01*
X7721444Y-16783960D02*
X7702396Y-16793484D01*
X7702396Y-16793484D02*
X7645253Y-16793484D01*
X7645253Y-16793484D02*
X7626206Y-16783960D01*
X7626206Y-16783960D02*
X7616682Y-16774436D01*
X7835729Y-16793484D02*
X7873825Y-16793484D01*
X7873825Y-16793484D02*
X7892872Y-16783960D01*
X7892872Y-16783960D02*
X7902396Y-16774436D01*
X7902396Y-16774436D02*
X7921444Y-16745865D01*
X7921444Y-16745865D02*
X7930967Y-16707769D01*
X7930967Y-16707769D02*
X7930967Y-16631579D01*
X7930967Y-16631579D02*
X7921444Y-16612531D01*
X7921444Y-16612531D02*
X7911920Y-16603008D01*
X7911920Y-16603008D02*
X7892872Y-16593484D01*
X7892872Y-16593484D02*
X7854777Y-16593484D01*
X7854777Y-16593484D02*
X7835729Y-16603008D01*
X7835729Y-16603008D02*
X7826206Y-16612531D01*
X7826206Y-16612531D02*
X7816682Y-16631579D01*
X7816682Y-16631579D02*
X7816682Y-16679198D01*
X7816682Y-16679198D02*
X7826206Y-16698246D01*
X7826206Y-16698246D02*
X7835729Y-16707769D01*
X7835729Y-16707769D02*
X7854777Y-16717293D01*
X7854777Y-16717293D02*
X7892872Y-16717293D01*
X7892872Y-16717293D02*
X7911920Y-16707769D01*
X7911920Y-16707769D02*
X7921444Y-16698246D01*
X7921444Y-16698246D02*
X7930967Y-16679198D01*
X8102396Y-16660150D02*
X8102396Y-16793484D01*
X8054777Y-16583960D02*
X8007158Y-16726817D01*
X8007158Y-16726817D02*
X8130967Y-16726817D01*
X8197634Y-16593484D02*
X8197634Y-16631579D01*
X8273825Y-16593484D02*
X8273825Y-16631579D01*
X8569063Y-16869674D02*
X8559539Y-16860150D01*
X8559539Y-16860150D02*
X8540491Y-16831579D01*
X8540491Y-16831579D02*
X8530968Y-16812531D01*
X8530968Y-16812531D02*
X8521444Y-16783960D01*
X8521444Y-16783960D02*
X8511920Y-16736341D01*
X8511920Y-16736341D02*
X8511920Y-16698246D01*
X8511920Y-16698246D02*
X8521444Y-16650627D01*
X8521444Y-16650627D02*
X8530968Y-16622055D01*
X8530968Y-16622055D02*
X8540491Y-16603008D01*
X8540491Y-16603008D02*
X8559539Y-16574436D01*
X8559539Y-16574436D02*
X8569063Y-16564912D01*
X8750015Y-16793484D02*
X8635730Y-16793484D01*
X8692872Y-16793484D02*
X8692872Y-16593484D01*
X8692872Y-16593484D02*
X8673825Y-16622055D01*
X8673825Y-16622055D02*
X8654777Y-16641103D01*
X8654777Y-16641103D02*
X8635730Y-16650627D01*
X8921444Y-16593484D02*
X8883349Y-16593484D01*
X8883349Y-16593484D02*
X8864301Y-16603008D01*
X8864301Y-16603008D02*
X8854777Y-16612531D01*
X8854777Y-16612531D02*
X8835730Y-16641103D01*
X8835730Y-16641103D02*
X8826206Y-16679198D01*
X8826206Y-16679198D02*
X8826206Y-16755388D01*
X8826206Y-16755388D02*
X8835730Y-16774436D01*
X8835730Y-16774436D02*
X8845253Y-16783960D01*
X8845253Y-16783960D02*
X8864301Y-16793484D01*
X8864301Y-16793484D02*
X8902396Y-16793484D01*
X8902396Y-16793484D02*
X8921444Y-16783960D01*
X8921444Y-16783960D02*
X8930968Y-16774436D01*
X8930968Y-16774436D02*
X8940491Y-16755388D01*
X8940491Y-16755388D02*
X8940491Y-16707769D01*
X8940491Y-16707769D02*
X8930968Y-16688722D01*
X8930968Y-16688722D02*
X8921444Y-16679198D01*
X8921444Y-16679198D02*
X8902396Y-16669674D01*
X8902396Y-16669674D02*
X8864301Y-16669674D01*
X8864301Y-16669674D02*
X8845253Y-16679198D01*
X8845253Y-16679198D02*
X8835730Y-16688722D01*
X8835730Y-16688722D02*
X8826206Y-16707769D01*
X9016682Y-16612531D02*
X9026206Y-16603008D01*
X9026206Y-16603008D02*
X9045253Y-16593484D01*
X9045253Y-16593484D02*
X9092872Y-16593484D01*
X9092872Y-16593484D02*
X9111920Y-16603008D01*
X9111920Y-16603008D02*
X9121444Y-16612531D01*
X9121444Y-16612531D02*
X9130968Y-16631579D01*
X9130968Y-16631579D02*
X9130968Y-16650627D01*
X9130968Y-16650627D02*
X9121444Y-16679198D01*
X9121444Y-16679198D02*
X9007158Y-16793484D01*
X9007158Y-16793484D02*
X9130968Y-16793484D01*
X9369063Y-16793484D02*
X9369063Y-16593484D01*
X9454777Y-16793484D02*
X9454777Y-16688722D01*
X9454777Y-16688722D02*
X9445253Y-16669674D01*
X9445253Y-16669674D02*
X9426206Y-16660150D01*
X9426206Y-16660150D02*
X9397634Y-16660150D01*
X9397634Y-16660150D02*
X9378587Y-16669674D01*
X9378587Y-16669674D02*
X9369063Y-16679198D01*
X9578587Y-16793484D02*
X9559539Y-16783960D01*
X9559539Y-16783960D02*
X9550015Y-16774436D01*
X9550015Y-16774436D02*
X9540492Y-16755388D01*
X9540492Y-16755388D02*
X9540492Y-16698246D01*
X9540492Y-16698246D02*
X9550015Y-16679198D01*
X9550015Y-16679198D02*
X9559539Y-16669674D01*
X9559539Y-16669674D02*
X9578587Y-16660150D01*
X9578587Y-16660150D02*
X9607158Y-16660150D01*
X9607158Y-16660150D02*
X9626206Y-16669674D01*
X9626206Y-16669674D02*
X9635730Y-16679198D01*
X9635730Y-16679198D02*
X9645253Y-16698246D01*
X9645253Y-16698246D02*
X9645253Y-16755388D01*
X9645253Y-16755388D02*
X9635730Y-16774436D01*
X9635730Y-16774436D02*
X9626206Y-16783960D01*
X9626206Y-16783960D02*
X9607158Y-16793484D01*
X9607158Y-16793484D02*
X9578587Y-16793484D01*
X9759539Y-16793484D02*
X9740492Y-16783960D01*
X9740492Y-16783960D02*
X9730968Y-16764912D01*
X9730968Y-16764912D02*
X9730968Y-16593484D01*
X9911920Y-16783960D02*
X9892873Y-16793484D01*
X9892873Y-16793484D02*
X9854777Y-16793484D01*
X9854777Y-16793484D02*
X9835730Y-16783960D01*
X9835730Y-16783960D02*
X9826206Y-16764912D01*
X9826206Y-16764912D02*
X9826206Y-16688722D01*
X9826206Y-16688722D02*
X9835730Y-16669674D01*
X9835730Y-16669674D02*
X9854777Y-16660150D01*
X9854777Y-16660150D02*
X9892873Y-16660150D01*
X9892873Y-16660150D02*
X9911920Y-16669674D01*
X9911920Y-16669674D02*
X9921444Y-16688722D01*
X9921444Y-16688722D02*
X9921444Y-16707769D01*
X9921444Y-16707769D02*
X9826206Y-16726817D01*
X9997634Y-16783960D02*
X10016682Y-16793484D01*
X10016682Y-16793484D02*
X10054777Y-16793484D01*
X10054777Y-16793484D02*
X10073825Y-16783960D01*
X10073825Y-16783960D02*
X10083349Y-16764912D01*
X10083349Y-16764912D02*
X10083349Y-16755388D01*
X10083349Y-16755388D02*
X10073825Y-16736341D01*
X10073825Y-16736341D02*
X10054777Y-16726817D01*
X10054777Y-16726817D02*
X10026206Y-16726817D01*
X10026206Y-16726817D02*
X10007158Y-16717293D01*
X10007158Y-16717293D02*
X9997634Y-16698246D01*
X9997634Y-16698246D02*
X9997634Y-16688722D01*
X9997634Y-16688722D02*
X10007158Y-16669674D01*
X10007158Y-16669674D02*
X10026206Y-16660150D01*
X10026206Y-16660150D02*
X10054777Y-16660150D01*
X10054777Y-16660150D02*
X10073825Y-16669674D01*
X10150015Y-16869674D02*
X10159539Y-16860150D01*
X10159539Y-16860150D02*
X10178587Y-16831579D01*
X10178587Y-16831579D02*
X10188111Y-16812531D01*
X10188111Y-16812531D02*
X10197634Y-16783960D01*
X10197634Y-16783960D02*
X10207158Y-16736341D01*
X10207158Y-16736341D02*
X10207158Y-16698246D01*
X10207158Y-16698246D02*
X10197634Y-16650627D01*
X10197634Y-16650627D02*
X10188111Y-16622055D01*
X10188111Y-16622055D02*
X10178587Y-16603008D01*
X10178587Y-16603008D02*
X10159539Y-16574436D01*
X10159539Y-16574436D02*
X10150015Y-16564912D01*
D13*
X4844000Y-16891000D02*
X4994000Y-17041000D01*
X4994000Y-16891000D02*
X4844000Y-17041000D01*
X4994000Y-16966000D02*
G75*
G02*
X4844000Y-16966000I-75000J0D01*
G01*
X4844000Y-16966000D02*
G75*
G02*
X4994000Y-16966000I75000J0D01*
G01*
D11*
X5359539Y-17057484D02*
X5245253Y-17057484D01*
X5302396Y-17057484D02*
X5302396Y-16857484D01*
X5302396Y-16857484D02*
X5283348Y-16886055D01*
X5283348Y-16886055D02*
X5264301Y-16905103D01*
X5264301Y-16905103D02*
X5245253Y-16914627D01*
X5445253Y-17038436D02*
X5454777Y-17047960D01*
X5454777Y-17047960D02*
X5445253Y-17057484D01*
X5445253Y-17057484D02*
X5435729Y-17047960D01*
X5435729Y-17047960D02*
X5445253Y-17038436D01*
X5445253Y-17038436D02*
X5445253Y-17057484D01*
X5635729Y-16857484D02*
X5540491Y-16857484D01*
X5540491Y-16857484D02*
X5530967Y-16952722D01*
X5530967Y-16952722D02*
X5540491Y-16943198D01*
X5540491Y-16943198D02*
X5559539Y-16933674D01*
X5559539Y-16933674D02*
X5607158Y-16933674D01*
X5607158Y-16933674D02*
X5626205Y-16943198D01*
X5626205Y-16943198D02*
X5635729Y-16952722D01*
X5635729Y-16952722D02*
X5645253Y-16971770D01*
X5645253Y-16971770D02*
X5645253Y-17019389D01*
X5645253Y-17019389D02*
X5635729Y-17038436D01*
X5635729Y-17038436D02*
X5626205Y-17047960D01*
X5626205Y-17047960D02*
X5607158Y-17057484D01*
X5607158Y-17057484D02*
X5559539Y-17057484D01*
X5559539Y-17057484D02*
X5540491Y-17047960D01*
X5540491Y-17047960D02*
X5530967Y-17038436D01*
X5769062Y-16857484D02*
X5788110Y-16857484D01*
X5788110Y-16857484D02*
X5807158Y-16867008D01*
X5807158Y-16867008D02*
X5816682Y-16876531D01*
X5816682Y-16876531D02*
X5826205Y-16895579D01*
X5826205Y-16895579D02*
X5835729Y-16933674D01*
X5835729Y-16933674D02*
X5835729Y-16981293D01*
X5835729Y-16981293D02*
X5826205Y-17019389D01*
X5826205Y-17019389D02*
X5816682Y-17038436D01*
X5816682Y-17038436D02*
X5807158Y-17047960D01*
X5807158Y-17047960D02*
X5788110Y-17057484D01*
X5788110Y-17057484D02*
X5769062Y-17057484D01*
X5769062Y-17057484D02*
X5750015Y-17047960D01*
X5750015Y-17047960D02*
X5740491Y-17038436D01*
X5740491Y-17038436D02*
X5730967Y-17019389D01*
X5730967Y-17019389D02*
X5721443Y-16981293D01*
X5721443Y-16981293D02*
X5721443Y-16933674D01*
X5721443Y-16933674D02*
X5730967Y-16895579D01*
X5730967Y-16895579D02*
X5740491Y-16876531D01*
X5740491Y-16876531D02*
X5750015Y-16867008D01*
X5750015Y-16867008D02*
X5769062Y-16857484D01*
X5959539Y-16857484D02*
X5978586Y-16857484D01*
X5978586Y-16857484D02*
X5997634Y-16867008D01*
X5997634Y-16867008D02*
X6007158Y-16876531D01*
X6007158Y-16876531D02*
X6016682Y-16895579D01*
X6016682Y-16895579D02*
X6026205Y-16933674D01*
X6026205Y-16933674D02*
X6026205Y-16981293D01*
X6026205Y-16981293D02*
X6016682Y-17019389D01*
X6016682Y-17019389D02*
X6007158Y-17038436D01*
X6007158Y-17038436D02*
X5997634Y-17047960D01*
X5997634Y-17047960D02*
X5978586Y-17057484D01*
X5978586Y-17057484D02*
X5959539Y-17057484D01*
X5959539Y-17057484D02*
X5940491Y-17047960D01*
X5940491Y-17047960D02*
X5930967Y-17038436D01*
X5930967Y-17038436D02*
X5921443Y-17019389D01*
X5921443Y-17019389D02*
X5911920Y-16981293D01*
X5911920Y-16981293D02*
X5911920Y-16933674D01*
X5911920Y-16933674D02*
X5921443Y-16895579D01*
X5921443Y-16895579D02*
X5930967Y-16876531D01*
X5930967Y-16876531D02*
X5940491Y-16867008D01*
X5940491Y-16867008D02*
X5959539Y-16857484D01*
X6111920Y-17057484D02*
X6111920Y-16924150D01*
X6111920Y-16943198D02*
X6121443Y-16933674D01*
X6121443Y-16933674D02*
X6140491Y-16924150D01*
X6140491Y-16924150D02*
X6169063Y-16924150D01*
X6169063Y-16924150D02*
X6188110Y-16933674D01*
X6188110Y-16933674D02*
X6197634Y-16952722D01*
X6197634Y-16952722D02*
X6197634Y-17057484D01*
X6197634Y-16952722D02*
X6207158Y-16933674D01*
X6207158Y-16933674D02*
X6226205Y-16924150D01*
X6226205Y-16924150D02*
X6254777Y-16924150D01*
X6254777Y-16924150D02*
X6273824Y-16933674D01*
X6273824Y-16933674D02*
X6283348Y-16952722D01*
X6283348Y-16952722D02*
X6283348Y-17057484D01*
X6378586Y-17057484D02*
X6378586Y-16924150D01*
X6378586Y-16943198D02*
X6388110Y-16933674D01*
X6388110Y-16933674D02*
X6407158Y-16924150D01*
X6407158Y-16924150D02*
X6435729Y-16924150D01*
X6435729Y-16924150D02*
X6454777Y-16933674D01*
X6454777Y-16933674D02*
X6464301Y-16952722D01*
X6464301Y-16952722D02*
X6464301Y-17057484D01*
X6464301Y-16952722D02*
X6473824Y-16933674D01*
X6473824Y-16933674D02*
X6492872Y-16924150D01*
X6492872Y-16924150D02*
X6521443Y-16924150D01*
X6521443Y-16924150D02*
X6540491Y-16933674D01*
X6540491Y-16933674D02*
X6550015Y-16952722D01*
X6550015Y-16952722D02*
X6550015Y-17057484D01*
X6940491Y-16847960D02*
X6769063Y-17105103D01*
X7197634Y-16857484D02*
X7216682Y-16857484D01*
X7216682Y-16857484D02*
X7235729Y-16867008D01*
X7235729Y-16867008D02*
X7245253Y-16876531D01*
X7245253Y-16876531D02*
X7254777Y-16895579D01*
X7254777Y-16895579D02*
X7264301Y-16933674D01*
X7264301Y-16933674D02*
X7264301Y-16981293D01*
X7264301Y-16981293D02*
X7254777Y-17019389D01*
X7254777Y-17019389D02*
X7245253Y-17038436D01*
X7245253Y-17038436D02*
X7235729Y-17047960D01*
X7235729Y-17047960D02*
X7216682Y-17057484D01*
X7216682Y-17057484D02*
X7197634Y-17057484D01*
X7197634Y-17057484D02*
X7178586Y-17047960D01*
X7178586Y-17047960D02*
X7169063Y-17038436D01*
X7169063Y-17038436D02*
X7159539Y-17019389D01*
X7159539Y-17019389D02*
X7150015Y-16981293D01*
X7150015Y-16981293D02*
X7150015Y-16933674D01*
X7150015Y-16933674D02*
X7159539Y-16895579D01*
X7159539Y-16895579D02*
X7169063Y-16876531D01*
X7169063Y-16876531D02*
X7178586Y-16867008D01*
X7178586Y-16867008D02*
X7197634Y-16857484D01*
X7350015Y-17038436D02*
X7359539Y-17047960D01*
X7359539Y-17047960D02*
X7350015Y-17057484D01*
X7350015Y-17057484D02*
X7340491Y-17047960D01*
X7340491Y-17047960D02*
X7350015Y-17038436D01*
X7350015Y-17038436D02*
X7350015Y-17057484D01*
X7483348Y-16857484D02*
X7502396Y-16857484D01*
X7502396Y-16857484D02*
X7521444Y-16867008D01*
X7521444Y-16867008D02*
X7530967Y-16876531D01*
X7530967Y-16876531D02*
X7540491Y-16895579D01*
X7540491Y-16895579D02*
X7550015Y-16933674D01*
X7550015Y-16933674D02*
X7550015Y-16981293D01*
X7550015Y-16981293D02*
X7540491Y-17019389D01*
X7540491Y-17019389D02*
X7530967Y-17038436D01*
X7530967Y-17038436D02*
X7521444Y-17047960D01*
X7521444Y-17047960D02*
X7502396Y-17057484D01*
X7502396Y-17057484D02*
X7483348Y-17057484D01*
X7483348Y-17057484D02*
X7464301Y-17047960D01*
X7464301Y-17047960D02*
X7454777Y-17038436D01*
X7454777Y-17038436D02*
X7445253Y-17019389D01*
X7445253Y-17019389D02*
X7435729Y-16981293D01*
X7435729Y-16981293D02*
X7435729Y-16933674D01*
X7435729Y-16933674D02*
X7445253Y-16895579D01*
X7445253Y-16895579D02*
X7454777Y-16876531D01*
X7454777Y-16876531D02*
X7464301Y-16867008D01*
X7464301Y-16867008D02*
X7483348Y-16857484D01*
X7730967Y-16857484D02*
X7635729Y-16857484D01*
X7635729Y-16857484D02*
X7626206Y-16952722D01*
X7626206Y-16952722D02*
X7635729Y-16943198D01*
X7635729Y-16943198D02*
X7654777Y-16933674D01*
X7654777Y-16933674D02*
X7702396Y-16933674D01*
X7702396Y-16933674D02*
X7721444Y-16943198D01*
X7721444Y-16943198D02*
X7730967Y-16952722D01*
X7730967Y-16952722D02*
X7740491Y-16971770D01*
X7740491Y-16971770D02*
X7740491Y-17019389D01*
X7740491Y-17019389D02*
X7730967Y-17038436D01*
X7730967Y-17038436D02*
X7721444Y-17047960D01*
X7721444Y-17047960D02*
X7702396Y-17057484D01*
X7702396Y-17057484D02*
X7654777Y-17057484D01*
X7654777Y-17057484D02*
X7635729Y-17047960D01*
X7635729Y-17047960D02*
X7626206Y-17038436D01*
X7835729Y-17057484D02*
X7873825Y-17057484D01*
X7873825Y-17057484D02*
X7892872Y-17047960D01*
X7892872Y-17047960D02*
X7902396Y-17038436D01*
X7902396Y-17038436D02*
X7921444Y-17009865D01*
X7921444Y-17009865D02*
X7930967Y-16971770D01*
X7930967Y-16971770D02*
X7930967Y-16895579D01*
X7930967Y-16895579D02*
X7921444Y-16876531D01*
X7921444Y-16876531D02*
X7911920Y-16867008D01*
X7911920Y-16867008D02*
X7892872Y-16857484D01*
X7892872Y-16857484D02*
X7854777Y-16857484D01*
X7854777Y-16857484D02*
X7835729Y-16867008D01*
X7835729Y-16867008D02*
X7826206Y-16876531D01*
X7826206Y-16876531D02*
X7816682Y-16895579D01*
X7816682Y-16895579D02*
X7816682Y-16943198D01*
X7816682Y-16943198D02*
X7826206Y-16962246D01*
X7826206Y-16962246D02*
X7835729Y-16971770D01*
X7835729Y-16971770D02*
X7854777Y-16981293D01*
X7854777Y-16981293D02*
X7892872Y-16981293D01*
X7892872Y-16981293D02*
X7911920Y-16971770D01*
X7911920Y-16971770D02*
X7921444Y-16962246D01*
X7921444Y-16962246D02*
X7930967Y-16943198D01*
X8121444Y-17057484D02*
X8007158Y-17057484D01*
X8064301Y-17057484D02*
X8064301Y-16857484D01*
X8064301Y-16857484D02*
X8045253Y-16886055D01*
X8045253Y-16886055D02*
X8026206Y-16905103D01*
X8026206Y-16905103D02*
X8007158Y-16914627D01*
X8197634Y-16857484D02*
X8197634Y-16895579D01*
X8273825Y-16857484D02*
X8273825Y-16895579D01*
X8569063Y-17133674D02*
X8559539Y-17124150D01*
X8559539Y-17124150D02*
X8540491Y-17095579D01*
X8540491Y-17095579D02*
X8530968Y-17076531D01*
X8530968Y-17076531D02*
X8521444Y-17047960D01*
X8521444Y-17047960D02*
X8511920Y-17000341D01*
X8511920Y-17000341D02*
X8511920Y-16962246D01*
X8511920Y-16962246D02*
X8521444Y-16914627D01*
X8521444Y-16914627D02*
X8530968Y-16886055D01*
X8530968Y-16886055D02*
X8540491Y-16867008D01*
X8540491Y-16867008D02*
X8559539Y-16838436D01*
X8559539Y-16838436D02*
X8569063Y-16828912D01*
X8730968Y-16924150D02*
X8730968Y-17057484D01*
X8683349Y-16847960D02*
X8635730Y-16990817D01*
X8635730Y-16990817D02*
X8759539Y-16990817D01*
X8988111Y-17057484D02*
X8988111Y-16857484D01*
X9073825Y-17057484D02*
X9073825Y-16952722D01*
X9073825Y-16952722D02*
X9064301Y-16933674D01*
X9064301Y-16933674D02*
X9045253Y-16924150D01*
X9045253Y-16924150D02*
X9016682Y-16924150D01*
X9016682Y-16924150D02*
X8997634Y-16933674D01*
X8997634Y-16933674D02*
X8988111Y-16943198D01*
X9197634Y-17057484D02*
X9178587Y-17047960D01*
X9178587Y-17047960D02*
X9169063Y-17038436D01*
X9169063Y-17038436D02*
X9159539Y-17019389D01*
X9159539Y-17019389D02*
X9159539Y-16962246D01*
X9159539Y-16962246D02*
X9169063Y-16943198D01*
X9169063Y-16943198D02*
X9178587Y-16933674D01*
X9178587Y-16933674D02*
X9197634Y-16924150D01*
X9197634Y-16924150D02*
X9226206Y-16924150D01*
X9226206Y-16924150D02*
X9245253Y-16933674D01*
X9245253Y-16933674D02*
X9254777Y-16943198D01*
X9254777Y-16943198D02*
X9264301Y-16962246D01*
X9264301Y-16962246D02*
X9264301Y-17019389D01*
X9264301Y-17019389D02*
X9254777Y-17038436D01*
X9254777Y-17038436D02*
X9245253Y-17047960D01*
X9245253Y-17047960D02*
X9226206Y-17057484D01*
X9226206Y-17057484D02*
X9197634Y-17057484D01*
X9378587Y-17057484D02*
X9359539Y-17047960D01*
X9359539Y-17047960D02*
X9350015Y-17028912D01*
X9350015Y-17028912D02*
X9350015Y-16857484D01*
X9530968Y-17047960D02*
X9511920Y-17057484D01*
X9511920Y-17057484D02*
X9473825Y-17057484D01*
X9473825Y-17057484D02*
X9454777Y-17047960D01*
X9454777Y-17047960D02*
X9445253Y-17028912D01*
X9445253Y-17028912D02*
X9445253Y-16952722D01*
X9445253Y-16952722D02*
X9454777Y-16933674D01*
X9454777Y-16933674D02*
X9473825Y-16924150D01*
X9473825Y-16924150D02*
X9511920Y-16924150D01*
X9511920Y-16924150D02*
X9530968Y-16933674D01*
X9530968Y-16933674D02*
X9540492Y-16952722D01*
X9540492Y-16952722D02*
X9540492Y-16971770D01*
X9540492Y-16971770D02*
X9445253Y-16990817D01*
X9616682Y-17047960D02*
X9635730Y-17057484D01*
X9635730Y-17057484D02*
X9673825Y-17057484D01*
X9673825Y-17057484D02*
X9692873Y-17047960D01*
X9692873Y-17047960D02*
X9702396Y-17028912D01*
X9702396Y-17028912D02*
X9702396Y-17019389D01*
X9702396Y-17019389D02*
X9692873Y-17000341D01*
X9692873Y-17000341D02*
X9673825Y-16990817D01*
X9673825Y-16990817D02*
X9645253Y-16990817D01*
X9645253Y-16990817D02*
X9626206Y-16981293D01*
X9626206Y-16981293D02*
X9616682Y-16962246D01*
X9616682Y-16962246D02*
X9616682Y-16952722D01*
X9616682Y-16952722D02*
X9626206Y-16933674D01*
X9626206Y-16933674D02*
X9645253Y-16924150D01*
X9645253Y-16924150D02*
X9673825Y-16924150D01*
X9673825Y-16924150D02*
X9692873Y-16933674D01*
X9769063Y-17133674D02*
X9778587Y-17124150D01*
X9778587Y-17124150D02*
X9797634Y-17095579D01*
X9797634Y-17095579D02*
X9807158Y-17076531D01*
X9807158Y-17076531D02*
X9816682Y-17047960D01*
X9816682Y-17047960D02*
X9826206Y-17000341D01*
X9826206Y-17000341D02*
X9826206Y-16962246D01*
X9826206Y-16962246D02*
X9816682Y-16914627D01*
X9816682Y-16914627D02*
X9807158Y-16886055D01*
X9807158Y-16886055D02*
X9797634Y-16867008D01*
X9797634Y-16867008D02*
X9778587Y-16838436D01*
X9778587Y-16838436D02*
X9769063Y-16828912D01*
D14*
X4824000Y-17151000D02*
X4994000Y-17321000D01*
X4994000Y-17151000D02*
X4824000Y-17321000D01*
X4909000Y-17151000D02*
X4909000Y-17321000D01*
X4824000Y-17236000D02*
X4994000Y-17236000D01*
D11*
X5359539Y-17327484D02*
X5245253Y-17327484D01*
X5302396Y-17327484D02*
X5302396Y-17127484D01*
X5302396Y-17127484D02*
X5283348Y-17156055D01*
X5283348Y-17156055D02*
X5264301Y-17175103D01*
X5264301Y-17175103D02*
X5245253Y-17184627D01*
X5445253Y-17308436D02*
X5454777Y-17317960D01*
X5454777Y-17317960D02*
X5445253Y-17327484D01*
X5445253Y-17327484D02*
X5435729Y-17317960D01*
X5435729Y-17317960D02*
X5445253Y-17308436D01*
X5445253Y-17308436D02*
X5445253Y-17327484D01*
X5521444Y-17127484D02*
X5654777Y-17127484D01*
X5654777Y-17127484D02*
X5569063Y-17327484D01*
X5769062Y-17127484D02*
X5788110Y-17127484D01*
X5788110Y-17127484D02*
X5807158Y-17137008D01*
X5807158Y-17137008D02*
X5816682Y-17146531D01*
X5816682Y-17146531D02*
X5826205Y-17165579D01*
X5826205Y-17165579D02*
X5835729Y-17203674D01*
X5835729Y-17203674D02*
X5835729Y-17251293D01*
X5835729Y-17251293D02*
X5826205Y-17289389D01*
X5826205Y-17289389D02*
X5816682Y-17308436D01*
X5816682Y-17308436D02*
X5807158Y-17317960D01*
X5807158Y-17317960D02*
X5788110Y-17327484D01*
X5788110Y-17327484D02*
X5769062Y-17327484D01*
X5769062Y-17327484D02*
X5750015Y-17317960D01*
X5750015Y-17317960D02*
X5740491Y-17308436D01*
X5740491Y-17308436D02*
X5730967Y-17289389D01*
X5730967Y-17289389D02*
X5721443Y-17251293D01*
X5721443Y-17251293D02*
X5721443Y-17203674D01*
X5721443Y-17203674D02*
X5730967Y-17165579D01*
X5730967Y-17165579D02*
X5740491Y-17146531D01*
X5740491Y-17146531D02*
X5750015Y-17137008D01*
X5750015Y-17137008D02*
X5769062Y-17127484D01*
X5959539Y-17127484D02*
X5978586Y-17127484D01*
X5978586Y-17127484D02*
X5997634Y-17137008D01*
X5997634Y-17137008D02*
X6007158Y-17146531D01*
X6007158Y-17146531D02*
X6016682Y-17165579D01*
X6016682Y-17165579D02*
X6026205Y-17203674D01*
X6026205Y-17203674D02*
X6026205Y-17251293D01*
X6026205Y-17251293D02*
X6016682Y-17289389D01*
X6016682Y-17289389D02*
X6007158Y-17308436D01*
X6007158Y-17308436D02*
X5997634Y-17317960D01*
X5997634Y-17317960D02*
X5978586Y-17327484D01*
X5978586Y-17327484D02*
X5959539Y-17327484D01*
X5959539Y-17327484D02*
X5940491Y-17317960D01*
X5940491Y-17317960D02*
X5930967Y-17308436D01*
X5930967Y-17308436D02*
X5921443Y-17289389D01*
X5921443Y-17289389D02*
X5911920Y-17251293D01*
X5911920Y-17251293D02*
X5911920Y-17203674D01*
X5911920Y-17203674D02*
X5921443Y-17165579D01*
X5921443Y-17165579D02*
X5930967Y-17146531D01*
X5930967Y-17146531D02*
X5940491Y-17137008D01*
X5940491Y-17137008D02*
X5959539Y-17127484D01*
X6111920Y-17327484D02*
X6111920Y-17194150D01*
X6111920Y-17213198D02*
X6121443Y-17203674D01*
X6121443Y-17203674D02*
X6140491Y-17194150D01*
X6140491Y-17194150D02*
X6169063Y-17194150D01*
X6169063Y-17194150D02*
X6188110Y-17203674D01*
X6188110Y-17203674D02*
X6197634Y-17222722D01*
X6197634Y-17222722D02*
X6197634Y-17327484D01*
X6197634Y-17222722D02*
X6207158Y-17203674D01*
X6207158Y-17203674D02*
X6226205Y-17194150D01*
X6226205Y-17194150D02*
X6254777Y-17194150D01*
X6254777Y-17194150D02*
X6273824Y-17203674D01*
X6273824Y-17203674D02*
X6283348Y-17222722D01*
X6283348Y-17222722D02*
X6283348Y-17327484D01*
X6378586Y-17327484D02*
X6378586Y-17194150D01*
X6378586Y-17213198D02*
X6388110Y-17203674D01*
X6388110Y-17203674D02*
X6407158Y-17194150D01*
X6407158Y-17194150D02*
X6435729Y-17194150D01*
X6435729Y-17194150D02*
X6454777Y-17203674D01*
X6454777Y-17203674D02*
X6464301Y-17222722D01*
X6464301Y-17222722D02*
X6464301Y-17327484D01*
X6464301Y-17222722D02*
X6473824Y-17203674D01*
X6473824Y-17203674D02*
X6492872Y-17194150D01*
X6492872Y-17194150D02*
X6521443Y-17194150D01*
X6521443Y-17194150D02*
X6540491Y-17203674D01*
X6540491Y-17203674D02*
X6550015Y-17222722D01*
X6550015Y-17222722D02*
X6550015Y-17327484D01*
X6940491Y-17117960D02*
X6769063Y-17375103D01*
X7197634Y-17127484D02*
X7216682Y-17127484D01*
X7216682Y-17127484D02*
X7235729Y-17137008D01*
X7235729Y-17137008D02*
X7245253Y-17146531D01*
X7245253Y-17146531D02*
X7254777Y-17165579D01*
X7254777Y-17165579D02*
X7264301Y-17203674D01*
X7264301Y-17203674D02*
X7264301Y-17251293D01*
X7264301Y-17251293D02*
X7254777Y-17289389D01*
X7254777Y-17289389D02*
X7245253Y-17308436D01*
X7245253Y-17308436D02*
X7235729Y-17317960D01*
X7235729Y-17317960D02*
X7216682Y-17327484D01*
X7216682Y-17327484D02*
X7197634Y-17327484D01*
X7197634Y-17327484D02*
X7178586Y-17317960D01*
X7178586Y-17317960D02*
X7169063Y-17308436D01*
X7169063Y-17308436D02*
X7159539Y-17289389D01*
X7159539Y-17289389D02*
X7150015Y-17251293D01*
X7150015Y-17251293D02*
X7150015Y-17203674D01*
X7150015Y-17203674D02*
X7159539Y-17165579D01*
X7159539Y-17165579D02*
X7169063Y-17146531D01*
X7169063Y-17146531D02*
X7178586Y-17137008D01*
X7178586Y-17137008D02*
X7197634Y-17127484D01*
X7350015Y-17308436D02*
X7359539Y-17317960D01*
X7359539Y-17317960D02*
X7350015Y-17327484D01*
X7350015Y-17327484D02*
X7340491Y-17317960D01*
X7340491Y-17317960D02*
X7350015Y-17308436D01*
X7350015Y-17308436D02*
X7350015Y-17327484D01*
X7483348Y-17127484D02*
X7502396Y-17127484D01*
X7502396Y-17127484D02*
X7521444Y-17137008D01*
X7521444Y-17137008D02*
X7530967Y-17146531D01*
X7530967Y-17146531D02*
X7540491Y-17165579D01*
X7540491Y-17165579D02*
X7550015Y-17203674D01*
X7550015Y-17203674D02*
X7550015Y-17251293D01*
X7550015Y-17251293D02*
X7540491Y-17289389D01*
X7540491Y-17289389D02*
X7530967Y-17308436D01*
X7530967Y-17308436D02*
X7521444Y-17317960D01*
X7521444Y-17317960D02*
X7502396Y-17327484D01*
X7502396Y-17327484D02*
X7483348Y-17327484D01*
X7483348Y-17327484D02*
X7464301Y-17317960D01*
X7464301Y-17317960D02*
X7454777Y-17308436D01*
X7454777Y-17308436D02*
X7445253Y-17289389D01*
X7445253Y-17289389D02*
X7435729Y-17251293D01*
X7435729Y-17251293D02*
X7435729Y-17203674D01*
X7435729Y-17203674D02*
X7445253Y-17165579D01*
X7445253Y-17165579D02*
X7454777Y-17146531D01*
X7454777Y-17146531D02*
X7464301Y-17137008D01*
X7464301Y-17137008D02*
X7483348Y-17127484D01*
X7721444Y-17127484D02*
X7683348Y-17127484D01*
X7683348Y-17127484D02*
X7664301Y-17137008D01*
X7664301Y-17137008D02*
X7654777Y-17146531D01*
X7654777Y-17146531D02*
X7635729Y-17175103D01*
X7635729Y-17175103D02*
X7626206Y-17213198D01*
X7626206Y-17213198D02*
X7626206Y-17289389D01*
X7626206Y-17289389D02*
X7635729Y-17308436D01*
X7635729Y-17308436D02*
X7645253Y-17317960D01*
X7645253Y-17317960D02*
X7664301Y-17327484D01*
X7664301Y-17327484D02*
X7702396Y-17327484D01*
X7702396Y-17327484D02*
X7721444Y-17317960D01*
X7721444Y-17317960D02*
X7730967Y-17308436D01*
X7730967Y-17308436D02*
X7740491Y-17289389D01*
X7740491Y-17289389D02*
X7740491Y-17241770D01*
X7740491Y-17241770D02*
X7730967Y-17222722D01*
X7730967Y-17222722D02*
X7721444Y-17213198D01*
X7721444Y-17213198D02*
X7702396Y-17203674D01*
X7702396Y-17203674D02*
X7664301Y-17203674D01*
X7664301Y-17203674D02*
X7645253Y-17213198D01*
X7645253Y-17213198D02*
X7635729Y-17222722D01*
X7635729Y-17222722D02*
X7626206Y-17241770D01*
X7911920Y-17127484D02*
X7873825Y-17127484D01*
X7873825Y-17127484D02*
X7854777Y-17137008D01*
X7854777Y-17137008D02*
X7845253Y-17146531D01*
X7845253Y-17146531D02*
X7826206Y-17175103D01*
X7826206Y-17175103D02*
X7816682Y-17213198D01*
X7816682Y-17213198D02*
X7816682Y-17289389D01*
X7816682Y-17289389D02*
X7826206Y-17308436D01*
X7826206Y-17308436D02*
X7835729Y-17317960D01*
X7835729Y-17317960D02*
X7854777Y-17327484D01*
X7854777Y-17327484D02*
X7892872Y-17327484D01*
X7892872Y-17327484D02*
X7911920Y-17317960D01*
X7911920Y-17317960D02*
X7921444Y-17308436D01*
X7921444Y-17308436D02*
X7930967Y-17289389D01*
X7930967Y-17289389D02*
X7930967Y-17241770D01*
X7930967Y-17241770D02*
X7921444Y-17222722D01*
X7921444Y-17222722D02*
X7911920Y-17213198D01*
X7911920Y-17213198D02*
X7892872Y-17203674D01*
X7892872Y-17203674D02*
X7854777Y-17203674D01*
X7854777Y-17203674D02*
X7835729Y-17213198D01*
X7835729Y-17213198D02*
X7826206Y-17222722D01*
X7826206Y-17222722D02*
X7816682Y-17241770D01*
X8026206Y-17327484D02*
X8064301Y-17327484D01*
X8064301Y-17327484D02*
X8083348Y-17317960D01*
X8083348Y-17317960D02*
X8092872Y-17308436D01*
X8092872Y-17308436D02*
X8111920Y-17279865D01*
X8111920Y-17279865D02*
X8121444Y-17241770D01*
X8121444Y-17241770D02*
X8121444Y-17165579D01*
X8121444Y-17165579D02*
X8111920Y-17146531D01*
X8111920Y-17146531D02*
X8102396Y-17137008D01*
X8102396Y-17137008D02*
X8083348Y-17127484D01*
X8083348Y-17127484D02*
X8045253Y-17127484D01*
X8045253Y-17127484D02*
X8026206Y-17137008D01*
X8026206Y-17137008D02*
X8016682Y-17146531D01*
X8016682Y-17146531D02*
X8007158Y-17165579D01*
X8007158Y-17165579D02*
X8007158Y-17213198D01*
X8007158Y-17213198D02*
X8016682Y-17232246D01*
X8016682Y-17232246D02*
X8026206Y-17241770D01*
X8026206Y-17241770D02*
X8045253Y-17251293D01*
X8045253Y-17251293D02*
X8083348Y-17251293D01*
X8083348Y-17251293D02*
X8102396Y-17241770D01*
X8102396Y-17241770D02*
X8111920Y-17232246D01*
X8111920Y-17232246D02*
X8121444Y-17213198D01*
X8197634Y-17127484D02*
X8197634Y-17165579D01*
X8273825Y-17127484D02*
X8273825Y-17165579D01*
X8569063Y-17403674D02*
X8559539Y-17394150D01*
X8559539Y-17394150D02*
X8540491Y-17365579D01*
X8540491Y-17365579D02*
X8530968Y-17346531D01*
X8530968Y-17346531D02*
X8521444Y-17317960D01*
X8521444Y-17317960D02*
X8511920Y-17270341D01*
X8511920Y-17270341D02*
X8511920Y-17232246D01*
X8511920Y-17232246D02*
X8521444Y-17184627D01*
X8521444Y-17184627D02*
X8530968Y-17156055D01*
X8530968Y-17156055D02*
X8540491Y-17137008D01*
X8540491Y-17137008D02*
X8559539Y-17108436D01*
X8559539Y-17108436D02*
X8569063Y-17098912D01*
X8750015Y-17327484D02*
X8635730Y-17327484D01*
X8692872Y-17327484D02*
X8692872Y-17127484D01*
X8692872Y-17127484D02*
X8673825Y-17156055D01*
X8673825Y-17156055D02*
X8654777Y-17175103D01*
X8654777Y-17175103D02*
X8635730Y-17184627D01*
X8921444Y-17127484D02*
X8883349Y-17127484D01*
X8883349Y-17127484D02*
X8864301Y-17137008D01*
X8864301Y-17137008D02*
X8854777Y-17146531D01*
X8854777Y-17146531D02*
X8835730Y-17175103D01*
X8835730Y-17175103D02*
X8826206Y-17213198D01*
X8826206Y-17213198D02*
X8826206Y-17289389D01*
X8826206Y-17289389D02*
X8835730Y-17308436D01*
X8835730Y-17308436D02*
X8845253Y-17317960D01*
X8845253Y-17317960D02*
X8864301Y-17327484D01*
X8864301Y-17327484D02*
X8902396Y-17327484D01*
X8902396Y-17327484D02*
X8921444Y-17317960D01*
X8921444Y-17317960D02*
X8930968Y-17308436D01*
X8930968Y-17308436D02*
X8940491Y-17289389D01*
X8940491Y-17289389D02*
X8940491Y-17241770D01*
X8940491Y-17241770D02*
X8930968Y-17222722D01*
X8930968Y-17222722D02*
X8921444Y-17213198D01*
X8921444Y-17213198D02*
X8902396Y-17203674D01*
X8902396Y-17203674D02*
X8864301Y-17203674D01*
X8864301Y-17203674D02*
X8845253Y-17213198D01*
X8845253Y-17213198D02*
X8835730Y-17222722D01*
X8835730Y-17222722D02*
X8826206Y-17241770D01*
X9178587Y-17327484D02*
X9178587Y-17127484D01*
X9264301Y-17327484D02*
X9264301Y-17222722D01*
X9264301Y-17222722D02*
X9254777Y-17203674D01*
X9254777Y-17203674D02*
X9235730Y-17194150D01*
X9235730Y-17194150D02*
X9207158Y-17194150D01*
X9207158Y-17194150D02*
X9188111Y-17203674D01*
X9188111Y-17203674D02*
X9178587Y-17213198D01*
X9388111Y-17327484D02*
X9369063Y-17317960D01*
X9369063Y-17317960D02*
X9359539Y-17308436D01*
X9359539Y-17308436D02*
X9350015Y-17289389D01*
X9350015Y-17289389D02*
X9350015Y-17232246D01*
X9350015Y-17232246D02*
X9359539Y-17213198D01*
X9359539Y-17213198D02*
X9369063Y-17203674D01*
X9369063Y-17203674D02*
X9388111Y-17194150D01*
X9388111Y-17194150D02*
X9416682Y-17194150D01*
X9416682Y-17194150D02*
X9435730Y-17203674D01*
X9435730Y-17203674D02*
X9445253Y-17213198D01*
X9445253Y-17213198D02*
X9454777Y-17232246D01*
X9454777Y-17232246D02*
X9454777Y-17289389D01*
X9454777Y-17289389D02*
X9445253Y-17308436D01*
X9445253Y-17308436D02*
X9435730Y-17317960D01*
X9435730Y-17317960D02*
X9416682Y-17327484D01*
X9416682Y-17327484D02*
X9388111Y-17327484D01*
X9569063Y-17327484D02*
X9550015Y-17317960D01*
X9550015Y-17317960D02*
X9540492Y-17298912D01*
X9540492Y-17298912D02*
X9540492Y-17127484D01*
X9721444Y-17317960D02*
X9702396Y-17327484D01*
X9702396Y-17327484D02*
X9664301Y-17327484D01*
X9664301Y-17327484D02*
X9645253Y-17317960D01*
X9645253Y-17317960D02*
X9635730Y-17298912D01*
X9635730Y-17298912D02*
X9635730Y-17222722D01*
X9635730Y-17222722D02*
X9645253Y-17203674D01*
X9645253Y-17203674D02*
X9664301Y-17194150D01*
X9664301Y-17194150D02*
X9702396Y-17194150D01*
X9702396Y-17194150D02*
X9721444Y-17203674D01*
X9721444Y-17203674D02*
X9730968Y-17222722D01*
X9730968Y-17222722D02*
X9730968Y-17241770D01*
X9730968Y-17241770D02*
X9635730Y-17260817D01*
X9807158Y-17317960D02*
X9826206Y-17327484D01*
X9826206Y-17327484D02*
X9864301Y-17327484D01*
X9864301Y-17327484D02*
X9883349Y-17317960D01*
X9883349Y-17317960D02*
X9892873Y-17298912D01*
X9892873Y-17298912D02*
X9892873Y-17289389D01*
X9892873Y-17289389D02*
X9883349Y-17270341D01*
X9883349Y-17270341D02*
X9864301Y-17260817D01*
X9864301Y-17260817D02*
X9835730Y-17260817D01*
X9835730Y-17260817D02*
X9816682Y-17251293D01*
X9816682Y-17251293D02*
X9807158Y-17232246D01*
X9807158Y-17232246D02*
X9807158Y-17222722D01*
X9807158Y-17222722D02*
X9816682Y-17203674D01*
X9816682Y-17203674D02*
X9835730Y-17194150D01*
X9835730Y-17194150D02*
X9864301Y-17194150D01*
X9864301Y-17194150D02*
X9883349Y-17203674D01*
X9959539Y-17403674D02*
X9969063Y-17394150D01*
X9969063Y-17394150D02*
X9988111Y-17365579D01*
X9988111Y-17365579D02*
X9997634Y-17346531D01*
X9997634Y-17346531D02*
X10007158Y-17317960D01*
X10007158Y-17317960D02*
X10016682Y-17270341D01*
X10016682Y-17270341D02*
X10016682Y-17232246D01*
X10016682Y-17232246D02*
X10007158Y-17184627D01*
X10007158Y-17184627D02*
X9997634Y-17156055D01*
X9997634Y-17156055D02*
X9988111Y-17137008D01*
X9988111Y-17137008D02*
X9969063Y-17108436D01*
X9969063Y-17108436D02*
X9959539Y-17098912D01*
M02*
