%TF.GenerationSoftware,KiCad,Pcbnew,8.0.5-dirty*%
%TF.CreationDate,2024-10-02T03:35:21-04:00*%
%TF.ProjectId,LVDS_BeagleVFire_Cape,4c564453-5f42-4656-9167-6c6556466972,1*%
%TF.SameCoordinates,Original*%
%TF.FileFunction,Legend,Top*%
%TF.FilePolarity,Positive*%
%FSLAX46Y46*%
G04 Gerber Fmt 4.6, Leading zero omitted, Abs format (unit mm)*
G04 Created by KiCad (PCBNEW 8.0.5-dirty) date 2024-10-02 03:35:21*
%MOMM*%
%LPD*%
G01*
G04 APERTURE LIST*
%ADD10C,0.200000*%
%ADD11C,0.300000*%
%ADD12C,0.150000*%
%ADD13C,0.120000*%
%ADD14C,0.000000*%
%ADD15C,0.152400*%
%ADD16C,0.127000*%
G04 APERTURE END LIST*
D10*
X51000000Y-107500000D02*
X73250000Y-107500000D01*
X73250000Y-118000000D01*
X51000000Y-118000000D01*
X51000000Y-107500000D01*
G36*
X51000000Y-107500000D02*
G01*
X73250000Y-107500000D01*
X73250000Y-118000000D01*
X51000000Y-118000000D01*
X51000000Y-107500000D01*
G37*
D11*
X115050828Y-104945489D02*
X113550828Y-104945489D01*
X113550828Y-104945489D02*
X113550828Y-104374060D01*
X113550828Y-104374060D02*
X113622257Y-104231203D01*
X113622257Y-104231203D02*
X113693685Y-104159774D01*
X113693685Y-104159774D02*
X113836542Y-104088346D01*
X113836542Y-104088346D02*
X114050828Y-104088346D01*
X114050828Y-104088346D02*
X114193685Y-104159774D01*
X114193685Y-104159774D02*
X114265114Y-104231203D01*
X114265114Y-104231203D02*
X114336542Y-104374060D01*
X114336542Y-104374060D02*
X114336542Y-104945489D01*
X115050828Y-103231203D02*
X114979400Y-103374060D01*
X114979400Y-103374060D02*
X114907971Y-103445489D01*
X114907971Y-103445489D02*
X114765114Y-103516917D01*
X114765114Y-103516917D02*
X114336542Y-103516917D01*
X114336542Y-103516917D02*
X114193685Y-103445489D01*
X114193685Y-103445489D02*
X114122257Y-103374060D01*
X114122257Y-103374060D02*
X114050828Y-103231203D01*
X114050828Y-103231203D02*
X114050828Y-103016917D01*
X114050828Y-103016917D02*
X114122257Y-102874060D01*
X114122257Y-102874060D02*
X114193685Y-102802632D01*
X114193685Y-102802632D02*
X114336542Y-102731203D01*
X114336542Y-102731203D02*
X114765114Y-102731203D01*
X114765114Y-102731203D02*
X114907971Y-102802632D01*
X114907971Y-102802632D02*
X114979400Y-102874060D01*
X114979400Y-102874060D02*
X115050828Y-103016917D01*
X115050828Y-103016917D02*
X115050828Y-103231203D01*
X115050828Y-102088346D02*
X114050828Y-102088346D01*
X114336542Y-102088346D02*
X114193685Y-102016917D01*
X114193685Y-102016917D02*
X114122257Y-101945489D01*
X114122257Y-101945489D02*
X114050828Y-101802631D01*
X114050828Y-101802631D02*
X114050828Y-101659774D01*
X114050828Y-101374060D02*
X114050828Y-100802632D01*
X113550828Y-101159775D02*
X114836542Y-101159775D01*
X114836542Y-101159775D02*
X114979400Y-101088346D01*
X114979400Y-101088346D02*
X115050828Y-100945489D01*
X115050828Y-100945489D02*
X115050828Y-100802632D01*
X114265114Y-98659775D02*
X114336542Y-98445489D01*
X114336542Y-98445489D02*
X114407971Y-98374060D01*
X114407971Y-98374060D02*
X114550828Y-98302632D01*
X114550828Y-98302632D02*
X114765114Y-98302632D01*
X114765114Y-98302632D02*
X114907971Y-98374060D01*
X114907971Y-98374060D02*
X114979400Y-98445489D01*
X114979400Y-98445489D02*
X115050828Y-98588346D01*
X115050828Y-98588346D02*
X115050828Y-99159775D01*
X115050828Y-99159775D02*
X113550828Y-99159775D01*
X113550828Y-99159775D02*
X113550828Y-98659775D01*
X113550828Y-98659775D02*
X113622257Y-98516918D01*
X113622257Y-98516918D02*
X113693685Y-98445489D01*
X113693685Y-98445489D02*
X113836542Y-98374060D01*
X113836542Y-98374060D02*
X113979400Y-98374060D01*
X113979400Y-98374060D02*
X114122257Y-98445489D01*
X114122257Y-98445489D02*
X114193685Y-98516918D01*
X114193685Y-98516918D02*
X114265114Y-98659775D01*
X114265114Y-98659775D02*
X114265114Y-99159775D01*
X115550828Y-149195489D02*
X114050828Y-149195489D01*
X114050828Y-149195489D02*
X114050828Y-148624060D01*
X114050828Y-148624060D02*
X114122257Y-148481203D01*
X114122257Y-148481203D02*
X114193685Y-148409774D01*
X114193685Y-148409774D02*
X114336542Y-148338346D01*
X114336542Y-148338346D02*
X114550828Y-148338346D01*
X114550828Y-148338346D02*
X114693685Y-148409774D01*
X114693685Y-148409774D02*
X114765114Y-148481203D01*
X114765114Y-148481203D02*
X114836542Y-148624060D01*
X114836542Y-148624060D02*
X114836542Y-149195489D01*
X115550828Y-147481203D02*
X115479400Y-147624060D01*
X115479400Y-147624060D02*
X115407971Y-147695489D01*
X115407971Y-147695489D02*
X115265114Y-147766917D01*
X115265114Y-147766917D02*
X114836542Y-147766917D01*
X114836542Y-147766917D02*
X114693685Y-147695489D01*
X114693685Y-147695489D02*
X114622257Y-147624060D01*
X114622257Y-147624060D02*
X114550828Y-147481203D01*
X114550828Y-147481203D02*
X114550828Y-147266917D01*
X114550828Y-147266917D02*
X114622257Y-147124060D01*
X114622257Y-147124060D02*
X114693685Y-147052632D01*
X114693685Y-147052632D02*
X114836542Y-146981203D01*
X114836542Y-146981203D02*
X115265114Y-146981203D01*
X115265114Y-146981203D02*
X115407971Y-147052632D01*
X115407971Y-147052632D02*
X115479400Y-147124060D01*
X115479400Y-147124060D02*
X115550828Y-147266917D01*
X115550828Y-147266917D02*
X115550828Y-147481203D01*
X115550828Y-146338346D02*
X114550828Y-146338346D01*
X114836542Y-146338346D02*
X114693685Y-146266917D01*
X114693685Y-146266917D02*
X114622257Y-146195489D01*
X114622257Y-146195489D02*
X114550828Y-146052631D01*
X114550828Y-146052631D02*
X114550828Y-145909774D01*
X114550828Y-145624060D02*
X114550828Y-145052632D01*
X114050828Y-145409775D02*
X115336542Y-145409775D01*
X115336542Y-145409775D02*
X115479400Y-145338346D01*
X115479400Y-145338346D02*
X115550828Y-145195489D01*
X115550828Y-145195489D02*
X115550828Y-145052632D01*
X115122257Y-143481203D02*
X115122257Y-142766918D01*
X115550828Y-143624060D02*
X114050828Y-143124060D01*
X114050828Y-143124060D02*
X115550828Y-142624060D01*
X111856900Y-103250000D02*
X111856900Y-102107143D01*
X112428328Y-102678571D02*
X111285471Y-102678571D01*
X111856900Y-101392857D02*
X111856900Y-100250000D01*
X111856900Y-147500000D02*
X111856900Y-146357143D01*
X112428328Y-146928571D02*
X111285471Y-146928571D01*
X111856900Y-145642857D02*
X111856900Y-144500000D01*
X53500000Y-139513412D02*
X54357143Y-139513412D01*
X53928571Y-141013412D02*
X53928571Y-139513412D01*
X54857142Y-141013412D02*
X54857142Y-139513412D01*
X54857142Y-139513412D02*
X55214285Y-139513412D01*
X55214285Y-139513412D02*
X55428571Y-139584841D01*
X55428571Y-139584841D02*
X55571428Y-139727698D01*
X55571428Y-139727698D02*
X55642857Y-139870555D01*
X55642857Y-139870555D02*
X55714285Y-140156269D01*
X55714285Y-140156269D02*
X55714285Y-140370555D01*
X55714285Y-140370555D02*
X55642857Y-140656269D01*
X55642857Y-140656269D02*
X55571428Y-140799126D01*
X55571428Y-140799126D02*
X55428571Y-140941984D01*
X55428571Y-140941984D02*
X55214285Y-141013412D01*
X55214285Y-141013412D02*
X54857142Y-141013412D01*
X57214285Y-140870555D02*
X57142857Y-140941984D01*
X57142857Y-140941984D02*
X56928571Y-141013412D01*
X56928571Y-141013412D02*
X56785714Y-141013412D01*
X56785714Y-141013412D02*
X56571428Y-140941984D01*
X56571428Y-140941984D02*
X56428571Y-140799126D01*
X56428571Y-140799126D02*
X56357142Y-140656269D01*
X56357142Y-140656269D02*
X56285714Y-140370555D01*
X56285714Y-140370555D02*
X56285714Y-140156269D01*
X56285714Y-140156269D02*
X56357142Y-139870555D01*
X56357142Y-139870555D02*
X56428571Y-139727698D01*
X56428571Y-139727698D02*
X56571428Y-139584841D01*
X56571428Y-139584841D02*
X56785714Y-139513412D01*
X56785714Y-139513412D02*
X56928571Y-139513412D01*
X56928571Y-139513412D02*
X57142857Y-139584841D01*
X57142857Y-139584841D02*
X57214285Y-139656269D01*
X59857142Y-140870555D02*
X59785714Y-140941984D01*
X59785714Y-140941984D02*
X59571428Y-141013412D01*
X59571428Y-141013412D02*
X59428571Y-141013412D01*
X59428571Y-141013412D02*
X59214285Y-140941984D01*
X59214285Y-140941984D02*
X59071428Y-140799126D01*
X59071428Y-140799126D02*
X58999999Y-140656269D01*
X58999999Y-140656269D02*
X58928571Y-140370555D01*
X58928571Y-140370555D02*
X58928571Y-140156269D01*
X58928571Y-140156269D02*
X58999999Y-139870555D01*
X58999999Y-139870555D02*
X59071428Y-139727698D01*
X59071428Y-139727698D02*
X59214285Y-139584841D01*
X59214285Y-139584841D02*
X59428571Y-139513412D01*
X59428571Y-139513412D02*
X59571428Y-139513412D01*
X59571428Y-139513412D02*
X59785714Y-139584841D01*
X59785714Y-139584841D02*
X59857142Y-139656269D01*
X61142857Y-141013412D02*
X61142857Y-140227698D01*
X61142857Y-140227698D02*
X61071428Y-140084841D01*
X61071428Y-140084841D02*
X60928571Y-140013412D01*
X60928571Y-140013412D02*
X60642857Y-140013412D01*
X60642857Y-140013412D02*
X60499999Y-140084841D01*
X61142857Y-140941984D02*
X60999999Y-141013412D01*
X60999999Y-141013412D02*
X60642857Y-141013412D01*
X60642857Y-141013412D02*
X60499999Y-140941984D01*
X60499999Y-140941984D02*
X60428571Y-140799126D01*
X60428571Y-140799126D02*
X60428571Y-140656269D01*
X60428571Y-140656269D02*
X60499999Y-140513412D01*
X60499999Y-140513412D02*
X60642857Y-140441984D01*
X60642857Y-140441984D02*
X60999999Y-140441984D01*
X60999999Y-140441984D02*
X61142857Y-140370555D01*
X61857142Y-140013412D02*
X61857142Y-141513412D01*
X61857142Y-140084841D02*
X62000000Y-140013412D01*
X62000000Y-140013412D02*
X62285714Y-140013412D01*
X62285714Y-140013412D02*
X62428571Y-140084841D01*
X62428571Y-140084841D02*
X62500000Y-140156269D01*
X62500000Y-140156269D02*
X62571428Y-140299126D01*
X62571428Y-140299126D02*
X62571428Y-140727698D01*
X62571428Y-140727698D02*
X62500000Y-140870555D01*
X62500000Y-140870555D02*
X62428571Y-140941984D01*
X62428571Y-140941984D02*
X62285714Y-141013412D01*
X62285714Y-141013412D02*
X62000000Y-141013412D01*
X62000000Y-141013412D02*
X61857142Y-140941984D01*
X63785714Y-140941984D02*
X63642857Y-141013412D01*
X63642857Y-141013412D02*
X63357143Y-141013412D01*
X63357143Y-141013412D02*
X63214285Y-140941984D01*
X63214285Y-140941984D02*
X63142857Y-140799126D01*
X63142857Y-140799126D02*
X63142857Y-140227698D01*
X63142857Y-140227698D02*
X63214285Y-140084841D01*
X63214285Y-140084841D02*
X63357143Y-140013412D01*
X63357143Y-140013412D02*
X63642857Y-140013412D01*
X63642857Y-140013412D02*
X63785714Y-140084841D01*
X63785714Y-140084841D02*
X63857143Y-140227698D01*
X63857143Y-140227698D02*
X63857143Y-140370555D01*
X63857143Y-140370555D02*
X63142857Y-140513412D01*
X53464285Y-143356900D02*
X53678571Y-143428328D01*
X53678571Y-143428328D02*
X54035713Y-143428328D01*
X54035713Y-143428328D02*
X54178571Y-143356900D01*
X54178571Y-143356900D02*
X54249999Y-143285471D01*
X54249999Y-143285471D02*
X54321428Y-143142614D01*
X54321428Y-143142614D02*
X54321428Y-142999757D01*
X54321428Y-142999757D02*
X54249999Y-142856900D01*
X54249999Y-142856900D02*
X54178571Y-142785471D01*
X54178571Y-142785471D02*
X54035713Y-142714042D01*
X54035713Y-142714042D02*
X53749999Y-142642614D01*
X53749999Y-142642614D02*
X53607142Y-142571185D01*
X53607142Y-142571185D02*
X53535713Y-142499757D01*
X53535713Y-142499757D02*
X53464285Y-142356900D01*
X53464285Y-142356900D02*
X53464285Y-142214042D01*
X53464285Y-142214042D02*
X53535713Y-142071185D01*
X53535713Y-142071185D02*
X53607142Y-141999757D01*
X53607142Y-141999757D02*
X53749999Y-141928328D01*
X53749999Y-141928328D02*
X54107142Y-141928328D01*
X54107142Y-141928328D02*
X54321428Y-141999757D01*
X54964284Y-142428328D02*
X54964284Y-143928328D01*
X54964284Y-142499757D02*
X55107142Y-142428328D01*
X55107142Y-142428328D02*
X55392856Y-142428328D01*
X55392856Y-142428328D02*
X55535713Y-142499757D01*
X55535713Y-142499757D02*
X55607142Y-142571185D01*
X55607142Y-142571185D02*
X55678570Y-142714042D01*
X55678570Y-142714042D02*
X55678570Y-143142614D01*
X55678570Y-143142614D02*
X55607142Y-143285471D01*
X55607142Y-143285471D02*
X55535713Y-143356900D01*
X55535713Y-143356900D02*
X55392856Y-143428328D01*
X55392856Y-143428328D02*
X55107142Y-143428328D01*
X55107142Y-143428328D02*
X54964284Y-143356900D01*
X56321427Y-143428328D02*
X56321427Y-142428328D01*
X56321427Y-141928328D02*
X56249999Y-141999757D01*
X56249999Y-141999757D02*
X56321427Y-142071185D01*
X56321427Y-142071185D02*
X56392856Y-141999757D01*
X56392856Y-141999757D02*
X56321427Y-141928328D01*
X56321427Y-141928328D02*
X56321427Y-142071185D01*
X57035713Y-142428328D02*
X57035713Y-143428328D01*
X57035713Y-142571185D02*
X57107142Y-142499757D01*
X57107142Y-142499757D02*
X57249999Y-142428328D01*
X57249999Y-142428328D02*
X57464285Y-142428328D01*
X57464285Y-142428328D02*
X57607142Y-142499757D01*
X57607142Y-142499757D02*
X57678571Y-142642614D01*
X57678571Y-142642614D02*
X57678571Y-143428328D01*
X59392856Y-143571185D02*
X59249999Y-143499757D01*
X59249999Y-143499757D02*
X59107142Y-143356900D01*
X59107142Y-143356900D02*
X58892856Y-143142614D01*
X58892856Y-143142614D02*
X58749999Y-143071185D01*
X58749999Y-143071185D02*
X58607142Y-143071185D01*
X58678571Y-143428328D02*
X58535714Y-143356900D01*
X58535714Y-143356900D02*
X58392856Y-143214042D01*
X58392856Y-143214042D02*
X58321428Y-142928328D01*
X58321428Y-142928328D02*
X58321428Y-142428328D01*
X58321428Y-142428328D02*
X58392856Y-142142614D01*
X58392856Y-142142614D02*
X58535714Y-141999757D01*
X58535714Y-141999757D02*
X58678571Y-141928328D01*
X58678571Y-141928328D02*
X58964285Y-141928328D01*
X58964285Y-141928328D02*
X59107142Y-141999757D01*
X59107142Y-141999757D02*
X59249999Y-142142614D01*
X59249999Y-142142614D02*
X59321428Y-142428328D01*
X59321428Y-142428328D02*
X59321428Y-142928328D01*
X59321428Y-142928328D02*
X59249999Y-143214042D01*
X59249999Y-143214042D02*
X59107142Y-143356900D01*
X59107142Y-143356900D02*
X58964285Y-143428328D01*
X58964285Y-143428328D02*
X58678571Y-143428328D01*
X60607143Y-142428328D02*
X60607143Y-143428328D01*
X59964285Y-142428328D02*
X59964285Y-143214042D01*
X59964285Y-143214042D02*
X60035714Y-143356900D01*
X60035714Y-143356900D02*
X60178571Y-143428328D01*
X60178571Y-143428328D02*
X60392857Y-143428328D01*
X60392857Y-143428328D02*
X60535714Y-143356900D01*
X60535714Y-143356900D02*
X60607143Y-143285471D01*
X61892857Y-143356900D02*
X61750000Y-143428328D01*
X61750000Y-143428328D02*
X61464286Y-143428328D01*
X61464286Y-143428328D02*
X61321428Y-143356900D01*
X61321428Y-143356900D02*
X61250000Y-143214042D01*
X61250000Y-143214042D02*
X61250000Y-142642614D01*
X61250000Y-142642614D02*
X61321428Y-142499757D01*
X61321428Y-142499757D02*
X61464286Y-142428328D01*
X61464286Y-142428328D02*
X61750000Y-142428328D01*
X61750000Y-142428328D02*
X61892857Y-142499757D01*
X61892857Y-142499757D02*
X61964286Y-142642614D01*
X61964286Y-142642614D02*
X61964286Y-142785471D01*
X61964286Y-142785471D02*
X61250000Y-142928328D01*
X62535714Y-143356900D02*
X62678571Y-143428328D01*
X62678571Y-143428328D02*
X62964285Y-143428328D01*
X62964285Y-143428328D02*
X63107142Y-143356900D01*
X63107142Y-143356900D02*
X63178571Y-143214042D01*
X63178571Y-143214042D02*
X63178571Y-143142614D01*
X63178571Y-143142614D02*
X63107142Y-142999757D01*
X63107142Y-142999757D02*
X62964285Y-142928328D01*
X62964285Y-142928328D02*
X62750000Y-142928328D01*
X62750000Y-142928328D02*
X62607142Y-142856900D01*
X62607142Y-142856900D02*
X62535714Y-142714042D01*
X62535714Y-142714042D02*
X62535714Y-142642614D01*
X62535714Y-142642614D02*
X62607142Y-142499757D01*
X62607142Y-142499757D02*
X62750000Y-142428328D01*
X62750000Y-142428328D02*
X62964285Y-142428328D01*
X62964285Y-142428328D02*
X63107142Y-142499757D01*
X63607143Y-142428328D02*
X64178571Y-142428328D01*
X63821428Y-141928328D02*
X63821428Y-143214042D01*
X63821428Y-143214042D02*
X63892857Y-143356900D01*
X63892857Y-143356900D02*
X64035714Y-143428328D01*
X64035714Y-143428328D02*
X64178571Y-143428328D01*
X57535715Y-144343244D02*
X58035715Y-145843244D01*
X58035715Y-145843244D02*
X58535715Y-144343244D01*
X59821429Y-145843244D02*
X58964286Y-145843244D01*
X59392857Y-145843244D02*
X59392857Y-144343244D01*
X59392857Y-144343244D02*
X59250000Y-144557530D01*
X59250000Y-144557530D02*
X59107143Y-144700387D01*
X59107143Y-144700387D02*
X58964286Y-144771816D01*
D12*
X119954819Y-60333333D02*
X120669104Y-60333333D01*
X120669104Y-60333333D02*
X120811961Y-60380952D01*
X120811961Y-60380952D02*
X120907200Y-60476190D01*
X120907200Y-60476190D02*
X120954819Y-60619047D01*
X120954819Y-60619047D02*
X120954819Y-60714285D01*
X120954819Y-59809523D02*
X120954819Y-59619047D01*
X120954819Y-59619047D02*
X120907200Y-59523809D01*
X120907200Y-59523809D02*
X120859580Y-59476190D01*
X120859580Y-59476190D02*
X120716723Y-59380952D01*
X120716723Y-59380952D02*
X120526247Y-59333333D01*
X120526247Y-59333333D02*
X120145295Y-59333333D01*
X120145295Y-59333333D02*
X120050057Y-59380952D01*
X120050057Y-59380952D02*
X120002438Y-59428571D01*
X120002438Y-59428571D02*
X119954819Y-59523809D01*
X119954819Y-59523809D02*
X119954819Y-59714285D01*
X119954819Y-59714285D02*
X120002438Y-59809523D01*
X120002438Y-59809523D02*
X120050057Y-59857142D01*
X120050057Y-59857142D02*
X120145295Y-59904761D01*
X120145295Y-59904761D02*
X120383390Y-59904761D01*
X120383390Y-59904761D02*
X120478628Y-59857142D01*
X120478628Y-59857142D02*
X120526247Y-59809523D01*
X120526247Y-59809523D02*
X120573866Y-59714285D01*
X120573866Y-59714285D02*
X120573866Y-59523809D01*
X120573866Y-59523809D02*
X120526247Y-59428571D01*
X120526247Y-59428571D02*
X120478628Y-59380952D01*
X120478628Y-59380952D02*
X120383390Y-59333333D01*
X49954819Y-60809523D02*
X50669104Y-60809523D01*
X50669104Y-60809523D02*
X50811961Y-60857142D01*
X50811961Y-60857142D02*
X50907200Y-60952380D01*
X50907200Y-60952380D02*
X50954819Y-61095237D01*
X50954819Y-61095237D02*
X50954819Y-61190475D01*
X50954819Y-59809523D02*
X50954819Y-60380951D01*
X50954819Y-60095237D02*
X49954819Y-60095237D01*
X49954819Y-60095237D02*
X50097676Y-60190475D01*
X50097676Y-60190475D02*
X50192914Y-60285713D01*
X50192914Y-60285713D02*
X50240533Y-60380951D01*
X50050057Y-59428570D02*
X50002438Y-59380951D01*
X50002438Y-59380951D02*
X49954819Y-59285713D01*
X49954819Y-59285713D02*
X49954819Y-59047618D01*
X49954819Y-59047618D02*
X50002438Y-58952380D01*
X50002438Y-58952380D02*
X50050057Y-58904761D01*
X50050057Y-58904761D02*
X50145295Y-58857142D01*
X50145295Y-58857142D02*
X50240533Y-58857142D01*
X50240533Y-58857142D02*
X50383390Y-58904761D01*
X50383390Y-58904761D02*
X50954819Y-59476189D01*
X50954819Y-59476189D02*
X50954819Y-58857142D01*
X79954819Y-60809523D02*
X80669104Y-60809523D01*
X80669104Y-60809523D02*
X80811961Y-60857142D01*
X80811961Y-60857142D02*
X80907200Y-60952380D01*
X80907200Y-60952380D02*
X80954819Y-61095237D01*
X80954819Y-61095237D02*
X80954819Y-61190475D01*
X80954819Y-59809523D02*
X80954819Y-60380951D01*
X80954819Y-60095237D02*
X79954819Y-60095237D01*
X79954819Y-60095237D02*
X80097676Y-60190475D01*
X80097676Y-60190475D02*
X80192914Y-60285713D01*
X80192914Y-60285713D02*
X80240533Y-60380951D01*
X80954819Y-58857142D02*
X80954819Y-59428570D01*
X80954819Y-59142856D02*
X79954819Y-59142856D01*
X79954819Y-59142856D02*
X80097676Y-59238094D01*
X80097676Y-59238094D02*
X80192914Y-59333332D01*
X80192914Y-59333332D02*
X80240533Y-59428570D01*
X89954819Y-60809523D02*
X90669104Y-60809523D01*
X90669104Y-60809523D02*
X90811961Y-60857142D01*
X90811961Y-60857142D02*
X90907200Y-60952380D01*
X90907200Y-60952380D02*
X90954819Y-61095237D01*
X90954819Y-61095237D02*
X90954819Y-61190475D01*
X90954819Y-59809523D02*
X90954819Y-60380951D01*
X90954819Y-60095237D02*
X89954819Y-60095237D01*
X89954819Y-60095237D02*
X90097676Y-60190475D01*
X90097676Y-60190475D02*
X90192914Y-60285713D01*
X90192914Y-60285713D02*
X90240533Y-60380951D01*
X89954819Y-59190475D02*
X89954819Y-59095237D01*
X89954819Y-59095237D02*
X90002438Y-58999999D01*
X90002438Y-58999999D02*
X90050057Y-58952380D01*
X90050057Y-58952380D02*
X90145295Y-58904761D01*
X90145295Y-58904761D02*
X90335771Y-58857142D01*
X90335771Y-58857142D02*
X90573866Y-58857142D01*
X90573866Y-58857142D02*
X90764342Y-58904761D01*
X90764342Y-58904761D02*
X90859580Y-58952380D01*
X90859580Y-58952380D02*
X90907200Y-58999999D01*
X90907200Y-58999999D02*
X90954819Y-59095237D01*
X90954819Y-59095237D02*
X90954819Y-59190475D01*
X90954819Y-59190475D02*
X90907200Y-59285713D01*
X90907200Y-59285713D02*
X90859580Y-59333332D01*
X90859580Y-59333332D02*
X90764342Y-59380951D01*
X90764342Y-59380951D02*
X90573866Y-59428570D01*
X90573866Y-59428570D02*
X90335771Y-59428570D01*
X90335771Y-59428570D02*
X90145295Y-59380951D01*
X90145295Y-59380951D02*
X90050057Y-59333332D01*
X90050057Y-59333332D02*
X90002438Y-59285713D01*
X90002438Y-59285713D02*
X89954819Y-59190475D01*
X61954819Y-76613094D02*
X60954819Y-76613094D01*
X60954819Y-76613094D02*
X60954819Y-76232142D01*
X60954819Y-76232142D02*
X61002438Y-76136904D01*
X61002438Y-76136904D02*
X61050057Y-76089285D01*
X61050057Y-76089285D02*
X61145295Y-76041666D01*
X61145295Y-76041666D02*
X61288152Y-76041666D01*
X61288152Y-76041666D02*
X61383390Y-76089285D01*
X61383390Y-76089285D02*
X61431009Y-76136904D01*
X61431009Y-76136904D02*
X61478628Y-76232142D01*
X61478628Y-76232142D02*
X61478628Y-76613094D01*
X61050057Y-75660713D02*
X61002438Y-75613094D01*
X61002438Y-75613094D02*
X60954819Y-75517856D01*
X60954819Y-75517856D02*
X60954819Y-75279761D01*
X60954819Y-75279761D02*
X61002438Y-75184523D01*
X61002438Y-75184523D02*
X61050057Y-75136904D01*
X61050057Y-75136904D02*
X61145295Y-75089285D01*
X61145295Y-75089285D02*
X61240533Y-75089285D01*
X61240533Y-75089285D02*
X61383390Y-75136904D01*
X61383390Y-75136904D02*
X61954819Y-75708332D01*
X61954819Y-75708332D02*
X61954819Y-75089285D01*
X61954819Y-124873094D02*
X60954819Y-124873094D01*
X60954819Y-124873094D02*
X60954819Y-124492142D01*
X60954819Y-124492142D02*
X61002438Y-124396904D01*
X61002438Y-124396904D02*
X61050057Y-124349285D01*
X61050057Y-124349285D02*
X61145295Y-124301666D01*
X61145295Y-124301666D02*
X61288152Y-124301666D01*
X61288152Y-124301666D02*
X61383390Y-124349285D01*
X61383390Y-124349285D02*
X61431009Y-124396904D01*
X61431009Y-124396904D02*
X61478628Y-124492142D01*
X61478628Y-124492142D02*
X61478628Y-124873094D01*
X61954819Y-123349285D02*
X61954819Y-123920713D01*
X61954819Y-123634999D02*
X60954819Y-123634999D01*
X60954819Y-123634999D02*
X61097676Y-123730237D01*
X61097676Y-123730237D02*
X61192914Y-123825475D01*
X61192914Y-123825475D02*
X61240533Y-123920713D01*
X96289579Y-114692855D02*
X96337199Y-114740474D01*
X96337199Y-114740474D02*
X96384818Y-114883331D01*
X96384818Y-114883331D02*
X96384818Y-114978569D01*
X96384818Y-114978569D02*
X96337199Y-115121426D01*
X96337199Y-115121426D02*
X96241960Y-115216664D01*
X96241960Y-115216664D02*
X96146722Y-115264283D01*
X96146722Y-115264283D02*
X95956246Y-115311902D01*
X95956246Y-115311902D02*
X95813389Y-115311902D01*
X95813389Y-115311902D02*
X95622913Y-115264283D01*
X95622913Y-115264283D02*
X95527675Y-115216664D01*
X95527675Y-115216664D02*
X95432437Y-115121426D01*
X95432437Y-115121426D02*
X95384818Y-114978569D01*
X95384818Y-114978569D02*
X95384818Y-114883331D01*
X95384818Y-114883331D02*
X95432437Y-114740474D01*
X95432437Y-114740474D02*
X95480056Y-114692855D01*
X96384818Y-113740474D02*
X96384818Y-114311902D01*
X96384818Y-114026188D02*
X95384818Y-114026188D01*
X95384818Y-114026188D02*
X95527675Y-114121426D01*
X95527675Y-114121426D02*
X95622913Y-114216664D01*
X95622913Y-114216664D02*
X95670532Y-114311902D01*
X95480056Y-113359521D02*
X95432437Y-113311902D01*
X95432437Y-113311902D02*
X95384818Y-113216664D01*
X95384818Y-113216664D02*
X95384818Y-112978569D01*
X95384818Y-112978569D02*
X95432437Y-112883331D01*
X95432437Y-112883331D02*
X95480056Y-112835712D01*
X95480056Y-112835712D02*
X95575294Y-112788093D01*
X95575294Y-112788093D02*
X95670532Y-112788093D01*
X95670532Y-112788093D02*
X95813389Y-112835712D01*
X95813389Y-112835712D02*
X96384818Y-113407140D01*
X96384818Y-113407140D02*
X96384818Y-112788093D01*
X84884818Y-116288092D02*
X85694341Y-116288092D01*
X85694341Y-116288092D02*
X85789579Y-116240473D01*
X85789579Y-116240473D02*
X85837199Y-116192854D01*
X85837199Y-116192854D02*
X85884818Y-116097616D01*
X85884818Y-116097616D02*
X85884818Y-115907140D01*
X85884818Y-115907140D02*
X85837199Y-115811902D01*
X85837199Y-115811902D02*
X85789579Y-115764283D01*
X85789579Y-115764283D02*
X85694341Y-115716664D01*
X85694341Y-115716664D02*
X84884818Y-115716664D01*
X85884818Y-114716664D02*
X85884818Y-115288092D01*
X85884818Y-115002378D02*
X84884818Y-115002378D01*
X84884818Y-115002378D02*
X85027675Y-115097616D01*
X85027675Y-115097616D02*
X85122913Y-115192854D01*
X85122913Y-115192854D02*
X85170532Y-115288092D01*
X84884818Y-114097616D02*
X84884818Y-114002378D01*
X84884818Y-114002378D02*
X84932437Y-113907140D01*
X84932437Y-113907140D02*
X84980056Y-113859521D01*
X84980056Y-113859521D02*
X85075294Y-113811902D01*
X85075294Y-113811902D02*
X85265770Y-113764283D01*
X85265770Y-113764283D02*
X85503865Y-113764283D01*
X85503865Y-113764283D02*
X85694341Y-113811902D01*
X85694341Y-113811902D02*
X85789579Y-113859521D01*
X85789579Y-113859521D02*
X85837199Y-113907140D01*
X85837199Y-113907140D02*
X85884818Y-114002378D01*
X85884818Y-114002378D02*
X85884818Y-114097616D01*
X85884818Y-114097616D02*
X85837199Y-114192854D01*
X85837199Y-114192854D02*
X85789579Y-114240473D01*
X85789579Y-114240473D02*
X85694341Y-114288092D01*
X85694341Y-114288092D02*
X85503865Y-114335711D01*
X85503865Y-114335711D02*
X85265770Y-114335711D01*
X85265770Y-114335711D02*
X85075294Y-114288092D01*
X85075294Y-114288092D02*
X84980056Y-114240473D01*
X84980056Y-114240473D02*
X84932437Y-114192854D01*
X84932437Y-114192854D02*
X84884818Y-114097616D01*
X70899819Y-133887799D02*
X71137914Y-133887799D01*
X71042676Y-134125894D02*
X71137914Y-133887799D01*
X71137914Y-133887799D02*
X71042676Y-133649704D01*
X71328390Y-134030656D02*
X71137914Y-133887799D01*
X71137914Y-133887799D02*
X71328390Y-133744942D01*
X83333333Y-84449580D02*
X83285714Y-84497200D01*
X83285714Y-84497200D02*
X83142857Y-84544819D01*
X83142857Y-84544819D02*
X83047619Y-84544819D01*
X83047619Y-84544819D02*
X82904762Y-84497200D01*
X82904762Y-84497200D02*
X82809524Y-84401961D01*
X82809524Y-84401961D02*
X82761905Y-84306723D01*
X82761905Y-84306723D02*
X82714286Y-84116247D01*
X82714286Y-84116247D02*
X82714286Y-83973390D01*
X82714286Y-83973390D02*
X82761905Y-83782914D01*
X82761905Y-83782914D02*
X82809524Y-83687676D01*
X82809524Y-83687676D02*
X82904762Y-83592438D01*
X82904762Y-83592438D02*
X83047619Y-83544819D01*
X83047619Y-83544819D02*
X83142857Y-83544819D01*
X83142857Y-83544819D02*
X83285714Y-83592438D01*
X83285714Y-83592438D02*
X83333333Y-83640057D01*
X84190476Y-83544819D02*
X84000000Y-83544819D01*
X84000000Y-83544819D02*
X83904762Y-83592438D01*
X83904762Y-83592438D02*
X83857143Y-83640057D01*
X83857143Y-83640057D02*
X83761905Y-83782914D01*
X83761905Y-83782914D02*
X83714286Y-83973390D01*
X83714286Y-83973390D02*
X83714286Y-84354342D01*
X83714286Y-84354342D02*
X83761905Y-84449580D01*
X83761905Y-84449580D02*
X83809524Y-84497200D01*
X83809524Y-84497200D02*
X83904762Y-84544819D01*
X83904762Y-84544819D02*
X84095238Y-84544819D01*
X84095238Y-84544819D02*
X84190476Y-84497200D01*
X84190476Y-84497200D02*
X84238095Y-84449580D01*
X84238095Y-84449580D02*
X84285714Y-84354342D01*
X84285714Y-84354342D02*
X84285714Y-84116247D01*
X84285714Y-84116247D02*
X84238095Y-84021009D01*
X84238095Y-84021009D02*
X84190476Y-83973390D01*
X84190476Y-83973390D02*
X84095238Y-83925771D01*
X84095238Y-83925771D02*
X83904762Y-83925771D01*
X83904762Y-83925771D02*
X83809524Y-83973390D01*
X83809524Y-83973390D02*
X83761905Y-84021009D01*
X83761905Y-84021009D02*
X83714286Y-84116247D01*
X102083333Y-66374819D02*
X101750000Y-65898628D01*
X101511905Y-66374819D02*
X101511905Y-65374819D01*
X101511905Y-65374819D02*
X101892857Y-65374819D01*
X101892857Y-65374819D02*
X101988095Y-65422438D01*
X101988095Y-65422438D02*
X102035714Y-65470057D01*
X102035714Y-65470057D02*
X102083333Y-65565295D01*
X102083333Y-65565295D02*
X102083333Y-65708152D01*
X102083333Y-65708152D02*
X102035714Y-65803390D01*
X102035714Y-65803390D02*
X101988095Y-65851009D01*
X101988095Y-65851009D02*
X101892857Y-65898628D01*
X101892857Y-65898628D02*
X101511905Y-65898628D01*
X102464286Y-65470057D02*
X102511905Y-65422438D01*
X102511905Y-65422438D02*
X102607143Y-65374819D01*
X102607143Y-65374819D02*
X102845238Y-65374819D01*
X102845238Y-65374819D02*
X102940476Y-65422438D01*
X102940476Y-65422438D02*
X102988095Y-65470057D01*
X102988095Y-65470057D02*
X103035714Y-65565295D01*
X103035714Y-65565295D02*
X103035714Y-65660533D01*
X103035714Y-65660533D02*
X102988095Y-65803390D01*
X102988095Y-65803390D02*
X102416667Y-66374819D01*
X102416667Y-66374819D02*
X103035714Y-66374819D01*
X82954819Y-90511904D02*
X83764342Y-90511904D01*
X83764342Y-90511904D02*
X83859580Y-90464285D01*
X83859580Y-90464285D02*
X83907200Y-90416666D01*
X83907200Y-90416666D02*
X83954819Y-90321428D01*
X83954819Y-90321428D02*
X83954819Y-90130952D01*
X83954819Y-90130952D02*
X83907200Y-90035714D01*
X83907200Y-90035714D02*
X83859580Y-89988095D01*
X83859580Y-89988095D02*
X83764342Y-89940476D01*
X83764342Y-89940476D02*
X82954819Y-89940476D01*
X82954819Y-89035714D02*
X82954819Y-89226190D01*
X82954819Y-89226190D02*
X83002438Y-89321428D01*
X83002438Y-89321428D02*
X83050057Y-89369047D01*
X83050057Y-89369047D02*
X83192914Y-89464285D01*
X83192914Y-89464285D02*
X83383390Y-89511904D01*
X83383390Y-89511904D02*
X83764342Y-89511904D01*
X83764342Y-89511904D02*
X83859580Y-89464285D01*
X83859580Y-89464285D02*
X83907200Y-89416666D01*
X83907200Y-89416666D02*
X83954819Y-89321428D01*
X83954819Y-89321428D02*
X83954819Y-89130952D01*
X83954819Y-89130952D02*
X83907200Y-89035714D01*
X83907200Y-89035714D02*
X83859580Y-88988095D01*
X83859580Y-88988095D02*
X83764342Y-88940476D01*
X83764342Y-88940476D02*
X83526247Y-88940476D01*
X83526247Y-88940476D02*
X83431009Y-88988095D01*
X83431009Y-88988095D02*
X83383390Y-89035714D01*
X83383390Y-89035714D02*
X83335771Y-89130952D01*
X83335771Y-89130952D02*
X83335771Y-89321428D01*
X83335771Y-89321428D02*
X83383390Y-89416666D01*
X83383390Y-89416666D02*
X83431009Y-89464285D01*
X83431009Y-89464285D02*
X83526247Y-89511904D01*
X126916666Y-64404819D02*
X126916666Y-65119104D01*
X126916666Y-65119104D02*
X126869047Y-65261961D01*
X126869047Y-65261961D02*
X126773809Y-65357200D01*
X126773809Y-65357200D02*
X126630952Y-65404819D01*
X126630952Y-65404819D02*
X126535714Y-65404819D01*
X127392857Y-65404819D02*
X127392857Y-64404819D01*
X127392857Y-64404819D02*
X127773809Y-64404819D01*
X127773809Y-64404819D02*
X127869047Y-64452438D01*
X127869047Y-64452438D02*
X127916666Y-64500057D01*
X127916666Y-64500057D02*
X127964285Y-64595295D01*
X127964285Y-64595295D02*
X127964285Y-64738152D01*
X127964285Y-64738152D02*
X127916666Y-64833390D01*
X127916666Y-64833390D02*
X127869047Y-64881009D01*
X127869047Y-64881009D02*
X127773809Y-64928628D01*
X127773809Y-64928628D02*
X127392857Y-64928628D01*
X128916666Y-65404819D02*
X128345238Y-65404819D01*
X128630952Y-65404819D02*
X128630952Y-64404819D01*
X128630952Y-64404819D02*
X128535714Y-64547676D01*
X128535714Y-64547676D02*
X128440476Y-64642914D01*
X128440476Y-64642914D02*
X128345238Y-64690533D01*
X68069819Y-146201133D02*
X68784104Y-146201133D01*
X68784104Y-146201133D02*
X68926961Y-146248752D01*
X68926961Y-146248752D02*
X69022200Y-146343990D01*
X69022200Y-146343990D02*
X69069819Y-146486847D01*
X69069819Y-146486847D02*
X69069819Y-146582085D01*
X69069819Y-145201133D02*
X69069819Y-145772561D01*
X69069819Y-145486847D02*
X68069819Y-145486847D01*
X68069819Y-145486847D02*
X68212676Y-145582085D01*
X68212676Y-145582085D02*
X68307914Y-145677323D01*
X68307914Y-145677323D02*
X68355533Y-145772561D01*
X89289579Y-114692855D02*
X89337199Y-114740474D01*
X89337199Y-114740474D02*
X89384818Y-114883331D01*
X89384818Y-114883331D02*
X89384818Y-114978569D01*
X89384818Y-114978569D02*
X89337199Y-115121426D01*
X89337199Y-115121426D02*
X89241960Y-115216664D01*
X89241960Y-115216664D02*
X89146722Y-115264283D01*
X89146722Y-115264283D02*
X88956246Y-115311902D01*
X88956246Y-115311902D02*
X88813389Y-115311902D01*
X88813389Y-115311902D02*
X88622913Y-115264283D01*
X88622913Y-115264283D02*
X88527675Y-115216664D01*
X88527675Y-115216664D02*
X88432437Y-115121426D01*
X88432437Y-115121426D02*
X88384818Y-114978569D01*
X88384818Y-114978569D02*
X88384818Y-114883331D01*
X88384818Y-114883331D02*
X88432437Y-114740474D01*
X88432437Y-114740474D02*
X88480056Y-114692855D01*
X89384818Y-113740474D02*
X89384818Y-114311902D01*
X89384818Y-114026188D02*
X88384818Y-114026188D01*
X88384818Y-114026188D02*
X88527675Y-114121426D01*
X88527675Y-114121426D02*
X88622913Y-114216664D01*
X88622913Y-114216664D02*
X88670532Y-114311902D01*
X89384818Y-112788093D02*
X89384818Y-113359521D01*
X89384818Y-113073807D02*
X88384818Y-113073807D01*
X88384818Y-113073807D02*
X88527675Y-113169045D01*
X88527675Y-113169045D02*
X88622913Y-113264283D01*
X88622913Y-113264283D02*
X88670532Y-113359521D01*
X94899819Y-133887799D02*
X95137914Y-133887799D01*
X95042676Y-134125894D02*
X95137914Y-133887799D01*
X95137914Y-133887799D02*
X95042676Y-133649704D01*
X95328390Y-134030656D02*
X95137914Y-133887799D01*
X95137914Y-133887799D02*
X95328390Y-133744942D01*
X77809818Y-115811902D02*
X78619341Y-115811902D01*
X78619341Y-115811902D02*
X78714579Y-115764283D01*
X78714579Y-115764283D02*
X78762199Y-115716664D01*
X78762199Y-115716664D02*
X78809818Y-115621426D01*
X78809818Y-115621426D02*
X78809818Y-115430950D01*
X78809818Y-115430950D02*
X78762199Y-115335712D01*
X78762199Y-115335712D02*
X78714579Y-115288093D01*
X78714579Y-115288093D02*
X78619341Y-115240474D01*
X78619341Y-115240474D02*
X77809818Y-115240474D01*
X78809818Y-114716664D02*
X78809818Y-114526188D01*
X78809818Y-114526188D02*
X78762199Y-114430950D01*
X78762199Y-114430950D02*
X78714579Y-114383331D01*
X78714579Y-114383331D02*
X78571722Y-114288093D01*
X78571722Y-114288093D02*
X78381246Y-114240474D01*
X78381246Y-114240474D02*
X78000294Y-114240474D01*
X78000294Y-114240474D02*
X77905056Y-114288093D01*
X77905056Y-114288093D02*
X77857437Y-114335712D01*
X77857437Y-114335712D02*
X77809818Y-114430950D01*
X77809818Y-114430950D02*
X77809818Y-114621426D01*
X77809818Y-114621426D02*
X77857437Y-114716664D01*
X77857437Y-114716664D02*
X77905056Y-114764283D01*
X77905056Y-114764283D02*
X78000294Y-114811902D01*
X78000294Y-114811902D02*
X78238389Y-114811902D01*
X78238389Y-114811902D02*
X78333627Y-114764283D01*
X78333627Y-114764283D02*
X78381246Y-114716664D01*
X78381246Y-114716664D02*
X78428865Y-114621426D01*
X78428865Y-114621426D02*
X78428865Y-114430950D01*
X78428865Y-114430950D02*
X78381246Y-114335712D01*
X78381246Y-114335712D02*
X78333627Y-114288093D01*
X78333627Y-114288093D02*
X78238389Y-114240474D01*
X71278333Y-128587380D02*
X71230714Y-128635000D01*
X71230714Y-128635000D02*
X71087857Y-128682619D01*
X71087857Y-128682619D02*
X70992619Y-128682619D01*
X70992619Y-128682619D02*
X70849762Y-128635000D01*
X70849762Y-128635000D02*
X70754524Y-128539761D01*
X70754524Y-128539761D02*
X70706905Y-128444523D01*
X70706905Y-128444523D02*
X70659286Y-128254047D01*
X70659286Y-128254047D02*
X70659286Y-128111190D01*
X70659286Y-128111190D02*
X70706905Y-127920714D01*
X70706905Y-127920714D02*
X70754524Y-127825476D01*
X70754524Y-127825476D02*
X70849762Y-127730238D01*
X70849762Y-127730238D02*
X70992619Y-127682619D01*
X70992619Y-127682619D02*
X71087857Y-127682619D01*
X71087857Y-127682619D02*
X71230714Y-127730238D01*
X71230714Y-127730238D02*
X71278333Y-127777857D01*
X72230714Y-128682619D02*
X71659286Y-128682619D01*
X71945000Y-128682619D02*
X71945000Y-127682619D01*
X71945000Y-127682619D02*
X71849762Y-127825476D01*
X71849762Y-127825476D02*
X71754524Y-127920714D01*
X71754524Y-127920714D02*
X71659286Y-127968333D01*
X82289579Y-114692855D02*
X82337199Y-114740474D01*
X82337199Y-114740474D02*
X82384818Y-114883331D01*
X82384818Y-114883331D02*
X82384818Y-114978569D01*
X82384818Y-114978569D02*
X82337199Y-115121426D01*
X82337199Y-115121426D02*
X82241960Y-115216664D01*
X82241960Y-115216664D02*
X82146722Y-115264283D01*
X82146722Y-115264283D02*
X81956246Y-115311902D01*
X81956246Y-115311902D02*
X81813389Y-115311902D01*
X81813389Y-115311902D02*
X81622913Y-115264283D01*
X81622913Y-115264283D02*
X81527675Y-115216664D01*
X81527675Y-115216664D02*
X81432437Y-115121426D01*
X81432437Y-115121426D02*
X81384818Y-114978569D01*
X81384818Y-114978569D02*
X81384818Y-114883331D01*
X81384818Y-114883331D02*
X81432437Y-114740474D01*
X81432437Y-114740474D02*
X81480056Y-114692855D01*
X82384818Y-113740474D02*
X82384818Y-114311902D01*
X82384818Y-114026188D02*
X81384818Y-114026188D01*
X81384818Y-114026188D02*
X81527675Y-114121426D01*
X81527675Y-114121426D02*
X81622913Y-114216664D01*
X81622913Y-114216664D02*
X81670532Y-114311902D01*
X81384818Y-113121426D02*
X81384818Y-113026188D01*
X81384818Y-113026188D02*
X81432437Y-112930950D01*
X81432437Y-112930950D02*
X81480056Y-112883331D01*
X81480056Y-112883331D02*
X81575294Y-112835712D01*
X81575294Y-112835712D02*
X81765770Y-112788093D01*
X81765770Y-112788093D02*
X82003865Y-112788093D01*
X82003865Y-112788093D02*
X82194341Y-112835712D01*
X82194341Y-112835712D02*
X82289579Y-112883331D01*
X82289579Y-112883331D02*
X82337199Y-112930950D01*
X82337199Y-112930950D02*
X82384818Y-113026188D01*
X82384818Y-113026188D02*
X82384818Y-113121426D01*
X82384818Y-113121426D02*
X82337199Y-113216664D01*
X82337199Y-113216664D02*
X82289579Y-113264283D01*
X82289579Y-113264283D02*
X82194341Y-113311902D01*
X82194341Y-113311902D02*
X82003865Y-113359521D01*
X82003865Y-113359521D02*
X81765770Y-113359521D01*
X81765770Y-113359521D02*
X81575294Y-113311902D01*
X81575294Y-113311902D02*
X81480056Y-113264283D01*
X81480056Y-113264283D02*
X81432437Y-113216664D01*
X81432437Y-113216664D02*
X81384818Y-113121426D01*
X82899819Y-133887799D02*
X83137914Y-133887799D01*
X83042676Y-134125894D02*
X83137914Y-133887799D01*
X83137914Y-133887799D02*
X83042676Y-133649704D01*
X83328390Y-134030656D02*
X83137914Y-133887799D01*
X83137914Y-133887799D02*
X83328390Y-133744942D01*
X57333333Y-66624819D02*
X57000000Y-66148628D01*
X56761905Y-66624819D02*
X56761905Y-65624819D01*
X56761905Y-65624819D02*
X57142857Y-65624819D01*
X57142857Y-65624819D02*
X57238095Y-65672438D01*
X57238095Y-65672438D02*
X57285714Y-65720057D01*
X57285714Y-65720057D02*
X57333333Y-65815295D01*
X57333333Y-65815295D02*
X57333333Y-65958152D01*
X57333333Y-65958152D02*
X57285714Y-66053390D01*
X57285714Y-66053390D02*
X57238095Y-66101009D01*
X57238095Y-66101009D02*
X57142857Y-66148628D01*
X57142857Y-66148628D02*
X56761905Y-66148628D01*
X58190476Y-65958152D02*
X58190476Y-66624819D01*
X57952381Y-65577200D02*
X57714286Y-66291485D01*
X57714286Y-66291485D02*
X58333333Y-66291485D01*
X94954819Y-90511904D02*
X95764342Y-90511904D01*
X95764342Y-90511904D02*
X95859580Y-90464285D01*
X95859580Y-90464285D02*
X95907200Y-90416666D01*
X95907200Y-90416666D02*
X95954819Y-90321428D01*
X95954819Y-90321428D02*
X95954819Y-90130952D01*
X95954819Y-90130952D02*
X95907200Y-90035714D01*
X95907200Y-90035714D02*
X95859580Y-89988095D01*
X95859580Y-89988095D02*
X95764342Y-89940476D01*
X95764342Y-89940476D02*
X94954819Y-89940476D01*
X94954819Y-89559523D02*
X94954819Y-88892857D01*
X94954819Y-88892857D02*
X95954819Y-89321428D01*
X117083333Y-66454819D02*
X116750000Y-65978628D01*
X116511905Y-66454819D02*
X116511905Y-65454819D01*
X116511905Y-65454819D02*
X116892857Y-65454819D01*
X116892857Y-65454819D02*
X116988095Y-65502438D01*
X116988095Y-65502438D02*
X117035714Y-65550057D01*
X117035714Y-65550057D02*
X117083333Y-65645295D01*
X117083333Y-65645295D02*
X117083333Y-65788152D01*
X117083333Y-65788152D02*
X117035714Y-65883390D01*
X117035714Y-65883390D02*
X116988095Y-65931009D01*
X116988095Y-65931009D02*
X116892857Y-65978628D01*
X116892857Y-65978628D02*
X116511905Y-65978628D01*
X118035714Y-66454819D02*
X117464286Y-66454819D01*
X117750000Y-66454819D02*
X117750000Y-65454819D01*
X117750000Y-65454819D02*
X117654762Y-65597676D01*
X117654762Y-65597676D02*
X117559524Y-65692914D01*
X117559524Y-65692914D02*
X117464286Y-65740533D01*
X95278333Y-128587380D02*
X95230714Y-128635000D01*
X95230714Y-128635000D02*
X95087857Y-128682619D01*
X95087857Y-128682619D02*
X94992619Y-128682619D01*
X94992619Y-128682619D02*
X94849762Y-128635000D01*
X94849762Y-128635000D02*
X94754524Y-128539761D01*
X94754524Y-128539761D02*
X94706905Y-128444523D01*
X94706905Y-128444523D02*
X94659286Y-128254047D01*
X94659286Y-128254047D02*
X94659286Y-128111190D01*
X94659286Y-128111190D02*
X94706905Y-127920714D01*
X94706905Y-127920714D02*
X94754524Y-127825476D01*
X94754524Y-127825476D02*
X94849762Y-127730238D01*
X94849762Y-127730238D02*
X94992619Y-127682619D01*
X94992619Y-127682619D02*
X95087857Y-127682619D01*
X95087857Y-127682619D02*
X95230714Y-127730238D01*
X95230714Y-127730238D02*
X95278333Y-127777857D01*
X95611667Y-127682619D02*
X96230714Y-127682619D01*
X96230714Y-127682619D02*
X95897381Y-128063571D01*
X95897381Y-128063571D02*
X96040238Y-128063571D01*
X96040238Y-128063571D02*
X96135476Y-128111190D01*
X96135476Y-128111190D02*
X96183095Y-128158809D01*
X96183095Y-128158809D02*
X96230714Y-128254047D01*
X96230714Y-128254047D02*
X96230714Y-128492142D01*
X96230714Y-128492142D02*
X96183095Y-128587380D01*
X96183095Y-128587380D02*
X96135476Y-128635000D01*
X96135476Y-128635000D02*
X96040238Y-128682619D01*
X96040238Y-128682619D02*
X95754524Y-128682619D01*
X95754524Y-128682619D02*
X95659286Y-128635000D01*
X95659286Y-128635000D02*
X95611667Y-128587380D01*
X70954819Y-90511904D02*
X71764342Y-90511904D01*
X71764342Y-90511904D02*
X71859580Y-90464285D01*
X71859580Y-90464285D02*
X71907200Y-90416666D01*
X71907200Y-90416666D02*
X71954819Y-90321428D01*
X71954819Y-90321428D02*
X71954819Y-90130952D01*
X71954819Y-90130952D02*
X71907200Y-90035714D01*
X71907200Y-90035714D02*
X71859580Y-89988095D01*
X71859580Y-89988095D02*
X71764342Y-89940476D01*
X71764342Y-89940476D02*
X70954819Y-89940476D01*
X70954819Y-88988095D02*
X70954819Y-89464285D01*
X70954819Y-89464285D02*
X71431009Y-89511904D01*
X71431009Y-89511904D02*
X71383390Y-89464285D01*
X71383390Y-89464285D02*
X71335771Y-89369047D01*
X71335771Y-89369047D02*
X71335771Y-89130952D01*
X71335771Y-89130952D02*
X71383390Y-89035714D01*
X71383390Y-89035714D02*
X71431009Y-88988095D01*
X71431009Y-88988095D02*
X71526247Y-88940476D01*
X71526247Y-88940476D02*
X71764342Y-88940476D01*
X71764342Y-88940476D02*
X71859580Y-88988095D01*
X71859580Y-88988095D02*
X71907200Y-89035714D01*
X71907200Y-89035714D02*
X71954819Y-89130952D01*
X71954819Y-89130952D02*
X71954819Y-89369047D01*
X71954819Y-89369047D02*
X71907200Y-89464285D01*
X71907200Y-89464285D02*
X71859580Y-89511904D01*
X95333333Y-84449580D02*
X95285714Y-84497200D01*
X95285714Y-84497200D02*
X95142857Y-84544819D01*
X95142857Y-84544819D02*
X95047619Y-84544819D01*
X95047619Y-84544819D02*
X94904762Y-84497200D01*
X94904762Y-84497200D02*
X94809524Y-84401961D01*
X94809524Y-84401961D02*
X94761905Y-84306723D01*
X94761905Y-84306723D02*
X94714286Y-84116247D01*
X94714286Y-84116247D02*
X94714286Y-83973390D01*
X94714286Y-83973390D02*
X94761905Y-83782914D01*
X94761905Y-83782914D02*
X94809524Y-83687676D01*
X94809524Y-83687676D02*
X94904762Y-83592438D01*
X94904762Y-83592438D02*
X95047619Y-83544819D01*
X95047619Y-83544819D02*
X95142857Y-83544819D01*
X95142857Y-83544819D02*
X95285714Y-83592438D01*
X95285714Y-83592438D02*
X95333333Y-83640057D01*
X95666667Y-83544819D02*
X96333333Y-83544819D01*
X96333333Y-83544819D02*
X95904762Y-84544819D01*
X64916666Y-64204819D02*
X64916666Y-64919104D01*
X64916666Y-64919104D02*
X64869047Y-65061961D01*
X64869047Y-65061961D02*
X64773809Y-65157200D01*
X64773809Y-65157200D02*
X64630952Y-65204819D01*
X64630952Y-65204819D02*
X64535714Y-65204819D01*
X65297619Y-64204819D02*
X65964285Y-64204819D01*
X65964285Y-64204819D02*
X65535714Y-65204819D01*
X98884818Y-116288092D02*
X99694341Y-116288092D01*
X99694341Y-116288092D02*
X99789579Y-116240473D01*
X99789579Y-116240473D02*
X99837199Y-116192854D01*
X99837199Y-116192854D02*
X99884818Y-116097616D01*
X99884818Y-116097616D02*
X99884818Y-115907140D01*
X99884818Y-115907140D02*
X99837199Y-115811902D01*
X99837199Y-115811902D02*
X99789579Y-115764283D01*
X99789579Y-115764283D02*
X99694341Y-115716664D01*
X99694341Y-115716664D02*
X98884818Y-115716664D01*
X99884818Y-114716664D02*
X99884818Y-115288092D01*
X99884818Y-115002378D02*
X98884818Y-115002378D01*
X98884818Y-115002378D02*
X99027675Y-115097616D01*
X99027675Y-115097616D02*
X99122913Y-115192854D01*
X99122913Y-115192854D02*
X99170532Y-115288092D01*
X98980056Y-114335711D02*
X98932437Y-114288092D01*
X98932437Y-114288092D02*
X98884818Y-114192854D01*
X98884818Y-114192854D02*
X98884818Y-113954759D01*
X98884818Y-113954759D02*
X98932437Y-113859521D01*
X98932437Y-113859521D02*
X98980056Y-113811902D01*
X98980056Y-113811902D02*
X99075294Y-113764283D01*
X99075294Y-113764283D02*
X99170532Y-113764283D01*
X99170532Y-113764283D02*
X99313389Y-113811902D01*
X99313389Y-113811902D02*
X99884818Y-114383330D01*
X99884818Y-114383330D02*
X99884818Y-113764283D01*
X74916666Y-63954819D02*
X74916666Y-64669104D01*
X74916666Y-64669104D02*
X74869047Y-64811961D01*
X74869047Y-64811961D02*
X74773809Y-64907200D01*
X74773809Y-64907200D02*
X74630952Y-64954819D01*
X74630952Y-64954819D02*
X74535714Y-64954819D01*
X75821428Y-63954819D02*
X75630952Y-63954819D01*
X75630952Y-63954819D02*
X75535714Y-64002438D01*
X75535714Y-64002438D02*
X75488095Y-64050057D01*
X75488095Y-64050057D02*
X75392857Y-64192914D01*
X75392857Y-64192914D02*
X75345238Y-64383390D01*
X75345238Y-64383390D02*
X75345238Y-64764342D01*
X75345238Y-64764342D02*
X75392857Y-64859580D01*
X75392857Y-64859580D02*
X75440476Y-64907200D01*
X75440476Y-64907200D02*
X75535714Y-64954819D01*
X75535714Y-64954819D02*
X75726190Y-64954819D01*
X75726190Y-64954819D02*
X75821428Y-64907200D01*
X75821428Y-64907200D02*
X75869047Y-64859580D01*
X75869047Y-64859580D02*
X75916666Y-64764342D01*
X75916666Y-64764342D02*
X75916666Y-64526247D01*
X75916666Y-64526247D02*
X75869047Y-64431009D01*
X75869047Y-64431009D02*
X75821428Y-64383390D01*
X75821428Y-64383390D02*
X75726190Y-64335771D01*
X75726190Y-64335771D02*
X75535714Y-64335771D01*
X75535714Y-64335771D02*
X75440476Y-64383390D01*
X75440476Y-64383390D02*
X75392857Y-64431009D01*
X75392857Y-64431009D02*
X75345238Y-64526247D01*
X91916666Y-64404819D02*
X91916666Y-65119104D01*
X91916666Y-65119104D02*
X91869047Y-65261961D01*
X91869047Y-65261961D02*
X91773809Y-65357200D01*
X91773809Y-65357200D02*
X91630952Y-65404819D01*
X91630952Y-65404819D02*
X91535714Y-65404819D01*
X92392857Y-65404819D02*
X92392857Y-64404819D01*
X92392857Y-64404819D02*
X92773809Y-64404819D01*
X92773809Y-64404819D02*
X92869047Y-64452438D01*
X92869047Y-64452438D02*
X92916666Y-64500057D01*
X92916666Y-64500057D02*
X92964285Y-64595295D01*
X92964285Y-64595295D02*
X92964285Y-64738152D01*
X92964285Y-64738152D02*
X92916666Y-64833390D01*
X92916666Y-64833390D02*
X92869047Y-64881009D01*
X92869047Y-64881009D02*
X92773809Y-64928628D01*
X92773809Y-64928628D02*
X92392857Y-64928628D01*
X93345238Y-64500057D02*
X93392857Y-64452438D01*
X93392857Y-64452438D02*
X93488095Y-64404819D01*
X93488095Y-64404819D02*
X93726190Y-64404819D01*
X93726190Y-64404819D02*
X93821428Y-64452438D01*
X93821428Y-64452438D02*
X93869047Y-64500057D01*
X93869047Y-64500057D02*
X93916666Y-64595295D01*
X93916666Y-64595295D02*
X93916666Y-64690533D01*
X93916666Y-64690533D02*
X93869047Y-64833390D01*
X93869047Y-64833390D02*
X93297619Y-65404819D01*
X93297619Y-65404819D02*
X93916666Y-65404819D01*
X106954819Y-90511904D02*
X107764342Y-90511904D01*
X107764342Y-90511904D02*
X107859580Y-90464285D01*
X107859580Y-90464285D02*
X107907200Y-90416666D01*
X107907200Y-90416666D02*
X107954819Y-90321428D01*
X107954819Y-90321428D02*
X107954819Y-90130952D01*
X107954819Y-90130952D02*
X107907200Y-90035714D01*
X107907200Y-90035714D02*
X107859580Y-89988095D01*
X107859580Y-89988095D02*
X107764342Y-89940476D01*
X107764342Y-89940476D02*
X106954819Y-89940476D01*
X107383390Y-89321428D02*
X107335771Y-89416666D01*
X107335771Y-89416666D02*
X107288152Y-89464285D01*
X107288152Y-89464285D02*
X107192914Y-89511904D01*
X107192914Y-89511904D02*
X107145295Y-89511904D01*
X107145295Y-89511904D02*
X107050057Y-89464285D01*
X107050057Y-89464285D02*
X107002438Y-89416666D01*
X107002438Y-89416666D02*
X106954819Y-89321428D01*
X106954819Y-89321428D02*
X106954819Y-89130952D01*
X106954819Y-89130952D02*
X107002438Y-89035714D01*
X107002438Y-89035714D02*
X107050057Y-88988095D01*
X107050057Y-88988095D02*
X107145295Y-88940476D01*
X107145295Y-88940476D02*
X107192914Y-88940476D01*
X107192914Y-88940476D02*
X107288152Y-88988095D01*
X107288152Y-88988095D02*
X107335771Y-89035714D01*
X107335771Y-89035714D02*
X107383390Y-89130952D01*
X107383390Y-89130952D02*
X107383390Y-89321428D01*
X107383390Y-89321428D02*
X107431009Y-89416666D01*
X107431009Y-89416666D02*
X107478628Y-89464285D01*
X107478628Y-89464285D02*
X107573866Y-89511904D01*
X107573866Y-89511904D02*
X107764342Y-89511904D01*
X107764342Y-89511904D02*
X107859580Y-89464285D01*
X107859580Y-89464285D02*
X107907200Y-89416666D01*
X107907200Y-89416666D02*
X107954819Y-89321428D01*
X107954819Y-89321428D02*
X107954819Y-89130952D01*
X107954819Y-89130952D02*
X107907200Y-89035714D01*
X107907200Y-89035714D02*
X107859580Y-88988095D01*
X107859580Y-88988095D02*
X107764342Y-88940476D01*
X107764342Y-88940476D02*
X107573866Y-88940476D01*
X107573866Y-88940476D02*
X107478628Y-88988095D01*
X107478628Y-88988095D02*
X107431009Y-89035714D01*
X107431009Y-89035714D02*
X107383390Y-89130952D01*
X83278333Y-128587380D02*
X83230714Y-128635000D01*
X83230714Y-128635000D02*
X83087857Y-128682619D01*
X83087857Y-128682619D02*
X82992619Y-128682619D01*
X82992619Y-128682619D02*
X82849762Y-128635000D01*
X82849762Y-128635000D02*
X82754524Y-128539761D01*
X82754524Y-128539761D02*
X82706905Y-128444523D01*
X82706905Y-128444523D02*
X82659286Y-128254047D01*
X82659286Y-128254047D02*
X82659286Y-128111190D01*
X82659286Y-128111190D02*
X82706905Y-127920714D01*
X82706905Y-127920714D02*
X82754524Y-127825476D01*
X82754524Y-127825476D02*
X82849762Y-127730238D01*
X82849762Y-127730238D02*
X82992619Y-127682619D01*
X82992619Y-127682619D02*
X83087857Y-127682619D01*
X83087857Y-127682619D02*
X83230714Y-127730238D01*
X83230714Y-127730238D02*
X83278333Y-127777857D01*
X83659286Y-127777857D02*
X83706905Y-127730238D01*
X83706905Y-127730238D02*
X83802143Y-127682619D01*
X83802143Y-127682619D02*
X84040238Y-127682619D01*
X84040238Y-127682619D02*
X84135476Y-127730238D01*
X84135476Y-127730238D02*
X84183095Y-127777857D01*
X84183095Y-127777857D02*
X84230714Y-127873095D01*
X84230714Y-127873095D02*
X84230714Y-127968333D01*
X84230714Y-127968333D02*
X84183095Y-128111190D01*
X84183095Y-128111190D02*
X83611667Y-128682619D01*
X83611667Y-128682619D02*
X84230714Y-128682619D01*
X71333333Y-84449580D02*
X71285714Y-84497200D01*
X71285714Y-84497200D02*
X71142857Y-84544819D01*
X71142857Y-84544819D02*
X71047619Y-84544819D01*
X71047619Y-84544819D02*
X70904762Y-84497200D01*
X70904762Y-84497200D02*
X70809524Y-84401961D01*
X70809524Y-84401961D02*
X70761905Y-84306723D01*
X70761905Y-84306723D02*
X70714286Y-84116247D01*
X70714286Y-84116247D02*
X70714286Y-83973390D01*
X70714286Y-83973390D02*
X70761905Y-83782914D01*
X70761905Y-83782914D02*
X70809524Y-83687676D01*
X70809524Y-83687676D02*
X70904762Y-83592438D01*
X70904762Y-83592438D02*
X71047619Y-83544819D01*
X71047619Y-83544819D02*
X71142857Y-83544819D01*
X71142857Y-83544819D02*
X71285714Y-83592438D01*
X71285714Y-83592438D02*
X71333333Y-83640057D01*
X72238095Y-83544819D02*
X71761905Y-83544819D01*
X71761905Y-83544819D02*
X71714286Y-84021009D01*
X71714286Y-84021009D02*
X71761905Y-83973390D01*
X71761905Y-83973390D02*
X71857143Y-83925771D01*
X71857143Y-83925771D02*
X72095238Y-83925771D01*
X72095238Y-83925771D02*
X72190476Y-83973390D01*
X72190476Y-83973390D02*
X72238095Y-84021009D01*
X72238095Y-84021009D02*
X72285714Y-84116247D01*
X72285714Y-84116247D02*
X72285714Y-84354342D01*
X72285714Y-84354342D02*
X72238095Y-84449580D01*
X72238095Y-84449580D02*
X72190476Y-84497200D01*
X72190476Y-84497200D02*
X72095238Y-84544819D01*
X72095238Y-84544819D02*
X71857143Y-84544819D01*
X71857143Y-84544819D02*
X71761905Y-84497200D01*
X71761905Y-84497200D02*
X71714286Y-84449580D01*
X117019580Y-71642857D02*
X117067200Y-71690476D01*
X117067200Y-71690476D02*
X117114819Y-71833333D01*
X117114819Y-71833333D02*
X117114819Y-71928571D01*
X117114819Y-71928571D02*
X117067200Y-72071428D01*
X117067200Y-72071428D02*
X116971961Y-72166666D01*
X116971961Y-72166666D02*
X116876723Y-72214285D01*
X116876723Y-72214285D02*
X116686247Y-72261904D01*
X116686247Y-72261904D02*
X116543390Y-72261904D01*
X116543390Y-72261904D02*
X116352914Y-72214285D01*
X116352914Y-72214285D02*
X116257676Y-72166666D01*
X116257676Y-72166666D02*
X116162438Y-72071428D01*
X116162438Y-72071428D02*
X116114819Y-71928571D01*
X116114819Y-71928571D02*
X116114819Y-71833333D01*
X116114819Y-71833333D02*
X116162438Y-71690476D01*
X116162438Y-71690476D02*
X116210057Y-71642857D01*
X117114819Y-70690476D02*
X117114819Y-71261904D01*
X117114819Y-70976190D02*
X116114819Y-70976190D01*
X116114819Y-70976190D02*
X116257676Y-71071428D01*
X116257676Y-71071428D02*
X116352914Y-71166666D01*
X116352914Y-71166666D02*
X116400533Y-71261904D01*
X116114819Y-70357142D02*
X116114819Y-69690476D01*
X116114819Y-69690476D02*
X117114819Y-70119047D01*
X107278333Y-128587380D02*
X107230714Y-128635000D01*
X107230714Y-128635000D02*
X107087857Y-128682619D01*
X107087857Y-128682619D02*
X106992619Y-128682619D01*
X106992619Y-128682619D02*
X106849762Y-128635000D01*
X106849762Y-128635000D02*
X106754524Y-128539761D01*
X106754524Y-128539761D02*
X106706905Y-128444523D01*
X106706905Y-128444523D02*
X106659286Y-128254047D01*
X106659286Y-128254047D02*
X106659286Y-128111190D01*
X106659286Y-128111190D02*
X106706905Y-127920714D01*
X106706905Y-127920714D02*
X106754524Y-127825476D01*
X106754524Y-127825476D02*
X106849762Y-127730238D01*
X106849762Y-127730238D02*
X106992619Y-127682619D01*
X106992619Y-127682619D02*
X107087857Y-127682619D01*
X107087857Y-127682619D02*
X107230714Y-127730238D01*
X107230714Y-127730238D02*
X107278333Y-127777857D01*
X108135476Y-128015952D02*
X108135476Y-128682619D01*
X107897381Y-127635000D02*
X107659286Y-128349285D01*
X107659286Y-128349285D02*
X108278333Y-128349285D01*
X100416666Y-59454819D02*
X100416666Y-60169104D01*
X100416666Y-60169104D02*
X100369047Y-60311961D01*
X100369047Y-60311961D02*
X100273809Y-60407200D01*
X100273809Y-60407200D02*
X100130952Y-60454819D01*
X100130952Y-60454819D02*
X100035714Y-60454819D01*
X101369047Y-59454819D02*
X100892857Y-59454819D01*
X100892857Y-59454819D02*
X100845238Y-59931009D01*
X100845238Y-59931009D02*
X100892857Y-59883390D01*
X100892857Y-59883390D02*
X100988095Y-59835771D01*
X100988095Y-59835771D02*
X101226190Y-59835771D01*
X101226190Y-59835771D02*
X101321428Y-59883390D01*
X101321428Y-59883390D02*
X101369047Y-59931009D01*
X101369047Y-59931009D02*
X101416666Y-60026247D01*
X101416666Y-60026247D02*
X101416666Y-60264342D01*
X101416666Y-60264342D02*
X101369047Y-60359580D01*
X101369047Y-60359580D02*
X101321428Y-60407200D01*
X101321428Y-60407200D02*
X101226190Y-60454819D01*
X101226190Y-60454819D02*
X100988095Y-60454819D01*
X100988095Y-60454819D02*
X100892857Y-60407200D01*
X100892857Y-60407200D02*
X100845238Y-60359580D01*
X116454819Y-117333333D02*
X117169104Y-117333333D01*
X117169104Y-117333333D02*
X117311961Y-117380952D01*
X117311961Y-117380952D02*
X117407200Y-117476190D01*
X117407200Y-117476190D02*
X117454819Y-117619047D01*
X117454819Y-117619047D02*
X117454819Y-117714285D01*
X116454819Y-116952380D02*
X116454819Y-116333333D01*
X116454819Y-116333333D02*
X116835771Y-116666666D01*
X116835771Y-116666666D02*
X116835771Y-116523809D01*
X116835771Y-116523809D02*
X116883390Y-116428571D01*
X116883390Y-116428571D02*
X116931009Y-116380952D01*
X116931009Y-116380952D02*
X117026247Y-116333333D01*
X117026247Y-116333333D02*
X117264342Y-116333333D01*
X117264342Y-116333333D02*
X117359580Y-116380952D01*
X117359580Y-116380952D02*
X117407200Y-116428571D01*
X117407200Y-116428571D02*
X117454819Y-116523809D01*
X117454819Y-116523809D02*
X117454819Y-116809523D01*
X117454819Y-116809523D02*
X117407200Y-116904761D01*
X117407200Y-116904761D02*
X117359580Y-116952380D01*
X104154819Y-80018333D02*
X104869104Y-80018333D01*
X104869104Y-80018333D02*
X105011961Y-80065952D01*
X105011961Y-80065952D02*
X105107200Y-80161190D01*
X105107200Y-80161190D02*
X105154819Y-80304047D01*
X105154819Y-80304047D02*
X105154819Y-80399285D01*
X104583390Y-79399285D02*
X104535771Y-79494523D01*
X104535771Y-79494523D02*
X104488152Y-79542142D01*
X104488152Y-79542142D02*
X104392914Y-79589761D01*
X104392914Y-79589761D02*
X104345295Y-79589761D01*
X104345295Y-79589761D02*
X104250057Y-79542142D01*
X104250057Y-79542142D02*
X104202438Y-79494523D01*
X104202438Y-79494523D02*
X104154819Y-79399285D01*
X104154819Y-79399285D02*
X104154819Y-79208809D01*
X104154819Y-79208809D02*
X104202438Y-79113571D01*
X104202438Y-79113571D02*
X104250057Y-79065952D01*
X104250057Y-79065952D02*
X104345295Y-79018333D01*
X104345295Y-79018333D02*
X104392914Y-79018333D01*
X104392914Y-79018333D02*
X104488152Y-79065952D01*
X104488152Y-79065952D02*
X104535771Y-79113571D01*
X104535771Y-79113571D02*
X104583390Y-79208809D01*
X104583390Y-79208809D02*
X104583390Y-79399285D01*
X104583390Y-79399285D02*
X104631009Y-79494523D01*
X104631009Y-79494523D02*
X104678628Y-79542142D01*
X104678628Y-79542142D02*
X104773866Y-79589761D01*
X104773866Y-79589761D02*
X104964342Y-79589761D01*
X104964342Y-79589761D02*
X105059580Y-79542142D01*
X105059580Y-79542142D02*
X105107200Y-79494523D01*
X105107200Y-79494523D02*
X105154819Y-79399285D01*
X105154819Y-79399285D02*
X105154819Y-79208809D01*
X105154819Y-79208809D02*
X105107200Y-79113571D01*
X105107200Y-79113571D02*
X105059580Y-79065952D01*
X105059580Y-79065952D02*
X104964342Y-79018333D01*
X104964342Y-79018333D02*
X104773866Y-79018333D01*
X104773866Y-79018333D02*
X104678628Y-79065952D01*
X104678628Y-79065952D02*
X104631009Y-79113571D01*
X104631009Y-79113571D02*
X104583390Y-79208809D01*
X110166666Y-59454819D02*
X110166666Y-60169104D01*
X110166666Y-60169104D02*
X110119047Y-60311961D01*
X110119047Y-60311961D02*
X110023809Y-60407200D01*
X110023809Y-60407200D02*
X109880952Y-60454819D01*
X109880952Y-60454819D02*
X109785714Y-60454819D01*
X111071428Y-59788152D02*
X111071428Y-60454819D01*
X110833333Y-59407200D02*
X110595238Y-60121485D01*
X110595238Y-60121485D02*
X111214285Y-60121485D01*
X68124819Y-102063333D02*
X68839104Y-102063333D01*
X68839104Y-102063333D02*
X68981961Y-102110952D01*
X68981961Y-102110952D02*
X69077200Y-102206190D01*
X69077200Y-102206190D02*
X69124819Y-102349047D01*
X69124819Y-102349047D02*
X69124819Y-102444285D01*
X68220057Y-101634761D02*
X68172438Y-101587142D01*
X68172438Y-101587142D02*
X68124819Y-101491904D01*
X68124819Y-101491904D02*
X68124819Y-101253809D01*
X68124819Y-101253809D02*
X68172438Y-101158571D01*
X68172438Y-101158571D02*
X68220057Y-101110952D01*
X68220057Y-101110952D02*
X68315295Y-101063333D01*
X68315295Y-101063333D02*
X68410533Y-101063333D01*
X68410533Y-101063333D02*
X68553390Y-101110952D01*
X68553390Y-101110952D02*
X69124819Y-101682380D01*
X69124819Y-101682380D02*
X69124819Y-101063333D01*
X104045180Y-67011905D02*
X103235657Y-67011905D01*
X103235657Y-67011905D02*
X103140419Y-67059524D01*
X103140419Y-67059524D02*
X103092800Y-67107143D01*
X103092800Y-67107143D02*
X103045180Y-67202381D01*
X103045180Y-67202381D02*
X103045180Y-67392857D01*
X103045180Y-67392857D02*
X103092800Y-67488095D01*
X103092800Y-67488095D02*
X103140419Y-67535714D01*
X103140419Y-67535714D02*
X103235657Y-67583333D01*
X103235657Y-67583333D02*
X104045180Y-67583333D01*
X103045180Y-68583333D02*
X103045180Y-68011905D01*
X103045180Y-68297619D02*
X104045180Y-68297619D01*
X104045180Y-68297619D02*
X103902323Y-68202381D01*
X103902323Y-68202381D02*
X103807085Y-68107143D01*
X103807085Y-68107143D02*
X103759466Y-68011905D01*
X104045180Y-68916667D02*
X104045180Y-69535714D01*
X104045180Y-69535714D02*
X103664228Y-69202381D01*
X103664228Y-69202381D02*
X103664228Y-69345238D01*
X103664228Y-69345238D02*
X103616609Y-69440476D01*
X103616609Y-69440476D02*
X103568990Y-69488095D01*
X103568990Y-69488095D02*
X103473752Y-69535714D01*
X103473752Y-69535714D02*
X103235657Y-69535714D01*
X103235657Y-69535714D02*
X103140419Y-69488095D01*
X103140419Y-69488095D02*
X103092800Y-69440476D01*
X103092800Y-69440476D02*
X103045180Y-69345238D01*
X103045180Y-69345238D02*
X103045180Y-69059524D01*
X103045180Y-69059524D02*
X103092800Y-68964286D01*
X103092800Y-68964286D02*
X103140419Y-68916667D01*
X115156619Y-65745999D02*
X115394714Y-65745999D01*
X115299476Y-65984094D02*
X115394714Y-65745999D01*
X115394714Y-65745999D02*
X115299476Y-65507904D01*
X115585190Y-65888856D02*
X115394714Y-65745999D01*
X115394714Y-65745999D02*
X115585190Y-65603142D01*
X116246980Y-65746000D02*
X116008885Y-65746000D01*
X116104123Y-65507905D02*
X116008885Y-65746000D01*
X116008885Y-65746000D02*
X116104123Y-65984095D01*
X115818409Y-65603143D02*
X116008885Y-65746000D01*
X116008885Y-65746000D02*
X115818409Y-65888857D01*
X51916666Y-64404819D02*
X51916666Y-65119104D01*
X51916666Y-65119104D02*
X51869047Y-65261961D01*
X51869047Y-65261961D02*
X51773809Y-65357200D01*
X51773809Y-65357200D02*
X51630952Y-65404819D01*
X51630952Y-65404819D02*
X51535714Y-65404819D01*
X52392857Y-65404819D02*
X52392857Y-64404819D01*
X52392857Y-64404819D02*
X52773809Y-64404819D01*
X52773809Y-64404819D02*
X52869047Y-64452438D01*
X52869047Y-64452438D02*
X52916666Y-64500057D01*
X52916666Y-64500057D02*
X52964285Y-64595295D01*
X52964285Y-64595295D02*
X52964285Y-64738152D01*
X52964285Y-64738152D02*
X52916666Y-64833390D01*
X52916666Y-64833390D02*
X52869047Y-64881009D01*
X52869047Y-64881009D02*
X52773809Y-64928628D01*
X52773809Y-64928628D02*
X52392857Y-64928628D01*
X53821428Y-64738152D02*
X53821428Y-65404819D01*
X53583333Y-64357200D02*
X53345238Y-65071485D01*
X53345238Y-65071485D02*
X53964285Y-65071485D01*
X75289579Y-113716664D02*
X75337199Y-113764283D01*
X75337199Y-113764283D02*
X75384818Y-113907140D01*
X75384818Y-113907140D02*
X75384818Y-114002378D01*
X75384818Y-114002378D02*
X75337199Y-114145235D01*
X75337199Y-114145235D02*
X75241960Y-114240473D01*
X75241960Y-114240473D02*
X75146722Y-114288092D01*
X75146722Y-114288092D02*
X74956246Y-114335711D01*
X74956246Y-114335711D02*
X74813389Y-114335711D01*
X74813389Y-114335711D02*
X74622913Y-114288092D01*
X74622913Y-114288092D02*
X74527675Y-114240473D01*
X74527675Y-114240473D02*
X74432437Y-114145235D01*
X74432437Y-114145235D02*
X74384818Y-114002378D01*
X74384818Y-114002378D02*
X74384818Y-113907140D01*
X74384818Y-113907140D02*
X74432437Y-113764283D01*
X74432437Y-113764283D02*
X74480056Y-113716664D01*
X75384818Y-113240473D02*
X75384818Y-113049997D01*
X75384818Y-113049997D02*
X75337199Y-112954759D01*
X75337199Y-112954759D02*
X75289579Y-112907140D01*
X75289579Y-112907140D02*
X75146722Y-112811902D01*
X75146722Y-112811902D02*
X74956246Y-112764283D01*
X74956246Y-112764283D02*
X74575294Y-112764283D01*
X74575294Y-112764283D02*
X74480056Y-112811902D01*
X74480056Y-112811902D02*
X74432437Y-112859521D01*
X74432437Y-112859521D02*
X74384818Y-112954759D01*
X74384818Y-112954759D02*
X74384818Y-113145235D01*
X74384818Y-113145235D02*
X74432437Y-113240473D01*
X74432437Y-113240473D02*
X74480056Y-113288092D01*
X74480056Y-113288092D02*
X74575294Y-113335711D01*
X74575294Y-113335711D02*
X74813389Y-113335711D01*
X74813389Y-113335711D02*
X74908627Y-113288092D01*
X74908627Y-113288092D02*
X74956246Y-113240473D01*
X74956246Y-113240473D02*
X75003865Y-113145235D01*
X75003865Y-113145235D02*
X75003865Y-112954759D01*
X75003865Y-112954759D02*
X74956246Y-112859521D01*
X74956246Y-112859521D02*
X74908627Y-112811902D01*
X74908627Y-112811902D02*
X74813389Y-112764283D01*
X106899819Y-133887799D02*
X107137914Y-133887799D01*
X107042676Y-134125894D02*
X107137914Y-133887799D01*
X107137914Y-133887799D02*
X107042676Y-133649704D01*
X107328390Y-134030656D02*
X107137914Y-133887799D01*
X107137914Y-133887799D02*
X107328390Y-133744942D01*
X107333333Y-84449580D02*
X107285714Y-84497200D01*
X107285714Y-84497200D02*
X107142857Y-84544819D01*
X107142857Y-84544819D02*
X107047619Y-84544819D01*
X107047619Y-84544819D02*
X106904762Y-84497200D01*
X106904762Y-84497200D02*
X106809524Y-84401961D01*
X106809524Y-84401961D02*
X106761905Y-84306723D01*
X106761905Y-84306723D02*
X106714286Y-84116247D01*
X106714286Y-84116247D02*
X106714286Y-83973390D01*
X106714286Y-83973390D02*
X106761905Y-83782914D01*
X106761905Y-83782914D02*
X106809524Y-83687676D01*
X106809524Y-83687676D02*
X106904762Y-83592438D01*
X106904762Y-83592438D02*
X107047619Y-83544819D01*
X107047619Y-83544819D02*
X107142857Y-83544819D01*
X107142857Y-83544819D02*
X107285714Y-83592438D01*
X107285714Y-83592438D02*
X107333333Y-83640057D01*
X107904762Y-83973390D02*
X107809524Y-83925771D01*
X107809524Y-83925771D02*
X107761905Y-83878152D01*
X107761905Y-83878152D02*
X107714286Y-83782914D01*
X107714286Y-83782914D02*
X107714286Y-83735295D01*
X107714286Y-83735295D02*
X107761905Y-83640057D01*
X107761905Y-83640057D02*
X107809524Y-83592438D01*
X107809524Y-83592438D02*
X107904762Y-83544819D01*
X107904762Y-83544819D02*
X108095238Y-83544819D01*
X108095238Y-83544819D02*
X108190476Y-83592438D01*
X108190476Y-83592438D02*
X108238095Y-83640057D01*
X108238095Y-83640057D02*
X108285714Y-83735295D01*
X108285714Y-83735295D02*
X108285714Y-83782914D01*
X108285714Y-83782914D02*
X108238095Y-83878152D01*
X108238095Y-83878152D02*
X108190476Y-83925771D01*
X108190476Y-83925771D02*
X108095238Y-83973390D01*
X108095238Y-83973390D02*
X107904762Y-83973390D01*
X107904762Y-83973390D02*
X107809524Y-84021009D01*
X107809524Y-84021009D02*
X107761905Y-84068628D01*
X107761905Y-84068628D02*
X107714286Y-84163866D01*
X107714286Y-84163866D02*
X107714286Y-84354342D01*
X107714286Y-84354342D02*
X107761905Y-84449580D01*
X107761905Y-84449580D02*
X107809524Y-84497200D01*
X107809524Y-84497200D02*
X107904762Y-84544819D01*
X107904762Y-84544819D02*
X108095238Y-84544819D01*
X108095238Y-84544819D02*
X108190476Y-84497200D01*
X108190476Y-84497200D02*
X108238095Y-84449580D01*
X108238095Y-84449580D02*
X108285714Y-84354342D01*
X108285714Y-84354342D02*
X108285714Y-84163866D01*
X108285714Y-84163866D02*
X108238095Y-84068628D01*
X108238095Y-84068628D02*
X108190476Y-84021009D01*
X108190476Y-84021009D02*
X108095238Y-83973390D01*
X91884818Y-116288092D02*
X92694341Y-116288092D01*
X92694341Y-116288092D02*
X92789579Y-116240473D01*
X92789579Y-116240473D02*
X92837199Y-116192854D01*
X92837199Y-116192854D02*
X92884818Y-116097616D01*
X92884818Y-116097616D02*
X92884818Y-115907140D01*
X92884818Y-115907140D02*
X92837199Y-115811902D01*
X92837199Y-115811902D02*
X92789579Y-115764283D01*
X92789579Y-115764283D02*
X92694341Y-115716664D01*
X92694341Y-115716664D02*
X91884818Y-115716664D01*
X92884818Y-114716664D02*
X92884818Y-115288092D01*
X92884818Y-115002378D02*
X91884818Y-115002378D01*
X91884818Y-115002378D02*
X92027675Y-115097616D01*
X92027675Y-115097616D02*
X92122913Y-115192854D01*
X92122913Y-115192854D02*
X92170532Y-115288092D01*
X92884818Y-113764283D02*
X92884818Y-114335711D01*
X92884818Y-114049997D02*
X91884818Y-114049997D01*
X91884818Y-114049997D02*
X92027675Y-114145235D01*
X92027675Y-114145235D02*
X92122913Y-114240473D01*
X92122913Y-114240473D02*
X92170532Y-114335711D01*
X83083333Y-66704819D02*
X82750000Y-66228628D01*
X82511905Y-66704819D02*
X82511905Y-65704819D01*
X82511905Y-65704819D02*
X82892857Y-65704819D01*
X82892857Y-65704819D02*
X82988095Y-65752438D01*
X82988095Y-65752438D02*
X83035714Y-65800057D01*
X83035714Y-65800057D02*
X83083333Y-65895295D01*
X83083333Y-65895295D02*
X83083333Y-66038152D01*
X83083333Y-66038152D02*
X83035714Y-66133390D01*
X83035714Y-66133390D02*
X82988095Y-66181009D01*
X82988095Y-66181009D02*
X82892857Y-66228628D01*
X82892857Y-66228628D02*
X82511905Y-66228628D01*
X83416667Y-65704819D02*
X84035714Y-65704819D01*
X84035714Y-65704819D02*
X83702381Y-66085771D01*
X83702381Y-66085771D02*
X83845238Y-66085771D01*
X83845238Y-66085771D02*
X83940476Y-66133390D01*
X83940476Y-66133390D02*
X83988095Y-66181009D01*
X83988095Y-66181009D02*
X84035714Y-66276247D01*
X84035714Y-66276247D02*
X84035714Y-66514342D01*
X84035714Y-66514342D02*
X83988095Y-66609580D01*
X83988095Y-66609580D02*
X83940476Y-66657200D01*
X83940476Y-66657200D02*
X83845238Y-66704819D01*
X83845238Y-66704819D02*
X83559524Y-66704819D01*
X83559524Y-66704819D02*
X83464286Y-66657200D01*
X83464286Y-66657200D02*
X83416667Y-66609580D01*
X86916666Y-64454819D02*
X86916666Y-65169104D01*
X86916666Y-65169104D02*
X86869047Y-65311961D01*
X86869047Y-65311961D02*
X86773809Y-65407200D01*
X86773809Y-65407200D02*
X86630952Y-65454819D01*
X86630952Y-65454819D02*
X86535714Y-65454819D01*
X87392857Y-65454819D02*
X87392857Y-64454819D01*
X87392857Y-64454819D02*
X87773809Y-64454819D01*
X87773809Y-64454819D02*
X87869047Y-64502438D01*
X87869047Y-64502438D02*
X87916666Y-64550057D01*
X87916666Y-64550057D02*
X87964285Y-64645295D01*
X87964285Y-64645295D02*
X87964285Y-64788152D01*
X87964285Y-64788152D02*
X87916666Y-64883390D01*
X87916666Y-64883390D02*
X87869047Y-64931009D01*
X87869047Y-64931009D02*
X87773809Y-64978628D01*
X87773809Y-64978628D02*
X87392857Y-64978628D01*
X88297619Y-64454819D02*
X88916666Y-64454819D01*
X88916666Y-64454819D02*
X88583333Y-64835771D01*
X88583333Y-64835771D02*
X88726190Y-64835771D01*
X88726190Y-64835771D02*
X88821428Y-64883390D01*
X88821428Y-64883390D02*
X88869047Y-64931009D01*
X88869047Y-64931009D02*
X88916666Y-65026247D01*
X88916666Y-65026247D02*
X88916666Y-65264342D01*
X88916666Y-65264342D02*
X88869047Y-65359580D01*
X88869047Y-65359580D02*
X88821428Y-65407200D01*
X88821428Y-65407200D02*
X88726190Y-65454819D01*
X88726190Y-65454819D02*
X88440476Y-65454819D01*
X88440476Y-65454819D02*
X88345238Y-65407200D01*
X88345238Y-65407200D02*
X88297619Y-65359580D01*
D13*
%TO.C,J9*%
X129350000Y-55900000D02*
X129350000Y-64100000D01*
X121150000Y-55900000D02*
X129350000Y-55900000D01*
X121150000Y-55900000D02*
X121150000Y-64100000D01*
X121650000Y-60000000D02*
X121150000Y-59500000D01*
X121150000Y-60500000D02*
X121650000Y-60000000D01*
X121150000Y-64100000D02*
X129350000Y-64100000D01*
%TO.C,J12*%
X59350000Y-55900000D02*
X59350000Y-64100000D01*
X51150000Y-55900000D02*
X59350000Y-55900000D01*
X51150000Y-55900000D02*
X51150000Y-64100000D01*
X51650000Y-60000000D02*
X51150000Y-59500000D01*
X51150000Y-60500000D02*
X51650000Y-60000000D01*
X51150000Y-64100000D02*
X59350000Y-64100000D01*
%TO.C,J11*%
X81150000Y-64100000D02*
X89350000Y-64100000D01*
X81150000Y-60500000D02*
X81650000Y-60000000D01*
X81650000Y-60000000D02*
X81150000Y-59500000D01*
X81150000Y-55900000D02*
X81150000Y-64100000D01*
X81150000Y-55900000D02*
X89350000Y-55900000D01*
X89350000Y-55900000D02*
X89350000Y-64100000D01*
%TO.C,J10*%
X99350000Y-55900000D02*
X99350000Y-64100000D01*
X91150000Y-55900000D02*
X99350000Y-55900000D01*
X91150000Y-55900000D02*
X91150000Y-64100000D01*
X91650000Y-60000000D02*
X91150000Y-59500000D01*
X91150000Y-60500000D02*
X91650000Y-60000000D01*
X91150000Y-64100000D02*
X99350000Y-64100000D01*
%TO.C,P2*%
X62500000Y-73275000D02*
X121040000Y-73275000D01*
X62500000Y-75875000D02*
X62500000Y-73275000D01*
X62500000Y-78475000D02*
X62500000Y-77145000D01*
X63830000Y-78475000D02*
X62500000Y-78475000D01*
X65100000Y-75875000D02*
X62500000Y-75875000D01*
X65100000Y-78475000D02*
X65100000Y-75875000D01*
X65100000Y-78475000D02*
X121040000Y-78475000D01*
X121040000Y-78475000D02*
X121040000Y-73275000D01*
%TO.C,P1*%
X62500000Y-121535000D02*
X121040000Y-121535000D01*
X62500000Y-124135000D02*
X62500000Y-121535000D01*
X62500000Y-126735000D02*
X62500000Y-125405000D01*
X63830000Y-126735000D02*
X62500000Y-126735000D01*
X65100000Y-124135000D02*
X62500000Y-124135000D01*
X65100000Y-126735000D02*
X65100000Y-124135000D01*
X65100000Y-126735000D02*
X121040000Y-126735000D01*
X121040000Y-126735000D02*
X121040000Y-121535000D01*
%TO.C,C12*%
X95569999Y-111415833D02*
X95569999Y-111184163D01*
X96289999Y-111415833D02*
X96289999Y-111184163D01*
D10*
%TO.C,U10*%
X82929999Y-118349999D02*
X82929999Y-114149997D01*
X87929999Y-115949999D02*
X87929999Y-114149997D01*
D14*
%TO.C,U1*%
G36*
X74810500Y-130179400D02*
G01*
X74429500Y-130179400D01*
X74429500Y-129925400D01*
X74810500Y-129925400D01*
X74810500Y-130179400D01*
G37*
D15*
X66441200Y-133583000D02*
G75*
G02*
X66441200Y-134192600I0J-304800D01*
G01*
X76448800Y-134977103D02*
X76448800Y-132798497D01*
X66441200Y-132798497D02*
X66441200Y-134977103D01*
D13*
%TO.C,C6*%
X83384165Y-85610000D02*
X83615835Y-85610000D01*
X83384165Y-84890000D02*
X83615835Y-84890000D01*
%TO.C,R2*%
X102417621Y-65130000D02*
X102082379Y-65130000D01*
X102417621Y-64370000D02*
X102082379Y-64370000D01*
D14*
%TO.C,U6*%
G36*
X86865500Y-86041600D02*
G01*
X86484500Y-86041600D01*
X86484500Y-85787600D01*
X86865500Y-85787600D01*
X86865500Y-86041600D01*
G37*
D15*
X78496200Y-89445200D02*
G75*
G02*
X78496200Y-90054800I0J-304800D01*
G01*
X88503800Y-90839303D02*
X88503800Y-88660697D01*
X78496200Y-88660697D02*
X78496200Y-90839303D01*
D13*
%TO.C,JP1*%
X126350000Y-67050000D02*
X126350000Y-66450000D01*
X127050000Y-65750000D02*
X128450000Y-65750000D01*
X128450000Y-67750000D02*
X127050000Y-67750000D01*
X129150000Y-66450000D02*
X129150000Y-67050000D01*
X126350000Y-66450000D02*
G75*
G02*
X127050000Y-65750000I699999J1D01*
G01*
X127050000Y-67750000D02*
G75*
G02*
X126350000Y-67050000I-1J699999D01*
G01*
X128450000Y-65750000D02*
G75*
G02*
X129150000Y-66450000I0J-700000D01*
G01*
X129150000Y-67050000D02*
G75*
G02*
X128450000Y-67750000I-700000J0D01*
G01*
%TO.C,J1*%
X110375000Y-148467800D02*
X110375000Y-143267800D01*
X72215000Y-148467800D02*
X110375000Y-148467800D01*
X72215000Y-148467800D02*
X72215000Y-145867800D01*
X72215000Y-145867800D02*
X69615000Y-145867800D01*
X70945000Y-148467800D02*
X69615000Y-148467800D01*
X69615000Y-148467800D02*
X69615000Y-147137800D01*
X69615000Y-145867800D02*
X69615000Y-143267800D01*
X69615000Y-143267800D02*
X110375000Y-143267800D01*
%TO.C,C11*%
X88569999Y-111415833D02*
X88569999Y-111184163D01*
X89289999Y-111415833D02*
X89289999Y-111184163D01*
D14*
%TO.C,U3*%
G36*
X98810500Y-130179400D02*
G01*
X98429500Y-130179400D01*
X98429500Y-129925400D01*
X98810500Y-129925400D01*
X98810500Y-130179400D01*
G37*
D15*
X90441200Y-133583000D02*
G75*
G02*
X90441200Y-134192600I0J-304800D01*
G01*
X100448800Y-134977103D02*
X100448800Y-132798497D01*
X90441200Y-132798497D02*
X90441200Y-134977103D01*
D10*
%TO.C,U9*%
X75854999Y-118349999D02*
X75854999Y-114149997D01*
X80854999Y-115949999D02*
X80854999Y-114149997D01*
D13*
%TO.C,C1*%
X71329165Y-129747800D02*
X71560835Y-129747800D01*
X71329165Y-129027800D02*
X71560835Y-129027800D01*
%TO.C,C10*%
X81569999Y-111415833D02*
X81569999Y-111184163D01*
X82289999Y-111415833D02*
X82289999Y-111184163D01*
D14*
%TO.C,U2*%
G36*
X86810500Y-130179400D02*
G01*
X86429500Y-130179400D01*
X86429500Y-129925400D01*
X86810500Y-129925400D01*
X86810500Y-130179400D01*
G37*
D15*
X78441200Y-133583000D02*
G75*
G02*
X78441200Y-134192600I0J-304800D01*
G01*
X88448800Y-134977103D02*
X88448800Y-132798497D01*
X78441200Y-132798497D02*
X78441200Y-134977103D01*
D13*
%TO.C,R4*%
X57667621Y-65380000D02*
X57332379Y-65380000D01*
X57667621Y-64620000D02*
X57332379Y-64620000D01*
D14*
%TO.C,U7*%
G36*
X98865500Y-86041600D02*
G01*
X98484500Y-86041600D01*
X98484500Y-85787600D01*
X98865500Y-85787600D01*
X98865500Y-86041600D01*
G37*
D15*
X90496200Y-89445200D02*
G75*
G02*
X90496200Y-90054800I0J-304800D01*
G01*
X100503800Y-90839303D02*
X100503800Y-88660697D01*
X90496200Y-88660697D02*
X90496200Y-90839303D01*
D13*
%TO.C,R1*%
X116082379Y-64370000D02*
X116417621Y-64370000D01*
X116082379Y-65130000D02*
X116417621Y-65130000D01*
%TO.C,C3*%
X95329165Y-129747800D02*
X95560835Y-129747800D01*
X95329165Y-129027800D02*
X95560835Y-129027800D01*
D14*
%TO.C,U5*%
G36*
X74865500Y-86041600D02*
G01*
X74484500Y-86041600D01*
X74484500Y-85787600D01*
X74865500Y-85787600D01*
X74865500Y-86041600D01*
G37*
D15*
X66496200Y-89445200D02*
G75*
G02*
X66496200Y-90054800I0J-304800D01*
G01*
X76503800Y-90839303D02*
X76503800Y-88660697D01*
X66496200Y-88660697D02*
X66496200Y-90839303D01*
D13*
%TO.C,C7*%
X95384165Y-85610000D02*
X95615835Y-85610000D01*
X95384165Y-84890000D02*
X95615835Y-84890000D01*
D15*
%TO.C,J7*%
X68882200Y-63632200D02*
X68882200Y-56367800D01*
X68882200Y-56367800D02*
X61617800Y-56367800D01*
X68780600Y-56621800D02*
X68780600Y-45877600D01*
X68780600Y-45877600D02*
X61719400Y-45877600D01*
X68454010Y-56621800D02*
X68780600Y-56621800D01*
X63374010Y-56621800D02*
X67125990Y-56621800D01*
X61719400Y-56621800D02*
X62045990Y-56621800D01*
X61719400Y-45877600D02*
X61719400Y-56621800D01*
X61617800Y-63632200D02*
X68882200Y-63632200D01*
X61617800Y-56367800D02*
X61617800Y-63632200D01*
D10*
%TO.C,U12*%
X96929999Y-118349999D02*
X96929999Y-114149997D01*
X101929999Y-115949999D02*
X101929999Y-114149997D01*
D15*
%TO.C,J6*%
X71617800Y-56367800D02*
X71617800Y-63632200D01*
X71617800Y-63632200D02*
X78882200Y-63632200D01*
X71719400Y-45877600D02*
X71719400Y-56621800D01*
X71719400Y-56621800D02*
X72045990Y-56621800D01*
X73374010Y-56621800D02*
X77125990Y-56621800D01*
X78454010Y-56621800D02*
X78780600Y-56621800D01*
X78780600Y-45877600D02*
X71719400Y-45877600D01*
X78780600Y-56621800D02*
X78780600Y-45877600D01*
X78882200Y-56367800D02*
X71617800Y-56367800D01*
X78882200Y-63632200D02*
X78882200Y-56367800D01*
D13*
%TO.C,JP2*%
X91350000Y-67050000D02*
X91350000Y-66450000D01*
X92050000Y-65750000D02*
X93450000Y-65750000D01*
X93450000Y-67750000D02*
X92050000Y-67750000D01*
X94150000Y-66450000D02*
X94150000Y-67050000D01*
X91350000Y-66450000D02*
G75*
G02*
X92050000Y-65750000I699999J1D01*
G01*
X92050000Y-67750000D02*
G75*
G02*
X91350000Y-67050000I-1J699999D01*
G01*
X93450000Y-65750000D02*
G75*
G02*
X94150000Y-66450000I0J-700000D01*
G01*
X94150000Y-67050000D02*
G75*
G02*
X93450000Y-67750000I-700000J0D01*
G01*
D14*
%TO.C,U8*%
G36*
X110865500Y-86041600D02*
G01*
X110484500Y-86041600D01*
X110484500Y-85787600D01*
X110865500Y-85787600D01*
X110865500Y-86041600D01*
G37*
D15*
X102496200Y-89445200D02*
G75*
G02*
X102496200Y-90054800I0J-304800D01*
G01*
X112503800Y-90839303D02*
X112503800Y-88660697D01*
X102496200Y-88660697D02*
X102496200Y-90839303D01*
D13*
%TO.C,C2*%
X83329165Y-129747800D02*
X83560835Y-129747800D01*
X83329165Y-129027800D02*
X83560835Y-129027800D01*
%TO.C,C5*%
X71384165Y-85610000D02*
X71615835Y-85610000D01*
X71384165Y-84890000D02*
X71615835Y-84890000D01*
%TO.C,C17*%
X115860000Y-70884165D02*
X115860000Y-71115835D01*
X115140000Y-70884165D02*
X115140000Y-71115835D01*
%TO.C,C4*%
X107329165Y-129747800D02*
X107560835Y-129747800D01*
X107329165Y-129027800D02*
X107560835Y-129027800D01*
D15*
%TO.C,J5*%
X108780600Y-45877600D02*
X101719400Y-45877600D01*
X101719400Y-45877600D02*
X101719400Y-56621800D01*
X108882200Y-56367800D02*
X101617800Y-56367800D01*
X101617800Y-56367800D02*
X101617800Y-63632200D01*
X108780600Y-56621800D02*
X108780600Y-45877600D01*
X108454010Y-56621800D02*
X108780600Y-56621800D01*
X103374010Y-56621800D02*
X107125990Y-56621800D01*
X101719400Y-56621800D02*
X102045990Y-56621800D01*
X108882200Y-63632200D02*
X108882200Y-56367800D01*
X101617800Y-63632200D02*
X108882200Y-63632200D01*
D16*
%TO.C,J3*%
X131330000Y-115750000D02*
X128220000Y-115750000D01*
X131330000Y-84250000D02*
X131330000Y-115750000D01*
X128220000Y-84250000D02*
X131330000Y-84250000D01*
X124280000Y-115750000D02*
X116340000Y-115750000D01*
X116340000Y-115750000D02*
X116340000Y-84250000D01*
X116340000Y-84250000D02*
X124280000Y-84250000D01*
D13*
%TO.C,J8*%
X87900000Y-78355000D02*
X87900000Y-81015000D01*
X100660000Y-78355000D02*
X87900000Y-78355000D01*
X100660000Y-78355000D02*
X100660000Y-81015000D01*
X100660000Y-81015000D02*
X87900000Y-81015000D01*
X103260000Y-79685000D02*
X103260000Y-81015000D01*
X103260000Y-81015000D02*
X101930000Y-81015000D01*
D15*
%TO.C,J4*%
X111617800Y-63632200D02*
X118882200Y-63632200D01*
X118882200Y-63632200D02*
X118882200Y-56367800D01*
X111719400Y-56621800D02*
X112045990Y-56621800D01*
X113374010Y-56621800D02*
X117125990Y-56621800D01*
X118454010Y-56621800D02*
X118780600Y-56621800D01*
X118780600Y-56621800D02*
X118780600Y-45877600D01*
X111617800Y-56367800D02*
X111617800Y-63632200D01*
X118882200Y-56367800D02*
X111617800Y-56367800D01*
X111719400Y-45877600D02*
X111719400Y-56621800D01*
X118780600Y-45877600D02*
X111719400Y-45877600D01*
D13*
%TO.C,J2*%
X110430000Y-104330000D02*
X110430000Y-99130000D01*
X72270000Y-104330000D02*
X110430000Y-104330000D01*
X72270000Y-104330000D02*
X72270000Y-101730000D01*
X72270000Y-101730000D02*
X69670000Y-101730000D01*
X71000000Y-104330000D02*
X69670000Y-104330000D01*
X69670000Y-104330000D02*
X69670000Y-103000000D01*
X69670000Y-101730000D02*
X69670000Y-99130000D01*
X69670000Y-99130000D02*
X110430000Y-99130000D01*
D15*
%TO.C,U13*%
X114558800Y-69451503D02*
X114558800Y-67272897D01*
X104551200Y-67272897D02*
X104551200Y-69451503D01*
X114558800Y-68667000D02*
G75*
G02*
X114558800Y-68057400I0J304800D01*
G01*
D14*
G36*
X106570500Y-72324600D02*
G01*
X106189500Y-72324600D01*
X106189500Y-72070600D01*
X106570500Y-72070600D01*
X106570500Y-72324600D01*
G37*
D13*
%TO.C,JP4*%
X51350000Y-67050000D02*
X51350000Y-66450000D01*
X52050000Y-65750000D02*
X53450000Y-65750000D01*
X53450000Y-67750000D02*
X52050000Y-67750000D01*
X54150000Y-66450000D02*
X54150000Y-67050000D01*
X51350000Y-66450000D02*
G75*
G02*
X52050000Y-65750000I699999J1D01*
G01*
X52050000Y-67750000D02*
G75*
G02*
X51350000Y-67050000I-1J699999D01*
G01*
X53450000Y-65750000D02*
G75*
G02*
X54150000Y-66450000I0J-700000D01*
G01*
X54150000Y-67050000D02*
G75*
G02*
X53450000Y-67750000I-700000J0D01*
G01*
%TO.C,C9*%
X74569999Y-111415833D02*
X74569999Y-111184163D01*
X75289999Y-111415833D02*
X75289999Y-111184163D01*
D14*
%TO.C,U4*%
G36*
X110810500Y-130179400D02*
G01*
X110429500Y-130179400D01*
X110429500Y-129925400D01*
X110810500Y-129925400D01*
X110810500Y-130179400D01*
G37*
D15*
X102441200Y-133583000D02*
G75*
G02*
X102441200Y-134192600I0J-304800D01*
G01*
X112448800Y-134977103D02*
X112448800Y-132798497D01*
X102441200Y-132798497D02*
X102441200Y-134977103D01*
D13*
%TO.C,C8*%
X107384165Y-85610000D02*
X107615835Y-85610000D01*
X107384165Y-84890000D02*
X107615835Y-84890000D01*
D10*
%TO.C,U11*%
X89929999Y-118349999D02*
X89929999Y-114149997D01*
X94929999Y-115949999D02*
X94929999Y-114149997D01*
D13*
%TO.C,R3*%
X83082379Y-64620000D02*
X83417621Y-64620000D01*
X83082379Y-65380000D02*
X83417621Y-65380000D01*
%TO.C,JP3*%
X89150000Y-66450000D02*
X89150000Y-67050000D01*
X88450000Y-67750000D02*
X87050000Y-67750000D01*
X87050000Y-65750000D02*
X88450000Y-65750000D01*
X86350000Y-67050000D02*
X86350000Y-66450000D01*
X89150000Y-67050000D02*
G75*
G02*
X88450000Y-67750000I-699999J-1D01*
G01*
X88450000Y-65750000D02*
G75*
G02*
X89150000Y-66450000I1J-699999D01*
G01*
X87050000Y-67750000D02*
G75*
G02*
X86350000Y-67050000I0J700000D01*
G01*
X86350000Y-66450000D02*
G75*
G02*
X87050000Y-65750000I700000J0D01*
G01*
%TD*%
M02*
