%TF.GenerationSoftware,KiCad,Pcbnew,8.0.6*%
%TF.CreationDate,2025-01-31T14:28:19-05:00*%
%TF.ProjectId,LVDS_BeagleVFire_Cape,4c564453-5f42-4656-9167-6c6556466972,1*%
%TF.SameCoordinates,Original*%
%TF.FileFunction,Drillmap*%
%TF.FilePolarity,Positive*%
%FSLAX45Y45*%
G04 Gerber Fmt 4.5, Leading zero omitted, Abs format (unit mm)*
G04 Created by KiCad (PCBNEW 8.0.6) date 2025-01-31 14:28:19*
%MOMM*%
%LPD*%
G01*
G04 APERTURE LIST*
%ADD10C,0.120000*%
%ADD11C,0.050000*%
%ADD12C,0.200000*%
%ADD13C,0.100000*%
%ADD14C,0.320000*%
G04 APERTURE END LIST*
D10*
X14000000Y-15000000D02*
X5000000Y-15000000D01*
X5000000Y-10635500D01*
X6460500Y-10635500D01*
X6460500Y-8231000D01*
X5000000Y-8231000D01*
X5000000Y-5000000D01*
X14000000Y-5000000D01*
X14000000Y-15000000D01*
D11*
X10940000Y-9936750D02*
G75*
G02*
X8140000Y-9936750I-1400000J0D01*
G01*
X8140000Y-9936750D02*
G75*
G02*
X10940000Y-9936750I1400000J0D01*
G01*
D12*
D13*
X12682742Y-10507258D02*
X12712742Y-10537258D01*
X12712742Y-10507258D02*
X12682742Y-10537258D01*
X12727258Y-10462742D02*
X12757258Y-10492742D01*
X12757258Y-10462742D02*
X12727258Y-10492742D01*
X13665000Y-10493523D02*
X13695000Y-10523523D01*
X13695000Y-10493523D02*
X13665000Y-10523523D01*
X13665000Y-10556477D02*
X13695000Y-10586477D01*
X13695000Y-10556477D02*
X13665000Y-10586477D01*
X6720000Y-12980000D02*
G75*
G02*
X6680000Y-12980000I-20000J0D01*
G01*
X6680000Y-12980000D02*
G75*
G02*
X6720000Y-12980000I20000J0D01*
G01*
X6773483Y-6780000D02*
G75*
G02*
X6733483Y-6780000I-20000J0D01*
G01*
X6733483Y-6780000D02*
G75*
G02*
X6773483Y-6780000I20000J0D01*
G01*
X6820000Y-12900000D02*
G75*
G02*
X6780000Y-12900000I-20000J0D01*
G01*
X6780000Y-12900000D02*
G75*
G02*
X6820000Y-12900000I20000J0D01*
G01*
X7040000Y-12940000D02*
G75*
G02*
X7000000Y-12940000I-20000J0D01*
G01*
X7000000Y-12940000D02*
G75*
G02*
X7040000Y-12940000I20000J0D01*
G01*
X7100000Y-12860000D02*
G75*
G02*
X7060000Y-12860000I-20000J0D01*
G01*
X7060000Y-12860000D02*
G75*
G02*
X7100000Y-12860000I20000J0D01*
G01*
X7177343Y-7048780D02*
G75*
G02*
X7137343Y-7048780I-20000J0D01*
G01*
X7137343Y-7048780D02*
G75*
G02*
X7177343Y-7048780I20000J0D01*
G01*
X7220000Y-12860000D02*
G75*
G02*
X7180000Y-12860000I-20000J0D01*
G01*
X7180000Y-12860000D02*
G75*
G02*
X7220000Y-12860000I20000J0D01*
G01*
X7252843Y-7118765D02*
G75*
G02*
X7212843Y-7118765I-20000J0D01*
G01*
X7212843Y-7118765D02*
G75*
G02*
X7252843Y-7118765I20000J0D01*
G01*
X7260000Y-7240000D02*
G75*
G02*
X7220000Y-7240000I-20000J0D01*
G01*
X7220000Y-7240000D02*
G75*
G02*
X7260000Y-7240000I20000J0D01*
G01*
X7300000Y-12940000D02*
G75*
G02*
X7260000Y-12940000I-20000J0D01*
G01*
X7260000Y-12940000D02*
G75*
G02*
X7300000Y-12940000I20000J0D01*
G01*
X7372843Y-7118765D02*
G75*
G02*
X7332843Y-7118765I-20000J0D01*
G01*
X7332843Y-7118765D02*
G75*
G02*
X7372843Y-7118765I20000J0D01*
G01*
X7380000Y-12840000D02*
G75*
G02*
X7340000Y-12840000I-20000J0D01*
G01*
X7340000Y-12840000D02*
G75*
G02*
X7380000Y-12840000I20000J0D01*
G01*
X7437343Y-7048780D02*
G75*
G02*
X7397343Y-7048780I-20000J0D01*
G01*
X7397343Y-7048780D02*
G75*
G02*
X7437343Y-7048780I20000J0D01*
G01*
X7560000Y-8740000D02*
G75*
G02*
X7520000Y-8740000I-20000J0D01*
G01*
X7520000Y-8740000D02*
G75*
G02*
X7560000Y-8740000I20000J0D01*
G01*
X7620000Y-8680000D02*
G75*
G02*
X7580000Y-8680000I-20000J0D01*
G01*
X7580000Y-8680000D02*
G75*
G02*
X7620000Y-8680000I20000J0D01*
G01*
X7620000Y-8800000D02*
G75*
G02*
X7580000Y-8800000I-20000J0D01*
G01*
X7580000Y-8800000D02*
G75*
G02*
X7620000Y-8800000I20000J0D01*
G01*
X7620000Y-8960000D02*
G75*
G02*
X7580000Y-8960000I-20000J0D01*
G01*
X7580000Y-8960000D02*
G75*
G02*
X7620000Y-8960000I20000J0D01*
G01*
X7660000Y-12940000D02*
G75*
G02*
X7620000Y-12940000I-20000J0D01*
G01*
X7620000Y-12940000D02*
G75*
G02*
X7660000Y-12940000I20000J0D01*
G01*
X7680000Y-8740000D02*
G75*
G02*
X7640000Y-8740000I-20000J0D01*
G01*
X7640000Y-8740000D02*
G75*
G02*
X7680000Y-8740000I20000J0D01*
G01*
X7680000Y-8900000D02*
G75*
G02*
X7640000Y-8900000I-20000J0D01*
G01*
X7640000Y-8900000D02*
G75*
G02*
X7680000Y-8900000I20000J0D01*
G01*
X7680000Y-9020000D02*
G75*
G02*
X7640000Y-9020000I-20000J0D01*
G01*
X7640000Y-9020000D02*
G75*
G02*
X7680000Y-9020000I20000J0D01*
G01*
X7740000Y-8960000D02*
G75*
G02*
X7700000Y-8960000I-20000J0D01*
G01*
X7700000Y-8960000D02*
G75*
G02*
X7740000Y-8960000I20000J0D01*
G01*
X7860000Y-7100000D02*
G75*
G02*
X7820000Y-7100000I-20000J0D01*
G01*
X7820000Y-7100000D02*
G75*
G02*
X7860000Y-7100000I20000J0D01*
G01*
X7872843Y-6820000D02*
G75*
G02*
X7832843Y-6820000I-20000J0D01*
G01*
X7832843Y-6820000D02*
G75*
G02*
X7872843Y-6820000I20000J0D01*
G01*
X7920000Y-12980000D02*
G75*
G02*
X7880000Y-12980000I-20000J0D01*
G01*
X7880000Y-12980000D02*
G75*
G02*
X7920000Y-12980000I20000J0D01*
G01*
X7960000Y-6740000D02*
G75*
G02*
X7920000Y-6740000I-20000J0D01*
G01*
X7920000Y-6740000D02*
G75*
G02*
X7960000Y-6740000I20000J0D01*
G01*
X7980000Y-12860000D02*
G75*
G02*
X7940000Y-12860000I-20000J0D01*
G01*
X7940000Y-12860000D02*
G75*
G02*
X7980000Y-12860000I20000J0D01*
G01*
X8240000Y-12940000D02*
G75*
G02*
X8200000Y-12940000I-20000J0D01*
G01*
X8200000Y-12940000D02*
G75*
G02*
X8240000Y-12940000I20000J0D01*
G01*
X8280000Y-7060000D02*
G75*
G02*
X8240000Y-7060000I-20000J0D01*
G01*
X8240000Y-7060000D02*
G75*
G02*
X8280000Y-7060000I20000J0D01*
G01*
X8300000Y-12860000D02*
G75*
G02*
X8260000Y-12860000I-20000J0D01*
G01*
X8260000Y-12860000D02*
G75*
G02*
X8300000Y-12860000I20000J0D01*
G01*
X8377343Y-7048780D02*
G75*
G02*
X8337343Y-7048780I-20000J0D01*
G01*
X8337343Y-7048780D02*
G75*
G02*
X8377343Y-7048780I20000J0D01*
G01*
X8420000Y-12860000D02*
G75*
G02*
X8380000Y-12860000I-20000J0D01*
G01*
X8380000Y-12860000D02*
G75*
G02*
X8420000Y-12860000I20000J0D01*
G01*
X8452843Y-7118765D02*
G75*
G02*
X8412843Y-7118765I-20000J0D01*
G01*
X8412843Y-7118765D02*
G75*
G02*
X8452843Y-7118765I20000J0D01*
G01*
X8500000Y-12940000D02*
G75*
G02*
X8460000Y-12940000I-20000J0D01*
G01*
X8460000Y-12940000D02*
G75*
G02*
X8500000Y-12940000I20000J0D01*
G01*
X8572843Y-7118765D02*
G75*
G02*
X8532843Y-7118765I-20000J0D01*
G01*
X8532843Y-7118765D02*
G75*
G02*
X8572843Y-7118765I20000J0D01*
G01*
X8600000Y-12860000D02*
G75*
G02*
X8560000Y-12860000I-20000J0D01*
G01*
X8560000Y-12860000D02*
G75*
G02*
X8600000Y-12860000I20000J0D01*
G01*
X8637343Y-7048780D02*
G75*
G02*
X8597343Y-7048780I-20000J0D01*
G01*
X8597343Y-7048780D02*
G75*
G02*
X8637343Y-7048780I20000J0D01*
G01*
X8860000Y-12940000D02*
G75*
G02*
X8820000Y-12940000I-20000J0D01*
G01*
X8820000Y-12940000D02*
G75*
G02*
X8860000Y-12940000I20000J0D01*
G01*
X9052843Y-6820000D02*
G75*
G02*
X9012843Y-6820000I-20000J0D01*
G01*
X9012843Y-6820000D02*
G75*
G02*
X9052843Y-6820000I20000J0D01*
G01*
X9060000Y-7100000D02*
G75*
G02*
X9020000Y-7100000I-20000J0D01*
G01*
X9020000Y-7100000D02*
G75*
G02*
X9060000Y-7100000I20000J0D01*
G01*
X9120000Y-12860000D02*
G75*
G02*
X9080000Y-12860000I-20000J0D01*
G01*
X9080000Y-12860000D02*
G75*
G02*
X9120000Y-12860000I20000J0D01*
G01*
X9120000Y-12980000D02*
G75*
G02*
X9080000Y-12980000I-20000J0D01*
G01*
X9080000Y-12980000D02*
G75*
G02*
X9120000Y-12980000I20000J0D01*
G01*
X9172843Y-6740000D02*
G75*
G02*
X9132843Y-6740000I-20000J0D01*
G01*
X9132843Y-6740000D02*
G75*
G02*
X9172843Y-6740000I20000J0D01*
G01*
X9440000Y-12940000D02*
G75*
G02*
X9400000Y-12940000I-20000J0D01*
G01*
X9400000Y-12940000D02*
G75*
G02*
X9440000Y-12940000I20000J0D01*
G01*
X9480000Y-7060000D02*
G75*
G02*
X9440000Y-7060000I-20000J0D01*
G01*
X9440000Y-7060000D02*
G75*
G02*
X9480000Y-7060000I20000J0D01*
G01*
X9500000Y-12860000D02*
G75*
G02*
X9460000Y-12860000I-20000J0D01*
G01*
X9460000Y-12860000D02*
G75*
G02*
X9500000Y-12860000I20000J0D01*
G01*
X9577343Y-7048780D02*
G75*
G02*
X9537343Y-7048780I-20000J0D01*
G01*
X9537343Y-7048780D02*
G75*
G02*
X9577343Y-7048780I20000J0D01*
G01*
X9620000Y-12860000D02*
G75*
G02*
X9580000Y-12860000I-20000J0D01*
G01*
X9580000Y-12860000D02*
G75*
G02*
X9620000Y-12860000I20000J0D01*
G01*
X9652843Y-7118765D02*
G75*
G02*
X9612843Y-7118765I-20000J0D01*
G01*
X9612843Y-7118765D02*
G75*
G02*
X9652843Y-7118765I20000J0D01*
G01*
X9700000Y-12940000D02*
G75*
G02*
X9660000Y-12940000I-20000J0D01*
G01*
X9660000Y-12940000D02*
G75*
G02*
X9700000Y-12940000I20000J0D01*
G01*
X9740000Y-12820000D02*
G75*
G02*
X9700000Y-12820000I-20000J0D01*
G01*
X9700000Y-12820000D02*
G75*
G02*
X9740000Y-12820000I20000J0D01*
G01*
X9772843Y-7118765D02*
G75*
G02*
X9732843Y-7118765I-20000J0D01*
G01*
X9732843Y-7118765D02*
G75*
G02*
X9772843Y-7118765I20000J0D01*
G01*
X9837343Y-7048780D02*
G75*
G02*
X9797343Y-7048780I-20000J0D01*
G01*
X9797343Y-7048780D02*
G75*
G02*
X9837343Y-7048780I20000J0D01*
G01*
X10060000Y-12940000D02*
G75*
G02*
X10020000Y-12940000I-20000J0D01*
G01*
X10020000Y-12940000D02*
G75*
G02*
X10060000Y-12940000I20000J0D01*
G01*
X10115287Y-7084713D02*
G75*
G02*
X10075287Y-7084713I-20000J0D01*
G01*
X10075287Y-7084713D02*
G75*
G02*
X10115287Y-7084713I20000J0D01*
G01*
X10252843Y-6820000D02*
G75*
G02*
X10212843Y-6820000I-20000J0D01*
G01*
X10212843Y-6820000D02*
G75*
G02*
X10252843Y-6820000I20000J0D01*
G01*
X10287166Y-12872834D02*
G75*
G02*
X10247166Y-12872834I-20000J0D01*
G01*
X10247166Y-12872834D02*
G75*
G02*
X10287166Y-12872834I20000J0D01*
G01*
X10320000Y-12980000D02*
G75*
G02*
X10280000Y-12980000I-20000J0D01*
G01*
X10280000Y-12980000D02*
G75*
G02*
X10320000Y-12980000I20000J0D01*
G01*
X10360000Y-6740000D02*
G75*
G02*
X10320000Y-6740000I-20000J0D01*
G01*
X10320000Y-6740000D02*
G75*
G02*
X10360000Y-6740000I20000J0D01*
G01*
X10640000Y-12940000D02*
G75*
G02*
X10600000Y-12940000I-20000J0D01*
G01*
X10600000Y-12940000D02*
G75*
G02*
X10640000Y-12940000I20000J0D01*
G01*
X10680000Y-7100000D02*
G75*
G02*
X10640000Y-7100000I-20000J0D01*
G01*
X10640000Y-7100000D02*
G75*
G02*
X10680000Y-7100000I20000J0D01*
G01*
X10700000Y-12860000D02*
G75*
G02*
X10660000Y-12860000I-20000J0D01*
G01*
X10660000Y-12860000D02*
G75*
G02*
X10700000Y-12860000I20000J0D01*
G01*
X10777343Y-7048780D02*
G75*
G02*
X10737343Y-7048780I-20000J0D01*
G01*
X10737343Y-7048780D02*
G75*
G02*
X10777343Y-7048780I20000J0D01*
G01*
X10820000Y-12860000D02*
G75*
G02*
X10780000Y-12860000I-20000J0D01*
G01*
X10780000Y-12860000D02*
G75*
G02*
X10820000Y-12860000I20000J0D01*
G01*
X10852843Y-7118765D02*
G75*
G02*
X10812843Y-7118765I-20000J0D01*
G01*
X10812843Y-7118765D02*
G75*
G02*
X10852843Y-7118765I20000J0D01*
G01*
X10900000Y-12940000D02*
G75*
G02*
X10860000Y-12940000I-20000J0D01*
G01*
X10860000Y-12940000D02*
G75*
G02*
X10900000Y-12940000I20000J0D01*
G01*
X10940000Y-12820000D02*
G75*
G02*
X10900000Y-12820000I-20000J0D01*
G01*
X10900000Y-12820000D02*
G75*
G02*
X10940000Y-12820000I20000J0D01*
G01*
X10972843Y-7118765D02*
G75*
G02*
X10932843Y-7118765I-20000J0D01*
G01*
X10932843Y-7118765D02*
G75*
G02*
X10972843Y-7118765I20000J0D01*
G01*
X11037343Y-7048780D02*
G75*
G02*
X10997343Y-7048780I-20000J0D01*
G01*
X10997343Y-7048780D02*
G75*
G02*
X11037343Y-7048780I20000J0D01*
G01*
X11100000Y-9300000D02*
G75*
G02*
X11060000Y-9300000I-20000J0D01*
G01*
X11060000Y-9300000D02*
G75*
G02*
X11100000Y-9300000I20000J0D01*
G01*
X11200000Y-9560000D02*
G75*
G02*
X11160000Y-9560000I-20000J0D01*
G01*
X11160000Y-9560000D02*
G75*
G02*
X11200000Y-9560000I20000J0D01*
G01*
X11260000Y-12940000D02*
G75*
G02*
X11220000Y-12940000I-20000J0D01*
G01*
X11220000Y-12940000D02*
G75*
G02*
X11260000Y-12940000I20000J0D01*
G01*
X11452843Y-6860000D02*
G75*
G02*
X11412843Y-6860000I-20000J0D01*
G01*
X11412843Y-6860000D02*
G75*
G02*
X11452843Y-6860000I20000J0D01*
G01*
X11500000Y-8960000D02*
G75*
G02*
X11460000Y-8960000I-20000J0D01*
G01*
X11460000Y-8960000D02*
G75*
G02*
X11500000Y-8960000I20000J0D01*
G01*
X11520000Y-10420000D02*
G75*
G02*
X11480000Y-10420000I-20000J0D01*
G01*
X11480000Y-10420000D02*
G75*
G02*
X11520000Y-10420000I20000J0D01*
G01*
X11537864Y-6486408D02*
G75*
G02*
X11497864Y-6486408I-20000J0D01*
G01*
X11497864Y-6486408D02*
G75*
G02*
X11537864Y-6486408I20000J0D01*
G01*
X11540000Y-6620000D02*
G75*
G02*
X11500000Y-6620000I-20000J0D01*
G01*
X11500000Y-6620000D02*
G75*
G02*
X11540000Y-6620000I20000J0D01*
G01*
X11540000Y-9660000D02*
G75*
G02*
X11500000Y-9660000I-20000J0D01*
G01*
X11500000Y-9660000D02*
G75*
G02*
X11540000Y-9660000I20000J0D01*
G01*
X11545500Y-11020000D02*
G75*
G02*
X11505500Y-11020000I-20000J0D01*
G01*
X11505500Y-11020000D02*
G75*
G02*
X11545500Y-11020000I20000J0D01*
G01*
X11580000Y-6680000D02*
G75*
G02*
X11540000Y-6680000I-20000J0D01*
G01*
X11540000Y-6680000D02*
G75*
G02*
X11580000Y-6680000I20000J0D01*
G01*
X11584919Y-6434582D02*
G75*
G02*
X11544919Y-6434582I-20000J0D01*
G01*
X11544919Y-6434582D02*
G75*
G02*
X11584919Y-6434582I20000J0D01*
G01*
X11620000Y-6120000D02*
G75*
G02*
X11580000Y-6120000I-20000J0D01*
G01*
X11580000Y-6120000D02*
G75*
G02*
X11620000Y-6120000I20000J0D01*
G01*
X11780000Y-7120000D02*
G75*
G02*
X11740000Y-7120000I-20000J0D01*
G01*
X11740000Y-7120000D02*
G75*
G02*
X11780000Y-7120000I20000J0D01*
G01*
X12060000Y-8700000D02*
G75*
G02*
X12020000Y-8700000I-20000J0D01*
G01*
X12020000Y-8700000D02*
G75*
G02*
X12060000Y-8700000I20000J0D01*
G01*
X12060000Y-9400000D02*
G75*
G02*
X12020000Y-9400000I-20000J0D01*
G01*
X12020000Y-9400000D02*
G75*
G02*
X12060000Y-9400000I20000J0D01*
G01*
X12060000Y-10100000D02*
G75*
G02*
X12020000Y-10100000I-20000J0D01*
G01*
X12020000Y-10100000D02*
G75*
G02*
X12060000Y-10100000I20000J0D01*
G01*
X12060000Y-10800000D02*
G75*
G02*
X12020000Y-10800000I-20000J0D01*
G01*
X12020000Y-10800000D02*
G75*
G02*
X12060000Y-10800000I20000J0D01*
G01*
X12220000Y-8760000D02*
G75*
G02*
X12180000Y-8760000I-20000J0D01*
G01*
X12180000Y-8760000D02*
G75*
G02*
X12220000Y-8760000I20000J0D01*
G01*
X12220000Y-9460000D02*
G75*
G02*
X12180000Y-9460000I-20000J0D01*
G01*
X12180000Y-9460000D02*
G75*
G02*
X12220000Y-9460000I20000J0D01*
G01*
X12220000Y-10160000D02*
G75*
G02*
X12180000Y-10160000I-20000J0D01*
G01*
X12180000Y-10160000D02*
G75*
G02*
X12220000Y-10160000I20000J0D01*
G01*
X12220000Y-10860000D02*
G75*
G02*
X12180000Y-10860000I-20000J0D01*
G01*
X12180000Y-10860000D02*
G75*
G02*
X12220000Y-10860000I20000J0D01*
G01*
X12260000Y-9280000D02*
G75*
G02*
X12220000Y-9280000I-20000J0D01*
G01*
X12220000Y-9280000D02*
G75*
G02*
X12260000Y-9280000I20000J0D01*
G01*
X12260000Y-9980000D02*
G75*
G02*
X12220000Y-9980000I-20000J0D01*
G01*
X12220000Y-9980000D02*
G75*
G02*
X12260000Y-9980000I20000J0D01*
G01*
X12260000Y-10700000D02*
G75*
G02*
X12220000Y-10700000I-20000J0D01*
G01*
X12220000Y-10700000D02*
G75*
G02*
X12260000Y-10700000I20000J0D01*
G01*
X12260000Y-11400000D02*
G75*
G02*
X12220000Y-11400000I-20000J0D01*
G01*
X12220000Y-11400000D02*
G75*
G02*
X12260000Y-11400000I20000J0D01*
G01*
X12300000Y-8760000D02*
G75*
G02*
X12260000Y-8760000I-20000J0D01*
G01*
X12260000Y-8760000D02*
G75*
G02*
X12300000Y-8760000I20000J0D01*
G01*
X12300000Y-9460000D02*
G75*
G02*
X12260000Y-9460000I-20000J0D01*
G01*
X12260000Y-9460000D02*
G75*
G02*
X12300000Y-9460000I20000J0D01*
G01*
X12320000Y-10160000D02*
G75*
G02*
X12280000Y-10160000I-20000J0D01*
G01*
X12280000Y-10160000D02*
G75*
G02*
X12320000Y-10160000I20000J0D01*
G01*
X12320000Y-10860000D02*
G75*
G02*
X12280000Y-10860000I-20000J0D01*
G01*
X12280000Y-10860000D02*
G75*
G02*
X12320000Y-10860000I20000J0D01*
G01*
X12326408Y-10677864D02*
G75*
G02*
X12286408Y-10677864I-20000J0D01*
G01*
X12286408Y-10677864D02*
G75*
G02*
X12326408Y-10677864I20000J0D01*
G01*
X12326408Y-11377864D02*
G75*
G02*
X12286408Y-11377864I-20000J0D01*
G01*
X12286408Y-11377864D02*
G75*
G02*
X12326408Y-11377864I20000J0D01*
G01*
X12340000Y-9980000D02*
G75*
G02*
X12300000Y-9980000I-20000J0D01*
G01*
X12300000Y-9980000D02*
G75*
G02*
X12340000Y-9980000I20000J0D01*
G01*
X12380000Y-9220000D02*
G75*
G02*
X12340000Y-9220000I-20000J0D01*
G01*
X12340000Y-9220000D02*
G75*
G02*
X12380000Y-9220000I20000J0D01*
G01*
X12580000Y-6120000D02*
G75*
G02*
X12540000Y-6120000I-20000J0D01*
G01*
X12540000Y-6120000D02*
G75*
G02*
X12580000Y-6120000I20000J0D01*
G01*
X12580000Y-6480000D02*
G75*
G02*
X12540000Y-6480000I-20000J0D01*
G01*
X12540000Y-6480000D02*
G75*
G02*
X12580000Y-6480000I20000J0D01*
G01*
X12580000Y-6620000D02*
G75*
G02*
X12540000Y-6620000I-20000J0D01*
G01*
X12540000Y-6620000D02*
G75*
G02*
X12580000Y-6620000I20000J0D01*
G01*
X12580000Y-7000000D02*
G75*
G02*
X12540000Y-7000000I-20000J0D01*
G01*
X12540000Y-7000000D02*
G75*
G02*
X12580000Y-7000000I20000J0D01*
G01*
X13109500Y-8931900D02*
X13109500Y-9025900D01*
X13062500Y-8978900D02*
X13156500Y-8978900D01*
X13109500Y-9135100D02*
X13109500Y-9229100D01*
X13062500Y-9182100D02*
X13156500Y-9182100D01*
X13109500Y-9338300D02*
X13109500Y-9432300D01*
X13062500Y-9385300D02*
X13156500Y-9385300D01*
X13109500Y-9541500D02*
X13109500Y-9635500D01*
X13062500Y-9588500D02*
X13156500Y-9588500D01*
X13109500Y-10506900D02*
X13109500Y-10600900D01*
X13062500Y-10553900D02*
X13156500Y-10553900D01*
X13109500Y-10710100D02*
X13109500Y-10804100D01*
X13062500Y-10757100D02*
X13156500Y-10757100D01*
X13109500Y-10913300D02*
X13109500Y-11007300D01*
X13062500Y-10960300D02*
X13156500Y-10960300D01*
X13109500Y-11116500D02*
X13109500Y-11210500D01*
X13062500Y-11163500D02*
X13156500Y-11163500D01*
X13287500Y-8830300D02*
X13287500Y-8924300D01*
X13240500Y-8877300D02*
X13334500Y-8877300D01*
X13287500Y-9033500D02*
X13287500Y-9127500D01*
X13240500Y-9080500D02*
X13334500Y-9080500D01*
X13287500Y-9236700D02*
X13287500Y-9330700D01*
X13240500Y-9283700D02*
X13334500Y-9283700D01*
X13287500Y-9439900D02*
X13287500Y-9533900D01*
X13240500Y-9486900D02*
X13334500Y-9486900D01*
X13287500Y-10405300D02*
X13287500Y-10499300D01*
X13240500Y-10452300D02*
X13334500Y-10452300D01*
X13287500Y-10608500D02*
X13287500Y-10702500D01*
X13240500Y-10655500D02*
X13334500Y-10655500D01*
X13287500Y-10811700D02*
X13287500Y-10905700D01*
X13240500Y-10858700D02*
X13334500Y-10858700D01*
X13287500Y-11014900D02*
X13287500Y-11108900D01*
X13240500Y-11061900D02*
X13334500Y-11061900D01*
X12160125Y-5260125D02*
X12160125Y-5191875D01*
X12091875Y-5191875D01*
X12091875Y-5260125D01*
X12160125Y-5260125D01*
X12160125Y-5768125D02*
X12160125Y-5699875D01*
X12091875Y-5699875D01*
X12091875Y-5768125D01*
X12160125Y-5768125D01*
X12414125Y-5514125D02*
X12414125Y-5445875D01*
X12345875Y-5445875D01*
X12345875Y-5514125D01*
X12414125Y-5514125D01*
X12668125Y-5260125D02*
X12668125Y-5191875D01*
X12599875Y-5191875D01*
X12599875Y-5260125D01*
X12668125Y-5260125D01*
X12668125Y-5768125D02*
X12668125Y-5699875D01*
X12599875Y-5699875D01*
X12599875Y-5768125D01*
X12668125Y-5768125D01*
X13220125Y-5280125D02*
X13220125Y-5211875D01*
X13151875Y-5211875D01*
X13151875Y-5280125D01*
X13220125Y-5280125D01*
X13220125Y-5788125D02*
X13220125Y-5719875D01*
X13151875Y-5719875D01*
X13151875Y-5788125D01*
X13220125Y-5788125D01*
X13220125Y-6280125D02*
X13220125Y-6211875D01*
X13151875Y-6211875D01*
X13151875Y-6280125D01*
X13220125Y-6280125D01*
X13220125Y-6788125D02*
X13220125Y-6719875D01*
X13151875Y-6719875D01*
X13151875Y-6788125D01*
X13220125Y-6788125D01*
X13220125Y-7280125D02*
X13220125Y-7211875D01*
X13151875Y-7211875D01*
X13151875Y-7280125D01*
X13220125Y-7280125D01*
X13220125Y-7788125D02*
X13220125Y-7719875D01*
X13151875Y-7719875D01*
X13151875Y-7788125D01*
X13220125Y-7788125D01*
X13474125Y-5534125D02*
X13474125Y-5465875D01*
X13405875Y-5465875D01*
X13405875Y-5534125D01*
X13474125Y-5534125D01*
X13474125Y-6534125D02*
X13474125Y-6465875D01*
X13405875Y-6465875D01*
X13405875Y-6534125D01*
X13474125Y-6534125D01*
X13474125Y-7534125D02*
X13474125Y-7465875D01*
X13405875Y-7465875D01*
X13405875Y-7534125D01*
X13474125Y-7534125D01*
X13728125Y-5280125D02*
X13728125Y-5211875D01*
X13659875Y-5211875D01*
X13659875Y-5280125D01*
X13728125Y-5280125D01*
X13728125Y-5788125D02*
X13728125Y-5719875D01*
X13659875Y-5719875D01*
X13659875Y-5788125D01*
X13728125Y-5788125D01*
X13728125Y-6280125D02*
X13728125Y-6211875D01*
X13659875Y-6211875D01*
X13659875Y-6280125D01*
X13728125Y-6280125D01*
X13728125Y-6788125D02*
X13728125Y-6719875D01*
X13659875Y-6719875D01*
X13659875Y-6788125D01*
X13728125Y-6788125D01*
X13728125Y-7280125D02*
X13728125Y-7211875D01*
X13659875Y-7211875D01*
X13659875Y-7280125D01*
X13728125Y-7280125D01*
X13728125Y-7788125D02*
X13728125Y-7719875D01*
X13659875Y-7719875D01*
X13659875Y-7788125D01*
X13728125Y-7788125D01*
X6383000Y-7510500D02*
X6433000Y-7460500D01*
X6383000Y-7410500D01*
X6333000Y-7460500D01*
X6383000Y-7510500D01*
X6383000Y-7764500D02*
X6433000Y-7714500D01*
X6383000Y-7664500D01*
X6333000Y-7714500D01*
X6383000Y-7764500D01*
X6383000Y-12336500D02*
X6433000Y-12286500D01*
X6383000Y-12236500D01*
X6333000Y-12286500D01*
X6383000Y-12336500D01*
X6383000Y-12590500D02*
X6433000Y-12540500D01*
X6383000Y-12490500D01*
X6333000Y-12540500D01*
X6383000Y-12590500D01*
X6637000Y-7510500D02*
X6687000Y-7460500D01*
X6637000Y-7410500D01*
X6587000Y-7460500D01*
X6637000Y-7510500D01*
X6637000Y-7764500D02*
X6687000Y-7714500D01*
X6637000Y-7664500D01*
X6587000Y-7714500D01*
X6637000Y-7764500D01*
X6637000Y-12336500D02*
X6687000Y-12286500D01*
X6637000Y-12236500D01*
X6587000Y-12286500D01*
X6637000Y-12336500D01*
X6637000Y-12590500D02*
X6687000Y-12540500D01*
X6637000Y-12490500D01*
X6587000Y-12540500D01*
X6637000Y-12590500D01*
X6891000Y-7510500D02*
X6941000Y-7460500D01*
X6891000Y-7410500D01*
X6841000Y-7460500D01*
X6891000Y-7510500D01*
X6891000Y-7764500D02*
X6941000Y-7714500D01*
X6891000Y-7664500D01*
X6841000Y-7714500D01*
X6891000Y-7764500D01*
X6891000Y-12336500D02*
X6941000Y-12286500D01*
X6891000Y-12236500D01*
X6841000Y-12286500D01*
X6891000Y-12336500D01*
X6891000Y-12590500D02*
X6941000Y-12540500D01*
X6891000Y-12490500D01*
X6841000Y-12540500D01*
X6891000Y-12590500D01*
X7080000Y-14396000D02*
X7130000Y-14346000D01*
X7080000Y-14296000D01*
X7030000Y-14346000D01*
X7080000Y-14396000D01*
X7080000Y-14650000D02*
X7130000Y-14600000D01*
X7080000Y-14550000D01*
X7030000Y-14600000D01*
X7080000Y-14650000D01*
X7145000Y-7510500D02*
X7195000Y-7460500D01*
X7145000Y-7410500D01*
X7095000Y-7460500D01*
X7145000Y-7510500D01*
X7145000Y-7764500D02*
X7195000Y-7714500D01*
X7145000Y-7664500D01*
X7095000Y-7714500D01*
X7145000Y-7764500D01*
X7145000Y-12336500D02*
X7195000Y-12286500D01*
X7145000Y-12236500D01*
X7095000Y-12286500D01*
X7145000Y-12336500D01*
X7145000Y-12590500D02*
X7195000Y-12540500D01*
X7145000Y-12490500D01*
X7095000Y-12540500D01*
X7145000Y-12590500D01*
X7147500Y-5443500D02*
X7197500Y-5393500D01*
X7147500Y-5343500D01*
X7097500Y-5393500D01*
X7147500Y-5443500D01*
X7147500Y-5697500D02*
X7197500Y-5647500D01*
X7147500Y-5597500D01*
X7097500Y-5647500D01*
X7147500Y-5697500D01*
X7334000Y-14396000D02*
X7384000Y-14346000D01*
X7334000Y-14296000D01*
X7284000Y-14346000D01*
X7334000Y-14396000D01*
X7334000Y-14650000D02*
X7384000Y-14600000D01*
X7334000Y-14550000D01*
X7284000Y-14600000D01*
X7334000Y-14650000D01*
X7399000Y-7510500D02*
X7449000Y-7460500D01*
X7399000Y-7410500D01*
X7349000Y-7460500D01*
X7399000Y-7510500D01*
X7399000Y-7764500D02*
X7449000Y-7714500D01*
X7399000Y-7664500D01*
X7349000Y-7714500D01*
X7399000Y-7764500D01*
X7399000Y-12336500D02*
X7449000Y-12286500D01*
X7399000Y-12236500D01*
X7349000Y-12286500D01*
X7399000Y-12336500D01*
X7399000Y-12590500D02*
X7449000Y-12540500D01*
X7399000Y-12490500D01*
X7349000Y-12540500D01*
X7399000Y-12590500D01*
X7401500Y-5443500D02*
X7451500Y-5393500D01*
X7401500Y-5343500D01*
X7351500Y-5393500D01*
X7401500Y-5443500D01*
X7401500Y-5697500D02*
X7451500Y-5647500D01*
X7401500Y-5597500D01*
X7351500Y-5647500D01*
X7401500Y-5697500D01*
X7588000Y-14396000D02*
X7638000Y-14346000D01*
X7588000Y-14296000D01*
X7538000Y-14346000D01*
X7588000Y-14396000D01*
X7588000Y-14650000D02*
X7638000Y-14600000D01*
X7588000Y-14550000D01*
X7538000Y-14600000D01*
X7588000Y-14650000D01*
X7653000Y-7510500D02*
X7703000Y-7460500D01*
X7653000Y-7410500D01*
X7603000Y-7460500D01*
X7653000Y-7510500D01*
X7653000Y-7764500D02*
X7703000Y-7714500D01*
X7653000Y-7664500D01*
X7603000Y-7714500D01*
X7653000Y-7764500D01*
X7653000Y-12336500D02*
X7703000Y-12286500D01*
X7653000Y-12236500D01*
X7603000Y-12286500D01*
X7653000Y-12336500D01*
X7653000Y-12590500D02*
X7703000Y-12540500D01*
X7653000Y-12490500D01*
X7603000Y-12540500D01*
X7653000Y-12590500D01*
X7655500Y-5443500D02*
X7705500Y-5393500D01*
X7655500Y-5343500D01*
X7605500Y-5393500D01*
X7655500Y-5443500D01*
X7655500Y-5697500D02*
X7705500Y-5647500D01*
X7655500Y-5597500D01*
X7605500Y-5647500D01*
X7655500Y-5697500D01*
X7842000Y-14396000D02*
X7892000Y-14346000D01*
X7842000Y-14296000D01*
X7792000Y-14346000D01*
X7842000Y-14396000D01*
X7842000Y-14650000D02*
X7892000Y-14600000D01*
X7842000Y-14550000D01*
X7792000Y-14600000D01*
X7842000Y-14650000D01*
X7907000Y-7510500D02*
X7957000Y-7460500D01*
X7907000Y-7410500D01*
X7857000Y-7460500D01*
X7907000Y-7510500D01*
X7907000Y-7764500D02*
X7957000Y-7714500D01*
X7907000Y-7664500D01*
X7857000Y-7714500D01*
X7907000Y-7764500D01*
X7907000Y-12336500D02*
X7957000Y-12286500D01*
X7907000Y-12236500D01*
X7857000Y-12286500D01*
X7907000Y-12336500D01*
X7907000Y-12590500D02*
X7957000Y-12540500D01*
X7907000Y-12490500D01*
X7857000Y-12540500D01*
X7907000Y-12590500D01*
X7909500Y-5443500D02*
X7959500Y-5393500D01*
X7909500Y-5343500D01*
X7859500Y-5393500D01*
X7909500Y-5443500D01*
X7909500Y-5697500D02*
X7959500Y-5647500D01*
X7909500Y-5597500D01*
X7859500Y-5647500D01*
X7909500Y-5697500D01*
X8096000Y-14396000D02*
X8146000Y-14346000D01*
X8096000Y-14296000D01*
X8046000Y-14346000D01*
X8096000Y-14396000D01*
X8096000Y-14650000D02*
X8146000Y-14600000D01*
X8096000Y-14550000D01*
X8046000Y-14600000D01*
X8096000Y-14650000D01*
X8161000Y-7510500D02*
X8211000Y-7460500D01*
X8161000Y-7410500D01*
X8111000Y-7460500D01*
X8161000Y-7510500D01*
X8161000Y-7764500D02*
X8211000Y-7714500D01*
X8161000Y-7664500D01*
X8111000Y-7714500D01*
X8161000Y-7764500D01*
X8161000Y-12336500D02*
X8211000Y-12286500D01*
X8161000Y-12236500D01*
X8111000Y-12286500D01*
X8161000Y-12336500D01*
X8161000Y-12590500D02*
X8211000Y-12540500D01*
X8161000Y-12490500D01*
X8111000Y-12540500D01*
X8161000Y-12590500D01*
X8163500Y-5443500D02*
X8213500Y-5393500D01*
X8163500Y-5343500D01*
X8113500Y-5393500D01*
X8163500Y-5443500D01*
X8163500Y-5697500D02*
X8213500Y-5647500D01*
X8163500Y-5597500D01*
X8113500Y-5647500D01*
X8163500Y-5697500D01*
X8350000Y-14396000D02*
X8400000Y-14346000D01*
X8350000Y-14296000D01*
X8300000Y-14346000D01*
X8350000Y-14396000D01*
X8350000Y-14650000D02*
X8400000Y-14600000D01*
X8350000Y-14550000D01*
X8300000Y-14600000D01*
X8350000Y-14650000D01*
X8415000Y-7510500D02*
X8465000Y-7460500D01*
X8415000Y-7410500D01*
X8365000Y-7460500D01*
X8415000Y-7510500D01*
X8415000Y-7764500D02*
X8465000Y-7714500D01*
X8415000Y-7664500D01*
X8365000Y-7714500D01*
X8415000Y-7764500D01*
X8415000Y-12336500D02*
X8465000Y-12286500D01*
X8415000Y-12236500D01*
X8365000Y-12286500D01*
X8415000Y-12336500D01*
X8415000Y-12590500D02*
X8465000Y-12540500D01*
X8415000Y-12490500D01*
X8365000Y-12540500D01*
X8415000Y-12590500D01*
X8417500Y-5443500D02*
X8467500Y-5393500D01*
X8417500Y-5343500D01*
X8367500Y-5393500D01*
X8417500Y-5443500D01*
X8417500Y-5697500D02*
X8467500Y-5647500D01*
X8417500Y-5597500D01*
X8367500Y-5647500D01*
X8417500Y-5697500D01*
X8604000Y-14396000D02*
X8654000Y-14346000D01*
X8604000Y-14296000D01*
X8554000Y-14346000D01*
X8604000Y-14396000D01*
X8604000Y-14650000D02*
X8654000Y-14600000D01*
X8604000Y-14550000D01*
X8554000Y-14600000D01*
X8604000Y-14650000D01*
X8669000Y-7510500D02*
X8719000Y-7460500D01*
X8669000Y-7410500D01*
X8619000Y-7460500D01*
X8669000Y-7510500D01*
X8669000Y-7764500D02*
X8719000Y-7714500D01*
X8669000Y-7664500D01*
X8619000Y-7714500D01*
X8669000Y-7764500D01*
X8669000Y-12336500D02*
X8719000Y-12286500D01*
X8669000Y-12236500D01*
X8619000Y-12286500D01*
X8669000Y-12336500D01*
X8669000Y-12590500D02*
X8719000Y-12540500D01*
X8669000Y-12490500D01*
X8619000Y-12540500D01*
X8669000Y-12590500D01*
X8671500Y-5443500D02*
X8721500Y-5393500D01*
X8671500Y-5343500D01*
X8621500Y-5393500D01*
X8671500Y-5443500D01*
X8671500Y-5697500D02*
X8721500Y-5647500D01*
X8671500Y-5597500D01*
X8621500Y-5647500D01*
X8671500Y-5697500D01*
X8858000Y-14396000D02*
X8908000Y-14346000D01*
X8858000Y-14296000D01*
X8808000Y-14346000D01*
X8858000Y-14396000D01*
X8858000Y-14650000D02*
X8908000Y-14600000D01*
X8858000Y-14550000D01*
X8808000Y-14600000D01*
X8858000Y-14650000D01*
X8923000Y-7510500D02*
X8973000Y-7460500D01*
X8923000Y-7410500D01*
X8873000Y-7460500D01*
X8923000Y-7510500D01*
X8923000Y-7764500D02*
X8973000Y-7714500D01*
X8923000Y-7664500D01*
X8873000Y-7714500D01*
X8923000Y-7764500D01*
X8923000Y-8018500D02*
X8973000Y-7968500D01*
X8923000Y-7918500D01*
X8873000Y-7968500D01*
X8923000Y-8018500D01*
X8923000Y-12336500D02*
X8973000Y-12286500D01*
X8923000Y-12236500D01*
X8873000Y-12286500D01*
X8923000Y-12336500D01*
X8923000Y-12590500D02*
X8973000Y-12540500D01*
X8923000Y-12490500D01*
X8873000Y-12540500D01*
X8923000Y-12590500D01*
X8925500Y-5443500D02*
X8975500Y-5393500D01*
X8925500Y-5343500D01*
X8875500Y-5393500D01*
X8925500Y-5443500D01*
X8925500Y-5697500D02*
X8975500Y-5647500D01*
X8925500Y-5597500D01*
X8875500Y-5647500D01*
X8925500Y-5697500D01*
X9112000Y-14396000D02*
X9162000Y-14346000D01*
X9112000Y-14296000D01*
X9062000Y-14346000D01*
X9112000Y-14396000D01*
X9112000Y-14650000D02*
X9162000Y-14600000D01*
X9112000Y-14550000D01*
X9062000Y-14600000D01*
X9112000Y-14650000D01*
X9177000Y-7510500D02*
X9227000Y-7460500D01*
X9177000Y-7410500D01*
X9127000Y-7460500D01*
X9177000Y-7510500D01*
X9177000Y-7764500D02*
X9227000Y-7714500D01*
X9177000Y-7664500D01*
X9127000Y-7714500D01*
X9177000Y-7764500D01*
X9177000Y-8018500D02*
X9227000Y-7968500D01*
X9177000Y-7918500D01*
X9127000Y-7968500D01*
X9177000Y-8018500D01*
X9177000Y-12336500D02*
X9227000Y-12286500D01*
X9177000Y-12236500D01*
X9127000Y-12286500D01*
X9177000Y-12336500D01*
X9177000Y-12590500D02*
X9227000Y-12540500D01*
X9177000Y-12490500D01*
X9127000Y-12540500D01*
X9177000Y-12590500D01*
X9179500Y-5443500D02*
X9229500Y-5393500D01*
X9179500Y-5343500D01*
X9129500Y-5393500D01*
X9179500Y-5443500D01*
X9179500Y-5697500D02*
X9229500Y-5647500D01*
X9179500Y-5597500D01*
X9129500Y-5647500D01*
X9179500Y-5697500D01*
X9366000Y-14396000D02*
X9416000Y-14346000D01*
X9366000Y-14296000D01*
X9316000Y-14346000D01*
X9366000Y-14396000D01*
X9366000Y-14650000D02*
X9416000Y-14600000D01*
X9366000Y-14550000D01*
X9316000Y-14600000D01*
X9366000Y-14650000D01*
X9431000Y-7510500D02*
X9481000Y-7460500D01*
X9431000Y-7410500D01*
X9381000Y-7460500D01*
X9431000Y-7510500D01*
X9431000Y-7764500D02*
X9481000Y-7714500D01*
X9431000Y-7664500D01*
X9381000Y-7714500D01*
X9431000Y-7764500D01*
X9431000Y-8018500D02*
X9481000Y-7968500D01*
X9431000Y-7918500D01*
X9381000Y-7968500D01*
X9431000Y-8018500D01*
X9431000Y-12336500D02*
X9481000Y-12286500D01*
X9431000Y-12236500D01*
X9381000Y-12286500D01*
X9431000Y-12336500D01*
X9431000Y-12590500D02*
X9481000Y-12540500D01*
X9431000Y-12490500D01*
X9381000Y-12540500D01*
X9431000Y-12590500D01*
X9433500Y-5443500D02*
X9483500Y-5393500D01*
X9433500Y-5343500D01*
X9383500Y-5393500D01*
X9433500Y-5443500D01*
X9433500Y-5697500D02*
X9483500Y-5647500D01*
X9433500Y-5597500D01*
X9383500Y-5647500D01*
X9433500Y-5697500D01*
X9620000Y-14396000D02*
X9670000Y-14346000D01*
X9620000Y-14296000D01*
X9570000Y-14346000D01*
X9620000Y-14396000D01*
X9620000Y-14650000D02*
X9670000Y-14600000D01*
X9620000Y-14550000D01*
X9570000Y-14600000D01*
X9620000Y-14650000D01*
X9685000Y-7510500D02*
X9735000Y-7460500D01*
X9685000Y-7410500D01*
X9635000Y-7460500D01*
X9685000Y-7510500D01*
X9685000Y-7764500D02*
X9735000Y-7714500D01*
X9685000Y-7664500D01*
X9635000Y-7714500D01*
X9685000Y-7764500D01*
X9685000Y-8018500D02*
X9735000Y-7968500D01*
X9685000Y-7918500D01*
X9635000Y-7968500D01*
X9685000Y-8018500D01*
X9685000Y-12336500D02*
X9735000Y-12286500D01*
X9685000Y-12236500D01*
X9635000Y-12286500D01*
X9685000Y-12336500D01*
X9685000Y-12590500D02*
X9735000Y-12540500D01*
X9685000Y-12490500D01*
X9635000Y-12540500D01*
X9685000Y-12590500D01*
X9687500Y-5443500D02*
X9737500Y-5393500D01*
X9687500Y-5343500D01*
X9637500Y-5393500D01*
X9687500Y-5443500D01*
X9687500Y-5697500D02*
X9737500Y-5647500D01*
X9687500Y-5597500D01*
X9637500Y-5647500D01*
X9687500Y-5697500D01*
X9874000Y-14396000D02*
X9924000Y-14346000D01*
X9874000Y-14296000D01*
X9824000Y-14346000D01*
X9874000Y-14396000D01*
X9874000Y-14650000D02*
X9924000Y-14600000D01*
X9874000Y-14550000D01*
X9824000Y-14600000D01*
X9874000Y-14650000D01*
X9939000Y-7510500D02*
X9989000Y-7460500D01*
X9939000Y-7410500D01*
X9889000Y-7460500D01*
X9939000Y-7510500D01*
X9939000Y-7764500D02*
X9989000Y-7714500D01*
X9939000Y-7664500D01*
X9889000Y-7714500D01*
X9939000Y-7764500D01*
X9939000Y-8018500D02*
X9989000Y-7968500D01*
X9939000Y-7918500D01*
X9889000Y-7968500D01*
X9939000Y-8018500D01*
X9939000Y-12336500D02*
X9989000Y-12286500D01*
X9939000Y-12236500D01*
X9889000Y-12286500D01*
X9939000Y-12336500D01*
X9939000Y-12590500D02*
X9989000Y-12540500D01*
X9939000Y-12490500D01*
X9889000Y-12540500D01*
X9939000Y-12590500D01*
X9941500Y-5443500D02*
X9991500Y-5393500D01*
X9941500Y-5343500D01*
X9891500Y-5393500D01*
X9941500Y-5443500D01*
X9941500Y-5697500D02*
X9991500Y-5647500D01*
X9941500Y-5597500D01*
X9891500Y-5647500D01*
X9941500Y-5697500D01*
X10128000Y-14396000D02*
X10178000Y-14346000D01*
X10128000Y-14296000D01*
X10078000Y-14346000D01*
X10128000Y-14396000D01*
X10128000Y-14650000D02*
X10178000Y-14600000D01*
X10128000Y-14550000D01*
X10078000Y-14600000D01*
X10128000Y-14650000D01*
X10193000Y-7510500D02*
X10243000Y-7460500D01*
X10193000Y-7410500D01*
X10143000Y-7460500D01*
X10193000Y-7510500D01*
X10193000Y-7764500D02*
X10243000Y-7714500D01*
X10193000Y-7664500D01*
X10143000Y-7714500D01*
X10193000Y-7764500D01*
X10193000Y-8018500D02*
X10243000Y-7968500D01*
X10193000Y-7918500D01*
X10143000Y-7968500D01*
X10193000Y-8018500D01*
X10193000Y-12336500D02*
X10243000Y-12286500D01*
X10193000Y-12236500D01*
X10143000Y-12286500D01*
X10193000Y-12336500D01*
X10193000Y-12590500D02*
X10243000Y-12540500D01*
X10193000Y-12490500D01*
X10143000Y-12540500D01*
X10193000Y-12590500D01*
X10195500Y-5443500D02*
X10245500Y-5393500D01*
X10195500Y-5343500D01*
X10145500Y-5393500D01*
X10195500Y-5443500D01*
X10195500Y-5697500D02*
X10245500Y-5647500D01*
X10195500Y-5597500D01*
X10145500Y-5647500D01*
X10195500Y-5697500D01*
X10382000Y-14396000D02*
X10432000Y-14346000D01*
X10382000Y-14296000D01*
X10332000Y-14346000D01*
X10382000Y-14396000D01*
X10382000Y-14650000D02*
X10432000Y-14600000D01*
X10382000Y-14550000D01*
X10332000Y-14600000D01*
X10382000Y-14650000D01*
X10447000Y-7510500D02*
X10497000Y-7460500D01*
X10447000Y-7410500D01*
X10397000Y-7460500D01*
X10447000Y-7510500D01*
X10447000Y-7764500D02*
X10497000Y-7714500D01*
X10447000Y-7664500D01*
X10397000Y-7714500D01*
X10447000Y-7764500D01*
X10447000Y-12336500D02*
X10497000Y-12286500D01*
X10447000Y-12236500D01*
X10397000Y-12286500D01*
X10447000Y-12336500D01*
X10447000Y-12590500D02*
X10497000Y-12540500D01*
X10447000Y-12490500D01*
X10397000Y-12540500D01*
X10447000Y-12590500D01*
X10449500Y-5443500D02*
X10499500Y-5393500D01*
X10449500Y-5343500D01*
X10399500Y-5393500D01*
X10449500Y-5443500D01*
X10449500Y-5697500D02*
X10499500Y-5647500D01*
X10449500Y-5597500D01*
X10399500Y-5647500D01*
X10449500Y-5697500D01*
X10636000Y-14396000D02*
X10686000Y-14346000D01*
X10636000Y-14296000D01*
X10586000Y-14346000D01*
X10636000Y-14396000D01*
X10636000Y-14650000D02*
X10686000Y-14600000D01*
X10636000Y-14550000D01*
X10586000Y-14600000D01*
X10636000Y-14650000D01*
X10701000Y-7510500D02*
X10751000Y-7460500D01*
X10701000Y-7410500D01*
X10651000Y-7460500D01*
X10701000Y-7510500D01*
X10701000Y-7764500D02*
X10751000Y-7714500D01*
X10701000Y-7664500D01*
X10651000Y-7714500D01*
X10701000Y-7764500D01*
X10701000Y-12336500D02*
X10751000Y-12286500D01*
X10701000Y-12236500D01*
X10651000Y-12286500D01*
X10701000Y-12336500D01*
X10701000Y-12590500D02*
X10751000Y-12540500D01*
X10701000Y-12490500D01*
X10651000Y-12540500D01*
X10701000Y-12590500D01*
X10703500Y-5443500D02*
X10753500Y-5393500D01*
X10703500Y-5343500D01*
X10653500Y-5393500D01*
X10703500Y-5443500D01*
X10703500Y-5697500D02*
X10753500Y-5647500D01*
X10703500Y-5597500D01*
X10653500Y-5647500D01*
X10703500Y-5697500D01*
X10890000Y-14396000D02*
X10940000Y-14346000D01*
X10890000Y-14296000D01*
X10840000Y-14346000D01*
X10890000Y-14396000D01*
X10890000Y-14650000D02*
X10940000Y-14600000D01*
X10890000Y-14550000D01*
X10840000Y-14600000D01*
X10890000Y-14650000D01*
X10955000Y-7510500D02*
X11005000Y-7460500D01*
X10955000Y-7410500D01*
X10905000Y-7460500D01*
X10955000Y-7510500D01*
X10955000Y-7764500D02*
X11005000Y-7714500D01*
X10955000Y-7664500D01*
X10905000Y-7714500D01*
X10955000Y-7764500D01*
X10955000Y-12336500D02*
X11005000Y-12286500D01*
X10955000Y-12236500D01*
X10905000Y-12286500D01*
X10955000Y-12336500D01*
X10955000Y-12590500D02*
X11005000Y-12540500D01*
X10955000Y-12490500D01*
X10905000Y-12540500D01*
X10955000Y-12590500D01*
X10957500Y-5443500D02*
X11007500Y-5393500D01*
X10957500Y-5343500D01*
X10907500Y-5393500D01*
X10957500Y-5443500D01*
X10957500Y-5697500D02*
X11007500Y-5647500D01*
X10957500Y-5597500D01*
X10907500Y-5647500D01*
X10957500Y-5697500D01*
X11144000Y-14396000D02*
X11194000Y-14346000D01*
X11144000Y-14296000D01*
X11094000Y-14346000D01*
X11144000Y-14396000D01*
X11144000Y-14650000D02*
X11194000Y-14600000D01*
X11144000Y-14550000D01*
X11094000Y-14600000D01*
X11144000Y-14650000D01*
X11209000Y-7510500D02*
X11259000Y-7460500D01*
X11209000Y-7410500D01*
X11159000Y-7460500D01*
X11209000Y-7510500D01*
X11209000Y-7764500D02*
X11259000Y-7714500D01*
X11209000Y-7664500D01*
X11159000Y-7714500D01*
X11209000Y-7764500D01*
X11209000Y-12336500D02*
X11259000Y-12286500D01*
X11209000Y-12236500D01*
X11159000Y-12286500D01*
X11209000Y-12336500D01*
X11209000Y-12590500D02*
X11259000Y-12540500D01*
X11209000Y-12490500D01*
X11159000Y-12540500D01*
X11209000Y-12590500D01*
X11211500Y-5443500D02*
X11261500Y-5393500D01*
X11211500Y-5343500D01*
X11161500Y-5393500D01*
X11211500Y-5443500D01*
X11211500Y-5697500D02*
X11261500Y-5647500D01*
X11211500Y-5597500D01*
X11161500Y-5647500D01*
X11211500Y-5697500D01*
X11463000Y-7510500D02*
X11513000Y-7460500D01*
X11463000Y-7410500D01*
X11413000Y-7460500D01*
X11463000Y-7510500D01*
X11463000Y-7764500D02*
X11513000Y-7714500D01*
X11463000Y-7664500D01*
X11413000Y-7714500D01*
X11463000Y-7764500D01*
X11463000Y-12336500D02*
X11513000Y-12286500D01*
X11463000Y-12236500D01*
X11413000Y-12286500D01*
X11463000Y-12336500D01*
X11463000Y-12590500D02*
X11513000Y-12540500D01*
X11463000Y-12490500D01*
X11413000Y-12540500D01*
X11463000Y-12590500D01*
X11717000Y-7510500D02*
X11767000Y-7460500D01*
X11717000Y-7410500D01*
X11667000Y-7460500D01*
X11717000Y-7510500D01*
X11717000Y-7764500D02*
X11767000Y-7714500D01*
X11717000Y-7664500D01*
X11667000Y-7714500D01*
X11717000Y-7764500D01*
X11717000Y-12336500D02*
X11767000Y-12286500D01*
X11717000Y-12236500D01*
X11667000Y-12286500D01*
X11717000Y-12336500D01*
X11717000Y-12590500D02*
X11767000Y-12540500D01*
X11717000Y-12490500D01*
X11667000Y-12540500D01*
X11717000Y-12590500D01*
X11971000Y-7510500D02*
X12021000Y-7460500D01*
X11971000Y-7410500D01*
X11921000Y-7460500D01*
X11971000Y-7510500D01*
X11971000Y-7764500D02*
X12021000Y-7714500D01*
X11971000Y-7664500D01*
X11921000Y-7714500D01*
X11971000Y-7764500D01*
X11971000Y-12336500D02*
X12021000Y-12286500D01*
X11971000Y-12236500D01*
X11921000Y-12286500D01*
X11971000Y-12336500D01*
X11971000Y-12590500D02*
X12021000Y-12540500D01*
X11971000Y-12490500D01*
X11921000Y-12540500D01*
X11971000Y-12590500D01*
D14*
X8180000Y-8576750D02*
X8500000Y-8896750D01*
X8500000Y-8576750D02*
X8180000Y-8896750D01*
X8500000Y-8736750D02*
G75*
G02*
X8180000Y-8736750I-160000J0D01*
G01*
X8180000Y-8736750D02*
G75*
G02*
X8500000Y-8736750I160000J0D01*
G01*
X8180000Y-10976750D02*
X8500000Y-11296750D01*
X8500000Y-10976750D02*
X8180000Y-11296750D01*
X8500000Y-11136750D02*
G75*
G02*
X8180000Y-11136750I-160000J0D01*
G01*
X8180000Y-11136750D02*
G75*
G02*
X8500000Y-11136750I160000J0D01*
G01*
X10580000Y-8576750D02*
X10900000Y-8896750D01*
X10900000Y-8576750D02*
X10580000Y-8896750D01*
X10900000Y-8736750D02*
G75*
G02*
X10580000Y-8736750I-160000J0D01*
G01*
X10580000Y-8736750D02*
G75*
G02*
X10900000Y-8736750I160000J0D01*
G01*
X10580000Y-10976750D02*
X10900000Y-11296750D01*
X10900000Y-10976750D02*
X10580000Y-11296750D01*
X10900000Y-11136750D02*
G75*
G02*
X10580000Y-11136750I-160000J0D01*
G01*
X10580000Y-11136750D02*
G75*
G02*
X10900000Y-11136750I160000J0D01*
G01*
D12*
X5254777Y-15317484D02*
X5254777Y-15117484D01*
X5254777Y-15117484D02*
X5302396Y-15117484D01*
X5302396Y-15117484D02*
X5330967Y-15127008D01*
X5330967Y-15127008D02*
X5350015Y-15146055D01*
X5350015Y-15146055D02*
X5359539Y-15165103D01*
X5359539Y-15165103D02*
X5369063Y-15203198D01*
X5369063Y-15203198D02*
X5369063Y-15231769D01*
X5369063Y-15231769D02*
X5359539Y-15269865D01*
X5359539Y-15269865D02*
X5350015Y-15288912D01*
X5350015Y-15288912D02*
X5330967Y-15307960D01*
X5330967Y-15307960D02*
X5302396Y-15317484D01*
X5302396Y-15317484D02*
X5254777Y-15317484D01*
X5454777Y-15317484D02*
X5454777Y-15184150D01*
X5454777Y-15222246D02*
X5464301Y-15203198D01*
X5464301Y-15203198D02*
X5473824Y-15193674D01*
X5473824Y-15193674D02*
X5492872Y-15184150D01*
X5492872Y-15184150D02*
X5511920Y-15184150D01*
X5578586Y-15317484D02*
X5578586Y-15184150D01*
X5578586Y-15117484D02*
X5569063Y-15127008D01*
X5569063Y-15127008D02*
X5578586Y-15136531D01*
X5578586Y-15136531D02*
X5588110Y-15127008D01*
X5588110Y-15127008D02*
X5578586Y-15117484D01*
X5578586Y-15117484D02*
X5578586Y-15136531D01*
X5702396Y-15317484D02*
X5683348Y-15307960D01*
X5683348Y-15307960D02*
X5673824Y-15288912D01*
X5673824Y-15288912D02*
X5673824Y-15117484D01*
X5807158Y-15317484D02*
X5788110Y-15307960D01*
X5788110Y-15307960D02*
X5778586Y-15288912D01*
X5778586Y-15288912D02*
X5778586Y-15117484D01*
X6035729Y-15317484D02*
X6035729Y-15117484D01*
X6035729Y-15117484D02*
X6102396Y-15260341D01*
X6102396Y-15260341D02*
X6169062Y-15117484D01*
X6169062Y-15117484D02*
X6169062Y-15317484D01*
X6350015Y-15317484D02*
X6350015Y-15212722D01*
X6350015Y-15212722D02*
X6340491Y-15193674D01*
X6340491Y-15193674D02*
X6321443Y-15184150D01*
X6321443Y-15184150D02*
X6283348Y-15184150D01*
X6283348Y-15184150D02*
X6264301Y-15193674D01*
X6350015Y-15307960D02*
X6330967Y-15317484D01*
X6330967Y-15317484D02*
X6283348Y-15317484D01*
X6283348Y-15317484D02*
X6264301Y-15307960D01*
X6264301Y-15307960D02*
X6254777Y-15288912D01*
X6254777Y-15288912D02*
X6254777Y-15269865D01*
X6254777Y-15269865D02*
X6264301Y-15250817D01*
X6264301Y-15250817D02*
X6283348Y-15241293D01*
X6283348Y-15241293D02*
X6330967Y-15241293D01*
X6330967Y-15241293D02*
X6350015Y-15231769D01*
X6445253Y-15184150D02*
X6445253Y-15384150D01*
X6445253Y-15193674D02*
X6464301Y-15184150D01*
X6464301Y-15184150D02*
X6502396Y-15184150D01*
X6502396Y-15184150D02*
X6521443Y-15193674D01*
X6521443Y-15193674D02*
X6530967Y-15203198D01*
X6530967Y-15203198D02*
X6540491Y-15222246D01*
X6540491Y-15222246D02*
X6540491Y-15279388D01*
X6540491Y-15279388D02*
X6530967Y-15298436D01*
X6530967Y-15298436D02*
X6521443Y-15307960D01*
X6521443Y-15307960D02*
X6502396Y-15317484D01*
X6502396Y-15317484D02*
X6464301Y-15317484D01*
X6464301Y-15317484D02*
X6445253Y-15307960D01*
X6626205Y-15298436D02*
X6635729Y-15307960D01*
X6635729Y-15307960D02*
X6626205Y-15317484D01*
X6626205Y-15317484D02*
X6616682Y-15307960D01*
X6616682Y-15307960D02*
X6626205Y-15298436D01*
X6626205Y-15298436D02*
X6626205Y-15317484D01*
X6626205Y-15193674D02*
X6635729Y-15203198D01*
X6635729Y-15203198D02*
X6626205Y-15212722D01*
X6626205Y-15212722D02*
X6616682Y-15203198D01*
X6616682Y-15203198D02*
X6626205Y-15193674D01*
X6626205Y-15193674D02*
X6626205Y-15212722D01*
D13*
X4964000Y-15631000D02*
X4994000Y-15661000D01*
X4994000Y-15631000D02*
X4964000Y-15661000D01*
D12*
X5292872Y-15537484D02*
X5311920Y-15537484D01*
X5311920Y-15537484D02*
X5330967Y-15547008D01*
X5330967Y-15547008D02*
X5340491Y-15556531D01*
X5340491Y-15556531D02*
X5350015Y-15575579D01*
X5350015Y-15575579D02*
X5359539Y-15613674D01*
X5359539Y-15613674D02*
X5359539Y-15661293D01*
X5359539Y-15661293D02*
X5350015Y-15699388D01*
X5350015Y-15699388D02*
X5340491Y-15718436D01*
X5340491Y-15718436D02*
X5330967Y-15727960D01*
X5330967Y-15727960D02*
X5311920Y-15737484D01*
X5311920Y-15737484D02*
X5292872Y-15737484D01*
X5292872Y-15737484D02*
X5273824Y-15727960D01*
X5273824Y-15727960D02*
X5264301Y-15718436D01*
X5264301Y-15718436D02*
X5254777Y-15699388D01*
X5254777Y-15699388D02*
X5245253Y-15661293D01*
X5245253Y-15661293D02*
X5245253Y-15613674D01*
X5245253Y-15613674D02*
X5254777Y-15575579D01*
X5254777Y-15575579D02*
X5264301Y-15556531D01*
X5264301Y-15556531D02*
X5273824Y-15547008D01*
X5273824Y-15547008D02*
X5292872Y-15537484D01*
X5445253Y-15718436D02*
X5454777Y-15727960D01*
X5454777Y-15727960D02*
X5445253Y-15737484D01*
X5445253Y-15737484D02*
X5435729Y-15727960D01*
X5435729Y-15727960D02*
X5445253Y-15718436D01*
X5445253Y-15718436D02*
X5445253Y-15737484D01*
X5521444Y-15537484D02*
X5645253Y-15537484D01*
X5645253Y-15537484D02*
X5578586Y-15613674D01*
X5578586Y-15613674D02*
X5607158Y-15613674D01*
X5607158Y-15613674D02*
X5626205Y-15623198D01*
X5626205Y-15623198D02*
X5635729Y-15632722D01*
X5635729Y-15632722D02*
X5645253Y-15651769D01*
X5645253Y-15651769D02*
X5645253Y-15699388D01*
X5645253Y-15699388D02*
X5635729Y-15718436D01*
X5635729Y-15718436D02*
X5626205Y-15727960D01*
X5626205Y-15727960D02*
X5607158Y-15737484D01*
X5607158Y-15737484D02*
X5550015Y-15737484D01*
X5550015Y-15737484D02*
X5530967Y-15727960D01*
X5530967Y-15727960D02*
X5521444Y-15718436D01*
X5769062Y-15537484D02*
X5788110Y-15537484D01*
X5788110Y-15537484D02*
X5807158Y-15547008D01*
X5807158Y-15547008D02*
X5816682Y-15556531D01*
X5816682Y-15556531D02*
X5826205Y-15575579D01*
X5826205Y-15575579D02*
X5835729Y-15613674D01*
X5835729Y-15613674D02*
X5835729Y-15661293D01*
X5835729Y-15661293D02*
X5826205Y-15699388D01*
X5826205Y-15699388D02*
X5816682Y-15718436D01*
X5816682Y-15718436D02*
X5807158Y-15727960D01*
X5807158Y-15727960D02*
X5788110Y-15737484D01*
X5788110Y-15737484D02*
X5769062Y-15737484D01*
X5769062Y-15737484D02*
X5750015Y-15727960D01*
X5750015Y-15727960D02*
X5740491Y-15718436D01*
X5740491Y-15718436D02*
X5730967Y-15699388D01*
X5730967Y-15699388D02*
X5721443Y-15661293D01*
X5721443Y-15661293D02*
X5721443Y-15613674D01*
X5721443Y-15613674D02*
X5730967Y-15575579D01*
X5730967Y-15575579D02*
X5740491Y-15556531D01*
X5740491Y-15556531D02*
X5750015Y-15547008D01*
X5750015Y-15547008D02*
X5769062Y-15537484D01*
X5959539Y-15537484D02*
X5978586Y-15537484D01*
X5978586Y-15537484D02*
X5997634Y-15547008D01*
X5997634Y-15547008D02*
X6007158Y-15556531D01*
X6007158Y-15556531D02*
X6016682Y-15575579D01*
X6016682Y-15575579D02*
X6026205Y-15613674D01*
X6026205Y-15613674D02*
X6026205Y-15661293D01*
X6026205Y-15661293D02*
X6016682Y-15699388D01*
X6016682Y-15699388D02*
X6007158Y-15718436D01*
X6007158Y-15718436D02*
X5997634Y-15727960D01*
X5997634Y-15727960D02*
X5978586Y-15737484D01*
X5978586Y-15737484D02*
X5959539Y-15737484D01*
X5959539Y-15737484D02*
X5940491Y-15727960D01*
X5940491Y-15727960D02*
X5930967Y-15718436D01*
X5930967Y-15718436D02*
X5921443Y-15699388D01*
X5921443Y-15699388D02*
X5911920Y-15661293D01*
X5911920Y-15661293D02*
X5911920Y-15613674D01*
X5911920Y-15613674D02*
X5921443Y-15575579D01*
X5921443Y-15575579D02*
X5930967Y-15556531D01*
X5930967Y-15556531D02*
X5940491Y-15547008D01*
X5940491Y-15547008D02*
X5959539Y-15537484D01*
X6111920Y-15737484D02*
X6111920Y-15604150D01*
X6111920Y-15623198D02*
X6121443Y-15613674D01*
X6121443Y-15613674D02*
X6140491Y-15604150D01*
X6140491Y-15604150D02*
X6169063Y-15604150D01*
X6169063Y-15604150D02*
X6188110Y-15613674D01*
X6188110Y-15613674D02*
X6197634Y-15632722D01*
X6197634Y-15632722D02*
X6197634Y-15737484D01*
X6197634Y-15632722D02*
X6207158Y-15613674D01*
X6207158Y-15613674D02*
X6226205Y-15604150D01*
X6226205Y-15604150D02*
X6254777Y-15604150D01*
X6254777Y-15604150D02*
X6273824Y-15613674D01*
X6273824Y-15613674D02*
X6283348Y-15632722D01*
X6283348Y-15632722D02*
X6283348Y-15737484D01*
X6378586Y-15737484D02*
X6378586Y-15604150D01*
X6378586Y-15623198D02*
X6388110Y-15613674D01*
X6388110Y-15613674D02*
X6407158Y-15604150D01*
X6407158Y-15604150D02*
X6435729Y-15604150D01*
X6435729Y-15604150D02*
X6454777Y-15613674D01*
X6454777Y-15613674D02*
X6464301Y-15632722D01*
X6464301Y-15632722D02*
X6464301Y-15737484D01*
X6464301Y-15632722D02*
X6473824Y-15613674D01*
X6473824Y-15613674D02*
X6492872Y-15604150D01*
X6492872Y-15604150D02*
X6521443Y-15604150D01*
X6521443Y-15604150D02*
X6540491Y-15613674D01*
X6540491Y-15613674D02*
X6550015Y-15632722D01*
X6550015Y-15632722D02*
X6550015Y-15737484D01*
X6940491Y-15527960D02*
X6769063Y-15785103D01*
X7197634Y-15537484D02*
X7216682Y-15537484D01*
X7216682Y-15537484D02*
X7235729Y-15547008D01*
X7235729Y-15547008D02*
X7245253Y-15556531D01*
X7245253Y-15556531D02*
X7254777Y-15575579D01*
X7254777Y-15575579D02*
X7264301Y-15613674D01*
X7264301Y-15613674D02*
X7264301Y-15661293D01*
X7264301Y-15661293D02*
X7254777Y-15699388D01*
X7254777Y-15699388D02*
X7245253Y-15718436D01*
X7245253Y-15718436D02*
X7235729Y-15727960D01*
X7235729Y-15727960D02*
X7216682Y-15737484D01*
X7216682Y-15737484D02*
X7197634Y-15737484D01*
X7197634Y-15737484D02*
X7178586Y-15727960D01*
X7178586Y-15727960D02*
X7169063Y-15718436D01*
X7169063Y-15718436D02*
X7159539Y-15699388D01*
X7159539Y-15699388D02*
X7150015Y-15661293D01*
X7150015Y-15661293D02*
X7150015Y-15613674D01*
X7150015Y-15613674D02*
X7159539Y-15575579D01*
X7159539Y-15575579D02*
X7169063Y-15556531D01*
X7169063Y-15556531D02*
X7178586Y-15547008D01*
X7178586Y-15547008D02*
X7197634Y-15537484D01*
X7350015Y-15718436D02*
X7359539Y-15727960D01*
X7359539Y-15727960D02*
X7350015Y-15737484D01*
X7350015Y-15737484D02*
X7340491Y-15727960D01*
X7340491Y-15727960D02*
X7350015Y-15718436D01*
X7350015Y-15718436D02*
X7350015Y-15737484D01*
X7483348Y-15537484D02*
X7502396Y-15537484D01*
X7502396Y-15537484D02*
X7521444Y-15547008D01*
X7521444Y-15547008D02*
X7530967Y-15556531D01*
X7530967Y-15556531D02*
X7540491Y-15575579D01*
X7540491Y-15575579D02*
X7550015Y-15613674D01*
X7550015Y-15613674D02*
X7550015Y-15661293D01*
X7550015Y-15661293D02*
X7540491Y-15699388D01*
X7540491Y-15699388D02*
X7530967Y-15718436D01*
X7530967Y-15718436D02*
X7521444Y-15727960D01*
X7521444Y-15727960D02*
X7502396Y-15737484D01*
X7502396Y-15737484D02*
X7483348Y-15737484D01*
X7483348Y-15737484D02*
X7464301Y-15727960D01*
X7464301Y-15727960D02*
X7454777Y-15718436D01*
X7454777Y-15718436D02*
X7445253Y-15699388D01*
X7445253Y-15699388D02*
X7435729Y-15661293D01*
X7435729Y-15661293D02*
X7435729Y-15613674D01*
X7435729Y-15613674D02*
X7445253Y-15575579D01*
X7445253Y-15575579D02*
X7454777Y-15556531D01*
X7454777Y-15556531D02*
X7464301Y-15547008D01*
X7464301Y-15547008D02*
X7483348Y-15537484D01*
X7740491Y-15737484D02*
X7626206Y-15737484D01*
X7683348Y-15737484D02*
X7683348Y-15537484D01*
X7683348Y-15537484D02*
X7664301Y-15566055D01*
X7664301Y-15566055D02*
X7645253Y-15585103D01*
X7645253Y-15585103D02*
X7626206Y-15594627D01*
X7930967Y-15737484D02*
X7816682Y-15737484D01*
X7873825Y-15737484D02*
X7873825Y-15537484D01*
X7873825Y-15537484D02*
X7854777Y-15566055D01*
X7854777Y-15566055D02*
X7835729Y-15585103D01*
X7835729Y-15585103D02*
X7816682Y-15594627D01*
X8045253Y-15623198D02*
X8026206Y-15613674D01*
X8026206Y-15613674D02*
X8016682Y-15604150D01*
X8016682Y-15604150D02*
X8007158Y-15585103D01*
X8007158Y-15585103D02*
X8007158Y-15575579D01*
X8007158Y-15575579D02*
X8016682Y-15556531D01*
X8016682Y-15556531D02*
X8026206Y-15547008D01*
X8026206Y-15547008D02*
X8045253Y-15537484D01*
X8045253Y-15537484D02*
X8083348Y-15537484D01*
X8083348Y-15537484D02*
X8102396Y-15547008D01*
X8102396Y-15547008D02*
X8111920Y-15556531D01*
X8111920Y-15556531D02*
X8121444Y-15575579D01*
X8121444Y-15575579D02*
X8121444Y-15585103D01*
X8121444Y-15585103D02*
X8111920Y-15604150D01*
X8111920Y-15604150D02*
X8102396Y-15613674D01*
X8102396Y-15613674D02*
X8083348Y-15623198D01*
X8083348Y-15623198D02*
X8045253Y-15623198D01*
X8045253Y-15623198D02*
X8026206Y-15632722D01*
X8026206Y-15632722D02*
X8016682Y-15642246D01*
X8016682Y-15642246D02*
X8007158Y-15661293D01*
X8007158Y-15661293D02*
X8007158Y-15699388D01*
X8007158Y-15699388D02*
X8016682Y-15718436D01*
X8016682Y-15718436D02*
X8026206Y-15727960D01*
X8026206Y-15727960D02*
X8045253Y-15737484D01*
X8045253Y-15737484D02*
X8083348Y-15737484D01*
X8083348Y-15737484D02*
X8102396Y-15727960D01*
X8102396Y-15727960D02*
X8111920Y-15718436D01*
X8111920Y-15718436D02*
X8121444Y-15699388D01*
X8121444Y-15699388D02*
X8121444Y-15661293D01*
X8121444Y-15661293D02*
X8111920Y-15642246D01*
X8111920Y-15642246D02*
X8102396Y-15632722D01*
X8102396Y-15632722D02*
X8083348Y-15623198D01*
X8197634Y-15537484D02*
X8197634Y-15575579D01*
X8273825Y-15537484D02*
X8273825Y-15575579D01*
X8569063Y-15813674D02*
X8559539Y-15804150D01*
X8559539Y-15804150D02*
X8540491Y-15775579D01*
X8540491Y-15775579D02*
X8530968Y-15756531D01*
X8530968Y-15756531D02*
X8521444Y-15727960D01*
X8521444Y-15727960D02*
X8511920Y-15680341D01*
X8511920Y-15680341D02*
X8511920Y-15642246D01*
X8511920Y-15642246D02*
X8521444Y-15594627D01*
X8521444Y-15594627D02*
X8530968Y-15566055D01*
X8530968Y-15566055D02*
X8540491Y-15547008D01*
X8540491Y-15547008D02*
X8559539Y-15518436D01*
X8559539Y-15518436D02*
X8569063Y-15508912D01*
X8730968Y-15604150D02*
X8730968Y-15737484D01*
X8683349Y-15527960D02*
X8635730Y-15670817D01*
X8635730Y-15670817D02*
X8759539Y-15670817D01*
X8988111Y-15737484D02*
X8988111Y-15537484D01*
X9073825Y-15737484D02*
X9073825Y-15632722D01*
X9073825Y-15632722D02*
X9064301Y-15613674D01*
X9064301Y-15613674D02*
X9045253Y-15604150D01*
X9045253Y-15604150D02*
X9016682Y-15604150D01*
X9016682Y-15604150D02*
X8997634Y-15613674D01*
X8997634Y-15613674D02*
X8988111Y-15623198D01*
X9197634Y-15737484D02*
X9178587Y-15727960D01*
X9178587Y-15727960D02*
X9169063Y-15718436D01*
X9169063Y-15718436D02*
X9159539Y-15699388D01*
X9159539Y-15699388D02*
X9159539Y-15642246D01*
X9159539Y-15642246D02*
X9169063Y-15623198D01*
X9169063Y-15623198D02*
X9178587Y-15613674D01*
X9178587Y-15613674D02*
X9197634Y-15604150D01*
X9197634Y-15604150D02*
X9226206Y-15604150D01*
X9226206Y-15604150D02*
X9245253Y-15613674D01*
X9245253Y-15613674D02*
X9254777Y-15623198D01*
X9254777Y-15623198D02*
X9264301Y-15642246D01*
X9264301Y-15642246D02*
X9264301Y-15699388D01*
X9264301Y-15699388D02*
X9254777Y-15718436D01*
X9254777Y-15718436D02*
X9245253Y-15727960D01*
X9245253Y-15727960D02*
X9226206Y-15737484D01*
X9226206Y-15737484D02*
X9197634Y-15737484D01*
X9378587Y-15737484D02*
X9359539Y-15727960D01*
X9359539Y-15727960D02*
X9350015Y-15708912D01*
X9350015Y-15708912D02*
X9350015Y-15537484D01*
X9530968Y-15727960D02*
X9511920Y-15737484D01*
X9511920Y-15737484D02*
X9473825Y-15737484D01*
X9473825Y-15737484D02*
X9454777Y-15727960D01*
X9454777Y-15727960D02*
X9445253Y-15708912D01*
X9445253Y-15708912D02*
X9445253Y-15632722D01*
X9445253Y-15632722D02*
X9454777Y-15613674D01*
X9454777Y-15613674D02*
X9473825Y-15604150D01*
X9473825Y-15604150D02*
X9511920Y-15604150D01*
X9511920Y-15604150D02*
X9530968Y-15613674D01*
X9530968Y-15613674D02*
X9540492Y-15632722D01*
X9540492Y-15632722D02*
X9540492Y-15651769D01*
X9540492Y-15651769D02*
X9445253Y-15670817D01*
X9616682Y-15727960D02*
X9635730Y-15737484D01*
X9635730Y-15737484D02*
X9673825Y-15737484D01*
X9673825Y-15737484D02*
X9692873Y-15727960D01*
X9692873Y-15727960D02*
X9702396Y-15708912D01*
X9702396Y-15708912D02*
X9702396Y-15699388D01*
X9702396Y-15699388D02*
X9692873Y-15680341D01*
X9692873Y-15680341D02*
X9673825Y-15670817D01*
X9673825Y-15670817D02*
X9645253Y-15670817D01*
X9645253Y-15670817D02*
X9626206Y-15661293D01*
X9626206Y-15661293D02*
X9616682Y-15642246D01*
X9616682Y-15642246D02*
X9616682Y-15632722D01*
X9616682Y-15632722D02*
X9626206Y-15613674D01*
X9626206Y-15613674D02*
X9645253Y-15604150D01*
X9645253Y-15604150D02*
X9673825Y-15604150D01*
X9673825Y-15604150D02*
X9692873Y-15613674D01*
X9769063Y-15813674D02*
X9778587Y-15804150D01*
X9778587Y-15804150D02*
X9797634Y-15775579D01*
X9797634Y-15775579D02*
X9807158Y-15756531D01*
X9807158Y-15756531D02*
X9816682Y-15727960D01*
X9816682Y-15727960D02*
X9826206Y-15680341D01*
X9826206Y-15680341D02*
X9826206Y-15642246D01*
X9826206Y-15642246D02*
X9816682Y-15594627D01*
X9816682Y-15594627D02*
X9807158Y-15566055D01*
X9807158Y-15566055D02*
X9797634Y-15547008D01*
X9797634Y-15547008D02*
X9778587Y-15518436D01*
X9778587Y-15518436D02*
X9769063Y-15508912D01*
D13*
X4994000Y-15910000D02*
G75*
G02*
X4954000Y-15910000I-20000J0D01*
G01*
X4954000Y-15910000D02*
G75*
G02*
X4994000Y-15910000I20000J0D01*
G01*
D12*
X5292872Y-15801484D02*
X5311920Y-15801484D01*
X5311920Y-15801484D02*
X5330967Y-15811008D01*
X5330967Y-15811008D02*
X5340491Y-15820531D01*
X5340491Y-15820531D02*
X5350015Y-15839579D01*
X5350015Y-15839579D02*
X5359539Y-15877674D01*
X5359539Y-15877674D02*
X5359539Y-15925293D01*
X5359539Y-15925293D02*
X5350015Y-15963388D01*
X5350015Y-15963388D02*
X5340491Y-15982436D01*
X5340491Y-15982436D02*
X5330967Y-15991960D01*
X5330967Y-15991960D02*
X5311920Y-16001484D01*
X5311920Y-16001484D02*
X5292872Y-16001484D01*
X5292872Y-16001484D02*
X5273824Y-15991960D01*
X5273824Y-15991960D02*
X5264301Y-15982436D01*
X5264301Y-15982436D02*
X5254777Y-15963388D01*
X5254777Y-15963388D02*
X5245253Y-15925293D01*
X5245253Y-15925293D02*
X5245253Y-15877674D01*
X5245253Y-15877674D02*
X5254777Y-15839579D01*
X5254777Y-15839579D02*
X5264301Y-15820531D01*
X5264301Y-15820531D02*
X5273824Y-15811008D01*
X5273824Y-15811008D02*
X5292872Y-15801484D01*
X5445253Y-15982436D02*
X5454777Y-15991960D01*
X5454777Y-15991960D02*
X5445253Y-16001484D01*
X5445253Y-16001484D02*
X5435729Y-15991960D01*
X5435729Y-15991960D02*
X5445253Y-15982436D01*
X5445253Y-15982436D02*
X5445253Y-16001484D01*
X5626205Y-15868150D02*
X5626205Y-16001484D01*
X5578586Y-15791960D02*
X5530967Y-15934817D01*
X5530967Y-15934817D02*
X5654777Y-15934817D01*
X5769062Y-15801484D02*
X5788110Y-15801484D01*
X5788110Y-15801484D02*
X5807158Y-15811008D01*
X5807158Y-15811008D02*
X5816682Y-15820531D01*
X5816682Y-15820531D02*
X5826205Y-15839579D01*
X5826205Y-15839579D02*
X5835729Y-15877674D01*
X5835729Y-15877674D02*
X5835729Y-15925293D01*
X5835729Y-15925293D02*
X5826205Y-15963388D01*
X5826205Y-15963388D02*
X5816682Y-15982436D01*
X5816682Y-15982436D02*
X5807158Y-15991960D01*
X5807158Y-15991960D02*
X5788110Y-16001484D01*
X5788110Y-16001484D02*
X5769062Y-16001484D01*
X5769062Y-16001484D02*
X5750015Y-15991960D01*
X5750015Y-15991960D02*
X5740491Y-15982436D01*
X5740491Y-15982436D02*
X5730967Y-15963388D01*
X5730967Y-15963388D02*
X5721443Y-15925293D01*
X5721443Y-15925293D02*
X5721443Y-15877674D01*
X5721443Y-15877674D02*
X5730967Y-15839579D01*
X5730967Y-15839579D02*
X5740491Y-15820531D01*
X5740491Y-15820531D02*
X5750015Y-15811008D01*
X5750015Y-15811008D02*
X5769062Y-15801484D01*
X5959539Y-15801484D02*
X5978586Y-15801484D01*
X5978586Y-15801484D02*
X5997634Y-15811008D01*
X5997634Y-15811008D02*
X6007158Y-15820531D01*
X6007158Y-15820531D02*
X6016682Y-15839579D01*
X6016682Y-15839579D02*
X6026205Y-15877674D01*
X6026205Y-15877674D02*
X6026205Y-15925293D01*
X6026205Y-15925293D02*
X6016682Y-15963388D01*
X6016682Y-15963388D02*
X6007158Y-15982436D01*
X6007158Y-15982436D02*
X5997634Y-15991960D01*
X5997634Y-15991960D02*
X5978586Y-16001484D01*
X5978586Y-16001484D02*
X5959539Y-16001484D01*
X5959539Y-16001484D02*
X5940491Y-15991960D01*
X5940491Y-15991960D02*
X5930967Y-15982436D01*
X5930967Y-15982436D02*
X5921443Y-15963388D01*
X5921443Y-15963388D02*
X5911920Y-15925293D01*
X5911920Y-15925293D02*
X5911920Y-15877674D01*
X5911920Y-15877674D02*
X5921443Y-15839579D01*
X5921443Y-15839579D02*
X5930967Y-15820531D01*
X5930967Y-15820531D02*
X5940491Y-15811008D01*
X5940491Y-15811008D02*
X5959539Y-15801484D01*
X6111920Y-16001484D02*
X6111920Y-15868150D01*
X6111920Y-15887198D02*
X6121443Y-15877674D01*
X6121443Y-15877674D02*
X6140491Y-15868150D01*
X6140491Y-15868150D02*
X6169063Y-15868150D01*
X6169063Y-15868150D02*
X6188110Y-15877674D01*
X6188110Y-15877674D02*
X6197634Y-15896722D01*
X6197634Y-15896722D02*
X6197634Y-16001484D01*
X6197634Y-15896722D02*
X6207158Y-15877674D01*
X6207158Y-15877674D02*
X6226205Y-15868150D01*
X6226205Y-15868150D02*
X6254777Y-15868150D01*
X6254777Y-15868150D02*
X6273824Y-15877674D01*
X6273824Y-15877674D02*
X6283348Y-15896722D01*
X6283348Y-15896722D02*
X6283348Y-16001484D01*
X6378586Y-16001484D02*
X6378586Y-15868150D01*
X6378586Y-15887198D02*
X6388110Y-15877674D01*
X6388110Y-15877674D02*
X6407158Y-15868150D01*
X6407158Y-15868150D02*
X6435729Y-15868150D01*
X6435729Y-15868150D02*
X6454777Y-15877674D01*
X6454777Y-15877674D02*
X6464301Y-15896722D01*
X6464301Y-15896722D02*
X6464301Y-16001484D01*
X6464301Y-15896722D02*
X6473824Y-15877674D01*
X6473824Y-15877674D02*
X6492872Y-15868150D01*
X6492872Y-15868150D02*
X6521443Y-15868150D01*
X6521443Y-15868150D02*
X6540491Y-15877674D01*
X6540491Y-15877674D02*
X6550015Y-15896722D01*
X6550015Y-15896722D02*
X6550015Y-16001484D01*
X6940491Y-15791960D02*
X6769063Y-16049103D01*
X7197634Y-15801484D02*
X7216682Y-15801484D01*
X7216682Y-15801484D02*
X7235729Y-15811008D01*
X7235729Y-15811008D02*
X7245253Y-15820531D01*
X7245253Y-15820531D02*
X7254777Y-15839579D01*
X7254777Y-15839579D02*
X7264301Y-15877674D01*
X7264301Y-15877674D02*
X7264301Y-15925293D01*
X7264301Y-15925293D02*
X7254777Y-15963388D01*
X7254777Y-15963388D02*
X7245253Y-15982436D01*
X7245253Y-15982436D02*
X7235729Y-15991960D01*
X7235729Y-15991960D02*
X7216682Y-16001484D01*
X7216682Y-16001484D02*
X7197634Y-16001484D01*
X7197634Y-16001484D02*
X7178586Y-15991960D01*
X7178586Y-15991960D02*
X7169063Y-15982436D01*
X7169063Y-15982436D02*
X7159539Y-15963388D01*
X7159539Y-15963388D02*
X7150015Y-15925293D01*
X7150015Y-15925293D02*
X7150015Y-15877674D01*
X7150015Y-15877674D02*
X7159539Y-15839579D01*
X7159539Y-15839579D02*
X7169063Y-15820531D01*
X7169063Y-15820531D02*
X7178586Y-15811008D01*
X7178586Y-15811008D02*
X7197634Y-15801484D01*
X7350015Y-15982436D02*
X7359539Y-15991960D01*
X7359539Y-15991960D02*
X7350015Y-16001484D01*
X7350015Y-16001484D02*
X7340491Y-15991960D01*
X7340491Y-15991960D02*
X7350015Y-15982436D01*
X7350015Y-15982436D02*
X7350015Y-16001484D01*
X7483348Y-15801484D02*
X7502396Y-15801484D01*
X7502396Y-15801484D02*
X7521444Y-15811008D01*
X7521444Y-15811008D02*
X7530967Y-15820531D01*
X7530967Y-15820531D02*
X7540491Y-15839579D01*
X7540491Y-15839579D02*
X7550015Y-15877674D01*
X7550015Y-15877674D02*
X7550015Y-15925293D01*
X7550015Y-15925293D02*
X7540491Y-15963388D01*
X7540491Y-15963388D02*
X7530967Y-15982436D01*
X7530967Y-15982436D02*
X7521444Y-15991960D01*
X7521444Y-15991960D02*
X7502396Y-16001484D01*
X7502396Y-16001484D02*
X7483348Y-16001484D01*
X7483348Y-16001484D02*
X7464301Y-15991960D01*
X7464301Y-15991960D02*
X7454777Y-15982436D01*
X7454777Y-15982436D02*
X7445253Y-15963388D01*
X7445253Y-15963388D02*
X7435729Y-15925293D01*
X7435729Y-15925293D02*
X7435729Y-15877674D01*
X7435729Y-15877674D02*
X7445253Y-15839579D01*
X7445253Y-15839579D02*
X7454777Y-15820531D01*
X7454777Y-15820531D02*
X7464301Y-15811008D01*
X7464301Y-15811008D02*
X7483348Y-15801484D01*
X7740491Y-16001484D02*
X7626206Y-16001484D01*
X7683348Y-16001484D02*
X7683348Y-15801484D01*
X7683348Y-15801484D02*
X7664301Y-15830055D01*
X7664301Y-15830055D02*
X7645253Y-15849103D01*
X7645253Y-15849103D02*
X7626206Y-15858627D01*
X7921444Y-15801484D02*
X7826206Y-15801484D01*
X7826206Y-15801484D02*
X7816682Y-15896722D01*
X7816682Y-15896722D02*
X7826206Y-15887198D01*
X7826206Y-15887198D02*
X7845253Y-15877674D01*
X7845253Y-15877674D02*
X7892872Y-15877674D01*
X7892872Y-15877674D02*
X7911920Y-15887198D01*
X7911920Y-15887198D02*
X7921444Y-15896722D01*
X7921444Y-15896722D02*
X7930967Y-15915769D01*
X7930967Y-15915769D02*
X7930967Y-15963388D01*
X7930967Y-15963388D02*
X7921444Y-15982436D01*
X7921444Y-15982436D02*
X7911920Y-15991960D01*
X7911920Y-15991960D02*
X7892872Y-16001484D01*
X7892872Y-16001484D02*
X7845253Y-16001484D01*
X7845253Y-16001484D02*
X7826206Y-15991960D01*
X7826206Y-15991960D02*
X7816682Y-15982436D01*
X7997634Y-15801484D02*
X8130967Y-15801484D01*
X8130967Y-15801484D02*
X8045253Y-16001484D01*
X8197634Y-15801484D02*
X8197634Y-15839579D01*
X8273825Y-15801484D02*
X8273825Y-15839579D01*
X8569063Y-16077674D02*
X8559539Y-16068150D01*
X8559539Y-16068150D02*
X8540491Y-16039579D01*
X8540491Y-16039579D02*
X8530968Y-16020531D01*
X8530968Y-16020531D02*
X8521444Y-15991960D01*
X8521444Y-15991960D02*
X8511920Y-15944341D01*
X8511920Y-15944341D02*
X8511920Y-15906246D01*
X8511920Y-15906246D02*
X8521444Y-15858627D01*
X8521444Y-15858627D02*
X8530968Y-15830055D01*
X8530968Y-15830055D02*
X8540491Y-15811008D01*
X8540491Y-15811008D02*
X8559539Y-15782436D01*
X8559539Y-15782436D02*
X8569063Y-15772912D01*
X8750015Y-16001484D02*
X8635730Y-16001484D01*
X8692872Y-16001484D02*
X8692872Y-15801484D01*
X8692872Y-15801484D02*
X8673825Y-15830055D01*
X8673825Y-15830055D02*
X8654777Y-15849103D01*
X8654777Y-15849103D02*
X8635730Y-15858627D01*
X8873825Y-15801484D02*
X8892872Y-15801484D01*
X8892872Y-15801484D02*
X8911920Y-15811008D01*
X8911920Y-15811008D02*
X8921444Y-15820531D01*
X8921444Y-15820531D02*
X8930968Y-15839579D01*
X8930968Y-15839579D02*
X8940491Y-15877674D01*
X8940491Y-15877674D02*
X8940491Y-15925293D01*
X8940491Y-15925293D02*
X8930968Y-15963388D01*
X8930968Y-15963388D02*
X8921444Y-15982436D01*
X8921444Y-15982436D02*
X8911920Y-15991960D01*
X8911920Y-15991960D02*
X8892872Y-16001484D01*
X8892872Y-16001484D02*
X8873825Y-16001484D01*
X8873825Y-16001484D02*
X8854777Y-15991960D01*
X8854777Y-15991960D02*
X8845253Y-15982436D01*
X8845253Y-15982436D02*
X8835730Y-15963388D01*
X8835730Y-15963388D02*
X8826206Y-15925293D01*
X8826206Y-15925293D02*
X8826206Y-15877674D01*
X8826206Y-15877674D02*
X8835730Y-15839579D01*
X8835730Y-15839579D02*
X8845253Y-15820531D01*
X8845253Y-15820531D02*
X8854777Y-15811008D01*
X8854777Y-15811008D02*
X8873825Y-15801484D01*
X9007158Y-15801484D02*
X9140491Y-15801484D01*
X9140491Y-15801484D02*
X9054777Y-16001484D01*
X9369063Y-16001484D02*
X9369063Y-15801484D01*
X9454777Y-16001484D02*
X9454777Y-15896722D01*
X9454777Y-15896722D02*
X9445253Y-15877674D01*
X9445253Y-15877674D02*
X9426206Y-15868150D01*
X9426206Y-15868150D02*
X9397634Y-15868150D01*
X9397634Y-15868150D02*
X9378587Y-15877674D01*
X9378587Y-15877674D02*
X9369063Y-15887198D01*
X9578587Y-16001484D02*
X9559539Y-15991960D01*
X9559539Y-15991960D02*
X9550015Y-15982436D01*
X9550015Y-15982436D02*
X9540492Y-15963388D01*
X9540492Y-15963388D02*
X9540492Y-15906246D01*
X9540492Y-15906246D02*
X9550015Y-15887198D01*
X9550015Y-15887198D02*
X9559539Y-15877674D01*
X9559539Y-15877674D02*
X9578587Y-15868150D01*
X9578587Y-15868150D02*
X9607158Y-15868150D01*
X9607158Y-15868150D02*
X9626206Y-15877674D01*
X9626206Y-15877674D02*
X9635730Y-15887198D01*
X9635730Y-15887198D02*
X9645253Y-15906246D01*
X9645253Y-15906246D02*
X9645253Y-15963388D01*
X9645253Y-15963388D02*
X9635730Y-15982436D01*
X9635730Y-15982436D02*
X9626206Y-15991960D01*
X9626206Y-15991960D02*
X9607158Y-16001484D01*
X9607158Y-16001484D02*
X9578587Y-16001484D01*
X9759539Y-16001484D02*
X9740492Y-15991960D01*
X9740492Y-15991960D02*
X9730968Y-15972912D01*
X9730968Y-15972912D02*
X9730968Y-15801484D01*
X9911920Y-15991960D02*
X9892873Y-16001484D01*
X9892873Y-16001484D02*
X9854777Y-16001484D01*
X9854777Y-16001484D02*
X9835730Y-15991960D01*
X9835730Y-15991960D02*
X9826206Y-15972912D01*
X9826206Y-15972912D02*
X9826206Y-15896722D01*
X9826206Y-15896722D02*
X9835730Y-15877674D01*
X9835730Y-15877674D02*
X9854777Y-15868150D01*
X9854777Y-15868150D02*
X9892873Y-15868150D01*
X9892873Y-15868150D02*
X9911920Y-15877674D01*
X9911920Y-15877674D02*
X9921444Y-15896722D01*
X9921444Y-15896722D02*
X9921444Y-15915769D01*
X9921444Y-15915769D02*
X9826206Y-15934817D01*
X9997634Y-15991960D02*
X10016682Y-16001484D01*
X10016682Y-16001484D02*
X10054777Y-16001484D01*
X10054777Y-16001484D02*
X10073825Y-15991960D01*
X10073825Y-15991960D02*
X10083349Y-15972912D01*
X10083349Y-15972912D02*
X10083349Y-15963388D01*
X10083349Y-15963388D02*
X10073825Y-15944341D01*
X10073825Y-15944341D02*
X10054777Y-15934817D01*
X10054777Y-15934817D02*
X10026206Y-15934817D01*
X10026206Y-15934817D02*
X10007158Y-15925293D01*
X10007158Y-15925293D02*
X9997634Y-15906246D01*
X9997634Y-15906246D02*
X9997634Y-15896722D01*
X9997634Y-15896722D02*
X10007158Y-15877674D01*
X10007158Y-15877674D02*
X10026206Y-15868150D01*
X10026206Y-15868150D02*
X10054777Y-15868150D01*
X10054777Y-15868150D02*
X10073825Y-15877674D01*
X10150015Y-16077674D02*
X10159539Y-16068150D01*
X10159539Y-16068150D02*
X10178587Y-16039579D01*
X10178587Y-16039579D02*
X10188111Y-16020531D01*
X10188111Y-16020531D02*
X10197634Y-15991960D01*
X10197634Y-15991960D02*
X10207158Y-15944341D01*
X10207158Y-15944341D02*
X10207158Y-15906246D01*
X10207158Y-15906246D02*
X10197634Y-15858627D01*
X10197634Y-15858627D02*
X10188111Y-15830055D01*
X10188111Y-15830055D02*
X10178587Y-15811008D01*
X10178587Y-15811008D02*
X10159539Y-15782436D01*
X10159539Y-15782436D02*
X10150015Y-15772912D01*
D13*
X4947000Y-16127000D02*
X4947000Y-16221000D01*
X4900000Y-16174000D02*
X4994000Y-16174000D01*
D12*
X5292872Y-16065484D02*
X5311920Y-16065484D01*
X5311920Y-16065484D02*
X5330967Y-16075008D01*
X5330967Y-16075008D02*
X5340491Y-16084531D01*
X5340491Y-16084531D02*
X5350015Y-16103579D01*
X5350015Y-16103579D02*
X5359539Y-16141674D01*
X5359539Y-16141674D02*
X5359539Y-16189293D01*
X5359539Y-16189293D02*
X5350015Y-16227388D01*
X5350015Y-16227388D02*
X5340491Y-16246436D01*
X5340491Y-16246436D02*
X5330967Y-16255960D01*
X5330967Y-16255960D02*
X5311920Y-16265484D01*
X5311920Y-16265484D02*
X5292872Y-16265484D01*
X5292872Y-16265484D02*
X5273824Y-16255960D01*
X5273824Y-16255960D02*
X5264301Y-16246436D01*
X5264301Y-16246436D02*
X5254777Y-16227388D01*
X5254777Y-16227388D02*
X5245253Y-16189293D01*
X5245253Y-16189293D02*
X5245253Y-16141674D01*
X5245253Y-16141674D02*
X5254777Y-16103579D01*
X5254777Y-16103579D02*
X5264301Y-16084531D01*
X5264301Y-16084531D02*
X5273824Y-16075008D01*
X5273824Y-16075008D02*
X5292872Y-16065484D01*
X5445253Y-16246436D02*
X5454777Y-16255960D01*
X5454777Y-16255960D02*
X5445253Y-16265484D01*
X5445253Y-16265484D02*
X5435729Y-16255960D01*
X5435729Y-16255960D02*
X5445253Y-16246436D01*
X5445253Y-16246436D02*
X5445253Y-16265484D01*
X5550015Y-16265484D02*
X5588110Y-16265484D01*
X5588110Y-16265484D02*
X5607158Y-16255960D01*
X5607158Y-16255960D02*
X5616682Y-16246436D01*
X5616682Y-16246436D02*
X5635729Y-16217865D01*
X5635729Y-16217865D02*
X5645253Y-16179769D01*
X5645253Y-16179769D02*
X5645253Y-16103579D01*
X5645253Y-16103579D02*
X5635729Y-16084531D01*
X5635729Y-16084531D02*
X5626205Y-16075008D01*
X5626205Y-16075008D02*
X5607158Y-16065484D01*
X5607158Y-16065484D02*
X5569063Y-16065484D01*
X5569063Y-16065484D02*
X5550015Y-16075008D01*
X5550015Y-16075008D02*
X5540491Y-16084531D01*
X5540491Y-16084531D02*
X5530967Y-16103579D01*
X5530967Y-16103579D02*
X5530967Y-16151198D01*
X5530967Y-16151198D02*
X5540491Y-16170246D01*
X5540491Y-16170246D02*
X5550015Y-16179769D01*
X5550015Y-16179769D02*
X5569063Y-16189293D01*
X5569063Y-16189293D02*
X5607158Y-16189293D01*
X5607158Y-16189293D02*
X5626205Y-16179769D01*
X5626205Y-16179769D02*
X5635729Y-16170246D01*
X5635729Y-16170246D02*
X5645253Y-16151198D01*
X5816682Y-16132150D02*
X5816682Y-16265484D01*
X5769062Y-16055960D02*
X5721443Y-16198817D01*
X5721443Y-16198817D02*
X5845253Y-16198817D01*
X5959539Y-16065484D02*
X5978586Y-16065484D01*
X5978586Y-16065484D02*
X5997634Y-16075008D01*
X5997634Y-16075008D02*
X6007158Y-16084531D01*
X6007158Y-16084531D02*
X6016682Y-16103579D01*
X6016682Y-16103579D02*
X6026205Y-16141674D01*
X6026205Y-16141674D02*
X6026205Y-16189293D01*
X6026205Y-16189293D02*
X6016682Y-16227388D01*
X6016682Y-16227388D02*
X6007158Y-16246436D01*
X6007158Y-16246436D02*
X5997634Y-16255960D01*
X5997634Y-16255960D02*
X5978586Y-16265484D01*
X5978586Y-16265484D02*
X5959539Y-16265484D01*
X5959539Y-16265484D02*
X5940491Y-16255960D01*
X5940491Y-16255960D02*
X5930967Y-16246436D01*
X5930967Y-16246436D02*
X5921443Y-16227388D01*
X5921443Y-16227388D02*
X5911920Y-16189293D01*
X5911920Y-16189293D02*
X5911920Y-16141674D01*
X5911920Y-16141674D02*
X5921443Y-16103579D01*
X5921443Y-16103579D02*
X5930967Y-16084531D01*
X5930967Y-16084531D02*
X5940491Y-16075008D01*
X5940491Y-16075008D02*
X5959539Y-16065484D01*
X6111920Y-16265484D02*
X6111920Y-16132150D01*
X6111920Y-16151198D02*
X6121443Y-16141674D01*
X6121443Y-16141674D02*
X6140491Y-16132150D01*
X6140491Y-16132150D02*
X6169063Y-16132150D01*
X6169063Y-16132150D02*
X6188110Y-16141674D01*
X6188110Y-16141674D02*
X6197634Y-16160722D01*
X6197634Y-16160722D02*
X6197634Y-16265484D01*
X6197634Y-16160722D02*
X6207158Y-16141674D01*
X6207158Y-16141674D02*
X6226205Y-16132150D01*
X6226205Y-16132150D02*
X6254777Y-16132150D01*
X6254777Y-16132150D02*
X6273824Y-16141674D01*
X6273824Y-16141674D02*
X6283348Y-16160722D01*
X6283348Y-16160722D02*
X6283348Y-16265484D01*
X6378586Y-16265484D02*
X6378586Y-16132150D01*
X6378586Y-16151198D02*
X6388110Y-16141674D01*
X6388110Y-16141674D02*
X6407158Y-16132150D01*
X6407158Y-16132150D02*
X6435729Y-16132150D01*
X6435729Y-16132150D02*
X6454777Y-16141674D01*
X6454777Y-16141674D02*
X6464301Y-16160722D01*
X6464301Y-16160722D02*
X6464301Y-16265484D01*
X6464301Y-16160722D02*
X6473824Y-16141674D01*
X6473824Y-16141674D02*
X6492872Y-16132150D01*
X6492872Y-16132150D02*
X6521443Y-16132150D01*
X6521443Y-16132150D02*
X6540491Y-16141674D01*
X6540491Y-16141674D02*
X6550015Y-16160722D01*
X6550015Y-16160722D02*
X6550015Y-16265484D01*
X6940491Y-16055960D02*
X6769063Y-16313103D01*
X7197634Y-16065484D02*
X7216682Y-16065484D01*
X7216682Y-16065484D02*
X7235729Y-16075008D01*
X7235729Y-16075008D02*
X7245253Y-16084531D01*
X7245253Y-16084531D02*
X7254777Y-16103579D01*
X7254777Y-16103579D02*
X7264301Y-16141674D01*
X7264301Y-16141674D02*
X7264301Y-16189293D01*
X7264301Y-16189293D02*
X7254777Y-16227388D01*
X7254777Y-16227388D02*
X7245253Y-16246436D01*
X7245253Y-16246436D02*
X7235729Y-16255960D01*
X7235729Y-16255960D02*
X7216682Y-16265484D01*
X7216682Y-16265484D02*
X7197634Y-16265484D01*
X7197634Y-16265484D02*
X7178586Y-16255960D01*
X7178586Y-16255960D02*
X7169063Y-16246436D01*
X7169063Y-16246436D02*
X7159539Y-16227388D01*
X7159539Y-16227388D02*
X7150015Y-16189293D01*
X7150015Y-16189293D02*
X7150015Y-16141674D01*
X7150015Y-16141674D02*
X7159539Y-16103579D01*
X7159539Y-16103579D02*
X7169063Y-16084531D01*
X7169063Y-16084531D02*
X7178586Y-16075008D01*
X7178586Y-16075008D02*
X7197634Y-16065484D01*
X7350015Y-16246436D02*
X7359539Y-16255960D01*
X7359539Y-16255960D02*
X7350015Y-16265484D01*
X7350015Y-16265484D02*
X7340491Y-16255960D01*
X7340491Y-16255960D02*
X7350015Y-16246436D01*
X7350015Y-16246436D02*
X7350015Y-16265484D01*
X7483348Y-16065484D02*
X7502396Y-16065484D01*
X7502396Y-16065484D02*
X7521444Y-16075008D01*
X7521444Y-16075008D02*
X7530967Y-16084531D01*
X7530967Y-16084531D02*
X7540491Y-16103579D01*
X7540491Y-16103579D02*
X7550015Y-16141674D01*
X7550015Y-16141674D02*
X7550015Y-16189293D01*
X7550015Y-16189293D02*
X7540491Y-16227388D01*
X7540491Y-16227388D02*
X7530967Y-16246436D01*
X7530967Y-16246436D02*
X7521444Y-16255960D01*
X7521444Y-16255960D02*
X7502396Y-16265484D01*
X7502396Y-16265484D02*
X7483348Y-16265484D01*
X7483348Y-16265484D02*
X7464301Y-16255960D01*
X7464301Y-16255960D02*
X7454777Y-16246436D01*
X7454777Y-16246436D02*
X7445253Y-16227388D01*
X7445253Y-16227388D02*
X7435729Y-16189293D01*
X7435729Y-16189293D02*
X7435729Y-16141674D01*
X7435729Y-16141674D02*
X7445253Y-16103579D01*
X7445253Y-16103579D02*
X7454777Y-16084531D01*
X7454777Y-16084531D02*
X7464301Y-16075008D01*
X7464301Y-16075008D02*
X7483348Y-16065484D01*
X7616682Y-16065484D02*
X7740491Y-16065484D01*
X7740491Y-16065484D02*
X7673825Y-16141674D01*
X7673825Y-16141674D02*
X7702396Y-16141674D01*
X7702396Y-16141674D02*
X7721444Y-16151198D01*
X7721444Y-16151198D02*
X7730967Y-16160722D01*
X7730967Y-16160722D02*
X7740491Y-16179769D01*
X7740491Y-16179769D02*
X7740491Y-16227388D01*
X7740491Y-16227388D02*
X7730967Y-16246436D01*
X7730967Y-16246436D02*
X7721444Y-16255960D01*
X7721444Y-16255960D02*
X7702396Y-16265484D01*
X7702396Y-16265484D02*
X7645253Y-16265484D01*
X7645253Y-16265484D02*
X7626206Y-16255960D01*
X7626206Y-16255960D02*
X7616682Y-16246436D01*
X7807158Y-16065484D02*
X7940491Y-16065484D01*
X7940491Y-16065484D02*
X7854777Y-16265484D01*
X8054777Y-16065484D02*
X8073825Y-16065484D01*
X8073825Y-16065484D02*
X8092872Y-16075008D01*
X8092872Y-16075008D02*
X8102396Y-16084531D01*
X8102396Y-16084531D02*
X8111920Y-16103579D01*
X8111920Y-16103579D02*
X8121444Y-16141674D01*
X8121444Y-16141674D02*
X8121444Y-16189293D01*
X8121444Y-16189293D02*
X8111920Y-16227388D01*
X8111920Y-16227388D02*
X8102396Y-16246436D01*
X8102396Y-16246436D02*
X8092872Y-16255960D01*
X8092872Y-16255960D02*
X8073825Y-16265484D01*
X8073825Y-16265484D02*
X8054777Y-16265484D01*
X8054777Y-16265484D02*
X8035729Y-16255960D01*
X8035729Y-16255960D02*
X8026206Y-16246436D01*
X8026206Y-16246436D02*
X8016682Y-16227388D01*
X8016682Y-16227388D02*
X8007158Y-16189293D01*
X8007158Y-16189293D02*
X8007158Y-16141674D01*
X8007158Y-16141674D02*
X8016682Y-16103579D01*
X8016682Y-16103579D02*
X8026206Y-16084531D01*
X8026206Y-16084531D02*
X8035729Y-16075008D01*
X8035729Y-16075008D02*
X8054777Y-16065484D01*
X8197634Y-16065484D02*
X8197634Y-16103579D01*
X8273825Y-16065484D02*
X8273825Y-16103579D01*
X8569063Y-16341674D02*
X8559539Y-16332150D01*
X8559539Y-16332150D02*
X8540491Y-16303579D01*
X8540491Y-16303579D02*
X8530968Y-16284531D01*
X8530968Y-16284531D02*
X8521444Y-16255960D01*
X8521444Y-16255960D02*
X8511920Y-16208341D01*
X8511920Y-16208341D02*
X8511920Y-16170246D01*
X8511920Y-16170246D02*
X8521444Y-16122627D01*
X8521444Y-16122627D02*
X8530968Y-16094055D01*
X8530968Y-16094055D02*
X8540491Y-16075008D01*
X8540491Y-16075008D02*
X8559539Y-16046436D01*
X8559539Y-16046436D02*
X8569063Y-16036912D01*
X8750015Y-16265484D02*
X8635730Y-16265484D01*
X8692872Y-16265484D02*
X8692872Y-16065484D01*
X8692872Y-16065484D02*
X8673825Y-16094055D01*
X8673825Y-16094055D02*
X8654777Y-16113103D01*
X8654777Y-16113103D02*
X8635730Y-16122627D01*
X8921444Y-16065484D02*
X8883349Y-16065484D01*
X8883349Y-16065484D02*
X8864301Y-16075008D01*
X8864301Y-16075008D02*
X8854777Y-16084531D01*
X8854777Y-16084531D02*
X8835730Y-16113103D01*
X8835730Y-16113103D02*
X8826206Y-16151198D01*
X8826206Y-16151198D02*
X8826206Y-16227388D01*
X8826206Y-16227388D02*
X8835730Y-16246436D01*
X8835730Y-16246436D02*
X8845253Y-16255960D01*
X8845253Y-16255960D02*
X8864301Y-16265484D01*
X8864301Y-16265484D02*
X8902396Y-16265484D01*
X8902396Y-16265484D02*
X8921444Y-16255960D01*
X8921444Y-16255960D02*
X8930968Y-16246436D01*
X8930968Y-16246436D02*
X8940491Y-16227388D01*
X8940491Y-16227388D02*
X8940491Y-16179769D01*
X8940491Y-16179769D02*
X8930968Y-16160722D01*
X8930968Y-16160722D02*
X8921444Y-16151198D01*
X8921444Y-16151198D02*
X8902396Y-16141674D01*
X8902396Y-16141674D02*
X8864301Y-16141674D01*
X8864301Y-16141674D02*
X8845253Y-16151198D01*
X8845253Y-16151198D02*
X8835730Y-16160722D01*
X8835730Y-16160722D02*
X8826206Y-16179769D01*
X9178587Y-16265484D02*
X9178587Y-16065484D01*
X9264301Y-16265484D02*
X9264301Y-16160722D01*
X9264301Y-16160722D02*
X9254777Y-16141674D01*
X9254777Y-16141674D02*
X9235730Y-16132150D01*
X9235730Y-16132150D02*
X9207158Y-16132150D01*
X9207158Y-16132150D02*
X9188111Y-16141674D01*
X9188111Y-16141674D02*
X9178587Y-16151198D01*
X9388111Y-16265484D02*
X9369063Y-16255960D01*
X9369063Y-16255960D02*
X9359539Y-16246436D01*
X9359539Y-16246436D02*
X9350015Y-16227388D01*
X9350015Y-16227388D02*
X9350015Y-16170246D01*
X9350015Y-16170246D02*
X9359539Y-16151198D01*
X9359539Y-16151198D02*
X9369063Y-16141674D01*
X9369063Y-16141674D02*
X9388111Y-16132150D01*
X9388111Y-16132150D02*
X9416682Y-16132150D01*
X9416682Y-16132150D02*
X9435730Y-16141674D01*
X9435730Y-16141674D02*
X9445253Y-16151198D01*
X9445253Y-16151198D02*
X9454777Y-16170246D01*
X9454777Y-16170246D02*
X9454777Y-16227388D01*
X9454777Y-16227388D02*
X9445253Y-16246436D01*
X9445253Y-16246436D02*
X9435730Y-16255960D01*
X9435730Y-16255960D02*
X9416682Y-16265484D01*
X9416682Y-16265484D02*
X9388111Y-16265484D01*
X9569063Y-16265484D02*
X9550015Y-16255960D01*
X9550015Y-16255960D02*
X9540492Y-16236912D01*
X9540492Y-16236912D02*
X9540492Y-16065484D01*
X9721444Y-16255960D02*
X9702396Y-16265484D01*
X9702396Y-16265484D02*
X9664301Y-16265484D01*
X9664301Y-16265484D02*
X9645253Y-16255960D01*
X9645253Y-16255960D02*
X9635730Y-16236912D01*
X9635730Y-16236912D02*
X9635730Y-16160722D01*
X9635730Y-16160722D02*
X9645253Y-16141674D01*
X9645253Y-16141674D02*
X9664301Y-16132150D01*
X9664301Y-16132150D02*
X9702396Y-16132150D01*
X9702396Y-16132150D02*
X9721444Y-16141674D01*
X9721444Y-16141674D02*
X9730968Y-16160722D01*
X9730968Y-16160722D02*
X9730968Y-16179769D01*
X9730968Y-16179769D02*
X9635730Y-16198817D01*
X9807158Y-16255960D02*
X9826206Y-16265484D01*
X9826206Y-16265484D02*
X9864301Y-16265484D01*
X9864301Y-16265484D02*
X9883349Y-16255960D01*
X9883349Y-16255960D02*
X9892873Y-16236912D01*
X9892873Y-16236912D02*
X9892873Y-16227388D01*
X9892873Y-16227388D02*
X9883349Y-16208341D01*
X9883349Y-16208341D02*
X9864301Y-16198817D01*
X9864301Y-16198817D02*
X9835730Y-16198817D01*
X9835730Y-16198817D02*
X9816682Y-16189293D01*
X9816682Y-16189293D02*
X9807158Y-16170246D01*
X9807158Y-16170246D02*
X9807158Y-16160722D01*
X9807158Y-16160722D02*
X9816682Y-16141674D01*
X9816682Y-16141674D02*
X9835730Y-16132150D01*
X9835730Y-16132150D02*
X9864301Y-16132150D01*
X9864301Y-16132150D02*
X9883349Y-16141674D01*
X9959539Y-16341674D02*
X9969063Y-16332150D01*
X9969063Y-16332150D02*
X9988111Y-16303579D01*
X9988111Y-16303579D02*
X9997634Y-16284531D01*
X9997634Y-16284531D02*
X10007158Y-16255960D01*
X10007158Y-16255960D02*
X10016682Y-16208341D01*
X10016682Y-16208341D02*
X10016682Y-16170246D01*
X10016682Y-16170246D02*
X10007158Y-16122627D01*
X10007158Y-16122627D02*
X9997634Y-16094055D01*
X9997634Y-16094055D02*
X9988111Y-16075008D01*
X9988111Y-16075008D02*
X9969063Y-16046436D01*
X9969063Y-16046436D02*
X9959539Y-16036912D01*
D13*
X4979865Y-16472125D02*
X4979865Y-16403875D01*
X4911615Y-16403875D01*
X4911615Y-16472125D01*
X4979865Y-16472125D01*
D12*
X5292872Y-16329484D02*
X5311920Y-16329484D01*
X5311920Y-16329484D02*
X5330967Y-16339008D01*
X5330967Y-16339008D02*
X5340491Y-16348531D01*
X5340491Y-16348531D02*
X5350015Y-16367579D01*
X5350015Y-16367579D02*
X5359539Y-16405674D01*
X5359539Y-16405674D02*
X5359539Y-16453293D01*
X5359539Y-16453293D02*
X5350015Y-16491388D01*
X5350015Y-16491388D02*
X5340491Y-16510436D01*
X5340491Y-16510436D02*
X5330967Y-16519960D01*
X5330967Y-16519960D02*
X5311920Y-16529484D01*
X5311920Y-16529484D02*
X5292872Y-16529484D01*
X5292872Y-16529484D02*
X5273824Y-16519960D01*
X5273824Y-16519960D02*
X5264301Y-16510436D01*
X5264301Y-16510436D02*
X5254777Y-16491388D01*
X5254777Y-16491388D02*
X5245253Y-16453293D01*
X5245253Y-16453293D02*
X5245253Y-16405674D01*
X5245253Y-16405674D02*
X5254777Y-16367579D01*
X5254777Y-16367579D02*
X5264301Y-16348531D01*
X5264301Y-16348531D02*
X5273824Y-16339008D01*
X5273824Y-16339008D02*
X5292872Y-16329484D01*
X5445253Y-16510436D02*
X5454777Y-16519960D01*
X5454777Y-16519960D02*
X5445253Y-16529484D01*
X5445253Y-16529484D02*
X5435729Y-16519960D01*
X5435729Y-16519960D02*
X5445253Y-16510436D01*
X5445253Y-16510436D02*
X5445253Y-16529484D01*
X5550015Y-16529484D02*
X5588110Y-16529484D01*
X5588110Y-16529484D02*
X5607158Y-16519960D01*
X5607158Y-16519960D02*
X5616682Y-16510436D01*
X5616682Y-16510436D02*
X5635729Y-16481865D01*
X5635729Y-16481865D02*
X5645253Y-16443769D01*
X5645253Y-16443769D02*
X5645253Y-16367579D01*
X5645253Y-16367579D02*
X5635729Y-16348531D01*
X5635729Y-16348531D02*
X5626205Y-16339008D01*
X5626205Y-16339008D02*
X5607158Y-16329484D01*
X5607158Y-16329484D02*
X5569063Y-16329484D01*
X5569063Y-16329484D02*
X5550015Y-16339008D01*
X5550015Y-16339008D02*
X5540491Y-16348531D01*
X5540491Y-16348531D02*
X5530967Y-16367579D01*
X5530967Y-16367579D02*
X5530967Y-16415198D01*
X5530967Y-16415198D02*
X5540491Y-16434246D01*
X5540491Y-16434246D02*
X5550015Y-16443769D01*
X5550015Y-16443769D02*
X5569063Y-16453293D01*
X5569063Y-16453293D02*
X5607158Y-16453293D01*
X5607158Y-16453293D02*
X5626205Y-16443769D01*
X5626205Y-16443769D02*
X5635729Y-16434246D01*
X5635729Y-16434246D02*
X5645253Y-16415198D01*
X5816682Y-16329484D02*
X5778586Y-16329484D01*
X5778586Y-16329484D02*
X5759539Y-16339008D01*
X5759539Y-16339008D02*
X5750015Y-16348531D01*
X5750015Y-16348531D02*
X5730967Y-16377103D01*
X5730967Y-16377103D02*
X5721443Y-16415198D01*
X5721443Y-16415198D02*
X5721443Y-16491388D01*
X5721443Y-16491388D02*
X5730967Y-16510436D01*
X5730967Y-16510436D02*
X5740491Y-16519960D01*
X5740491Y-16519960D02*
X5759539Y-16529484D01*
X5759539Y-16529484D02*
X5797634Y-16529484D01*
X5797634Y-16529484D02*
X5816682Y-16519960D01*
X5816682Y-16519960D02*
X5826205Y-16510436D01*
X5826205Y-16510436D02*
X5835729Y-16491388D01*
X5835729Y-16491388D02*
X5835729Y-16443769D01*
X5835729Y-16443769D02*
X5826205Y-16424722D01*
X5826205Y-16424722D02*
X5816682Y-16415198D01*
X5816682Y-16415198D02*
X5797634Y-16405674D01*
X5797634Y-16405674D02*
X5759539Y-16405674D01*
X5759539Y-16405674D02*
X5740491Y-16415198D01*
X5740491Y-16415198D02*
X5730967Y-16424722D01*
X5730967Y-16424722D02*
X5721443Y-16443769D01*
X6016682Y-16329484D02*
X5921443Y-16329484D01*
X5921443Y-16329484D02*
X5911920Y-16424722D01*
X5911920Y-16424722D02*
X5921443Y-16415198D01*
X5921443Y-16415198D02*
X5940491Y-16405674D01*
X5940491Y-16405674D02*
X5988110Y-16405674D01*
X5988110Y-16405674D02*
X6007158Y-16415198D01*
X6007158Y-16415198D02*
X6016682Y-16424722D01*
X6016682Y-16424722D02*
X6026205Y-16443769D01*
X6026205Y-16443769D02*
X6026205Y-16491388D01*
X6026205Y-16491388D02*
X6016682Y-16510436D01*
X6016682Y-16510436D02*
X6007158Y-16519960D01*
X6007158Y-16519960D02*
X5988110Y-16529484D01*
X5988110Y-16529484D02*
X5940491Y-16529484D01*
X5940491Y-16529484D02*
X5921443Y-16519960D01*
X5921443Y-16519960D02*
X5911920Y-16510436D01*
X6111920Y-16529484D02*
X6111920Y-16396150D01*
X6111920Y-16415198D02*
X6121443Y-16405674D01*
X6121443Y-16405674D02*
X6140491Y-16396150D01*
X6140491Y-16396150D02*
X6169063Y-16396150D01*
X6169063Y-16396150D02*
X6188110Y-16405674D01*
X6188110Y-16405674D02*
X6197634Y-16424722D01*
X6197634Y-16424722D02*
X6197634Y-16529484D01*
X6197634Y-16424722D02*
X6207158Y-16405674D01*
X6207158Y-16405674D02*
X6226205Y-16396150D01*
X6226205Y-16396150D02*
X6254777Y-16396150D01*
X6254777Y-16396150D02*
X6273824Y-16405674D01*
X6273824Y-16405674D02*
X6283348Y-16424722D01*
X6283348Y-16424722D02*
X6283348Y-16529484D01*
X6378586Y-16529484D02*
X6378586Y-16396150D01*
X6378586Y-16415198D02*
X6388110Y-16405674D01*
X6388110Y-16405674D02*
X6407158Y-16396150D01*
X6407158Y-16396150D02*
X6435729Y-16396150D01*
X6435729Y-16396150D02*
X6454777Y-16405674D01*
X6454777Y-16405674D02*
X6464301Y-16424722D01*
X6464301Y-16424722D02*
X6464301Y-16529484D01*
X6464301Y-16424722D02*
X6473824Y-16405674D01*
X6473824Y-16405674D02*
X6492872Y-16396150D01*
X6492872Y-16396150D02*
X6521443Y-16396150D01*
X6521443Y-16396150D02*
X6540491Y-16405674D01*
X6540491Y-16405674D02*
X6550015Y-16424722D01*
X6550015Y-16424722D02*
X6550015Y-16529484D01*
X6940491Y-16319960D02*
X6769063Y-16577103D01*
X7197634Y-16329484D02*
X7216682Y-16329484D01*
X7216682Y-16329484D02*
X7235729Y-16339008D01*
X7235729Y-16339008D02*
X7245253Y-16348531D01*
X7245253Y-16348531D02*
X7254777Y-16367579D01*
X7254777Y-16367579D02*
X7264301Y-16405674D01*
X7264301Y-16405674D02*
X7264301Y-16453293D01*
X7264301Y-16453293D02*
X7254777Y-16491388D01*
X7254777Y-16491388D02*
X7245253Y-16510436D01*
X7245253Y-16510436D02*
X7235729Y-16519960D01*
X7235729Y-16519960D02*
X7216682Y-16529484D01*
X7216682Y-16529484D02*
X7197634Y-16529484D01*
X7197634Y-16529484D02*
X7178586Y-16519960D01*
X7178586Y-16519960D02*
X7169063Y-16510436D01*
X7169063Y-16510436D02*
X7159539Y-16491388D01*
X7159539Y-16491388D02*
X7150015Y-16453293D01*
X7150015Y-16453293D02*
X7150015Y-16405674D01*
X7150015Y-16405674D02*
X7159539Y-16367579D01*
X7159539Y-16367579D02*
X7169063Y-16348531D01*
X7169063Y-16348531D02*
X7178586Y-16339008D01*
X7178586Y-16339008D02*
X7197634Y-16329484D01*
X7350015Y-16510436D02*
X7359539Y-16519960D01*
X7359539Y-16519960D02*
X7350015Y-16529484D01*
X7350015Y-16529484D02*
X7340491Y-16519960D01*
X7340491Y-16519960D02*
X7350015Y-16510436D01*
X7350015Y-16510436D02*
X7350015Y-16529484D01*
X7483348Y-16329484D02*
X7502396Y-16329484D01*
X7502396Y-16329484D02*
X7521444Y-16339008D01*
X7521444Y-16339008D02*
X7530967Y-16348531D01*
X7530967Y-16348531D02*
X7540491Y-16367579D01*
X7540491Y-16367579D02*
X7550015Y-16405674D01*
X7550015Y-16405674D02*
X7550015Y-16453293D01*
X7550015Y-16453293D02*
X7540491Y-16491388D01*
X7540491Y-16491388D02*
X7530967Y-16510436D01*
X7530967Y-16510436D02*
X7521444Y-16519960D01*
X7521444Y-16519960D02*
X7502396Y-16529484D01*
X7502396Y-16529484D02*
X7483348Y-16529484D01*
X7483348Y-16529484D02*
X7464301Y-16519960D01*
X7464301Y-16519960D02*
X7454777Y-16510436D01*
X7454777Y-16510436D02*
X7445253Y-16491388D01*
X7445253Y-16491388D02*
X7435729Y-16453293D01*
X7435729Y-16453293D02*
X7435729Y-16405674D01*
X7435729Y-16405674D02*
X7445253Y-16367579D01*
X7445253Y-16367579D02*
X7454777Y-16348531D01*
X7454777Y-16348531D02*
X7464301Y-16339008D01*
X7464301Y-16339008D02*
X7483348Y-16329484D01*
X7616682Y-16329484D02*
X7740491Y-16329484D01*
X7740491Y-16329484D02*
X7673825Y-16405674D01*
X7673825Y-16405674D02*
X7702396Y-16405674D01*
X7702396Y-16405674D02*
X7721444Y-16415198D01*
X7721444Y-16415198D02*
X7730967Y-16424722D01*
X7730967Y-16424722D02*
X7740491Y-16443769D01*
X7740491Y-16443769D02*
X7740491Y-16491388D01*
X7740491Y-16491388D02*
X7730967Y-16510436D01*
X7730967Y-16510436D02*
X7721444Y-16519960D01*
X7721444Y-16519960D02*
X7702396Y-16529484D01*
X7702396Y-16529484D02*
X7645253Y-16529484D01*
X7645253Y-16529484D02*
X7626206Y-16519960D01*
X7626206Y-16519960D02*
X7616682Y-16510436D01*
X7854777Y-16415198D02*
X7835729Y-16405674D01*
X7835729Y-16405674D02*
X7826206Y-16396150D01*
X7826206Y-16396150D02*
X7816682Y-16377103D01*
X7816682Y-16377103D02*
X7816682Y-16367579D01*
X7816682Y-16367579D02*
X7826206Y-16348531D01*
X7826206Y-16348531D02*
X7835729Y-16339008D01*
X7835729Y-16339008D02*
X7854777Y-16329484D01*
X7854777Y-16329484D02*
X7892872Y-16329484D01*
X7892872Y-16329484D02*
X7911920Y-16339008D01*
X7911920Y-16339008D02*
X7921444Y-16348531D01*
X7921444Y-16348531D02*
X7930967Y-16367579D01*
X7930967Y-16367579D02*
X7930967Y-16377103D01*
X7930967Y-16377103D02*
X7921444Y-16396150D01*
X7921444Y-16396150D02*
X7911920Y-16405674D01*
X7911920Y-16405674D02*
X7892872Y-16415198D01*
X7892872Y-16415198D02*
X7854777Y-16415198D01*
X7854777Y-16415198D02*
X7835729Y-16424722D01*
X7835729Y-16424722D02*
X7826206Y-16434246D01*
X7826206Y-16434246D02*
X7816682Y-16453293D01*
X7816682Y-16453293D02*
X7816682Y-16491388D01*
X7816682Y-16491388D02*
X7826206Y-16510436D01*
X7826206Y-16510436D02*
X7835729Y-16519960D01*
X7835729Y-16519960D02*
X7854777Y-16529484D01*
X7854777Y-16529484D02*
X7892872Y-16529484D01*
X7892872Y-16529484D02*
X7911920Y-16519960D01*
X7911920Y-16519960D02*
X7921444Y-16510436D01*
X7921444Y-16510436D02*
X7930967Y-16491388D01*
X7930967Y-16491388D02*
X7930967Y-16453293D01*
X7930967Y-16453293D02*
X7921444Y-16434246D01*
X7921444Y-16434246D02*
X7911920Y-16424722D01*
X7911920Y-16424722D02*
X7892872Y-16415198D01*
X8054777Y-16329484D02*
X8073825Y-16329484D01*
X8073825Y-16329484D02*
X8092872Y-16339008D01*
X8092872Y-16339008D02*
X8102396Y-16348531D01*
X8102396Y-16348531D02*
X8111920Y-16367579D01*
X8111920Y-16367579D02*
X8121444Y-16405674D01*
X8121444Y-16405674D02*
X8121444Y-16453293D01*
X8121444Y-16453293D02*
X8111920Y-16491388D01*
X8111920Y-16491388D02*
X8102396Y-16510436D01*
X8102396Y-16510436D02*
X8092872Y-16519960D01*
X8092872Y-16519960D02*
X8073825Y-16529484D01*
X8073825Y-16529484D02*
X8054777Y-16529484D01*
X8054777Y-16529484D02*
X8035729Y-16519960D01*
X8035729Y-16519960D02*
X8026206Y-16510436D01*
X8026206Y-16510436D02*
X8016682Y-16491388D01*
X8016682Y-16491388D02*
X8007158Y-16453293D01*
X8007158Y-16453293D02*
X8007158Y-16405674D01*
X8007158Y-16405674D02*
X8016682Y-16367579D01*
X8016682Y-16367579D02*
X8026206Y-16348531D01*
X8026206Y-16348531D02*
X8035729Y-16339008D01*
X8035729Y-16339008D02*
X8054777Y-16329484D01*
X8197634Y-16329484D02*
X8197634Y-16367579D01*
X8273825Y-16329484D02*
X8273825Y-16367579D01*
X8569063Y-16605674D02*
X8559539Y-16596150D01*
X8559539Y-16596150D02*
X8540491Y-16567579D01*
X8540491Y-16567579D02*
X8530968Y-16548531D01*
X8530968Y-16548531D02*
X8521444Y-16519960D01*
X8521444Y-16519960D02*
X8511920Y-16472341D01*
X8511920Y-16472341D02*
X8511920Y-16434246D01*
X8511920Y-16434246D02*
X8521444Y-16386627D01*
X8521444Y-16386627D02*
X8530968Y-16358055D01*
X8530968Y-16358055D02*
X8540491Y-16339008D01*
X8540491Y-16339008D02*
X8559539Y-16310436D01*
X8559539Y-16310436D02*
X8569063Y-16300912D01*
X8635730Y-16348531D02*
X8645253Y-16339008D01*
X8645253Y-16339008D02*
X8664301Y-16329484D01*
X8664301Y-16329484D02*
X8711920Y-16329484D01*
X8711920Y-16329484D02*
X8730968Y-16339008D01*
X8730968Y-16339008D02*
X8740491Y-16348531D01*
X8740491Y-16348531D02*
X8750015Y-16367579D01*
X8750015Y-16367579D02*
X8750015Y-16386627D01*
X8750015Y-16386627D02*
X8740491Y-16415198D01*
X8740491Y-16415198D02*
X8626206Y-16529484D01*
X8626206Y-16529484D02*
X8750015Y-16529484D01*
X8873825Y-16329484D02*
X8892872Y-16329484D01*
X8892872Y-16329484D02*
X8911920Y-16339008D01*
X8911920Y-16339008D02*
X8921444Y-16348531D01*
X8921444Y-16348531D02*
X8930968Y-16367579D01*
X8930968Y-16367579D02*
X8940491Y-16405674D01*
X8940491Y-16405674D02*
X8940491Y-16453293D01*
X8940491Y-16453293D02*
X8930968Y-16491388D01*
X8930968Y-16491388D02*
X8921444Y-16510436D01*
X8921444Y-16510436D02*
X8911920Y-16519960D01*
X8911920Y-16519960D02*
X8892872Y-16529484D01*
X8892872Y-16529484D02*
X8873825Y-16529484D01*
X8873825Y-16529484D02*
X8854777Y-16519960D01*
X8854777Y-16519960D02*
X8845253Y-16510436D01*
X8845253Y-16510436D02*
X8835730Y-16491388D01*
X8835730Y-16491388D02*
X8826206Y-16453293D01*
X8826206Y-16453293D02*
X8826206Y-16405674D01*
X8826206Y-16405674D02*
X8835730Y-16367579D01*
X8835730Y-16367579D02*
X8845253Y-16348531D01*
X8845253Y-16348531D02*
X8854777Y-16339008D01*
X8854777Y-16339008D02*
X8873825Y-16329484D01*
X9178587Y-16529484D02*
X9178587Y-16329484D01*
X9264301Y-16529484D02*
X9264301Y-16424722D01*
X9264301Y-16424722D02*
X9254777Y-16405674D01*
X9254777Y-16405674D02*
X9235730Y-16396150D01*
X9235730Y-16396150D02*
X9207158Y-16396150D01*
X9207158Y-16396150D02*
X9188111Y-16405674D01*
X9188111Y-16405674D02*
X9178587Y-16415198D01*
X9388111Y-16529484D02*
X9369063Y-16519960D01*
X9369063Y-16519960D02*
X9359539Y-16510436D01*
X9359539Y-16510436D02*
X9350015Y-16491388D01*
X9350015Y-16491388D02*
X9350015Y-16434246D01*
X9350015Y-16434246D02*
X9359539Y-16415198D01*
X9359539Y-16415198D02*
X9369063Y-16405674D01*
X9369063Y-16405674D02*
X9388111Y-16396150D01*
X9388111Y-16396150D02*
X9416682Y-16396150D01*
X9416682Y-16396150D02*
X9435730Y-16405674D01*
X9435730Y-16405674D02*
X9445253Y-16415198D01*
X9445253Y-16415198D02*
X9454777Y-16434246D01*
X9454777Y-16434246D02*
X9454777Y-16491388D01*
X9454777Y-16491388D02*
X9445253Y-16510436D01*
X9445253Y-16510436D02*
X9435730Y-16519960D01*
X9435730Y-16519960D02*
X9416682Y-16529484D01*
X9416682Y-16529484D02*
X9388111Y-16529484D01*
X9569063Y-16529484D02*
X9550015Y-16519960D01*
X9550015Y-16519960D02*
X9540492Y-16500912D01*
X9540492Y-16500912D02*
X9540492Y-16329484D01*
X9721444Y-16519960D02*
X9702396Y-16529484D01*
X9702396Y-16529484D02*
X9664301Y-16529484D01*
X9664301Y-16529484D02*
X9645253Y-16519960D01*
X9645253Y-16519960D02*
X9635730Y-16500912D01*
X9635730Y-16500912D02*
X9635730Y-16424722D01*
X9635730Y-16424722D02*
X9645253Y-16405674D01*
X9645253Y-16405674D02*
X9664301Y-16396150D01*
X9664301Y-16396150D02*
X9702396Y-16396150D01*
X9702396Y-16396150D02*
X9721444Y-16405674D01*
X9721444Y-16405674D02*
X9730968Y-16424722D01*
X9730968Y-16424722D02*
X9730968Y-16443769D01*
X9730968Y-16443769D02*
X9635730Y-16462817D01*
X9807158Y-16519960D02*
X9826206Y-16529484D01*
X9826206Y-16529484D02*
X9864301Y-16529484D01*
X9864301Y-16529484D02*
X9883349Y-16519960D01*
X9883349Y-16519960D02*
X9892873Y-16500912D01*
X9892873Y-16500912D02*
X9892873Y-16491388D01*
X9892873Y-16491388D02*
X9883349Y-16472341D01*
X9883349Y-16472341D02*
X9864301Y-16462817D01*
X9864301Y-16462817D02*
X9835730Y-16462817D01*
X9835730Y-16462817D02*
X9816682Y-16453293D01*
X9816682Y-16453293D02*
X9807158Y-16434246D01*
X9807158Y-16434246D02*
X9807158Y-16424722D01*
X9807158Y-16424722D02*
X9816682Y-16405674D01*
X9816682Y-16405674D02*
X9835730Y-16396150D01*
X9835730Y-16396150D02*
X9864301Y-16396150D01*
X9864301Y-16396150D02*
X9883349Y-16405674D01*
X9959539Y-16605674D02*
X9969063Y-16596150D01*
X9969063Y-16596150D02*
X9988111Y-16567579D01*
X9988111Y-16567579D02*
X9997634Y-16548531D01*
X9997634Y-16548531D02*
X10007158Y-16519960D01*
X10007158Y-16519960D02*
X10016682Y-16472341D01*
X10016682Y-16472341D02*
X10016682Y-16434246D01*
X10016682Y-16434246D02*
X10007158Y-16386627D01*
X10007158Y-16386627D02*
X9997634Y-16358055D01*
X9997634Y-16358055D02*
X9988111Y-16339008D01*
X9988111Y-16339008D02*
X9969063Y-16310436D01*
X9969063Y-16310436D02*
X9959539Y-16300912D01*
D13*
X4944000Y-16752000D02*
X4994000Y-16702000D01*
X4944000Y-16652000D01*
X4894000Y-16702000D01*
X4944000Y-16752000D01*
D12*
X5359539Y-16793484D02*
X5245253Y-16793484D01*
X5302396Y-16793484D02*
X5302396Y-16593484D01*
X5302396Y-16593484D02*
X5283348Y-16622055D01*
X5283348Y-16622055D02*
X5264301Y-16641103D01*
X5264301Y-16641103D02*
X5245253Y-16650627D01*
X5445253Y-16774436D02*
X5454777Y-16783960D01*
X5454777Y-16783960D02*
X5445253Y-16793484D01*
X5445253Y-16793484D02*
X5435729Y-16783960D01*
X5435729Y-16783960D02*
X5445253Y-16774436D01*
X5445253Y-16774436D02*
X5445253Y-16793484D01*
X5578586Y-16593484D02*
X5597634Y-16593484D01*
X5597634Y-16593484D02*
X5616682Y-16603008D01*
X5616682Y-16603008D02*
X5626205Y-16612531D01*
X5626205Y-16612531D02*
X5635729Y-16631579D01*
X5635729Y-16631579D02*
X5645253Y-16669674D01*
X5645253Y-16669674D02*
X5645253Y-16717293D01*
X5645253Y-16717293D02*
X5635729Y-16755388D01*
X5635729Y-16755388D02*
X5626205Y-16774436D01*
X5626205Y-16774436D02*
X5616682Y-16783960D01*
X5616682Y-16783960D02*
X5597634Y-16793484D01*
X5597634Y-16793484D02*
X5578586Y-16793484D01*
X5578586Y-16793484D02*
X5559539Y-16783960D01*
X5559539Y-16783960D02*
X5550015Y-16774436D01*
X5550015Y-16774436D02*
X5540491Y-16755388D01*
X5540491Y-16755388D02*
X5530967Y-16717293D01*
X5530967Y-16717293D02*
X5530967Y-16669674D01*
X5530967Y-16669674D02*
X5540491Y-16631579D01*
X5540491Y-16631579D02*
X5550015Y-16612531D01*
X5550015Y-16612531D02*
X5559539Y-16603008D01*
X5559539Y-16603008D02*
X5578586Y-16593484D01*
X5769062Y-16593484D02*
X5788110Y-16593484D01*
X5788110Y-16593484D02*
X5807158Y-16603008D01*
X5807158Y-16603008D02*
X5816682Y-16612531D01*
X5816682Y-16612531D02*
X5826205Y-16631579D01*
X5826205Y-16631579D02*
X5835729Y-16669674D01*
X5835729Y-16669674D02*
X5835729Y-16717293D01*
X5835729Y-16717293D02*
X5826205Y-16755388D01*
X5826205Y-16755388D02*
X5816682Y-16774436D01*
X5816682Y-16774436D02*
X5807158Y-16783960D01*
X5807158Y-16783960D02*
X5788110Y-16793484D01*
X5788110Y-16793484D02*
X5769062Y-16793484D01*
X5769062Y-16793484D02*
X5750015Y-16783960D01*
X5750015Y-16783960D02*
X5740491Y-16774436D01*
X5740491Y-16774436D02*
X5730967Y-16755388D01*
X5730967Y-16755388D02*
X5721443Y-16717293D01*
X5721443Y-16717293D02*
X5721443Y-16669674D01*
X5721443Y-16669674D02*
X5730967Y-16631579D01*
X5730967Y-16631579D02*
X5740491Y-16612531D01*
X5740491Y-16612531D02*
X5750015Y-16603008D01*
X5750015Y-16603008D02*
X5769062Y-16593484D01*
X5959539Y-16593484D02*
X5978586Y-16593484D01*
X5978586Y-16593484D02*
X5997634Y-16603008D01*
X5997634Y-16603008D02*
X6007158Y-16612531D01*
X6007158Y-16612531D02*
X6016682Y-16631579D01*
X6016682Y-16631579D02*
X6026205Y-16669674D01*
X6026205Y-16669674D02*
X6026205Y-16717293D01*
X6026205Y-16717293D02*
X6016682Y-16755388D01*
X6016682Y-16755388D02*
X6007158Y-16774436D01*
X6007158Y-16774436D02*
X5997634Y-16783960D01*
X5997634Y-16783960D02*
X5978586Y-16793484D01*
X5978586Y-16793484D02*
X5959539Y-16793484D01*
X5959539Y-16793484D02*
X5940491Y-16783960D01*
X5940491Y-16783960D02*
X5930967Y-16774436D01*
X5930967Y-16774436D02*
X5921443Y-16755388D01*
X5921443Y-16755388D02*
X5911920Y-16717293D01*
X5911920Y-16717293D02*
X5911920Y-16669674D01*
X5911920Y-16669674D02*
X5921443Y-16631579D01*
X5921443Y-16631579D02*
X5930967Y-16612531D01*
X5930967Y-16612531D02*
X5940491Y-16603008D01*
X5940491Y-16603008D02*
X5959539Y-16593484D01*
X6111920Y-16793484D02*
X6111920Y-16660150D01*
X6111920Y-16679198D02*
X6121443Y-16669674D01*
X6121443Y-16669674D02*
X6140491Y-16660150D01*
X6140491Y-16660150D02*
X6169063Y-16660150D01*
X6169063Y-16660150D02*
X6188110Y-16669674D01*
X6188110Y-16669674D02*
X6197634Y-16688722D01*
X6197634Y-16688722D02*
X6197634Y-16793484D01*
X6197634Y-16688722D02*
X6207158Y-16669674D01*
X6207158Y-16669674D02*
X6226205Y-16660150D01*
X6226205Y-16660150D02*
X6254777Y-16660150D01*
X6254777Y-16660150D02*
X6273824Y-16669674D01*
X6273824Y-16669674D02*
X6283348Y-16688722D01*
X6283348Y-16688722D02*
X6283348Y-16793484D01*
X6378586Y-16793484D02*
X6378586Y-16660150D01*
X6378586Y-16679198D02*
X6388110Y-16669674D01*
X6388110Y-16669674D02*
X6407158Y-16660150D01*
X6407158Y-16660150D02*
X6435729Y-16660150D01*
X6435729Y-16660150D02*
X6454777Y-16669674D01*
X6454777Y-16669674D02*
X6464301Y-16688722D01*
X6464301Y-16688722D02*
X6464301Y-16793484D01*
X6464301Y-16688722D02*
X6473824Y-16669674D01*
X6473824Y-16669674D02*
X6492872Y-16660150D01*
X6492872Y-16660150D02*
X6521443Y-16660150D01*
X6521443Y-16660150D02*
X6540491Y-16669674D01*
X6540491Y-16669674D02*
X6550015Y-16688722D01*
X6550015Y-16688722D02*
X6550015Y-16793484D01*
X6940491Y-16583960D02*
X6769063Y-16841103D01*
X7197634Y-16593484D02*
X7216682Y-16593484D01*
X7216682Y-16593484D02*
X7235729Y-16603008D01*
X7235729Y-16603008D02*
X7245253Y-16612531D01*
X7245253Y-16612531D02*
X7254777Y-16631579D01*
X7254777Y-16631579D02*
X7264301Y-16669674D01*
X7264301Y-16669674D02*
X7264301Y-16717293D01*
X7264301Y-16717293D02*
X7254777Y-16755388D01*
X7254777Y-16755388D02*
X7245253Y-16774436D01*
X7245253Y-16774436D02*
X7235729Y-16783960D01*
X7235729Y-16783960D02*
X7216682Y-16793484D01*
X7216682Y-16793484D02*
X7197634Y-16793484D01*
X7197634Y-16793484D02*
X7178586Y-16783960D01*
X7178586Y-16783960D02*
X7169063Y-16774436D01*
X7169063Y-16774436D02*
X7159539Y-16755388D01*
X7159539Y-16755388D02*
X7150015Y-16717293D01*
X7150015Y-16717293D02*
X7150015Y-16669674D01*
X7150015Y-16669674D02*
X7159539Y-16631579D01*
X7159539Y-16631579D02*
X7169063Y-16612531D01*
X7169063Y-16612531D02*
X7178586Y-16603008D01*
X7178586Y-16603008D02*
X7197634Y-16593484D01*
X7350015Y-16774436D02*
X7359539Y-16783960D01*
X7359539Y-16783960D02*
X7350015Y-16793484D01*
X7350015Y-16793484D02*
X7340491Y-16783960D01*
X7340491Y-16783960D02*
X7350015Y-16774436D01*
X7350015Y-16774436D02*
X7350015Y-16793484D01*
X7483348Y-16593484D02*
X7502396Y-16593484D01*
X7502396Y-16593484D02*
X7521444Y-16603008D01*
X7521444Y-16603008D02*
X7530967Y-16612531D01*
X7530967Y-16612531D02*
X7540491Y-16631579D01*
X7540491Y-16631579D02*
X7550015Y-16669674D01*
X7550015Y-16669674D02*
X7550015Y-16717293D01*
X7550015Y-16717293D02*
X7540491Y-16755388D01*
X7540491Y-16755388D02*
X7530967Y-16774436D01*
X7530967Y-16774436D02*
X7521444Y-16783960D01*
X7521444Y-16783960D02*
X7502396Y-16793484D01*
X7502396Y-16793484D02*
X7483348Y-16793484D01*
X7483348Y-16793484D02*
X7464301Y-16783960D01*
X7464301Y-16783960D02*
X7454777Y-16774436D01*
X7454777Y-16774436D02*
X7445253Y-16755388D01*
X7445253Y-16755388D02*
X7435729Y-16717293D01*
X7435729Y-16717293D02*
X7435729Y-16669674D01*
X7435729Y-16669674D02*
X7445253Y-16631579D01*
X7445253Y-16631579D02*
X7454777Y-16612531D01*
X7454777Y-16612531D02*
X7464301Y-16603008D01*
X7464301Y-16603008D02*
X7483348Y-16593484D01*
X7616682Y-16593484D02*
X7740491Y-16593484D01*
X7740491Y-16593484D02*
X7673825Y-16669674D01*
X7673825Y-16669674D02*
X7702396Y-16669674D01*
X7702396Y-16669674D02*
X7721444Y-16679198D01*
X7721444Y-16679198D02*
X7730967Y-16688722D01*
X7730967Y-16688722D02*
X7740491Y-16707769D01*
X7740491Y-16707769D02*
X7740491Y-16755388D01*
X7740491Y-16755388D02*
X7730967Y-16774436D01*
X7730967Y-16774436D02*
X7721444Y-16783960D01*
X7721444Y-16783960D02*
X7702396Y-16793484D01*
X7702396Y-16793484D02*
X7645253Y-16793484D01*
X7645253Y-16793484D02*
X7626206Y-16783960D01*
X7626206Y-16783960D02*
X7616682Y-16774436D01*
X7835729Y-16793484D02*
X7873825Y-16793484D01*
X7873825Y-16793484D02*
X7892872Y-16783960D01*
X7892872Y-16783960D02*
X7902396Y-16774436D01*
X7902396Y-16774436D02*
X7921444Y-16745865D01*
X7921444Y-16745865D02*
X7930967Y-16707769D01*
X7930967Y-16707769D02*
X7930967Y-16631579D01*
X7930967Y-16631579D02*
X7921444Y-16612531D01*
X7921444Y-16612531D02*
X7911920Y-16603008D01*
X7911920Y-16603008D02*
X7892872Y-16593484D01*
X7892872Y-16593484D02*
X7854777Y-16593484D01*
X7854777Y-16593484D02*
X7835729Y-16603008D01*
X7835729Y-16603008D02*
X7826206Y-16612531D01*
X7826206Y-16612531D02*
X7816682Y-16631579D01*
X7816682Y-16631579D02*
X7816682Y-16679198D01*
X7816682Y-16679198D02*
X7826206Y-16698246D01*
X7826206Y-16698246D02*
X7835729Y-16707769D01*
X7835729Y-16707769D02*
X7854777Y-16717293D01*
X7854777Y-16717293D02*
X7892872Y-16717293D01*
X7892872Y-16717293D02*
X7911920Y-16707769D01*
X7911920Y-16707769D02*
X7921444Y-16698246D01*
X7921444Y-16698246D02*
X7930967Y-16679198D01*
X8102396Y-16660150D02*
X8102396Y-16793484D01*
X8054777Y-16583960D02*
X8007158Y-16726817D01*
X8007158Y-16726817D02*
X8130967Y-16726817D01*
X8197634Y-16593484D02*
X8197634Y-16631579D01*
X8273825Y-16593484D02*
X8273825Y-16631579D01*
X8569063Y-16869674D02*
X8559539Y-16860150D01*
X8559539Y-16860150D02*
X8540491Y-16831579D01*
X8540491Y-16831579D02*
X8530968Y-16812531D01*
X8530968Y-16812531D02*
X8521444Y-16783960D01*
X8521444Y-16783960D02*
X8511920Y-16736341D01*
X8511920Y-16736341D02*
X8511920Y-16698246D01*
X8511920Y-16698246D02*
X8521444Y-16650627D01*
X8521444Y-16650627D02*
X8530968Y-16622055D01*
X8530968Y-16622055D02*
X8540491Y-16603008D01*
X8540491Y-16603008D02*
X8559539Y-16574436D01*
X8559539Y-16574436D02*
X8569063Y-16564912D01*
X8750015Y-16793484D02*
X8635730Y-16793484D01*
X8692872Y-16793484D02*
X8692872Y-16593484D01*
X8692872Y-16593484D02*
X8673825Y-16622055D01*
X8673825Y-16622055D02*
X8654777Y-16641103D01*
X8654777Y-16641103D02*
X8635730Y-16650627D01*
X8921444Y-16593484D02*
X8883349Y-16593484D01*
X8883349Y-16593484D02*
X8864301Y-16603008D01*
X8864301Y-16603008D02*
X8854777Y-16612531D01*
X8854777Y-16612531D02*
X8835730Y-16641103D01*
X8835730Y-16641103D02*
X8826206Y-16679198D01*
X8826206Y-16679198D02*
X8826206Y-16755388D01*
X8826206Y-16755388D02*
X8835730Y-16774436D01*
X8835730Y-16774436D02*
X8845253Y-16783960D01*
X8845253Y-16783960D02*
X8864301Y-16793484D01*
X8864301Y-16793484D02*
X8902396Y-16793484D01*
X8902396Y-16793484D02*
X8921444Y-16783960D01*
X8921444Y-16783960D02*
X8930968Y-16774436D01*
X8930968Y-16774436D02*
X8940491Y-16755388D01*
X8940491Y-16755388D02*
X8940491Y-16707769D01*
X8940491Y-16707769D02*
X8930968Y-16688722D01*
X8930968Y-16688722D02*
X8921444Y-16679198D01*
X8921444Y-16679198D02*
X8902396Y-16669674D01*
X8902396Y-16669674D02*
X8864301Y-16669674D01*
X8864301Y-16669674D02*
X8845253Y-16679198D01*
X8845253Y-16679198D02*
X8835730Y-16688722D01*
X8835730Y-16688722D02*
X8826206Y-16707769D01*
X9111920Y-16593484D02*
X9073825Y-16593484D01*
X9073825Y-16593484D02*
X9054777Y-16603008D01*
X9054777Y-16603008D02*
X9045253Y-16612531D01*
X9045253Y-16612531D02*
X9026206Y-16641103D01*
X9026206Y-16641103D02*
X9016682Y-16679198D01*
X9016682Y-16679198D02*
X9016682Y-16755388D01*
X9016682Y-16755388D02*
X9026206Y-16774436D01*
X9026206Y-16774436D02*
X9035730Y-16783960D01*
X9035730Y-16783960D02*
X9054777Y-16793484D01*
X9054777Y-16793484D02*
X9092872Y-16793484D01*
X9092872Y-16793484D02*
X9111920Y-16783960D01*
X9111920Y-16783960D02*
X9121444Y-16774436D01*
X9121444Y-16774436D02*
X9130968Y-16755388D01*
X9130968Y-16755388D02*
X9130968Y-16707769D01*
X9130968Y-16707769D02*
X9121444Y-16688722D01*
X9121444Y-16688722D02*
X9111920Y-16679198D01*
X9111920Y-16679198D02*
X9092872Y-16669674D01*
X9092872Y-16669674D02*
X9054777Y-16669674D01*
X9054777Y-16669674D02*
X9035730Y-16679198D01*
X9035730Y-16679198D02*
X9026206Y-16688722D01*
X9026206Y-16688722D02*
X9016682Y-16707769D01*
X9369063Y-16793484D02*
X9369063Y-16593484D01*
X9454777Y-16793484D02*
X9454777Y-16688722D01*
X9454777Y-16688722D02*
X9445253Y-16669674D01*
X9445253Y-16669674D02*
X9426206Y-16660150D01*
X9426206Y-16660150D02*
X9397634Y-16660150D01*
X9397634Y-16660150D02*
X9378587Y-16669674D01*
X9378587Y-16669674D02*
X9369063Y-16679198D01*
X9578587Y-16793484D02*
X9559539Y-16783960D01*
X9559539Y-16783960D02*
X9550015Y-16774436D01*
X9550015Y-16774436D02*
X9540492Y-16755388D01*
X9540492Y-16755388D02*
X9540492Y-16698246D01*
X9540492Y-16698246D02*
X9550015Y-16679198D01*
X9550015Y-16679198D02*
X9559539Y-16669674D01*
X9559539Y-16669674D02*
X9578587Y-16660150D01*
X9578587Y-16660150D02*
X9607158Y-16660150D01*
X9607158Y-16660150D02*
X9626206Y-16669674D01*
X9626206Y-16669674D02*
X9635730Y-16679198D01*
X9635730Y-16679198D02*
X9645253Y-16698246D01*
X9645253Y-16698246D02*
X9645253Y-16755388D01*
X9645253Y-16755388D02*
X9635730Y-16774436D01*
X9635730Y-16774436D02*
X9626206Y-16783960D01*
X9626206Y-16783960D02*
X9607158Y-16793484D01*
X9607158Y-16793484D02*
X9578587Y-16793484D01*
X9759539Y-16793484D02*
X9740492Y-16783960D01*
X9740492Y-16783960D02*
X9730968Y-16764912D01*
X9730968Y-16764912D02*
X9730968Y-16593484D01*
X9911920Y-16783960D02*
X9892873Y-16793484D01*
X9892873Y-16793484D02*
X9854777Y-16793484D01*
X9854777Y-16793484D02*
X9835730Y-16783960D01*
X9835730Y-16783960D02*
X9826206Y-16764912D01*
X9826206Y-16764912D02*
X9826206Y-16688722D01*
X9826206Y-16688722D02*
X9835730Y-16669674D01*
X9835730Y-16669674D02*
X9854777Y-16660150D01*
X9854777Y-16660150D02*
X9892873Y-16660150D01*
X9892873Y-16660150D02*
X9911920Y-16669674D01*
X9911920Y-16669674D02*
X9921444Y-16688722D01*
X9921444Y-16688722D02*
X9921444Y-16707769D01*
X9921444Y-16707769D02*
X9826206Y-16726817D01*
X9997634Y-16783960D02*
X10016682Y-16793484D01*
X10016682Y-16793484D02*
X10054777Y-16793484D01*
X10054777Y-16793484D02*
X10073825Y-16783960D01*
X10073825Y-16783960D02*
X10083349Y-16764912D01*
X10083349Y-16764912D02*
X10083349Y-16755388D01*
X10083349Y-16755388D02*
X10073825Y-16736341D01*
X10073825Y-16736341D02*
X10054777Y-16726817D01*
X10054777Y-16726817D02*
X10026206Y-16726817D01*
X10026206Y-16726817D02*
X10007158Y-16717293D01*
X10007158Y-16717293D02*
X9997634Y-16698246D01*
X9997634Y-16698246D02*
X9997634Y-16688722D01*
X9997634Y-16688722D02*
X10007158Y-16669674D01*
X10007158Y-16669674D02*
X10026206Y-16660150D01*
X10026206Y-16660150D02*
X10054777Y-16660150D01*
X10054777Y-16660150D02*
X10073825Y-16669674D01*
X10150015Y-16869674D02*
X10159539Y-16860150D01*
X10159539Y-16860150D02*
X10178587Y-16831579D01*
X10178587Y-16831579D02*
X10188111Y-16812531D01*
X10188111Y-16812531D02*
X10197634Y-16783960D01*
X10197634Y-16783960D02*
X10207158Y-16736341D01*
X10207158Y-16736341D02*
X10207158Y-16698246D01*
X10207158Y-16698246D02*
X10197634Y-16650627D01*
X10197634Y-16650627D02*
X10188111Y-16622055D01*
X10188111Y-16622055D02*
X10178587Y-16603008D01*
X10178587Y-16603008D02*
X10159539Y-16574436D01*
X10159539Y-16574436D02*
X10150015Y-16564912D01*
X4794000Y-16866000D02*
X4994000Y-17066000D01*
X4994000Y-16866000D02*
X4794000Y-17066000D01*
X4994000Y-16966000D02*
G75*
G02*
X4794000Y-16966000I-100000J0D01*
G01*
X4794000Y-16966000D02*
G75*
G02*
X4994000Y-16966000I100000J0D01*
G01*
X5235729Y-16857484D02*
X5359539Y-16857484D01*
X5359539Y-16857484D02*
X5292872Y-16933674D01*
X5292872Y-16933674D02*
X5321444Y-16933674D01*
X5321444Y-16933674D02*
X5340491Y-16943198D01*
X5340491Y-16943198D02*
X5350015Y-16952722D01*
X5350015Y-16952722D02*
X5359539Y-16971770D01*
X5359539Y-16971770D02*
X5359539Y-17019389D01*
X5359539Y-17019389D02*
X5350015Y-17038436D01*
X5350015Y-17038436D02*
X5340491Y-17047960D01*
X5340491Y-17047960D02*
X5321444Y-17057484D01*
X5321444Y-17057484D02*
X5264301Y-17057484D01*
X5264301Y-17057484D02*
X5245253Y-17047960D01*
X5245253Y-17047960D02*
X5235729Y-17038436D01*
X5445253Y-17038436D02*
X5454777Y-17047960D01*
X5454777Y-17047960D02*
X5445253Y-17057484D01*
X5445253Y-17057484D02*
X5435729Y-17047960D01*
X5435729Y-17047960D02*
X5445253Y-17038436D01*
X5445253Y-17038436D02*
X5445253Y-17057484D01*
X5530967Y-16876531D02*
X5540491Y-16867008D01*
X5540491Y-16867008D02*
X5559539Y-16857484D01*
X5559539Y-16857484D02*
X5607158Y-16857484D01*
X5607158Y-16857484D02*
X5626205Y-16867008D01*
X5626205Y-16867008D02*
X5635729Y-16876531D01*
X5635729Y-16876531D02*
X5645253Y-16895579D01*
X5645253Y-16895579D02*
X5645253Y-16914627D01*
X5645253Y-16914627D02*
X5635729Y-16943198D01*
X5635729Y-16943198D02*
X5521444Y-17057484D01*
X5521444Y-17057484D02*
X5645253Y-17057484D01*
X5769062Y-16857484D02*
X5788110Y-16857484D01*
X5788110Y-16857484D02*
X5807158Y-16867008D01*
X5807158Y-16867008D02*
X5816682Y-16876531D01*
X5816682Y-16876531D02*
X5826205Y-16895579D01*
X5826205Y-16895579D02*
X5835729Y-16933674D01*
X5835729Y-16933674D02*
X5835729Y-16981293D01*
X5835729Y-16981293D02*
X5826205Y-17019389D01*
X5826205Y-17019389D02*
X5816682Y-17038436D01*
X5816682Y-17038436D02*
X5807158Y-17047960D01*
X5807158Y-17047960D02*
X5788110Y-17057484D01*
X5788110Y-17057484D02*
X5769062Y-17057484D01*
X5769062Y-17057484D02*
X5750015Y-17047960D01*
X5750015Y-17047960D02*
X5740491Y-17038436D01*
X5740491Y-17038436D02*
X5730967Y-17019389D01*
X5730967Y-17019389D02*
X5721443Y-16981293D01*
X5721443Y-16981293D02*
X5721443Y-16933674D01*
X5721443Y-16933674D02*
X5730967Y-16895579D01*
X5730967Y-16895579D02*
X5740491Y-16876531D01*
X5740491Y-16876531D02*
X5750015Y-16867008D01*
X5750015Y-16867008D02*
X5769062Y-16857484D01*
X5959539Y-16857484D02*
X5978586Y-16857484D01*
X5978586Y-16857484D02*
X5997634Y-16867008D01*
X5997634Y-16867008D02*
X6007158Y-16876531D01*
X6007158Y-16876531D02*
X6016682Y-16895579D01*
X6016682Y-16895579D02*
X6026205Y-16933674D01*
X6026205Y-16933674D02*
X6026205Y-16981293D01*
X6026205Y-16981293D02*
X6016682Y-17019389D01*
X6016682Y-17019389D02*
X6007158Y-17038436D01*
X6007158Y-17038436D02*
X5997634Y-17047960D01*
X5997634Y-17047960D02*
X5978586Y-17057484D01*
X5978586Y-17057484D02*
X5959539Y-17057484D01*
X5959539Y-17057484D02*
X5940491Y-17047960D01*
X5940491Y-17047960D02*
X5930967Y-17038436D01*
X5930967Y-17038436D02*
X5921443Y-17019389D01*
X5921443Y-17019389D02*
X5911920Y-16981293D01*
X5911920Y-16981293D02*
X5911920Y-16933674D01*
X5911920Y-16933674D02*
X5921443Y-16895579D01*
X5921443Y-16895579D02*
X5930967Y-16876531D01*
X5930967Y-16876531D02*
X5940491Y-16867008D01*
X5940491Y-16867008D02*
X5959539Y-16857484D01*
X6111920Y-17057484D02*
X6111920Y-16924150D01*
X6111920Y-16943198D02*
X6121443Y-16933674D01*
X6121443Y-16933674D02*
X6140491Y-16924150D01*
X6140491Y-16924150D02*
X6169063Y-16924150D01*
X6169063Y-16924150D02*
X6188110Y-16933674D01*
X6188110Y-16933674D02*
X6197634Y-16952722D01*
X6197634Y-16952722D02*
X6197634Y-17057484D01*
X6197634Y-16952722D02*
X6207158Y-16933674D01*
X6207158Y-16933674D02*
X6226205Y-16924150D01*
X6226205Y-16924150D02*
X6254777Y-16924150D01*
X6254777Y-16924150D02*
X6273824Y-16933674D01*
X6273824Y-16933674D02*
X6283348Y-16952722D01*
X6283348Y-16952722D02*
X6283348Y-17057484D01*
X6378586Y-17057484D02*
X6378586Y-16924150D01*
X6378586Y-16943198D02*
X6388110Y-16933674D01*
X6388110Y-16933674D02*
X6407158Y-16924150D01*
X6407158Y-16924150D02*
X6435729Y-16924150D01*
X6435729Y-16924150D02*
X6454777Y-16933674D01*
X6454777Y-16933674D02*
X6464301Y-16952722D01*
X6464301Y-16952722D02*
X6464301Y-17057484D01*
X6464301Y-16952722D02*
X6473824Y-16933674D01*
X6473824Y-16933674D02*
X6492872Y-16924150D01*
X6492872Y-16924150D02*
X6521443Y-16924150D01*
X6521443Y-16924150D02*
X6540491Y-16933674D01*
X6540491Y-16933674D02*
X6550015Y-16952722D01*
X6550015Y-16952722D02*
X6550015Y-17057484D01*
X6940491Y-16847960D02*
X6769063Y-17105103D01*
X7197634Y-16857484D02*
X7216682Y-16857484D01*
X7216682Y-16857484D02*
X7235729Y-16867008D01*
X7235729Y-16867008D02*
X7245253Y-16876531D01*
X7245253Y-16876531D02*
X7254777Y-16895579D01*
X7254777Y-16895579D02*
X7264301Y-16933674D01*
X7264301Y-16933674D02*
X7264301Y-16981293D01*
X7264301Y-16981293D02*
X7254777Y-17019389D01*
X7254777Y-17019389D02*
X7245253Y-17038436D01*
X7245253Y-17038436D02*
X7235729Y-17047960D01*
X7235729Y-17047960D02*
X7216682Y-17057484D01*
X7216682Y-17057484D02*
X7197634Y-17057484D01*
X7197634Y-17057484D02*
X7178586Y-17047960D01*
X7178586Y-17047960D02*
X7169063Y-17038436D01*
X7169063Y-17038436D02*
X7159539Y-17019389D01*
X7159539Y-17019389D02*
X7150015Y-16981293D01*
X7150015Y-16981293D02*
X7150015Y-16933674D01*
X7150015Y-16933674D02*
X7159539Y-16895579D01*
X7159539Y-16895579D02*
X7169063Y-16876531D01*
X7169063Y-16876531D02*
X7178586Y-16867008D01*
X7178586Y-16867008D02*
X7197634Y-16857484D01*
X7350015Y-17038436D02*
X7359539Y-17047960D01*
X7359539Y-17047960D02*
X7350015Y-17057484D01*
X7350015Y-17057484D02*
X7340491Y-17047960D01*
X7340491Y-17047960D02*
X7350015Y-17038436D01*
X7350015Y-17038436D02*
X7350015Y-17057484D01*
X7550015Y-17057484D02*
X7435729Y-17057484D01*
X7492872Y-17057484D02*
X7492872Y-16857484D01*
X7492872Y-16857484D02*
X7473825Y-16886055D01*
X7473825Y-16886055D02*
X7454777Y-16905103D01*
X7454777Y-16905103D02*
X7435729Y-16914627D01*
X7626206Y-16876531D02*
X7635729Y-16867008D01*
X7635729Y-16867008D02*
X7654777Y-16857484D01*
X7654777Y-16857484D02*
X7702396Y-16857484D01*
X7702396Y-16857484D02*
X7721444Y-16867008D01*
X7721444Y-16867008D02*
X7730967Y-16876531D01*
X7730967Y-16876531D02*
X7740491Y-16895579D01*
X7740491Y-16895579D02*
X7740491Y-16914627D01*
X7740491Y-16914627D02*
X7730967Y-16943198D01*
X7730967Y-16943198D02*
X7616682Y-17057484D01*
X7616682Y-17057484D02*
X7740491Y-17057484D01*
X7911920Y-16857484D02*
X7873825Y-16857484D01*
X7873825Y-16857484D02*
X7854777Y-16867008D01*
X7854777Y-16867008D02*
X7845253Y-16876531D01*
X7845253Y-16876531D02*
X7826206Y-16905103D01*
X7826206Y-16905103D02*
X7816682Y-16943198D01*
X7816682Y-16943198D02*
X7816682Y-17019389D01*
X7816682Y-17019389D02*
X7826206Y-17038436D01*
X7826206Y-17038436D02*
X7835729Y-17047960D01*
X7835729Y-17047960D02*
X7854777Y-17057484D01*
X7854777Y-17057484D02*
X7892872Y-17057484D01*
X7892872Y-17057484D02*
X7911920Y-17047960D01*
X7911920Y-17047960D02*
X7921444Y-17038436D01*
X7921444Y-17038436D02*
X7930967Y-17019389D01*
X7930967Y-17019389D02*
X7930967Y-16971770D01*
X7930967Y-16971770D02*
X7921444Y-16952722D01*
X7921444Y-16952722D02*
X7911920Y-16943198D01*
X7911920Y-16943198D02*
X7892872Y-16933674D01*
X7892872Y-16933674D02*
X7854777Y-16933674D01*
X7854777Y-16933674D02*
X7835729Y-16943198D01*
X7835729Y-16943198D02*
X7826206Y-16952722D01*
X7826206Y-16952722D02*
X7816682Y-16971770D01*
X8054777Y-16857484D02*
X8073825Y-16857484D01*
X8073825Y-16857484D02*
X8092872Y-16867008D01*
X8092872Y-16867008D02*
X8102396Y-16876531D01*
X8102396Y-16876531D02*
X8111920Y-16895579D01*
X8111920Y-16895579D02*
X8121444Y-16933674D01*
X8121444Y-16933674D02*
X8121444Y-16981293D01*
X8121444Y-16981293D02*
X8111920Y-17019389D01*
X8111920Y-17019389D02*
X8102396Y-17038436D01*
X8102396Y-17038436D02*
X8092872Y-17047960D01*
X8092872Y-17047960D02*
X8073825Y-17057484D01*
X8073825Y-17057484D02*
X8054777Y-17057484D01*
X8054777Y-17057484D02*
X8035729Y-17047960D01*
X8035729Y-17047960D02*
X8026206Y-17038436D01*
X8026206Y-17038436D02*
X8016682Y-17019389D01*
X8016682Y-17019389D02*
X8007158Y-16981293D01*
X8007158Y-16981293D02*
X8007158Y-16933674D01*
X8007158Y-16933674D02*
X8016682Y-16895579D01*
X8016682Y-16895579D02*
X8026206Y-16876531D01*
X8026206Y-16876531D02*
X8035729Y-16867008D01*
X8035729Y-16867008D02*
X8054777Y-16857484D01*
X8197634Y-16857484D02*
X8197634Y-16895579D01*
X8273825Y-16857484D02*
X8273825Y-16895579D01*
X8569063Y-17133674D02*
X8559539Y-17124150D01*
X8559539Y-17124150D02*
X8540491Y-17095579D01*
X8540491Y-17095579D02*
X8530968Y-17076531D01*
X8530968Y-17076531D02*
X8521444Y-17047960D01*
X8521444Y-17047960D02*
X8511920Y-17000341D01*
X8511920Y-17000341D02*
X8511920Y-16962246D01*
X8511920Y-16962246D02*
X8521444Y-16914627D01*
X8521444Y-16914627D02*
X8530968Y-16886055D01*
X8530968Y-16886055D02*
X8540491Y-16867008D01*
X8540491Y-16867008D02*
X8559539Y-16838436D01*
X8559539Y-16838436D02*
X8569063Y-16828912D01*
X8730968Y-16924150D02*
X8730968Y-17057484D01*
X8683349Y-16847960D02*
X8635730Y-16990817D01*
X8635730Y-16990817D02*
X8759539Y-16990817D01*
X8988111Y-17057484D02*
X8988111Y-16857484D01*
X9073825Y-17057484D02*
X9073825Y-16952722D01*
X9073825Y-16952722D02*
X9064301Y-16933674D01*
X9064301Y-16933674D02*
X9045253Y-16924150D01*
X9045253Y-16924150D02*
X9016682Y-16924150D01*
X9016682Y-16924150D02*
X8997634Y-16933674D01*
X8997634Y-16933674D02*
X8988111Y-16943198D01*
X9197634Y-17057484D02*
X9178587Y-17047960D01*
X9178587Y-17047960D02*
X9169063Y-17038436D01*
X9169063Y-17038436D02*
X9159539Y-17019389D01*
X9159539Y-17019389D02*
X9159539Y-16962246D01*
X9159539Y-16962246D02*
X9169063Y-16943198D01*
X9169063Y-16943198D02*
X9178587Y-16933674D01*
X9178587Y-16933674D02*
X9197634Y-16924150D01*
X9197634Y-16924150D02*
X9226206Y-16924150D01*
X9226206Y-16924150D02*
X9245253Y-16933674D01*
X9245253Y-16933674D02*
X9254777Y-16943198D01*
X9254777Y-16943198D02*
X9264301Y-16962246D01*
X9264301Y-16962246D02*
X9264301Y-17019389D01*
X9264301Y-17019389D02*
X9254777Y-17038436D01*
X9254777Y-17038436D02*
X9245253Y-17047960D01*
X9245253Y-17047960D02*
X9226206Y-17057484D01*
X9226206Y-17057484D02*
X9197634Y-17057484D01*
X9378587Y-17057484D02*
X9359539Y-17047960D01*
X9359539Y-17047960D02*
X9350015Y-17028912D01*
X9350015Y-17028912D02*
X9350015Y-16857484D01*
X9530968Y-17047960D02*
X9511920Y-17057484D01*
X9511920Y-17057484D02*
X9473825Y-17057484D01*
X9473825Y-17057484D02*
X9454777Y-17047960D01*
X9454777Y-17047960D02*
X9445253Y-17028912D01*
X9445253Y-17028912D02*
X9445253Y-16952722D01*
X9445253Y-16952722D02*
X9454777Y-16933674D01*
X9454777Y-16933674D02*
X9473825Y-16924150D01*
X9473825Y-16924150D02*
X9511920Y-16924150D01*
X9511920Y-16924150D02*
X9530968Y-16933674D01*
X9530968Y-16933674D02*
X9540492Y-16952722D01*
X9540492Y-16952722D02*
X9540492Y-16971770D01*
X9540492Y-16971770D02*
X9445253Y-16990817D01*
X9616682Y-17047960D02*
X9635730Y-17057484D01*
X9635730Y-17057484D02*
X9673825Y-17057484D01*
X9673825Y-17057484D02*
X9692873Y-17047960D01*
X9692873Y-17047960D02*
X9702396Y-17028912D01*
X9702396Y-17028912D02*
X9702396Y-17019389D01*
X9702396Y-17019389D02*
X9692873Y-17000341D01*
X9692873Y-17000341D02*
X9673825Y-16990817D01*
X9673825Y-16990817D02*
X9645253Y-16990817D01*
X9645253Y-16990817D02*
X9626206Y-16981293D01*
X9626206Y-16981293D02*
X9616682Y-16962246D01*
X9616682Y-16962246D02*
X9616682Y-16952722D01*
X9616682Y-16952722D02*
X9626206Y-16933674D01*
X9626206Y-16933674D02*
X9645253Y-16924150D01*
X9645253Y-16924150D02*
X9673825Y-16924150D01*
X9673825Y-16924150D02*
X9692873Y-16933674D01*
X9769063Y-17133674D02*
X9778587Y-17124150D01*
X9778587Y-17124150D02*
X9797634Y-17095579D01*
X9797634Y-17095579D02*
X9807158Y-17076531D01*
X9807158Y-17076531D02*
X9816682Y-17047960D01*
X9816682Y-17047960D02*
X9826206Y-17000341D01*
X9826206Y-17000341D02*
X9826206Y-16962246D01*
X9826206Y-16962246D02*
X9816682Y-16914627D01*
X9816682Y-16914627D02*
X9807158Y-16886055D01*
X9807158Y-16886055D02*
X9797634Y-16867008D01*
X9797634Y-16867008D02*
X9778587Y-16838436D01*
X9778587Y-16838436D02*
X9769063Y-16828912D01*
M02*
