%TF.GenerationSoftware,KiCad,Pcbnew,8.0.6*%
%TF.CreationDate,2025-01-31T14:28:37-05:00*%
%TF.ProjectId,LVDS_BeagleVFire_Cape,4c564453-5f42-4656-9167-6c6556466972,1*%
%TF.SameCoordinates,Original*%
%TF.FileFunction,Legend,Top*%
%TF.FilePolarity,Positive*%
%FSLAX46Y46*%
G04 Gerber Fmt 4.6, Leading zero omitted, Abs format (unit mm)*
G04 Created by KiCad (PCBNEW 8.0.6) date 2025-01-31 14:28:37*
%MOMM*%
%LPD*%
G01*
G04 APERTURE LIST*
%ADD10C,0.200000*%
%ADD11C,0.300000*%
%ADD12C,0.150000*%
%ADD13C,0.100000*%
%ADD14C,0.120000*%
%ADD15C,0.508000*%
%ADD16C,0.152400*%
%ADD17C,0.000000*%
%ADD18C,0.127000*%
G04 APERTURE END LIST*
D10*
X51000000Y-107950000D02*
X79250000Y-107950000D01*
X79250000Y-118450000D01*
X51000000Y-118450000D01*
X51000000Y-107950000D01*
G36*
X51000000Y-107950000D02*
G01*
X79250000Y-107950000D01*
X79250000Y-118450000D01*
X51000000Y-118450000D01*
X51000000Y-107950000D01*
G37*
D11*
X115800828Y-147978571D02*
X114300828Y-147978571D01*
X114300828Y-147978571D02*
X114300828Y-147407142D01*
X114300828Y-147407142D02*
X114372257Y-147264285D01*
X114372257Y-147264285D02*
X114443685Y-147192856D01*
X114443685Y-147192856D02*
X114586542Y-147121428D01*
X114586542Y-147121428D02*
X114800828Y-147121428D01*
X114800828Y-147121428D02*
X114943685Y-147192856D01*
X114943685Y-147192856D02*
X115015114Y-147264285D01*
X115015114Y-147264285D02*
X115086542Y-147407142D01*
X115086542Y-147407142D02*
X115086542Y-147978571D01*
X115800828Y-146264285D02*
X115729400Y-146407142D01*
X115729400Y-146407142D02*
X115657971Y-146478571D01*
X115657971Y-146478571D02*
X115515114Y-146549999D01*
X115515114Y-146549999D02*
X115086542Y-146549999D01*
X115086542Y-146549999D02*
X114943685Y-146478571D01*
X114943685Y-146478571D02*
X114872257Y-146407142D01*
X114872257Y-146407142D02*
X114800828Y-146264285D01*
X114800828Y-146264285D02*
X114800828Y-146049999D01*
X114800828Y-146049999D02*
X114872257Y-145907142D01*
X114872257Y-145907142D02*
X114943685Y-145835714D01*
X114943685Y-145835714D02*
X115086542Y-145764285D01*
X115086542Y-145764285D02*
X115515114Y-145764285D01*
X115515114Y-145764285D02*
X115657971Y-145835714D01*
X115657971Y-145835714D02*
X115729400Y-145907142D01*
X115729400Y-145907142D02*
X115800828Y-146049999D01*
X115800828Y-146049999D02*
X115800828Y-146264285D01*
X115800828Y-145121428D02*
X114800828Y-145121428D01*
X115086542Y-145121428D02*
X114943685Y-145049999D01*
X114943685Y-145049999D02*
X114872257Y-144978571D01*
X114872257Y-144978571D02*
X114800828Y-144835713D01*
X114800828Y-144835713D02*
X114800828Y-144692856D01*
X114800828Y-144407142D02*
X114800828Y-143835714D01*
X114300828Y-144192857D02*
X115586542Y-144192857D01*
X115586542Y-144192857D02*
X115729400Y-144121428D01*
X115729400Y-144121428D02*
X115800828Y-143978571D01*
X115800828Y-143978571D02*
X115800828Y-143835714D01*
X115372257Y-142264285D02*
X115372257Y-141550000D01*
X115800828Y-142407142D02*
X114300828Y-141907142D01*
X114300828Y-141907142D02*
X115800828Y-141407142D01*
X116000828Y-58045489D02*
X114500828Y-58045489D01*
X114500828Y-58045489D02*
X114500828Y-57474060D01*
X114500828Y-57474060D02*
X114572257Y-57331203D01*
X114572257Y-57331203D02*
X114643685Y-57259774D01*
X114643685Y-57259774D02*
X114786542Y-57188346D01*
X114786542Y-57188346D02*
X115000828Y-57188346D01*
X115000828Y-57188346D02*
X115143685Y-57259774D01*
X115143685Y-57259774D02*
X115215114Y-57331203D01*
X115215114Y-57331203D02*
X115286542Y-57474060D01*
X115286542Y-57474060D02*
X115286542Y-58045489D01*
X116000828Y-56331203D02*
X115929400Y-56474060D01*
X115929400Y-56474060D02*
X115857971Y-56545489D01*
X115857971Y-56545489D02*
X115715114Y-56616917D01*
X115715114Y-56616917D02*
X115286542Y-56616917D01*
X115286542Y-56616917D02*
X115143685Y-56545489D01*
X115143685Y-56545489D02*
X115072257Y-56474060D01*
X115072257Y-56474060D02*
X115000828Y-56331203D01*
X115000828Y-56331203D02*
X115000828Y-56116917D01*
X115000828Y-56116917D02*
X115072257Y-55974060D01*
X115072257Y-55974060D02*
X115143685Y-55902632D01*
X115143685Y-55902632D02*
X115286542Y-55831203D01*
X115286542Y-55831203D02*
X115715114Y-55831203D01*
X115715114Y-55831203D02*
X115857971Y-55902632D01*
X115857971Y-55902632D02*
X115929400Y-55974060D01*
X115929400Y-55974060D02*
X116000828Y-56116917D01*
X116000828Y-56116917D02*
X116000828Y-56331203D01*
X116000828Y-55188346D02*
X115000828Y-55188346D01*
X115286542Y-55188346D02*
X115143685Y-55116917D01*
X115143685Y-55116917D02*
X115072257Y-55045489D01*
X115072257Y-55045489D02*
X115000828Y-54902631D01*
X115000828Y-54902631D02*
X115000828Y-54759774D01*
X115000828Y-54474060D02*
X115000828Y-53902632D01*
X114500828Y-54259775D02*
X115786542Y-54259775D01*
X115786542Y-54259775D02*
X115929400Y-54188346D01*
X115929400Y-54188346D02*
X116000828Y-54045489D01*
X116000828Y-54045489D02*
X116000828Y-53902632D01*
X115215114Y-51759775D02*
X115286542Y-51545489D01*
X115286542Y-51545489D02*
X115357971Y-51474060D01*
X115357971Y-51474060D02*
X115500828Y-51402632D01*
X115500828Y-51402632D02*
X115715114Y-51402632D01*
X115715114Y-51402632D02*
X115857971Y-51474060D01*
X115857971Y-51474060D02*
X115929400Y-51545489D01*
X115929400Y-51545489D02*
X116000828Y-51688346D01*
X116000828Y-51688346D02*
X116000828Y-52259775D01*
X116000828Y-52259775D02*
X114500828Y-52259775D01*
X114500828Y-52259775D02*
X114500828Y-51759775D01*
X114500828Y-51759775D02*
X114572257Y-51616918D01*
X114572257Y-51616918D02*
X114643685Y-51545489D01*
X114643685Y-51545489D02*
X114786542Y-51474060D01*
X114786542Y-51474060D02*
X114929400Y-51474060D01*
X114929400Y-51474060D02*
X115072257Y-51545489D01*
X115072257Y-51545489D02*
X115143685Y-51616918D01*
X115143685Y-51616918D02*
X115215114Y-51759775D01*
X115215114Y-51759775D02*
X115215114Y-52259775D01*
D10*
X54700000Y-130837303D02*
X55271428Y-130837303D01*
X54985714Y-131837303D02*
X54985714Y-130837303D01*
X55604762Y-131837303D02*
X55604762Y-130837303D01*
X55604762Y-130837303D02*
X55842857Y-130837303D01*
X55842857Y-130837303D02*
X55985714Y-130884922D01*
X55985714Y-130884922D02*
X56080952Y-130980160D01*
X56080952Y-130980160D02*
X56128571Y-131075398D01*
X56128571Y-131075398D02*
X56176190Y-131265874D01*
X56176190Y-131265874D02*
X56176190Y-131408731D01*
X56176190Y-131408731D02*
X56128571Y-131599207D01*
X56128571Y-131599207D02*
X56080952Y-131694445D01*
X56080952Y-131694445D02*
X55985714Y-131789684D01*
X55985714Y-131789684D02*
X55842857Y-131837303D01*
X55842857Y-131837303D02*
X55604762Y-131837303D01*
X57176190Y-131742064D02*
X57128571Y-131789684D01*
X57128571Y-131789684D02*
X56985714Y-131837303D01*
X56985714Y-131837303D02*
X56890476Y-131837303D01*
X56890476Y-131837303D02*
X56747619Y-131789684D01*
X56747619Y-131789684D02*
X56652381Y-131694445D01*
X56652381Y-131694445D02*
X56604762Y-131599207D01*
X56604762Y-131599207D02*
X56557143Y-131408731D01*
X56557143Y-131408731D02*
X56557143Y-131265874D01*
X56557143Y-131265874D02*
X56604762Y-131075398D01*
X56604762Y-131075398D02*
X56652381Y-130980160D01*
X56652381Y-130980160D02*
X56747619Y-130884922D01*
X56747619Y-130884922D02*
X56890476Y-130837303D01*
X56890476Y-130837303D02*
X56985714Y-130837303D01*
X56985714Y-130837303D02*
X57128571Y-130884922D01*
X57128571Y-130884922D02*
X57176190Y-130932541D01*
X58938095Y-131742064D02*
X58890476Y-131789684D01*
X58890476Y-131789684D02*
X58747619Y-131837303D01*
X58747619Y-131837303D02*
X58652381Y-131837303D01*
X58652381Y-131837303D02*
X58509524Y-131789684D01*
X58509524Y-131789684D02*
X58414286Y-131694445D01*
X58414286Y-131694445D02*
X58366667Y-131599207D01*
X58366667Y-131599207D02*
X58319048Y-131408731D01*
X58319048Y-131408731D02*
X58319048Y-131265874D01*
X58319048Y-131265874D02*
X58366667Y-131075398D01*
X58366667Y-131075398D02*
X58414286Y-130980160D01*
X58414286Y-130980160D02*
X58509524Y-130884922D01*
X58509524Y-130884922D02*
X58652381Y-130837303D01*
X58652381Y-130837303D02*
X58747619Y-130837303D01*
X58747619Y-130837303D02*
X58890476Y-130884922D01*
X58890476Y-130884922D02*
X58938095Y-130932541D01*
X59795238Y-131837303D02*
X59795238Y-131313493D01*
X59795238Y-131313493D02*
X59747619Y-131218255D01*
X59747619Y-131218255D02*
X59652381Y-131170636D01*
X59652381Y-131170636D02*
X59461905Y-131170636D01*
X59461905Y-131170636D02*
X59366667Y-131218255D01*
X59795238Y-131789684D02*
X59700000Y-131837303D01*
X59700000Y-131837303D02*
X59461905Y-131837303D01*
X59461905Y-131837303D02*
X59366667Y-131789684D01*
X59366667Y-131789684D02*
X59319048Y-131694445D01*
X59319048Y-131694445D02*
X59319048Y-131599207D01*
X59319048Y-131599207D02*
X59366667Y-131503969D01*
X59366667Y-131503969D02*
X59461905Y-131456350D01*
X59461905Y-131456350D02*
X59700000Y-131456350D01*
X59700000Y-131456350D02*
X59795238Y-131408731D01*
X60271429Y-131170636D02*
X60271429Y-132170636D01*
X60271429Y-131218255D02*
X60366667Y-131170636D01*
X60366667Y-131170636D02*
X60557143Y-131170636D01*
X60557143Y-131170636D02*
X60652381Y-131218255D01*
X60652381Y-131218255D02*
X60700000Y-131265874D01*
X60700000Y-131265874D02*
X60747619Y-131361112D01*
X60747619Y-131361112D02*
X60747619Y-131646826D01*
X60747619Y-131646826D02*
X60700000Y-131742064D01*
X60700000Y-131742064D02*
X60652381Y-131789684D01*
X60652381Y-131789684D02*
X60557143Y-131837303D01*
X60557143Y-131837303D02*
X60366667Y-131837303D01*
X60366667Y-131837303D02*
X60271429Y-131789684D01*
X61557143Y-131789684D02*
X61461905Y-131837303D01*
X61461905Y-131837303D02*
X61271429Y-131837303D01*
X61271429Y-131837303D02*
X61176191Y-131789684D01*
X61176191Y-131789684D02*
X61128572Y-131694445D01*
X61128572Y-131694445D02*
X61128572Y-131313493D01*
X61128572Y-131313493D02*
X61176191Y-131218255D01*
X61176191Y-131218255D02*
X61271429Y-131170636D01*
X61271429Y-131170636D02*
X61461905Y-131170636D01*
X61461905Y-131170636D02*
X61557143Y-131218255D01*
X61557143Y-131218255D02*
X61604762Y-131313493D01*
X61604762Y-131313493D02*
X61604762Y-131408731D01*
X61604762Y-131408731D02*
X61128572Y-131503969D01*
X54676190Y-133399628D02*
X54819047Y-133447247D01*
X54819047Y-133447247D02*
X55057142Y-133447247D01*
X55057142Y-133447247D02*
X55152380Y-133399628D01*
X55152380Y-133399628D02*
X55199999Y-133352008D01*
X55199999Y-133352008D02*
X55247618Y-133256770D01*
X55247618Y-133256770D02*
X55247618Y-133161532D01*
X55247618Y-133161532D02*
X55199999Y-133066294D01*
X55199999Y-133066294D02*
X55152380Y-133018675D01*
X55152380Y-133018675D02*
X55057142Y-132971056D01*
X55057142Y-132971056D02*
X54866666Y-132923437D01*
X54866666Y-132923437D02*
X54771428Y-132875818D01*
X54771428Y-132875818D02*
X54723809Y-132828199D01*
X54723809Y-132828199D02*
X54676190Y-132732961D01*
X54676190Y-132732961D02*
X54676190Y-132637723D01*
X54676190Y-132637723D02*
X54723809Y-132542485D01*
X54723809Y-132542485D02*
X54771428Y-132494866D01*
X54771428Y-132494866D02*
X54866666Y-132447247D01*
X54866666Y-132447247D02*
X55104761Y-132447247D01*
X55104761Y-132447247D02*
X55247618Y-132494866D01*
X55676190Y-132780580D02*
X55676190Y-133780580D01*
X55676190Y-132828199D02*
X55771428Y-132780580D01*
X55771428Y-132780580D02*
X55961904Y-132780580D01*
X55961904Y-132780580D02*
X56057142Y-132828199D01*
X56057142Y-132828199D02*
X56104761Y-132875818D01*
X56104761Y-132875818D02*
X56152380Y-132971056D01*
X56152380Y-132971056D02*
X56152380Y-133256770D01*
X56152380Y-133256770D02*
X56104761Y-133352008D01*
X56104761Y-133352008D02*
X56057142Y-133399628D01*
X56057142Y-133399628D02*
X55961904Y-133447247D01*
X55961904Y-133447247D02*
X55771428Y-133447247D01*
X55771428Y-133447247D02*
X55676190Y-133399628D01*
X56580952Y-133447247D02*
X56580952Y-132780580D01*
X56580952Y-132447247D02*
X56533333Y-132494866D01*
X56533333Y-132494866D02*
X56580952Y-132542485D01*
X56580952Y-132542485D02*
X56628571Y-132494866D01*
X56628571Y-132494866D02*
X56580952Y-132447247D01*
X56580952Y-132447247D02*
X56580952Y-132542485D01*
X57057142Y-132780580D02*
X57057142Y-133447247D01*
X57057142Y-132875818D02*
X57104761Y-132828199D01*
X57104761Y-132828199D02*
X57199999Y-132780580D01*
X57199999Y-132780580D02*
X57342856Y-132780580D01*
X57342856Y-132780580D02*
X57438094Y-132828199D01*
X57438094Y-132828199D02*
X57485713Y-132923437D01*
X57485713Y-132923437D02*
X57485713Y-133447247D01*
X58628570Y-133542485D02*
X58533332Y-133494866D01*
X58533332Y-133494866D02*
X58438094Y-133399628D01*
X58438094Y-133399628D02*
X58295237Y-133256770D01*
X58295237Y-133256770D02*
X58199999Y-133209151D01*
X58199999Y-133209151D02*
X58104761Y-133209151D01*
X58152380Y-133447247D02*
X58057142Y-133399628D01*
X58057142Y-133399628D02*
X57961904Y-133304389D01*
X57961904Y-133304389D02*
X57914285Y-133113913D01*
X57914285Y-133113913D02*
X57914285Y-132780580D01*
X57914285Y-132780580D02*
X57961904Y-132590104D01*
X57961904Y-132590104D02*
X58057142Y-132494866D01*
X58057142Y-132494866D02*
X58152380Y-132447247D01*
X58152380Y-132447247D02*
X58342856Y-132447247D01*
X58342856Y-132447247D02*
X58438094Y-132494866D01*
X58438094Y-132494866D02*
X58533332Y-132590104D01*
X58533332Y-132590104D02*
X58580951Y-132780580D01*
X58580951Y-132780580D02*
X58580951Y-133113913D01*
X58580951Y-133113913D02*
X58533332Y-133304389D01*
X58533332Y-133304389D02*
X58438094Y-133399628D01*
X58438094Y-133399628D02*
X58342856Y-133447247D01*
X58342856Y-133447247D02*
X58152380Y-133447247D01*
X59438094Y-132780580D02*
X59438094Y-133447247D01*
X59009523Y-132780580D02*
X59009523Y-133304389D01*
X59009523Y-133304389D02*
X59057142Y-133399628D01*
X59057142Y-133399628D02*
X59152380Y-133447247D01*
X59152380Y-133447247D02*
X59295237Y-133447247D01*
X59295237Y-133447247D02*
X59390475Y-133399628D01*
X59390475Y-133399628D02*
X59438094Y-133352008D01*
X60295237Y-133399628D02*
X60199999Y-133447247D01*
X60199999Y-133447247D02*
X60009523Y-133447247D01*
X60009523Y-133447247D02*
X59914285Y-133399628D01*
X59914285Y-133399628D02*
X59866666Y-133304389D01*
X59866666Y-133304389D02*
X59866666Y-132923437D01*
X59866666Y-132923437D02*
X59914285Y-132828199D01*
X59914285Y-132828199D02*
X60009523Y-132780580D01*
X60009523Y-132780580D02*
X60199999Y-132780580D01*
X60199999Y-132780580D02*
X60295237Y-132828199D01*
X60295237Y-132828199D02*
X60342856Y-132923437D01*
X60342856Y-132923437D02*
X60342856Y-133018675D01*
X60342856Y-133018675D02*
X59866666Y-133113913D01*
X60723809Y-133399628D02*
X60819047Y-133447247D01*
X60819047Y-133447247D02*
X61009523Y-133447247D01*
X61009523Y-133447247D02*
X61104761Y-133399628D01*
X61104761Y-133399628D02*
X61152380Y-133304389D01*
X61152380Y-133304389D02*
X61152380Y-133256770D01*
X61152380Y-133256770D02*
X61104761Y-133161532D01*
X61104761Y-133161532D02*
X61009523Y-133113913D01*
X61009523Y-133113913D02*
X60866666Y-133113913D01*
X60866666Y-133113913D02*
X60771428Y-133066294D01*
X60771428Y-133066294D02*
X60723809Y-132971056D01*
X60723809Y-132971056D02*
X60723809Y-132923437D01*
X60723809Y-132923437D02*
X60771428Y-132828199D01*
X60771428Y-132828199D02*
X60866666Y-132780580D01*
X60866666Y-132780580D02*
X61009523Y-132780580D01*
X61009523Y-132780580D02*
X61104761Y-132828199D01*
X61438095Y-132780580D02*
X61819047Y-132780580D01*
X61580952Y-132447247D02*
X61580952Y-133304389D01*
X61580952Y-133304389D02*
X61628571Y-133399628D01*
X61628571Y-133399628D02*
X61723809Y-133447247D01*
X61723809Y-133447247D02*
X61819047Y-133447247D01*
X57390476Y-134057191D02*
X57723809Y-135057191D01*
X57723809Y-135057191D02*
X58057142Y-134057191D01*
X58342857Y-134152429D02*
X58390476Y-134104810D01*
X58390476Y-134104810D02*
X58485714Y-134057191D01*
X58485714Y-134057191D02*
X58723809Y-134057191D01*
X58723809Y-134057191D02*
X58819047Y-134104810D01*
X58819047Y-134104810D02*
X58866666Y-134152429D01*
X58866666Y-134152429D02*
X58914285Y-134247667D01*
X58914285Y-134247667D02*
X58914285Y-134342905D01*
X58914285Y-134342905D02*
X58866666Y-134485762D01*
X58866666Y-134485762D02*
X58295238Y-135057191D01*
X58295238Y-135057191D02*
X58914285Y-135057191D01*
X52914285Y-136667135D02*
X52914285Y-135667135D01*
X52914285Y-135667135D02*
X53485713Y-136667135D01*
X53485713Y-136667135D02*
X53485713Y-135667135D01*
X54104761Y-136667135D02*
X54009523Y-136619516D01*
X54009523Y-136619516D02*
X53961904Y-136571896D01*
X53961904Y-136571896D02*
X53914285Y-136476658D01*
X53914285Y-136476658D02*
X53914285Y-136190944D01*
X53914285Y-136190944D02*
X53961904Y-136095706D01*
X53961904Y-136095706D02*
X54009523Y-136048087D01*
X54009523Y-136048087D02*
X54104761Y-136000468D01*
X54104761Y-136000468D02*
X54247618Y-136000468D01*
X54247618Y-136000468D02*
X54342856Y-136048087D01*
X54342856Y-136048087D02*
X54390475Y-136095706D01*
X54390475Y-136095706D02*
X54438094Y-136190944D01*
X54438094Y-136190944D02*
X54438094Y-136476658D01*
X54438094Y-136476658D02*
X54390475Y-136571896D01*
X54390475Y-136571896D02*
X54342856Y-136619516D01*
X54342856Y-136619516D02*
X54247618Y-136667135D01*
X54247618Y-136667135D02*
X54104761Y-136667135D01*
X55295237Y-136667135D02*
X55295237Y-136143325D01*
X55295237Y-136143325D02*
X55247618Y-136048087D01*
X55247618Y-136048087D02*
X55152380Y-136000468D01*
X55152380Y-136000468D02*
X54961904Y-136000468D01*
X54961904Y-136000468D02*
X54866666Y-136048087D01*
X55295237Y-136619516D02*
X55199999Y-136667135D01*
X55199999Y-136667135D02*
X54961904Y-136667135D01*
X54961904Y-136667135D02*
X54866666Y-136619516D01*
X54866666Y-136619516D02*
X54819047Y-136524277D01*
X54819047Y-136524277D02*
X54819047Y-136429039D01*
X54819047Y-136429039D02*
X54866666Y-136333801D01*
X54866666Y-136333801D02*
X54961904Y-136286182D01*
X54961904Y-136286182D02*
X55199999Y-136286182D01*
X55199999Y-136286182D02*
X55295237Y-136238563D01*
X55771428Y-136667135D02*
X55771428Y-135667135D01*
X56199999Y-136667135D02*
X56199999Y-136143325D01*
X56199999Y-136143325D02*
X56152380Y-136048087D01*
X56152380Y-136048087D02*
X56057142Y-136000468D01*
X56057142Y-136000468D02*
X55914285Y-136000468D01*
X55914285Y-136000468D02*
X55819047Y-136048087D01*
X55819047Y-136048087D02*
X55771428Y-136095706D01*
X57438095Y-136667135D02*
X57438095Y-135667135D01*
X57438095Y-135667135D02*
X57819047Y-135667135D01*
X57819047Y-135667135D02*
X57914285Y-135714754D01*
X57914285Y-135714754D02*
X57961904Y-135762373D01*
X57961904Y-135762373D02*
X58009523Y-135857611D01*
X58009523Y-135857611D02*
X58009523Y-136000468D01*
X58009523Y-136000468D02*
X57961904Y-136095706D01*
X57961904Y-136095706D02*
X57914285Y-136143325D01*
X57914285Y-136143325D02*
X57819047Y-136190944D01*
X57819047Y-136190944D02*
X57438095Y-136190944D01*
X58866666Y-136667135D02*
X58866666Y-136143325D01*
X58866666Y-136143325D02*
X58819047Y-136048087D01*
X58819047Y-136048087D02*
X58723809Y-136000468D01*
X58723809Y-136000468D02*
X58533333Y-136000468D01*
X58533333Y-136000468D02*
X58438095Y-136048087D01*
X58866666Y-136619516D02*
X58771428Y-136667135D01*
X58771428Y-136667135D02*
X58533333Y-136667135D01*
X58533333Y-136667135D02*
X58438095Y-136619516D01*
X58438095Y-136619516D02*
X58390476Y-136524277D01*
X58390476Y-136524277D02*
X58390476Y-136429039D01*
X58390476Y-136429039D02*
X58438095Y-136333801D01*
X58438095Y-136333801D02*
X58533333Y-136286182D01*
X58533333Y-136286182D02*
X58771428Y-136286182D01*
X58771428Y-136286182D02*
X58866666Y-136238563D01*
X59485714Y-136667135D02*
X59390476Y-136619516D01*
X59390476Y-136619516D02*
X59342857Y-136524277D01*
X59342857Y-136524277D02*
X59342857Y-135667135D01*
X60295238Y-136667135D02*
X60295238Y-136143325D01*
X60295238Y-136143325D02*
X60247619Y-136048087D01*
X60247619Y-136048087D02*
X60152381Y-136000468D01*
X60152381Y-136000468D02*
X59961905Y-136000468D01*
X59961905Y-136000468D02*
X59866667Y-136048087D01*
X60295238Y-136619516D02*
X60200000Y-136667135D01*
X60200000Y-136667135D02*
X59961905Y-136667135D01*
X59961905Y-136667135D02*
X59866667Y-136619516D01*
X59866667Y-136619516D02*
X59819048Y-136524277D01*
X59819048Y-136524277D02*
X59819048Y-136429039D01*
X59819048Y-136429039D02*
X59866667Y-136333801D01*
X59866667Y-136333801D02*
X59961905Y-136286182D01*
X59961905Y-136286182D02*
X60200000Y-136286182D01*
X60200000Y-136286182D02*
X60295238Y-136238563D01*
X61200000Y-136667135D02*
X61200000Y-135667135D01*
X61200000Y-136619516D02*
X61104762Y-136667135D01*
X61104762Y-136667135D02*
X60914286Y-136667135D01*
X60914286Y-136667135D02*
X60819048Y-136619516D01*
X60819048Y-136619516D02*
X60771429Y-136571896D01*
X60771429Y-136571896D02*
X60723810Y-136476658D01*
X60723810Y-136476658D02*
X60723810Y-136190944D01*
X60723810Y-136190944D02*
X60771429Y-136095706D01*
X60771429Y-136095706D02*
X60819048Y-136048087D01*
X60819048Y-136048087D02*
X60914286Y-136000468D01*
X60914286Y-136000468D02*
X61104762Y-136000468D01*
X61104762Y-136000468D02*
X61200000Y-136048087D01*
X61676191Y-136667135D02*
X61676191Y-136000468D01*
X61676191Y-135667135D02*
X61628572Y-135714754D01*
X61628572Y-135714754D02*
X61676191Y-135762373D01*
X61676191Y-135762373D02*
X61723810Y-135714754D01*
X61723810Y-135714754D02*
X61676191Y-135667135D01*
X61676191Y-135667135D02*
X61676191Y-135762373D01*
X62152381Y-136000468D02*
X62152381Y-136667135D01*
X62152381Y-136095706D02*
X62200000Y-136048087D01*
X62200000Y-136048087D02*
X62295238Y-136000468D01*
X62295238Y-136000468D02*
X62438095Y-136000468D01*
X62438095Y-136000468D02*
X62533333Y-136048087D01*
X62533333Y-136048087D02*
X62580952Y-136143325D01*
X62580952Y-136143325D02*
X62580952Y-136667135D01*
X63200000Y-136667135D02*
X63104762Y-136619516D01*
X63104762Y-136619516D02*
X63057143Y-136571896D01*
X63057143Y-136571896D02*
X63009524Y-136476658D01*
X63009524Y-136476658D02*
X63009524Y-136190944D01*
X63009524Y-136190944D02*
X63057143Y-136095706D01*
X63057143Y-136095706D02*
X63104762Y-136048087D01*
X63104762Y-136048087D02*
X63200000Y-136000468D01*
X63200000Y-136000468D02*
X63342857Y-136000468D01*
X63342857Y-136000468D02*
X63438095Y-136048087D01*
X63438095Y-136048087D02*
X63485714Y-136095706D01*
X63485714Y-136095706D02*
X63533333Y-136190944D01*
X63533333Y-136190944D02*
X63533333Y-136476658D01*
X63533333Y-136476658D02*
X63485714Y-136571896D01*
X63485714Y-136571896D02*
X63438095Y-136619516D01*
X63438095Y-136619516D02*
X63342857Y-136667135D01*
X63342857Y-136667135D02*
X63200000Y-136667135D01*
D12*
X68599819Y-55538333D02*
X69314104Y-55538333D01*
X69314104Y-55538333D02*
X69456961Y-55585952D01*
X69456961Y-55585952D02*
X69552200Y-55681190D01*
X69552200Y-55681190D02*
X69599819Y-55824047D01*
X69599819Y-55824047D02*
X69599819Y-55919285D01*
X68695057Y-55109761D02*
X68647438Y-55062142D01*
X68647438Y-55062142D02*
X68599819Y-54966904D01*
X68599819Y-54966904D02*
X68599819Y-54728809D01*
X68599819Y-54728809D02*
X68647438Y-54633571D01*
X68647438Y-54633571D02*
X68695057Y-54585952D01*
X68695057Y-54585952D02*
X68790295Y-54538333D01*
X68790295Y-54538333D02*
X68885533Y-54538333D01*
X68885533Y-54538333D02*
X69028390Y-54585952D01*
X69028390Y-54585952D02*
X69599819Y-55157380D01*
X69599819Y-55157380D02*
X69599819Y-54538333D01*
X71929819Y-58564160D02*
X71929819Y-59135588D01*
X71929819Y-58849874D02*
X70929819Y-58849874D01*
X70929819Y-58849874D02*
X71072676Y-58945112D01*
X71072676Y-58945112D02*
X71167914Y-59040350D01*
X71167914Y-59040350D02*
X71215533Y-59135588D01*
X90955951Y-51551133D02*
X90194047Y-51551133D01*
X110029819Y-59216541D02*
X110029819Y-59787969D01*
X110029819Y-59502255D02*
X109029819Y-59502255D01*
X109029819Y-59502255D02*
X109172676Y-59597493D01*
X109172676Y-59597493D02*
X109267914Y-59692731D01*
X109267914Y-59692731D02*
X109315533Y-59787969D01*
X109029819Y-58359398D02*
X109029819Y-58549874D01*
X109029819Y-58549874D02*
X109077438Y-58645112D01*
X109077438Y-58645112D02*
X109125057Y-58692731D01*
X109125057Y-58692731D02*
X109267914Y-58787969D01*
X109267914Y-58787969D02*
X109458390Y-58835588D01*
X109458390Y-58835588D02*
X109839342Y-58835588D01*
X109839342Y-58835588D02*
X109934580Y-58787969D01*
X109934580Y-58787969D02*
X109982200Y-58740350D01*
X109982200Y-58740350D02*
X110029819Y-58645112D01*
X110029819Y-58645112D02*
X110029819Y-58454636D01*
X110029819Y-58454636D02*
X109982200Y-58359398D01*
X109982200Y-58359398D02*
X109934580Y-58311779D01*
X109934580Y-58311779D02*
X109839342Y-58264160D01*
X109839342Y-58264160D02*
X109601247Y-58264160D01*
X109601247Y-58264160D02*
X109506009Y-58311779D01*
X109506009Y-58311779D02*
X109458390Y-58359398D01*
X109458390Y-58359398D02*
X109410771Y-58454636D01*
X109410771Y-58454636D02*
X109410771Y-58645112D01*
X109410771Y-58645112D02*
X109458390Y-58740350D01*
X109458390Y-58740350D02*
X109506009Y-58787969D01*
X109506009Y-58787969D02*
X109601247Y-58835588D01*
X110079819Y-51264411D02*
X110079819Y-51835839D01*
X110079819Y-51550125D02*
X109079819Y-51550125D01*
X109079819Y-51550125D02*
X109222676Y-51645363D01*
X109222676Y-51645363D02*
X109317914Y-51740601D01*
X109317914Y-51740601D02*
X109365533Y-51835839D01*
X109079819Y-50407268D02*
X109079819Y-50597744D01*
X109079819Y-50597744D02*
X109127438Y-50692982D01*
X109127438Y-50692982D02*
X109175057Y-50740601D01*
X109175057Y-50740601D02*
X109317914Y-50835839D01*
X109317914Y-50835839D02*
X109508390Y-50883458D01*
X109508390Y-50883458D02*
X109889342Y-50883458D01*
X109889342Y-50883458D02*
X109984580Y-50835839D01*
X109984580Y-50835839D02*
X110032200Y-50788220D01*
X110032200Y-50788220D02*
X110079819Y-50692982D01*
X110079819Y-50692982D02*
X110079819Y-50502506D01*
X110079819Y-50502506D02*
X110032200Y-50407268D01*
X110032200Y-50407268D02*
X109984580Y-50359649D01*
X109984580Y-50359649D02*
X109889342Y-50312030D01*
X109889342Y-50312030D02*
X109651247Y-50312030D01*
X109651247Y-50312030D02*
X109556009Y-50359649D01*
X109556009Y-50359649D02*
X109508390Y-50407268D01*
X109508390Y-50407268D02*
X109460771Y-50502506D01*
X109460771Y-50502506D02*
X109460771Y-50692982D01*
X109460771Y-50692982D02*
X109508390Y-50788220D01*
X109508390Y-50788220D02*
X109556009Y-50835839D01*
X109556009Y-50835839D02*
X109651247Y-50883458D01*
X90598866Y-59205951D02*
X90598866Y-58444047D01*
X90979819Y-58824999D02*
X90217914Y-58824999D01*
X71929819Y-51264411D02*
X71929819Y-51835839D01*
X71929819Y-51550125D02*
X70929819Y-51550125D01*
X70929819Y-51550125D02*
X71072676Y-51645363D01*
X71072676Y-51645363D02*
X71167914Y-51740601D01*
X71167914Y-51740601D02*
X71215533Y-51835839D01*
X61954819Y-76613094D02*
X60954819Y-76613094D01*
X60954819Y-76613094D02*
X60954819Y-76232142D01*
X60954819Y-76232142D02*
X61002438Y-76136904D01*
X61002438Y-76136904D02*
X61050057Y-76089285D01*
X61050057Y-76089285D02*
X61145295Y-76041666D01*
X61145295Y-76041666D02*
X61288152Y-76041666D01*
X61288152Y-76041666D02*
X61383390Y-76089285D01*
X61383390Y-76089285D02*
X61431009Y-76136904D01*
X61431009Y-76136904D02*
X61478628Y-76232142D01*
X61478628Y-76232142D02*
X61478628Y-76613094D01*
X61050057Y-75660713D02*
X61002438Y-75613094D01*
X61002438Y-75613094D02*
X60954819Y-75517856D01*
X60954819Y-75517856D02*
X60954819Y-75279761D01*
X60954819Y-75279761D02*
X61002438Y-75184523D01*
X61002438Y-75184523D02*
X61050057Y-75136904D01*
X61050057Y-75136904D02*
X61145295Y-75089285D01*
X61145295Y-75089285D02*
X61240533Y-75089285D01*
X61240533Y-75089285D02*
X61383390Y-75136904D01*
X61383390Y-75136904D02*
X61954819Y-75708332D01*
X61954819Y-75708332D02*
X61954819Y-75089285D01*
X61954819Y-124873094D02*
X60954819Y-124873094D01*
X60954819Y-124873094D02*
X60954819Y-124492142D01*
X60954819Y-124492142D02*
X61002438Y-124396904D01*
X61002438Y-124396904D02*
X61050057Y-124349285D01*
X61050057Y-124349285D02*
X61145295Y-124301666D01*
X61145295Y-124301666D02*
X61288152Y-124301666D01*
X61288152Y-124301666D02*
X61383390Y-124349285D01*
X61383390Y-124349285D02*
X61431009Y-124396904D01*
X61431009Y-124396904D02*
X61478628Y-124492142D01*
X61478628Y-124492142D02*
X61478628Y-124873094D01*
X61954819Y-123349285D02*
X61954819Y-123920713D01*
X61954819Y-123634999D02*
X60954819Y-123634999D01*
X60954819Y-123634999D02*
X61097676Y-123730237D01*
X61097676Y-123730237D02*
X61192914Y-123825475D01*
X61192914Y-123825475D02*
X61240533Y-123920713D01*
X123907142Y-108359580D02*
X123859523Y-108407200D01*
X123859523Y-108407200D02*
X123716666Y-108454819D01*
X123716666Y-108454819D02*
X123621428Y-108454819D01*
X123621428Y-108454819D02*
X123478571Y-108407200D01*
X123478571Y-108407200D02*
X123383333Y-108311961D01*
X123383333Y-108311961D02*
X123335714Y-108216723D01*
X123335714Y-108216723D02*
X123288095Y-108026247D01*
X123288095Y-108026247D02*
X123288095Y-107883390D01*
X123288095Y-107883390D02*
X123335714Y-107692914D01*
X123335714Y-107692914D02*
X123383333Y-107597676D01*
X123383333Y-107597676D02*
X123478571Y-107502438D01*
X123478571Y-107502438D02*
X123621428Y-107454819D01*
X123621428Y-107454819D02*
X123716666Y-107454819D01*
X123716666Y-107454819D02*
X123859523Y-107502438D01*
X123859523Y-107502438D02*
X123907142Y-107550057D01*
X124859523Y-108454819D02*
X124288095Y-108454819D01*
X124573809Y-108454819D02*
X124573809Y-107454819D01*
X124573809Y-107454819D02*
X124478571Y-107597676D01*
X124478571Y-107597676D02*
X124383333Y-107692914D01*
X124383333Y-107692914D02*
X124288095Y-107740533D01*
X125240476Y-107550057D02*
X125288095Y-107502438D01*
X125288095Y-107502438D02*
X125383333Y-107454819D01*
X125383333Y-107454819D02*
X125621428Y-107454819D01*
X125621428Y-107454819D02*
X125716666Y-107502438D01*
X125716666Y-107502438D02*
X125764285Y-107550057D01*
X125764285Y-107550057D02*
X125811904Y-107645295D01*
X125811904Y-107645295D02*
X125811904Y-107740533D01*
X125811904Y-107740533D02*
X125764285Y-107883390D01*
X125764285Y-107883390D02*
X125192857Y-108454819D01*
X125192857Y-108454819D02*
X125811904Y-108454819D01*
D13*
X95066666Y-82724919D02*
X95066666Y-83439204D01*
X95066666Y-83439204D02*
X95019047Y-83582061D01*
X95019047Y-83582061D02*
X94923809Y-83677300D01*
X94923809Y-83677300D02*
X94780952Y-83724919D01*
X94780952Y-83724919D02*
X94685714Y-83724919D01*
X95590476Y-83724919D02*
X95780952Y-83724919D01*
X95780952Y-83724919D02*
X95876190Y-83677300D01*
X95876190Y-83677300D02*
X95923809Y-83629680D01*
X95923809Y-83629680D02*
X96019047Y-83486823D01*
X96019047Y-83486823D02*
X96066666Y-83296347D01*
X96066666Y-83296347D02*
X96066666Y-82915395D01*
X96066666Y-82915395D02*
X96019047Y-82820157D01*
X96019047Y-82820157D02*
X95971428Y-82772538D01*
X95971428Y-82772538D02*
X95876190Y-82724919D01*
X95876190Y-82724919D02*
X95685714Y-82724919D01*
X95685714Y-82724919D02*
X95590476Y-82772538D01*
X95590476Y-82772538D02*
X95542857Y-82820157D01*
X95542857Y-82820157D02*
X95495238Y-82915395D01*
X95495238Y-82915395D02*
X95495238Y-83153490D01*
X95495238Y-83153490D02*
X95542857Y-83248728D01*
X95542857Y-83248728D02*
X95590476Y-83296347D01*
X95590476Y-83296347D02*
X95685714Y-83343966D01*
X95685714Y-83343966D02*
X95876190Y-83343966D01*
X95876190Y-83343966D02*
X95971428Y-83296347D01*
X95971428Y-83296347D02*
X96019047Y-83248728D01*
X96019047Y-83248728D02*
X96066666Y-83153490D01*
D12*
X118411905Y-96754819D02*
X118411905Y-97564342D01*
X118411905Y-97564342D02*
X118459524Y-97659580D01*
X118459524Y-97659580D02*
X118507143Y-97707200D01*
X118507143Y-97707200D02*
X118602381Y-97754819D01*
X118602381Y-97754819D02*
X118792857Y-97754819D01*
X118792857Y-97754819D02*
X118888095Y-97707200D01*
X118888095Y-97707200D02*
X118935714Y-97659580D01*
X118935714Y-97659580D02*
X118983333Y-97564342D01*
X118983333Y-97564342D02*
X118983333Y-96754819D01*
X119983333Y-97754819D02*
X119411905Y-97754819D01*
X119697619Y-97754819D02*
X119697619Y-96754819D01*
X119697619Y-96754819D02*
X119602381Y-96897676D01*
X119602381Y-96897676D02*
X119507143Y-96992914D01*
X119507143Y-96992914D02*
X119411905Y-97040533D01*
X120602381Y-96754819D02*
X120697619Y-96754819D01*
X120697619Y-96754819D02*
X120792857Y-96802438D01*
X120792857Y-96802438D02*
X120840476Y-96850057D01*
X120840476Y-96850057D02*
X120888095Y-96945295D01*
X120888095Y-96945295D02*
X120935714Y-97135771D01*
X120935714Y-97135771D02*
X120935714Y-97373866D01*
X120935714Y-97373866D02*
X120888095Y-97564342D01*
X120888095Y-97564342D02*
X120840476Y-97659580D01*
X120840476Y-97659580D02*
X120792857Y-97707200D01*
X120792857Y-97707200D02*
X120697619Y-97754819D01*
X120697619Y-97754819D02*
X120602381Y-97754819D01*
X120602381Y-97754819D02*
X120507143Y-97707200D01*
X120507143Y-97707200D02*
X120459524Y-97659580D01*
X120459524Y-97659580D02*
X120411905Y-97564342D01*
X120411905Y-97564342D02*
X120364286Y-97373866D01*
X120364286Y-97373866D02*
X120364286Y-97135771D01*
X120364286Y-97135771D02*
X120411905Y-96945295D01*
X120411905Y-96945295D02*
X120459524Y-96850057D01*
X120459524Y-96850057D02*
X120507143Y-96802438D01*
X120507143Y-96802438D02*
X120602381Y-96754819D01*
X70899819Y-133887799D02*
X71137914Y-133887799D01*
X71042676Y-134125894D02*
X71137914Y-133887799D01*
X71137914Y-133887799D02*
X71042676Y-133649704D01*
X71328390Y-134030656D02*
X71137914Y-133887799D01*
X71137914Y-133887799D02*
X71328390Y-133744942D01*
X96761763Y-72019580D02*
X96714144Y-72067200D01*
X96714144Y-72067200D02*
X96571287Y-72114819D01*
X96571287Y-72114819D02*
X96476049Y-72114819D01*
X96476049Y-72114819D02*
X96333192Y-72067200D01*
X96333192Y-72067200D02*
X96237954Y-71971961D01*
X96237954Y-71971961D02*
X96190335Y-71876723D01*
X96190335Y-71876723D02*
X96142716Y-71686247D01*
X96142716Y-71686247D02*
X96142716Y-71543390D01*
X96142716Y-71543390D02*
X96190335Y-71352914D01*
X96190335Y-71352914D02*
X96237954Y-71257676D01*
X96237954Y-71257676D02*
X96333192Y-71162438D01*
X96333192Y-71162438D02*
X96476049Y-71114819D01*
X96476049Y-71114819D02*
X96571287Y-71114819D01*
X96571287Y-71114819D02*
X96714144Y-71162438D01*
X96714144Y-71162438D02*
X96761763Y-71210057D01*
X97618906Y-71114819D02*
X97428430Y-71114819D01*
X97428430Y-71114819D02*
X97333192Y-71162438D01*
X97333192Y-71162438D02*
X97285573Y-71210057D01*
X97285573Y-71210057D02*
X97190335Y-71352914D01*
X97190335Y-71352914D02*
X97142716Y-71543390D01*
X97142716Y-71543390D02*
X97142716Y-71924342D01*
X97142716Y-71924342D02*
X97190335Y-72019580D01*
X97190335Y-72019580D02*
X97237954Y-72067200D01*
X97237954Y-72067200D02*
X97333192Y-72114819D01*
X97333192Y-72114819D02*
X97523668Y-72114819D01*
X97523668Y-72114819D02*
X97618906Y-72067200D01*
X97618906Y-72067200D02*
X97666525Y-72019580D01*
X97666525Y-72019580D02*
X97714144Y-71924342D01*
X97714144Y-71924342D02*
X97714144Y-71686247D01*
X97714144Y-71686247D02*
X97666525Y-71591009D01*
X97666525Y-71591009D02*
X97618906Y-71543390D01*
X97618906Y-71543390D02*
X97523668Y-71495771D01*
X97523668Y-71495771D02*
X97333192Y-71495771D01*
X97333192Y-71495771D02*
X97237954Y-71543390D01*
X97237954Y-71543390D02*
X97190335Y-71591009D01*
X97190335Y-71591009D02*
X97142716Y-71686247D01*
X126454819Y-66966666D02*
X125978628Y-67299999D01*
X126454819Y-67538094D02*
X125454819Y-67538094D01*
X125454819Y-67538094D02*
X125454819Y-67157142D01*
X125454819Y-67157142D02*
X125502438Y-67061904D01*
X125502438Y-67061904D02*
X125550057Y-67014285D01*
X125550057Y-67014285D02*
X125645295Y-66966666D01*
X125645295Y-66966666D02*
X125788152Y-66966666D01*
X125788152Y-66966666D02*
X125883390Y-67014285D01*
X125883390Y-67014285D02*
X125931009Y-67061904D01*
X125931009Y-67061904D02*
X125978628Y-67157142D01*
X125978628Y-67157142D02*
X125978628Y-67538094D01*
X125550057Y-66585713D02*
X125502438Y-66538094D01*
X125502438Y-66538094D02*
X125454819Y-66442856D01*
X125454819Y-66442856D02*
X125454819Y-66204761D01*
X125454819Y-66204761D02*
X125502438Y-66109523D01*
X125502438Y-66109523D02*
X125550057Y-66061904D01*
X125550057Y-66061904D02*
X125645295Y-66014285D01*
X125645295Y-66014285D02*
X125740533Y-66014285D01*
X125740533Y-66014285D02*
X125883390Y-66061904D01*
X125883390Y-66061904D02*
X126454819Y-66633332D01*
X126454819Y-66633332D02*
X126454819Y-66014285D01*
X123907142Y-101359580D02*
X123859523Y-101407200D01*
X123859523Y-101407200D02*
X123716666Y-101454819D01*
X123716666Y-101454819D02*
X123621428Y-101454819D01*
X123621428Y-101454819D02*
X123478571Y-101407200D01*
X123478571Y-101407200D02*
X123383333Y-101311961D01*
X123383333Y-101311961D02*
X123335714Y-101216723D01*
X123335714Y-101216723D02*
X123288095Y-101026247D01*
X123288095Y-101026247D02*
X123288095Y-100883390D01*
X123288095Y-100883390D02*
X123335714Y-100692914D01*
X123335714Y-100692914D02*
X123383333Y-100597676D01*
X123383333Y-100597676D02*
X123478571Y-100502438D01*
X123478571Y-100502438D02*
X123621428Y-100454819D01*
X123621428Y-100454819D02*
X123716666Y-100454819D01*
X123716666Y-100454819D02*
X123859523Y-100502438D01*
X123859523Y-100502438D02*
X123907142Y-100550057D01*
X124859523Y-101454819D02*
X124288095Y-101454819D01*
X124573809Y-101454819D02*
X124573809Y-100454819D01*
X124573809Y-100454819D02*
X124478571Y-100597676D01*
X124478571Y-100597676D02*
X124383333Y-100692914D01*
X124383333Y-100692914D02*
X124288095Y-100740533D01*
X125811904Y-101454819D02*
X125240476Y-101454819D01*
X125526190Y-101454819D02*
X125526190Y-100454819D01*
X125526190Y-100454819D02*
X125430952Y-100597676D01*
X125430952Y-100597676D02*
X125335714Y-100692914D01*
X125335714Y-100692914D02*
X125240476Y-100740533D01*
X94899819Y-133887799D02*
X95137914Y-133887799D01*
X95042676Y-134125894D02*
X95137914Y-133887799D01*
X95137914Y-133887799D02*
X95042676Y-133649704D01*
X95328390Y-134030656D02*
X95137914Y-133887799D01*
X95137914Y-133887799D02*
X95328390Y-133744942D01*
X118888095Y-89679819D02*
X118888095Y-90489342D01*
X118888095Y-90489342D02*
X118935714Y-90584580D01*
X118935714Y-90584580D02*
X118983333Y-90632200D01*
X118983333Y-90632200D02*
X119078571Y-90679819D01*
X119078571Y-90679819D02*
X119269047Y-90679819D01*
X119269047Y-90679819D02*
X119364285Y-90632200D01*
X119364285Y-90632200D02*
X119411904Y-90584580D01*
X119411904Y-90584580D02*
X119459523Y-90489342D01*
X119459523Y-90489342D02*
X119459523Y-89679819D01*
X119983333Y-90679819D02*
X120173809Y-90679819D01*
X120173809Y-90679819D02*
X120269047Y-90632200D01*
X120269047Y-90632200D02*
X120316666Y-90584580D01*
X120316666Y-90584580D02*
X120411904Y-90441723D01*
X120411904Y-90441723D02*
X120459523Y-90251247D01*
X120459523Y-90251247D02*
X120459523Y-89870295D01*
X120459523Y-89870295D02*
X120411904Y-89775057D01*
X120411904Y-89775057D02*
X120364285Y-89727438D01*
X120364285Y-89727438D02*
X120269047Y-89679819D01*
X120269047Y-89679819D02*
X120078571Y-89679819D01*
X120078571Y-89679819D02*
X119983333Y-89727438D01*
X119983333Y-89727438D02*
X119935714Y-89775057D01*
X119935714Y-89775057D02*
X119888095Y-89870295D01*
X119888095Y-89870295D02*
X119888095Y-90108390D01*
X119888095Y-90108390D02*
X119935714Y-90203628D01*
X119935714Y-90203628D02*
X119983333Y-90251247D01*
X119983333Y-90251247D02*
X120078571Y-90298866D01*
X120078571Y-90298866D02*
X120269047Y-90298866D01*
X120269047Y-90298866D02*
X120364285Y-90251247D01*
X120364285Y-90251247D02*
X120411904Y-90203628D01*
X120411904Y-90203628D02*
X120459523Y-90108390D01*
X71278333Y-128587380D02*
X71230714Y-128635000D01*
X71230714Y-128635000D02*
X71087857Y-128682619D01*
X71087857Y-128682619D02*
X70992619Y-128682619D01*
X70992619Y-128682619D02*
X70849762Y-128635000D01*
X70849762Y-128635000D02*
X70754524Y-128539761D01*
X70754524Y-128539761D02*
X70706905Y-128444523D01*
X70706905Y-128444523D02*
X70659286Y-128254047D01*
X70659286Y-128254047D02*
X70659286Y-128111190D01*
X70659286Y-128111190D02*
X70706905Y-127920714D01*
X70706905Y-127920714D02*
X70754524Y-127825476D01*
X70754524Y-127825476D02*
X70849762Y-127730238D01*
X70849762Y-127730238D02*
X70992619Y-127682619D01*
X70992619Y-127682619D02*
X71087857Y-127682619D01*
X71087857Y-127682619D02*
X71230714Y-127730238D01*
X71230714Y-127730238D02*
X71278333Y-127777857D01*
X72230714Y-128682619D02*
X71659286Y-128682619D01*
X71945000Y-128682619D02*
X71945000Y-127682619D01*
X71945000Y-127682619D02*
X71849762Y-127825476D01*
X71849762Y-127825476D02*
X71754524Y-127920714D01*
X71754524Y-127920714D02*
X71659286Y-127968333D01*
X67924819Y-145063333D02*
X68639104Y-145063333D01*
X68639104Y-145063333D02*
X68781961Y-145110952D01*
X68781961Y-145110952D02*
X68877200Y-145206190D01*
X68877200Y-145206190D02*
X68924819Y-145349047D01*
X68924819Y-145349047D02*
X68924819Y-145444285D01*
X68924819Y-144063333D02*
X68924819Y-144634761D01*
X68924819Y-144349047D02*
X67924819Y-144349047D01*
X67924819Y-144349047D02*
X68067676Y-144444285D01*
X68067676Y-144444285D02*
X68162914Y-144539523D01*
X68162914Y-144539523D02*
X68210533Y-144634761D01*
X71254819Y-148089160D02*
X71254819Y-148660588D01*
X71254819Y-148374874D02*
X70254819Y-148374874D01*
X70254819Y-148374874D02*
X70397676Y-148470112D01*
X70397676Y-148470112D02*
X70492914Y-148565350D01*
X70492914Y-148565350D02*
X70540533Y-148660588D01*
X89923866Y-148730951D02*
X89923866Y-147969047D01*
X90304819Y-148349999D02*
X89542914Y-148349999D01*
X71254819Y-140789411D02*
X71254819Y-141360839D01*
X71254819Y-141075125D02*
X70254819Y-141075125D01*
X70254819Y-141075125D02*
X70397676Y-141170363D01*
X70397676Y-141170363D02*
X70492914Y-141265601D01*
X70492914Y-141265601D02*
X70540533Y-141360839D01*
X109404819Y-140789411D02*
X109404819Y-141360839D01*
X109404819Y-141075125D02*
X108404819Y-141075125D01*
X108404819Y-141075125D02*
X108547676Y-141170363D01*
X108547676Y-141170363D02*
X108642914Y-141265601D01*
X108642914Y-141265601D02*
X108690533Y-141360839D01*
X108404819Y-139932268D02*
X108404819Y-140122744D01*
X108404819Y-140122744D02*
X108452438Y-140217982D01*
X108452438Y-140217982D02*
X108500057Y-140265601D01*
X108500057Y-140265601D02*
X108642914Y-140360839D01*
X108642914Y-140360839D02*
X108833390Y-140408458D01*
X108833390Y-140408458D02*
X109214342Y-140408458D01*
X109214342Y-140408458D02*
X109309580Y-140360839D01*
X109309580Y-140360839D02*
X109357200Y-140313220D01*
X109357200Y-140313220D02*
X109404819Y-140217982D01*
X109404819Y-140217982D02*
X109404819Y-140027506D01*
X109404819Y-140027506D02*
X109357200Y-139932268D01*
X109357200Y-139932268D02*
X109309580Y-139884649D01*
X109309580Y-139884649D02*
X109214342Y-139837030D01*
X109214342Y-139837030D02*
X108976247Y-139837030D01*
X108976247Y-139837030D02*
X108881009Y-139884649D01*
X108881009Y-139884649D02*
X108833390Y-139932268D01*
X108833390Y-139932268D02*
X108785771Y-140027506D01*
X108785771Y-140027506D02*
X108785771Y-140217982D01*
X108785771Y-140217982D02*
X108833390Y-140313220D01*
X108833390Y-140313220D02*
X108881009Y-140360839D01*
X108881009Y-140360839D02*
X108976247Y-140408458D01*
X109354819Y-148741541D02*
X109354819Y-149312969D01*
X109354819Y-149027255D02*
X108354819Y-149027255D01*
X108354819Y-149027255D02*
X108497676Y-149122493D01*
X108497676Y-149122493D02*
X108592914Y-149217731D01*
X108592914Y-149217731D02*
X108640533Y-149312969D01*
X108354819Y-147884398D02*
X108354819Y-148074874D01*
X108354819Y-148074874D02*
X108402438Y-148170112D01*
X108402438Y-148170112D02*
X108450057Y-148217731D01*
X108450057Y-148217731D02*
X108592914Y-148312969D01*
X108592914Y-148312969D02*
X108783390Y-148360588D01*
X108783390Y-148360588D02*
X109164342Y-148360588D01*
X109164342Y-148360588D02*
X109259580Y-148312969D01*
X109259580Y-148312969D02*
X109307200Y-148265350D01*
X109307200Y-148265350D02*
X109354819Y-148170112D01*
X109354819Y-148170112D02*
X109354819Y-147979636D01*
X109354819Y-147979636D02*
X109307200Y-147884398D01*
X109307200Y-147884398D02*
X109259580Y-147836779D01*
X109259580Y-147836779D02*
X109164342Y-147789160D01*
X109164342Y-147789160D02*
X108926247Y-147789160D01*
X108926247Y-147789160D02*
X108831009Y-147836779D01*
X108831009Y-147836779D02*
X108783390Y-147884398D01*
X108783390Y-147884398D02*
X108735771Y-147979636D01*
X108735771Y-147979636D02*
X108735771Y-148170112D01*
X108735771Y-148170112D02*
X108783390Y-148265350D01*
X108783390Y-148265350D02*
X108831009Y-148312969D01*
X108831009Y-148312969D02*
X108926247Y-148360588D01*
X90280951Y-141076133D02*
X89519047Y-141076133D01*
X123907142Y-94359580D02*
X123859523Y-94407200D01*
X123859523Y-94407200D02*
X123716666Y-94454819D01*
X123716666Y-94454819D02*
X123621428Y-94454819D01*
X123621428Y-94454819D02*
X123478571Y-94407200D01*
X123478571Y-94407200D02*
X123383333Y-94311961D01*
X123383333Y-94311961D02*
X123335714Y-94216723D01*
X123335714Y-94216723D02*
X123288095Y-94026247D01*
X123288095Y-94026247D02*
X123288095Y-93883390D01*
X123288095Y-93883390D02*
X123335714Y-93692914D01*
X123335714Y-93692914D02*
X123383333Y-93597676D01*
X123383333Y-93597676D02*
X123478571Y-93502438D01*
X123478571Y-93502438D02*
X123621428Y-93454819D01*
X123621428Y-93454819D02*
X123716666Y-93454819D01*
X123716666Y-93454819D02*
X123859523Y-93502438D01*
X123859523Y-93502438D02*
X123907142Y-93550057D01*
X124859523Y-94454819D02*
X124288095Y-94454819D01*
X124573809Y-94454819D02*
X124573809Y-93454819D01*
X124573809Y-93454819D02*
X124478571Y-93597676D01*
X124478571Y-93597676D02*
X124383333Y-93692914D01*
X124383333Y-93692914D02*
X124288095Y-93740533D01*
X125478571Y-93454819D02*
X125573809Y-93454819D01*
X125573809Y-93454819D02*
X125669047Y-93502438D01*
X125669047Y-93502438D02*
X125716666Y-93550057D01*
X125716666Y-93550057D02*
X125764285Y-93645295D01*
X125764285Y-93645295D02*
X125811904Y-93835771D01*
X125811904Y-93835771D02*
X125811904Y-94073866D01*
X125811904Y-94073866D02*
X125764285Y-94264342D01*
X125764285Y-94264342D02*
X125716666Y-94359580D01*
X125716666Y-94359580D02*
X125669047Y-94407200D01*
X125669047Y-94407200D02*
X125573809Y-94454819D01*
X125573809Y-94454819D02*
X125478571Y-94454819D01*
X125478571Y-94454819D02*
X125383333Y-94407200D01*
X125383333Y-94407200D02*
X125335714Y-94359580D01*
X125335714Y-94359580D02*
X125288095Y-94264342D01*
X125288095Y-94264342D02*
X125240476Y-94073866D01*
X125240476Y-94073866D02*
X125240476Y-93835771D01*
X125240476Y-93835771D02*
X125288095Y-93645295D01*
X125288095Y-93645295D02*
X125335714Y-93550057D01*
X125335714Y-93550057D02*
X125383333Y-93502438D01*
X125383333Y-93502438D02*
X125478571Y-93454819D01*
X82899819Y-133887799D02*
X83137914Y-133887799D01*
X83042676Y-134125894D02*
X83137914Y-133887799D01*
X83137914Y-133887799D02*
X83042676Y-133649704D01*
X83328390Y-134030656D02*
X83137914Y-133887799D01*
X83137914Y-133887799D02*
X83328390Y-133744942D01*
X126454819Y-61966666D02*
X125978628Y-62299999D01*
X126454819Y-62538094D02*
X125454819Y-62538094D01*
X125454819Y-62538094D02*
X125454819Y-62157142D01*
X125454819Y-62157142D02*
X125502438Y-62061904D01*
X125502438Y-62061904D02*
X125550057Y-62014285D01*
X125550057Y-62014285D02*
X125645295Y-61966666D01*
X125645295Y-61966666D02*
X125788152Y-61966666D01*
X125788152Y-61966666D02*
X125883390Y-62014285D01*
X125883390Y-62014285D02*
X125931009Y-62061904D01*
X125931009Y-62061904D02*
X125978628Y-62157142D01*
X125978628Y-62157142D02*
X125978628Y-62538094D01*
X125788152Y-61109523D02*
X126454819Y-61109523D01*
X125407200Y-61347618D02*
X126121485Y-61585713D01*
X126121485Y-61585713D02*
X126121485Y-60966666D01*
X126454819Y-69566666D02*
X125978628Y-69899999D01*
X126454819Y-70138094D02*
X125454819Y-70138094D01*
X125454819Y-70138094D02*
X125454819Y-69757142D01*
X125454819Y-69757142D02*
X125502438Y-69661904D01*
X125502438Y-69661904D02*
X125550057Y-69614285D01*
X125550057Y-69614285D02*
X125645295Y-69566666D01*
X125645295Y-69566666D02*
X125788152Y-69566666D01*
X125788152Y-69566666D02*
X125883390Y-69614285D01*
X125883390Y-69614285D02*
X125931009Y-69661904D01*
X125931009Y-69661904D02*
X125978628Y-69757142D01*
X125978628Y-69757142D02*
X125978628Y-70138094D01*
X126454819Y-68614285D02*
X126454819Y-69185713D01*
X126454819Y-68899999D02*
X125454819Y-68899999D01*
X125454819Y-68899999D02*
X125597676Y-68995237D01*
X125597676Y-68995237D02*
X125692914Y-69090475D01*
X125692914Y-69090475D02*
X125740533Y-69185713D01*
X95278333Y-128587380D02*
X95230714Y-128635000D01*
X95230714Y-128635000D02*
X95087857Y-128682619D01*
X95087857Y-128682619D02*
X94992619Y-128682619D01*
X94992619Y-128682619D02*
X94849762Y-128635000D01*
X94849762Y-128635000D02*
X94754524Y-128539761D01*
X94754524Y-128539761D02*
X94706905Y-128444523D01*
X94706905Y-128444523D02*
X94659286Y-128254047D01*
X94659286Y-128254047D02*
X94659286Y-128111190D01*
X94659286Y-128111190D02*
X94706905Y-127920714D01*
X94706905Y-127920714D02*
X94754524Y-127825476D01*
X94754524Y-127825476D02*
X94849762Y-127730238D01*
X94849762Y-127730238D02*
X94992619Y-127682619D01*
X94992619Y-127682619D02*
X95087857Y-127682619D01*
X95087857Y-127682619D02*
X95230714Y-127730238D01*
X95230714Y-127730238D02*
X95278333Y-127777857D01*
X95611667Y-127682619D02*
X96230714Y-127682619D01*
X96230714Y-127682619D02*
X95897381Y-128063571D01*
X95897381Y-128063571D02*
X96040238Y-128063571D01*
X96040238Y-128063571D02*
X96135476Y-128111190D01*
X96135476Y-128111190D02*
X96183095Y-128158809D01*
X96183095Y-128158809D02*
X96230714Y-128254047D01*
X96230714Y-128254047D02*
X96230714Y-128492142D01*
X96230714Y-128492142D02*
X96183095Y-128587380D01*
X96183095Y-128587380D02*
X96135476Y-128635000D01*
X96135476Y-128635000D02*
X96040238Y-128682619D01*
X96040238Y-128682619D02*
X95754524Y-128682619D01*
X95754524Y-128682619D02*
X95659286Y-128635000D01*
X95659286Y-128635000D02*
X95611667Y-128587380D01*
X84761763Y-72019580D02*
X84714144Y-72067200D01*
X84714144Y-72067200D02*
X84571287Y-72114819D01*
X84571287Y-72114819D02*
X84476049Y-72114819D01*
X84476049Y-72114819D02*
X84333192Y-72067200D01*
X84333192Y-72067200D02*
X84237954Y-71971961D01*
X84237954Y-71971961D02*
X84190335Y-71876723D01*
X84190335Y-71876723D02*
X84142716Y-71686247D01*
X84142716Y-71686247D02*
X84142716Y-71543390D01*
X84142716Y-71543390D02*
X84190335Y-71352914D01*
X84190335Y-71352914D02*
X84237954Y-71257676D01*
X84237954Y-71257676D02*
X84333192Y-71162438D01*
X84333192Y-71162438D02*
X84476049Y-71114819D01*
X84476049Y-71114819D02*
X84571287Y-71114819D01*
X84571287Y-71114819D02*
X84714144Y-71162438D01*
X84714144Y-71162438D02*
X84761763Y-71210057D01*
X85095097Y-71114819D02*
X85761763Y-71114819D01*
X85761763Y-71114819D02*
X85333192Y-72114819D01*
X123466666Y-59004819D02*
X123466666Y-59719104D01*
X123466666Y-59719104D02*
X123419047Y-59861961D01*
X123419047Y-59861961D02*
X123323809Y-59957200D01*
X123323809Y-59957200D02*
X123180952Y-60004819D01*
X123180952Y-60004819D02*
X123085714Y-60004819D01*
X123847619Y-59004819D02*
X124514285Y-59004819D01*
X124514285Y-59004819D02*
X124085714Y-60004819D01*
X118411905Y-110754819D02*
X118411905Y-111564342D01*
X118411905Y-111564342D02*
X118459524Y-111659580D01*
X118459524Y-111659580D02*
X118507143Y-111707200D01*
X118507143Y-111707200D02*
X118602381Y-111754819D01*
X118602381Y-111754819D02*
X118792857Y-111754819D01*
X118792857Y-111754819D02*
X118888095Y-111707200D01*
X118888095Y-111707200D02*
X118935714Y-111659580D01*
X118935714Y-111659580D02*
X118983333Y-111564342D01*
X118983333Y-111564342D02*
X118983333Y-110754819D01*
X119983333Y-111754819D02*
X119411905Y-111754819D01*
X119697619Y-111754819D02*
X119697619Y-110754819D01*
X119697619Y-110754819D02*
X119602381Y-110897676D01*
X119602381Y-110897676D02*
X119507143Y-110992914D01*
X119507143Y-110992914D02*
X119411905Y-111040533D01*
X120364286Y-110850057D02*
X120411905Y-110802438D01*
X120411905Y-110802438D02*
X120507143Y-110754819D01*
X120507143Y-110754819D02*
X120745238Y-110754819D01*
X120745238Y-110754819D02*
X120840476Y-110802438D01*
X120840476Y-110802438D02*
X120888095Y-110850057D01*
X120888095Y-110850057D02*
X120935714Y-110945295D01*
X120935714Y-110945295D02*
X120935714Y-111040533D01*
X120935714Y-111040533D02*
X120888095Y-111183390D01*
X120888095Y-111183390D02*
X120316667Y-111754819D01*
X120316667Y-111754819D02*
X120935714Y-111754819D01*
X130445180Y-54666666D02*
X129730895Y-54666666D01*
X129730895Y-54666666D02*
X129588038Y-54619047D01*
X129588038Y-54619047D02*
X129492800Y-54523809D01*
X129492800Y-54523809D02*
X129445180Y-54380952D01*
X129445180Y-54380952D02*
X129445180Y-54285714D01*
X130445180Y-55571428D02*
X130445180Y-55380952D01*
X130445180Y-55380952D02*
X130397561Y-55285714D01*
X130397561Y-55285714D02*
X130349942Y-55238095D01*
X130349942Y-55238095D02*
X130207085Y-55142857D01*
X130207085Y-55142857D02*
X130016609Y-55095238D01*
X130016609Y-55095238D02*
X129635657Y-55095238D01*
X129635657Y-55095238D02*
X129540419Y-55142857D01*
X129540419Y-55142857D02*
X129492800Y-55190476D01*
X129492800Y-55190476D02*
X129445180Y-55285714D01*
X129445180Y-55285714D02*
X129445180Y-55476190D01*
X129445180Y-55476190D02*
X129492800Y-55571428D01*
X129492800Y-55571428D02*
X129540419Y-55619047D01*
X129540419Y-55619047D02*
X129635657Y-55666666D01*
X129635657Y-55666666D02*
X129873752Y-55666666D01*
X129873752Y-55666666D02*
X129968990Y-55619047D01*
X129968990Y-55619047D02*
X130016609Y-55571428D01*
X130016609Y-55571428D02*
X130064228Y-55476190D01*
X130064228Y-55476190D02*
X130064228Y-55285714D01*
X130064228Y-55285714D02*
X130016609Y-55190476D01*
X130016609Y-55190476D02*
X129968990Y-55142857D01*
X129968990Y-55142857D02*
X129873752Y-55095238D01*
X83278333Y-128587380D02*
X83230714Y-128635000D01*
X83230714Y-128635000D02*
X83087857Y-128682619D01*
X83087857Y-128682619D02*
X82992619Y-128682619D01*
X82992619Y-128682619D02*
X82849762Y-128635000D01*
X82849762Y-128635000D02*
X82754524Y-128539761D01*
X82754524Y-128539761D02*
X82706905Y-128444523D01*
X82706905Y-128444523D02*
X82659286Y-128254047D01*
X82659286Y-128254047D02*
X82659286Y-128111190D01*
X82659286Y-128111190D02*
X82706905Y-127920714D01*
X82706905Y-127920714D02*
X82754524Y-127825476D01*
X82754524Y-127825476D02*
X82849762Y-127730238D01*
X82849762Y-127730238D02*
X82992619Y-127682619D01*
X82992619Y-127682619D02*
X83087857Y-127682619D01*
X83087857Y-127682619D02*
X83230714Y-127730238D01*
X83230714Y-127730238D02*
X83278333Y-127777857D01*
X83659286Y-127777857D02*
X83706905Y-127730238D01*
X83706905Y-127730238D02*
X83802143Y-127682619D01*
X83802143Y-127682619D02*
X84040238Y-127682619D01*
X84040238Y-127682619D02*
X84135476Y-127730238D01*
X84135476Y-127730238D02*
X84183095Y-127777857D01*
X84183095Y-127777857D02*
X84230714Y-127873095D01*
X84230714Y-127873095D02*
X84230714Y-127968333D01*
X84230714Y-127968333D02*
X84183095Y-128111190D01*
X84183095Y-128111190D02*
X83611667Y-128682619D01*
X83611667Y-128682619D02*
X84230714Y-128682619D01*
X108761763Y-72019580D02*
X108714144Y-72067200D01*
X108714144Y-72067200D02*
X108571287Y-72114819D01*
X108571287Y-72114819D02*
X108476049Y-72114819D01*
X108476049Y-72114819D02*
X108333192Y-72067200D01*
X108333192Y-72067200D02*
X108237954Y-71971961D01*
X108237954Y-71971961D02*
X108190335Y-71876723D01*
X108190335Y-71876723D02*
X108142716Y-71686247D01*
X108142716Y-71686247D02*
X108142716Y-71543390D01*
X108142716Y-71543390D02*
X108190335Y-71352914D01*
X108190335Y-71352914D02*
X108237954Y-71257676D01*
X108237954Y-71257676D02*
X108333192Y-71162438D01*
X108333192Y-71162438D02*
X108476049Y-71114819D01*
X108476049Y-71114819D02*
X108571287Y-71114819D01*
X108571287Y-71114819D02*
X108714144Y-71162438D01*
X108714144Y-71162438D02*
X108761763Y-71210057D01*
X109666525Y-71114819D02*
X109190335Y-71114819D01*
X109190335Y-71114819D02*
X109142716Y-71591009D01*
X109142716Y-71591009D02*
X109190335Y-71543390D01*
X109190335Y-71543390D02*
X109285573Y-71495771D01*
X109285573Y-71495771D02*
X109523668Y-71495771D01*
X109523668Y-71495771D02*
X109618906Y-71543390D01*
X109618906Y-71543390D02*
X109666525Y-71591009D01*
X109666525Y-71591009D02*
X109714144Y-71686247D01*
X109714144Y-71686247D02*
X109714144Y-71924342D01*
X109714144Y-71924342D02*
X109666525Y-72019580D01*
X109666525Y-72019580D02*
X109618906Y-72067200D01*
X109618906Y-72067200D02*
X109523668Y-72114819D01*
X109523668Y-72114819D02*
X109285573Y-72114819D01*
X109285573Y-72114819D02*
X109190335Y-72067200D01*
X109190335Y-72067200D02*
X109142716Y-72019580D01*
X114959580Y-66242857D02*
X115007200Y-66290476D01*
X115007200Y-66290476D02*
X115054819Y-66433333D01*
X115054819Y-66433333D02*
X115054819Y-66528571D01*
X115054819Y-66528571D02*
X115007200Y-66671428D01*
X115007200Y-66671428D02*
X114911961Y-66766666D01*
X114911961Y-66766666D02*
X114816723Y-66814285D01*
X114816723Y-66814285D02*
X114626247Y-66861904D01*
X114626247Y-66861904D02*
X114483390Y-66861904D01*
X114483390Y-66861904D02*
X114292914Y-66814285D01*
X114292914Y-66814285D02*
X114197676Y-66766666D01*
X114197676Y-66766666D02*
X114102438Y-66671428D01*
X114102438Y-66671428D02*
X114054819Y-66528571D01*
X114054819Y-66528571D02*
X114054819Y-66433333D01*
X114054819Y-66433333D02*
X114102438Y-66290476D01*
X114102438Y-66290476D02*
X114150057Y-66242857D01*
X115054819Y-65290476D02*
X115054819Y-65861904D01*
X115054819Y-65576190D02*
X114054819Y-65576190D01*
X114054819Y-65576190D02*
X114197676Y-65671428D01*
X114197676Y-65671428D02*
X114292914Y-65766666D01*
X114292914Y-65766666D02*
X114340533Y-65861904D01*
X114054819Y-64957142D02*
X114054819Y-64290476D01*
X114054819Y-64290476D02*
X115054819Y-64719047D01*
X107278333Y-128587380D02*
X107230714Y-128635000D01*
X107230714Y-128635000D02*
X107087857Y-128682619D01*
X107087857Y-128682619D02*
X106992619Y-128682619D01*
X106992619Y-128682619D02*
X106849762Y-128635000D01*
X106849762Y-128635000D02*
X106754524Y-128539761D01*
X106754524Y-128539761D02*
X106706905Y-128444523D01*
X106706905Y-128444523D02*
X106659286Y-128254047D01*
X106659286Y-128254047D02*
X106659286Y-128111190D01*
X106659286Y-128111190D02*
X106706905Y-127920714D01*
X106706905Y-127920714D02*
X106754524Y-127825476D01*
X106754524Y-127825476D02*
X106849762Y-127730238D01*
X106849762Y-127730238D02*
X106992619Y-127682619D01*
X106992619Y-127682619D02*
X107087857Y-127682619D01*
X107087857Y-127682619D02*
X107230714Y-127730238D01*
X107230714Y-127730238D02*
X107278333Y-127777857D01*
X108135476Y-128015952D02*
X108135476Y-128682619D01*
X107897381Y-127635000D02*
X107659286Y-128349285D01*
X107659286Y-128349285D02*
X108278333Y-128349285D01*
X134945180Y-60166666D02*
X134230895Y-60166666D01*
X134230895Y-60166666D02*
X134088038Y-60119047D01*
X134088038Y-60119047D02*
X133992800Y-60023809D01*
X133992800Y-60023809D02*
X133945180Y-59880952D01*
X133945180Y-59880952D02*
X133945180Y-59785714D01*
X134945180Y-61119047D02*
X134945180Y-60642857D01*
X134945180Y-60642857D02*
X134468990Y-60595238D01*
X134468990Y-60595238D02*
X134516609Y-60642857D01*
X134516609Y-60642857D02*
X134564228Y-60738095D01*
X134564228Y-60738095D02*
X134564228Y-60976190D01*
X134564228Y-60976190D02*
X134516609Y-61071428D01*
X134516609Y-61071428D02*
X134468990Y-61119047D01*
X134468990Y-61119047D02*
X134373752Y-61166666D01*
X134373752Y-61166666D02*
X134135657Y-61166666D01*
X134135657Y-61166666D02*
X134040419Y-61119047D01*
X134040419Y-61119047D02*
X133992800Y-61071428D01*
X133992800Y-61071428D02*
X133945180Y-60976190D01*
X133945180Y-60976190D02*
X133945180Y-60738095D01*
X133945180Y-60738095D02*
X133992800Y-60642857D01*
X133992800Y-60642857D02*
X134040419Y-60595238D01*
X123854819Y-115533333D02*
X124569104Y-115533333D01*
X124569104Y-115533333D02*
X124711961Y-115580952D01*
X124711961Y-115580952D02*
X124807200Y-115676190D01*
X124807200Y-115676190D02*
X124854819Y-115819047D01*
X124854819Y-115819047D02*
X124854819Y-115914285D01*
X123854819Y-115152380D02*
X123854819Y-114533333D01*
X123854819Y-114533333D02*
X124235771Y-114866666D01*
X124235771Y-114866666D02*
X124235771Y-114723809D01*
X124235771Y-114723809D02*
X124283390Y-114628571D01*
X124283390Y-114628571D02*
X124331009Y-114580952D01*
X124331009Y-114580952D02*
X124426247Y-114533333D01*
X124426247Y-114533333D02*
X124664342Y-114533333D01*
X124664342Y-114533333D02*
X124759580Y-114580952D01*
X124759580Y-114580952D02*
X124807200Y-114628571D01*
X124807200Y-114628571D02*
X124854819Y-114723809D01*
X124854819Y-114723809D02*
X124854819Y-115009523D01*
X124854819Y-115009523D02*
X124807200Y-115104761D01*
X124807200Y-115104761D02*
X124759580Y-115152380D01*
X104154819Y-80018333D02*
X104869104Y-80018333D01*
X104869104Y-80018333D02*
X105011961Y-80065952D01*
X105011961Y-80065952D02*
X105107200Y-80161190D01*
X105107200Y-80161190D02*
X105154819Y-80304047D01*
X105154819Y-80304047D02*
X105154819Y-80399285D01*
X104583390Y-79399285D02*
X104535771Y-79494523D01*
X104535771Y-79494523D02*
X104488152Y-79542142D01*
X104488152Y-79542142D02*
X104392914Y-79589761D01*
X104392914Y-79589761D02*
X104345295Y-79589761D01*
X104345295Y-79589761D02*
X104250057Y-79542142D01*
X104250057Y-79542142D02*
X104202438Y-79494523D01*
X104202438Y-79494523D02*
X104154819Y-79399285D01*
X104154819Y-79399285D02*
X104154819Y-79208809D01*
X104154819Y-79208809D02*
X104202438Y-79113571D01*
X104202438Y-79113571D02*
X104250057Y-79065952D01*
X104250057Y-79065952D02*
X104345295Y-79018333D01*
X104345295Y-79018333D02*
X104392914Y-79018333D01*
X104392914Y-79018333D02*
X104488152Y-79065952D01*
X104488152Y-79065952D02*
X104535771Y-79113571D01*
X104535771Y-79113571D02*
X104583390Y-79208809D01*
X104583390Y-79208809D02*
X104583390Y-79399285D01*
X104583390Y-79399285D02*
X104631009Y-79494523D01*
X104631009Y-79494523D02*
X104678628Y-79542142D01*
X104678628Y-79542142D02*
X104773866Y-79589761D01*
X104773866Y-79589761D02*
X104964342Y-79589761D01*
X104964342Y-79589761D02*
X105059580Y-79542142D01*
X105059580Y-79542142D02*
X105107200Y-79494523D01*
X105107200Y-79494523D02*
X105154819Y-79399285D01*
X105154819Y-79399285D02*
X105154819Y-79208809D01*
X105154819Y-79208809D02*
X105107200Y-79113571D01*
X105107200Y-79113571D02*
X105059580Y-79065952D01*
X105059580Y-79065952D02*
X104964342Y-79018333D01*
X104964342Y-79018333D02*
X104773866Y-79018333D01*
X104773866Y-79018333D02*
X104678628Y-79065952D01*
X104678628Y-79065952D02*
X104631009Y-79113571D01*
X104631009Y-79113571D02*
X104583390Y-79208809D01*
X134945180Y-69916666D02*
X134230895Y-69916666D01*
X134230895Y-69916666D02*
X134088038Y-69869047D01*
X134088038Y-69869047D02*
X133992800Y-69773809D01*
X133992800Y-69773809D02*
X133945180Y-69630952D01*
X133945180Y-69630952D02*
X133945180Y-69535714D01*
X134611847Y-70821428D02*
X133945180Y-70821428D01*
X134992800Y-70583333D02*
X134278514Y-70345238D01*
X134278514Y-70345238D02*
X134278514Y-70964285D01*
X121750294Y-60090180D02*
X121750294Y-59280657D01*
X121750294Y-59280657D02*
X121702675Y-59185419D01*
X121702675Y-59185419D02*
X121655056Y-59137800D01*
X121655056Y-59137800D02*
X121559818Y-59090180D01*
X121559818Y-59090180D02*
X121369342Y-59090180D01*
X121369342Y-59090180D02*
X121274104Y-59137800D01*
X121274104Y-59137800D02*
X121226485Y-59185419D01*
X121226485Y-59185419D02*
X121178866Y-59280657D01*
X121178866Y-59280657D02*
X121178866Y-60090180D01*
X120178866Y-59090180D02*
X120750294Y-59090180D01*
X120464580Y-59090180D02*
X120464580Y-60090180D01*
X120464580Y-60090180D02*
X120559818Y-59947323D01*
X120559818Y-59947323D02*
X120655056Y-59852085D01*
X120655056Y-59852085D02*
X120750294Y-59804466D01*
X119845532Y-60090180D02*
X119226485Y-60090180D01*
X119226485Y-60090180D02*
X119559818Y-59709228D01*
X119559818Y-59709228D02*
X119416961Y-59709228D01*
X119416961Y-59709228D02*
X119321723Y-59661609D01*
X119321723Y-59661609D02*
X119274104Y-59613990D01*
X119274104Y-59613990D02*
X119226485Y-59518752D01*
X119226485Y-59518752D02*
X119226485Y-59280657D01*
X119226485Y-59280657D02*
X119274104Y-59185419D01*
X119274104Y-59185419D02*
X119321723Y-59137800D01*
X119321723Y-59137800D02*
X119416961Y-59090180D01*
X119416961Y-59090180D02*
X119702675Y-59090180D01*
X119702675Y-59090180D02*
X119797913Y-59137800D01*
X119797913Y-59137800D02*
X119845532Y-59185419D01*
X123016200Y-71201619D02*
X123016200Y-71439714D01*
X122778105Y-71344476D02*
X123016200Y-71439714D01*
X123016200Y-71439714D02*
X123254295Y-71344476D01*
X122873343Y-71630190D02*
X123016200Y-71439714D01*
X123016200Y-71439714D02*
X123159057Y-71630190D01*
X123016199Y-72291980D02*
X123016199Y-72053885D01*
X123254294Y-72149123D02*
X123016199Y-72053885D01*
X123016199Y-72053885D02*
X122778104Y-72149123D01*
X123159056Y-71863409D02*
X123016199Y-72053885D01*
X123016199Y-72053885D02*
X122873342Y-71863409D01*
X123883333Y-87359580D02*
X123835714Y-87407200D01*
X123835714Y-87407200D02*
X123692857Y-87454819D01*
X123692857Y-87454819D02*
X123597619Y-87454819D01*
X123597619Y-87454819D02*
X123454762Y-87407200D01*
X123454762Y-87407200D02*
X123359524Y-87311961D01*
X123359524Y-87311961D02*
X123311905Y-87216723D01*
X123311905Y-87216723D02*
X123264286Y-87026247D01*
X123264286Y-87026247D02*
X123264286Y-86883390D01*
X123264286Y-86883390D02*
X123311905Y-86692914D01*
X123311905Y-86692914D02*
X123359524Y-86597676D01*
X123359524Y-86597676D02*
X123454762Y-86502438D01*
X123454762Y-86502438D02*
X123597619Y-86454819D01*
X123597619Y-86454819D02*
X123692857Y-86454819D01*
X123692857Y-86454819D02*
X123835714Y-86502438D01*
X123835714Y-86502438D02*
X123883333Y-86550057D01*
X124359524Y-87454819D02*
X124550000Y-87454819D01*
X124550000Y-87454819D02*
X124645238Y-87407200D01*
X124645238Y-87407200D02*
X124692857Y-87359580D01*
X124692857Y-87359580D02*
X124788095Y-87216723D01*
X124788095Y-87216723D02*
X124835714Y-87026247D01*
X124835714Y-87026247D02*
X124835714Y-86645295D01*
X124835714Y-86645295D02*
X124788095Y-86550057D01*
X124788095Y-86550057D02*
X124740476Y-86502438D01*
X124740476Y-86502438D02*
X124645238Y-86454819D01*
X124645238Y-86454819D02*
X124454762Y-86454819D01*
X124454762Y-86454819D02*
X124359524Y-86502438D01*
X124359524Y-86502438D02*
X124311905Y-86550057D01*
X124311905Y-86550057D02*
X124264286Y-86645295D01*
X124264286Y-86645295D02*
X124264286Y-86883390D01*
X124264286Y-86883390D02*
X124311905Y-86978628D01*
X124311905Y-86978628D02*
X124359524Y-87026247D01*
X124359524Y-87026247D02*
X124454762Y-87073866D01*
X124454762Y-87073866D02*
X124645238Y-87073866D01*
X124645238Y-87073866D02*
X124740476Y-87026247D01*
X124740476Y-87026247D02*
X124788095Y-86978628D01*
X124788095Y-86978628D02*
X124835714Y-86883390D01*
X106899819Y-133887799D02*
X107137914Y-133887799D01*
X107042676Y-134125894D02*
X107137914Y-133887799D01*
X107137914Y-133887799D02*
X107042676Y-133649704D01*
X107328390Y-134030656D02*
X107137914Y-133887799D01*
X107137914Y-133887799D02*
X107328390Y-133744942D01*
X72761763Y-72019580D02*
X72714144Y-72067200D01*
X72714144Y-72067200D02*
X72571287Y-72114819D01*
X72571287Y-72114819D02*
X72476049Y-72114819D01*
X72476049Y-72114819D02*
X72333192Y-72067200D01*
X72333192Y-72067200D02*
X72237954Y-71971961D01*
X72237954Y-71971961D02*
X72190335Y-71876723D01*
X72190335Y-71876723D02*
X72142716Y-71686247D01*
X72142716Y-71686247D02*
X72142716Y-71543390D01*
X72142716Y-71543390D02*
X72190335Y-71352914D01*
X72190335Y-71352914D02*
X72237954Y-71257676D01*
X72237954Y-71257676D02*
X72333192Y-71162438D01*
X72333192Y-71162438D02*
X72476049Y-71114819D01*
X72476049Y-71114819D02*
X72571287Y-71114819D01*
X72571287Y-71114819D02*
X72714144Y-71162438D01*
X72714144Y-71162438D02*
X72761763Y-71210057D01*
X73333192Y-71543390D02*
X73237954Y-71495771D01*
X73237954Y-71495771D02*
X73190335Y-71448152D01*
X73190335Y-71448152D02*
X73142716Y-71352914D01*
X73142716Y-71352914D02*
X73142716Y-71305295D01*
X73142716Y-71305295D02*
X73190335Y-71210057D01*
X73190335Y-71210057D02*
X73237954Y-71162438D01*
X73237954Y-71162438D02*
X73333192Y-71114819D01*
X73333192Y-71114819D02*
X73523668Y-71114819D01*
X73523668Y-71114819D02*
X73618906Y-71162438D01*
X73618906Y-71162438D02*
X73666525Y-71210057D01*
X73666525Y-71210057D02*
X73714144Y-71305295D01*
X73714144Y-71305295D02*
X73714144Y-71352914D01*
X73714144Y-71352914D02*
X73666525Y-71448152D01*
X73666525Y-71448152D02*
X73618906Y-71495771D01*
X73618906Y-71495771D02*
X73523668Y-71543390D01*
X73523668Y-71543390D02*
X73333192Y-71543390D01*
X73333192Y-71543390D02*
X73237954Y-71591009D01*
X73237954Y-71591009D02*
X73190335Y-71638628D01*
X73190335Y-71638628D02*
X73142716Y-71733866D01*
X73142716Y-71733866D02*
X73142716Y-71924342D01*
X73142716Y-71924342D02*
X73190335Y-72019580D01*
X73190335Y-72019580D02*
X73237954Y-72067200D01*
X73237954Y-72067200D02*
X73333192Y-72114819D01*
X73333192Y-72114819D02*
X73523668Y-72114819D01*
X73523668Y-72114819D02*
X73618906Y-72067200D01*
X73618906Y-72067200D02*
X73666525Y-72019580D01*
X73666525Y-72019580D02*
X73714144Y-71924342D01*
X73714144Y-71924342D02*
X73714144Y-71733866D01*
X73714144Y-71733866D02*
X73666525Y-71638628D01*
X73666525Y-71638628D02*
X73618906Y-71591009D01*
X73618906Y-71591009D02*
X73523668Y-71543390D01*
X118411905Y-103754819D02*
X118411905Y-104564342D01*
X118411905Y-104564342D02*
X118459524Y-104659580D01*
X118459524Y-104659580D02*
X118507143Y-104707200D01*
X118507143Y-104707200D02*
X118602381Y-104754819D01*
X118602381Y-104754819D02*
X118792857Y-104754819D01*
X118792857Y-104754819D02*
X118888095Y-104707200D01*
X118888095Y-104707200D02*
X118935714Y-104659580D01*
X118935714Y-104659580D02*
X118983333Y-104564342D01*
X118983333Y-104564342D02*
X118983333Y-103754819D01*
X119983333Y-104754819D02*
X119411905Y-104754819D01*
X119697619Y-104754819D02*
X119697619Y-103754819D01*
X119697619Y-103754819D02*
X119602381Y-103897676D01*
X119602381Y-103897676D02*
X119507143Y-103992914D01*
X119507143Y-103992914D02*
X119411905Y-104040533D01*
X120935714Y-104754819D02*
X120364286Y-104754819D01*
X120650000Y-104754819D02*
X120650000Y-103754819D01*
X120650000Y-103754819D02*
X120554762Y-103897676D01*
X120554762Y-103897676D02*
X120459524Y-103992914D01*
X120459524Y-103992914D02*
X120364286Y-104040533D01*
X126454819Y-64366666D02*
X125978628Y-64699999D01*
X126454819Y-64938094D02*
X125454819Y-64938094D01*
X125454819Y-64938094D02*
X125454819Y-64557142D01*
X125454819Y-64557142D02*
X125502438Y-64461904D01*
X125502438Y-64461904D02*
X125550057Y-64414285D01*
X125550057Y-64414285D02*
X125645295Y-64366666D01*
X125645295Y-64366666D02*
X125788152Y-64366666D01*
X125788152Y-64366666D02*
X125883390Y-64414285D01*
X125883390Y-64414285D02*
X125931009Y-64461904D01*
X125931009Y-64461904D02*
X125978628Y-64557142D01*
X125978628Y-64557142D02*
X125978628Y-64938094D01*
X125454819Y-64033332D02*
X125454819Y-63414285D01*
X125454819Y-63414285D02*
X125835771Y-63747618D01*
X125835771Y-63747618D02*
X125835771Y-63604761D01*
X125835771Y-63604761D02*
X125883390Y-63509523D01*
X125883390Y-63509523D02*
X125931009Y-63461904D01*
X125931009Y-63461904D02*
X126026247Y-63414285D01*
X126026247Y-63414285D02*
X126264342Y-63414285D01*
X126264342Y-63414285D02*
X126359580Y-63461904D01*
X126359580Y-63461904D02*
X126407200Y-63509523D01*
X126407200Y-63509523D02*
X126454819Y-63604761D01*
X126454819Y-63604761D02*
X126454819Y-63890475D01*
X126454819Y-63890475D02*
X126407200Y-63985713D01*
X126407200Y-63985713D02*
X126359580Y-64033332D01*
%TO.C,J2*%
X74225000Y-58825000D02*
X88575000Y-58825000D01*
X92475000Y-58825000D02*
X106825000Y-58825000D01*
D14*
X70145000Y-57805000D02*
X70145000Y-56475000D01*
X71475000Y-57805000D02*
X70145000Y-57805000D01*
X72745000Y-57805000D02*
X113445000Y-57805000D01*
X72745000Y-57805000D02*
X72745000Y-55205000D01*
X113445000Y-57805000D02*
X113445000Y-52605000D01*
X70145000Y-55205000D02*
X70145000Y-52605000D01*
X72745000Y-55205000D02*
X70145000Y-55205000D01*
X70145000Y-52605000D02*
X113445000Y-52605000D01*
D12*
X74275000Y-51575000D02*
X88625000Y-51575000D01*
X92525000Y-51575000D02*
X106875000Y-51575000D01*
D14*
%TO.C,P2*%
X62500000Y-73275000D02*
X121040000Y-73275000D01*
X62500000Y-75875000D02*
X62500000Y-73275000D01*
X62500000Y-78475000D02*
X62500000Y-77145000D01*
X63830000Y-78475000D02*
X62500000Y-78475000D01*
X65100000Y-75875000D02*
X62500000Y-75875000D01*
X65100000Y-78475000D02*
X65100000Y-75875000D01*
X65100000Y-78475000D02*
X121040000Y-78475000D01*
X121040000Y-78475000D02*
X121040000Y-73275000D01*
%TO.C,P1*%
X62500000Y-121535000D02*
X121040000Y-121535000D01*
X62500000Y-124135000D02*
X62500000Y-121535000D01*
X62500000Y-126735000D02*
X62500000Y-125405000D01*
X63830000Y-126735000D02*
X62500000Y-126735000D01*
X65100000Y-124135000D02*
X62500000Y-124135000D01*
X65100000Y-126735000D02*
X65100000Y-124135000D01*
X65100000Y-126735000D02*
X121040000Y-126735000D01*
X121040000Y-126735000D02*
X121040000Y-121535000D01*
%TO.C,C12*%
X121915835Y-108360000D02*
X121684165Y-108360000D01*
X121915835Y-107640000D02*
X121684165Y-107640000D01*
D15*
%TO.C,J9*%
X76531000Y-83767500D02*
G75*
G02*
X75769000Y-83767500I-381000J0D01*
G01*
X75769000Y-83767500D02*
G75*
G02*
X76531000Y-83767500I381000J0D01*
G01*
D10*
X80400000Y-84367500D02*
X110400000Y-84367500D01*
X110400000Y-114367500D01*
X80400000Y-114367500D01*
X80400000Y-84367500D01*
D16*
X74900000Y-92841230D02*
X74900000Y-90293770D01*
X74900000Y-87489290D02*
X74900000Y-84941830D01*
X74900000Y-84941830D02*
X74046740Y-84941830D01*
X74046740Y-92841230D02*
X74900000Y-92841230D01*
X70937600Y-87154170D02*
X70937600Y-90628890D01*
D10*
%TO.C,U10*%
X116349999Y-94800000D02*
X120550001Y-94800000D01*
X118749999Y-99800000D02*
X120550001Y-99800000D01*
D16*
%TO.C,U1*%
X66441200Y-132798497D02*
X66441200Y-134977103D01*
X76448800Y-134977103D02*
X76448800Y-132798497D01*
X66441200Y-133583000D02*
G75*
G02*
X66441200Y-134192600I0J-304800D01*
G01*
D17*
G36*
X74810500Y-130179400D02*
G01*
X74429500Y-130179400D01*
X74429500Y-129925400D01*
X74810500Y-129925400D01*
X74810500Y-130179400D01*
G37*
D14*
%TO.C,C6*%
X97044265Y-70140000D02*
X96812595Y-70140000D01*
X97044265Y-70860000D02*
X96812595Y-70860000D01*
%TO.C,R2*%
X124420000Y-66632379D02*
X124420000Y-66967621D01*
X125180000Y-66632379D02*
X125180000Y-66967621D01*
D16*
%TO.C,U6*%
X91924630Y-64910697D02*
X91924630Y-67089303D01*
X101932230Y-67089303D02*
X101932230Y-64910697D01*
X101932230Y-66304800D02*
G75*
G02*
X101932230Y-65695200I0J304800D01*
G01*
D17*
G36*
X93943930Y-69962400D02*
G01*
X93562930Y-69962400D01*
X93562930Y-69708400D01*
X93943930Y-69708400D01*
X93943930Y-69962400D01*
G37*
D14*
%TO.C,C11*%
X121915835Y-101360000D02*
X121684165Y-101360000D01*
X121915835Y-100640000D02*
X121684165Y-100640000D01*
D16*
%TO.C,U3*%
X90441200Y-132798497D02*
X90441200Y-134977103D01*
X100448800Y-134977103D02*
X100448800Y-132798497D01*
X90441200Y-133583000D02*
G75*
G02*
X90441200Y-134192600I0J-304800D01*
G01*
D17*
G36*
X98810500Y-130179400D02*
G01*
X98429500Y-130179400D01*
X98429500Y-129925400D01*
X98810500Y-129925400D01*
X98810500Y-130179400D01*
G37*
D10*
%TO.C,U9*%
X116349999Y-87725000D02*
X120550001Y-87725000D01*
X118749999Y-92725000D02*
X120550001Y-92725000D01*
D14*
%TO.C,C1*%
X71329165Y-129027800D02*
X71560835Y-129027800D01*
X71329165Y-129747800D02*
X71560835Y-129747800D01*
%TO.C,J1*%
X69470000Y-142130000D02*
X112770000Y-142130000D01*
X69470000Y-144730000D02*
X69470000Y-142130000D01*
X69470000Y-147330000D02*
X69470000Y-146000000D01*
X70800000Y-147330000D02*
X69470000Y-147330000D01*
X72070000Y-144730000D02*
X69470000Y-144730000D01*
X72070000Y-147330000D02*
X72070000Y-144730000D01*
X72070000Y-147330000D02*
X112770000Y-147330000D01*
D12*
X73550000Y-148350000D02*
X87900000Y-148350000D01*
X73600000Y-141100000D02*
X87950000Y-141100000D01*
X91800000Y-148350000D02*
X106150000Y-148350000D01*
X91850000Y-141100000D02*
X106200000Y-141100000D01*
D14*
X112770000Y-147330000D02*
X112770000Y-142130000D01*
%TO.C,C10*%
X121915835Y-94360000D02*
X121684165Y-94360000D01*
X121915835Y-93640000D02*
X121684165Y-93640000D01*
D16*
%TO.C,U2*%
X78441200Y-132798497D02*
X78441200Y-134977103D01*
X88448800Y-134977103D02*
X88448800Y-132798497D01*
X78441200Y-133583000D02*
G75*
G02*
X78441200Y-134192600I0J-304800D01*
G01*
D17*
G36*
X86810500Y-130179400D02*
G01*
X86429500Y-130179400D01*
X86429500Y-129925400D01*
X86810500Y-129925400D01*
X86810500Y-130179400D01*
G37*
D14*
%TO.C,R4*%
X124420000Y-61967621D02*
X124420000Y-61632379D01*
X125180000Y-61967621D02*
X125180000Y-61632379D01*
D16*
%TO.C,U7*%
X79924630Y-64910697D02*
X79924630Y-67089303D01*
X89932230Y-67089303D02*
X89932230Y-64910697D01*
X89932230Y-66304800D02*
G75*
G02*
X89932230Y-65695200I0J304800D01*
G01*
D17*
G36*
X81943930Y-69962400D02*
G01*
X81562930Y-69962400D01*
X81562930Y-69708400D01*
X81943930Y-69708400D01*
X81943930Y-69962400D01*
G37*
D14*
%TO.C,R1*%
X124420000Y-69567621D02*
X124420000Y-69232379D01*
X125180000Y-69567621D02*
X125180000Y-69232379D01*
%TO.C,C3*%
X95329165Y-129027800D02*
X95560835Y-129027800D01*
X95329165Y-129747800D02*
X95560835Y-129747800D01*
D16*
%TO.C,U5*%
X103924630Y-64910697D02*
X103924630Y-67089303D01*
X113932230Y-67089303D02*
X113932230Y-64910697D01*
X113932230Y-66304800D02*
G75*
G02*
X113932230Y-65695200I0J304800D01*
G01*
D17*
G36*
X105943930Y-69962400D02*
G01*
X105562930Y-69962400D01*
X105562930Y-69708400D01*
X105943930Y-69708400D01*
X105943930Y-69962400D01*
G37*
D14*
%TO.C,C7*%
X85044265Y-70140000D02*
X84812595Y-70140000D01*
X85044265Y-70860000D02*
X84812595Y-70860000D01*
D16*
%TO.C,J7*%
X120167800Y-51167800D02*
X120167800Y-58432200D01*
X120167800Y-58432200D02*
X127432200Y-58432200D01*
X120269400Y-40677600D02*
X120269400Y-51421800D01*
X120269400Y-51421800D02*
X120595990Y-51421800D01*
X121924010Y-51421800D02*
X125675990Y-51421800D01*
X127004010Y-51421800D02*
X127330600Y-51421800D01*
X127330600Y-40677600D02*
X120269400Y-40677600D01*
X127330600Y-51421800D02*
X127330600Y-40677600D01*
X127432200Y-51167800D02*
X120167800Y-51167800D01*
X127432200Y-58432200D02*
X127432200Y-51167800D01*
D10*
%TO.C,U12*%
X116349999Y-108800000D02*
X120550001Y-108800000D01*
X118749999Y-113800000D02*
X120550001Y-113800000D01*
D16*
%TO.C,J6*%
X130767800Y-51367800D02*
X130767800Y-58632200D01*
X130767800Y-58632200D02*
X138032200Y-58632200D01*
X137778200Y-51469400D02*
X137778200Y-51795990D01*
X137778200Y-53124010D02*
X137778200Y-56875990D01*
X137778200Y-58204010D02*
X137778200Y-58530600D01*
X137778200Y-58530600D02*
X148522400Y-58530600D01*
X138032200Y-51367800D02*
X130767800Y-51367800D01*
X138032200Y-58632200D02*
X138032200Y-51367800D01*
X148522400Y-51469400D02*
X137778200Y-51469400D01*
X148522400Y-58530600D02*
X148522400Y-51469400D01*
%TO.C,U8*%
X67924630Y-64910697D02*
X67924630Y-67089303D01*
X77932230Y-67089303D02*
X77932230Y-64910697D01*
X77932230Y-66304800D02*
G75*
G02*
X77932230Y-65695200I0J304800D01*
G01*
D17*
G36*
X69943930Y-69962400D02*
G01*
X69562930Y-69962400D01*
X69562930Y-69708400D01*
X69943930Y-69708400D01*
X69943930Y-69962400D01*
G37*
D14*
%TO.C,C2*%
X83329165Y-129027800D02*
X83560835Y-129027800D01*
X83329165Y-129747800D02*
X83560835Y-129747800D01*
%TO.C,C5*%
X109044265Y-70140000D02*
X108812595Y-70140000D01*
X109044265Y-70860000D02*
X108812595Y-70860000D01*
%TO.C,C17*%
X115640000Y-65715835D02*
X115640000Y-65484165D01*
X116360000Y-65715835D02*
X116360000Y-65484165D01*
%TO.C,C4*%
X107329165Y-129027800D02*
X107560835Y-129027800D01*
X107329165Y-129747800D02*
X107560835Y-129747800D01*
D16*
%TO.C,J5*%
X130767800Y-61367800D02*
X130767800Y-68632200D01*
X130767800Y-68632200D02*
X138032200Y-68632200D01*
X137778200Y-61469400D02*
X137778200Y-61795990D01*
X137778200Y-63124010D02*
X137778200Y-66875990D01*
X137778200Y-68204010D02*
X137778200Y-68530600D01*
X137778200Y-68530600D02*
X148522400Y-68530600D01*
X138032200Y-61367800D02*
X130767800Y-61367800D01*
X138032200Y-68632200D02*
X138032200Y-61367800D01*
X148522400Y-61469400D02*
X137778200Y-61469400D01*
X148522400Y-68530600D02*
X148522400Y-61469400D01*
D18*
%TO.C,J3*%
X140495000Y-115950000D02*
X137385000Y-115950000D01*
X140495000Y-84450000D02*
X140495000Y-115950000D01*
X137385000Y-84450000D02*
X140495000Y-84450000D01*
X133445000Y-115950000D02*
X125505000Y-115950000D01*
X125505000Y-115950000D02*
X125505000Y-84450000D01*
X125505000Y-84450000D02*
X133445000Y-84450000D01*
D14*
%TO.C,J8*%
X87900000Y-78355000D02*
X87900000Y-81015000D01*
X100660000Y-78355000D02*
X87900000Y-78355000D01*
X100660000Y-78355000D02*
X100660000Y-81015000D01*
X100660000Y-81015000D02*
X87900000Y-81015000D01*
X103260000Y-79685000D02*
X103260000Y-81015000D01*
X103260000Y-81015000D02*
X101930000Y-81015000D01*
D16*
%TO.C,J4*%
X130767800Y-71367800D02*
X130767800Y-78632200D01*
X130767800Y-78632200D02*
X138032200Y-78632200D01*
X137778200Y-71469400D02*
X137778200Y-71795990D01*
X137778200Y-73124010D02*
X137778200Y-76875990D01*
X137778200Y-78204010D02*
X137778200Y-78530600D01*
X137778200Y-78530600D02*
X148522400Y-78530600D01*
X138032200Y-71367800D02*
X130767800Y-71367800D01*
X138032200Y-78632200D02*
X138032200Y-71367800D01*
X148522400Y-71469400D02*
X137778200Y-71469400D01*
X148522400Y-78530600D02*
X148522400Y-71469400D01*
%TO.C,U13*%
X119310697Y-70603800D02*
X121489303Y-70603800D01*
X121489303Y-60596200D02*
X119310697Y-60596200D01*
X120095200Y-70603800D02*
G75*
G02*
X120704800Y-70603800I304800J0D01*
G01*
D17*
G36*
X116691600Y-62615500D02*
G01*
X116437600Y-62615500D01*
X116437600Y-62234500D01*
X116691600Y-62234500D01*
X116691600Y-62615500D01*
G37*
D14*
%TO.C,C9*%
X121915835Y-87360000D02*
X121684165Y-87360000D01*
X121915835Y-86640000D02*
X121684165Y-86640000D01*
D16*
%TO.C,U4*%
X102441200Y-132798497D02*
X102441200Y-134977103D01*
X112448800Y-134977103D02*
X112448800Y-132798497D01*
X102441200Y-133583000D02*
G75*
G02*
X102441200Y-134192600I0J-304800D01*
G01*
D17*
G36*
X110810500Y-130179400D02*
G01*
X110429500Y-130179400D01*
X110429500Y-129925400D01*
X110810500Y-129925400D01*
X110810500Y-130179400D01*
G37*
D14*
%TO.C,C8*%
X73044265Y-70140000D02*
X72812595Y-70140000D01*
X73044265Y-70860000D02*
X72812595Y-70860000D01*
D10*
%TO.C,U11*%
X116349999Y-101800000D02*
X120550001Y-101800000D01*
X118749999Y-106800000D02*
X120550001Y-106800000D01*
D14*
%TO.C,R3*%
X124420000Y-64032379D02*
X124420000Y-64367621D01*
X125180000Y-64032379D02*
X125180000Y-64367621D01*
%TD*%
M02*
